<svg width="211" height="34" viewBox="0 0 211 34" fill="none" xmlns="http://www.w3.org/2000/svg">
<line x1="1.5" y1="-1.5" x2="9.5" y2="-1.5" transform="matrix(4.37114e-08 1 1 -4.37114e-08 162.579 12)" stroke="#EBF190" stroke-width="3" stroke-linecap="round"/>
<line x1="1.5" y1="-1.5" x2="2.5" y2="-1.5" transform="matrix(-4.37114e-08 1 1 4.37114e-08 170.579 15)" stroke="#EBF190" stroke-width="3" stroke-linecap="round"/>
<line x1="1.5" y1="-1.5" x2="20.5" y2="-1.5" transform="matrix(-4.37114e-08 1 1 4.37114e-08 154.579 6)" stroke="#EBF190" stroke-width="3" stroke-linecap="round"/>
<line x1="1.5" y1="-1.5" x2="12.5" y2="-1.5" transform="matrix(-4.37114e-08 1 1 4.37114e-08 146.579 10)" stroke="#EBF190" stroke-width="3" stroke-linecap="round"/>
<line x1="1.5" y1="-1.5" x2="4.5" y2="-1.5" transform="matrix(-4.37114e-08 1 1 4.37114e-08 138.579 14)" stroke="#EBF190" stroke-width="3" stroke-linecap="round"/>
<line x1="1.5" y1="-1.5" x2="12.5" y2="-1.5" transform="matrix(-4.37114e-08 1 1 4.37114e-08 130.579 10)" stroke="#EBF190" stroke-width="3" stroke-linecap="round"/>
<line x1="1.5" y1="-1.5" x2="16.5" y2="-1.5" transform="matrix(-4.37114e-08 1 1 4.37114e-08 122.579 8)" stroke="#EBF190" stroke-width="3" stroke-linecap="round"/>
<line x1="1.5" y1="-1.5" x2="8.5" y2="-1.5" transform="matrix(-4.37114e-08 1 1 4.37114e-08 114.579 12)" stroke="#EBF190" stroke-width="3" stroke-linecap="round"/>
<line x1="1.5" y1="-1.5" x2="12.5" y2="-1.5" transform="matrix(-4.37114e-08 1 1 4.37114e-08 211 10)" stroke="#EBF190" stroke-width="3" stroke-linecap="round"/>
<line x1="1.5" y1="-1.5" x2="4.5" y2="-1.5" transform="matrix(-4.37114e-08 1 1 4.37114e-08 203 14)" stroke="#EBF190" stroke-width="3" stroke-linecap="round"/>
<line x1="1.5" y1="-1.5" x2="12.5" y2="-1.5" transform="matrix(-4.37114e-08 1 1 4.37114e-08 195 10)" stroke="#EBF190" stroke-width="3" stroke-linecap="round"/>
<line x1="1.5" y1="-1.5" x2="16.5" y2="-1.5" transform="matrix(-4.37114e-08 1 1 4.37114e-08 187 8)" stroke="#EBF190" stroke-width="3" stroke-linecap="round"/>
<line x1="1.5" y1="-1.5" x2="8.5" y2="-1.5" transform="matrix(-4.37114e-08 1 1 4.37114e-08 179 12)" stroke="#EBF190" stroke-width="3" stroke-linecap="round"/>
<line x1="1.5" y1="-1.5" x2="28.5" y2="-1.5" transform="matrix(-4.37114e-08 1 1 4.37114e-08 106.579 2)" stroke="#EBF190" stroke-width="3" stroke-linecap="round"/>
<line x1="1.5" y1="-1.5" x2="20.5" y2="-1.5" transform="matrix(-4.37114e-08 1 1 4.37114e-08 98.5789 6)" stroke="#EBF190" stroke-width="3" stroke-linecap="round"/>
<line x1="1.5" y1="-1.5" x2="32.5" y2="-1.5" transform="matrix(-4.37114e-08 1 1 4.37114e-08 90.5789 0)" stroke="#F4B4D4" stroke-width="3" stroke-linecap="round"/>
<line x1="10.0789" y1="13.5" x2="10.0789" y2="21.5" stroke="#F4B4D4" stroke-width="3" stroke-linecap="round"/>
<line x1="2.07886" y1="16.5" x2="2.07886" y2="17.5" stroke="#F4B4D4" stroke-width="3" stroke-linecap="round"/>
<line x1="18.0789" y1="7.5" x2="18.0789" y2="26.5" stroke="#F4B4D4" stroke-width="3" stroke-linecap="round"/>
<line x1="26.0789" y1="11.5" x2="26.0789" y2="22.5" stroke="#F4B4D4" stroke-width="3" stroke-linecap="round"/>
<line x1="34.0789" y1="15.5" x2="34.0789" y2="18.5" stroke="#F4B4D4" stroke-width="3" stroke-linecap="round"/>
<line x1="42.0789" y1="11.5" x2="42.0789" y2="22.5" stroke="#F4B4D4" stroke-width="3" stroke-linecap="round"/>
<line x1="50.0789" y1="9.5" x2="50.0789" y2="24.5" stroke="#F4B4D4" stroke-width="3" stroke-linecap="round"/>
<line x1="58.0789" y1="13.5" x2="58.0789" y2="20.5" stroke="#F4B4D4" stroke-width="3" stroke-linecap="round"/>
<line x1="66.0789" y1="3.5" x2="66.0789" y2="30.5" stroke="#F4B4D4" stroke-width="3" stroke-linecap="round"/>
<line x1="74.0789" y1="7.5" x2="74.0789" y2="26.5" stroke="#F4B4D4" stroke-width="3" stroke-linecap="round"/>
<line x1="82.0789" y1="1.5" x2="82.0789" y2="32.5" stroke="#F4B4D4" stroke-width="3" stroke-linecap="round"/>
</svg>
