<svg id="Слой_1" data-name="Слой 1" xmlns="http://www.w3.org/2000/svg" viewBox="0 0 1920 1080"><defs><style>.cls-1{fill:#f2f2f2;}.cls-2{fill:#da49e2;}</style></defs><g id="sFFT8b.tif"><path class="cls-1" d="M521.69,23.09c20.48-7.92,39.73-4.2,58.82,5.21,10.61,5.24,22.19,8.41,32.86,13.43,12.69,6,16.7,18.86,8.42,27.14a19.43,19.43,0,0,1-14,5c-16-1.84-31.77-5.17-47.69-7.66-5.43-.88-12.74-5-15.59,2.42-3.43,8.9,5.34,10.78,11.06,12.43,10.71,3.23,11.36,11.8,12.94,20.22,2.78,15.17,12.94,23.45,27.79,22.64,11.52-.74,13.46-4.33,8.51-15.53-.62-1.39-1.1-2.84-2.1-5.56l28.27-1.59c3-7.5-7.15-13.42,0-20.44,5.31-5.18,10-8.8,18.18-7.48,12.2,2,15.27-2.45,10.74-14.33a108.93,108.93,0,0,0-6.76-12.94,46.63,46.63,0,0,1-3.72-7.15c-1.52-4.82-5.24-12-3.24-14.26,5.83-7,13.75-2.49,20.84-.2s8.86,7.48,7.54,14c-1.17,5.6-2.92,11.1-4.44,16.79,19.9,2.27,20.13,1.81,23.85-14.56a19.16,19.16,0,0,1,7.66-11c12.33-7.63,25.2-14.43,38.08-21.19,2.55-1.36,7.7-2.55,8.67-1.36,7.63,9.35,15.66,4,23.36,1,12.58-4.92,27.72-6.08,33-22.65.61-1.84,7.76-2.94,11.42-2.16C835.94-12.43,857-12,874.38.93c.58.46,2-.19,3.68-.42,1.23-13.13-.93-23.39-15.52-29.31-11.68-4.75-15.44-29.79-6.47-39,4.62-4.86,5.95-8.32,3.78-15.27-3.88-12.49.61-16.53,14.07-15.24,16.5,1.59,20,4.24,21.58,20,2,19.6,6.7,37.46,20.41,52.92,10.65,12,5.66,35.59-7.53,45.3-2.17,1.61-5.28,2.78-6.28,4.91A16.14,16.14,0,0,0,900.61,35a9.12,9.12,0,0,0,7.25,4.66,136.06,136.06,0,0,0,23.94-3.24,9.5,9.5,0,0,0,6-6.47c1.07-12.65,7-24.78,2.46-38-3.56-10.19,0-12.94,11.19-11.48a46.25,46.25,0,0,0,10-.85c-.42-4.14.45-9.18-1.62-12.16a14.53,14.53,0,0,0-10.71-4.79c-6.05,0-14.33,5-17.56,2.53-4.76-3.63-6.28-11.88-8.51-18.38q-7.77-22.93-14.82-46.1a143.5,143.5,0,0,1-2.91-14.81l3.88-2c4.4,5,9,9.7,13.11,14.91,4.78,6,9.7,8.77,15.85,2.07,5.59-6.14,11.84-6.21,19-2.91a111.12,111.12,0,0,0,12.14,4.37c15.88,5.47,17.95,4.76,30.24-10.93-7-3.24-13.71-6.25-20.41-9.35-11.71-5.41-16.17-15.27-8.7-25.88,12.45-18.06,23.71-36.95,41.7-51a555.89,555.89,0,0,1,89-57.19c7-3.53,14.84-6,8.37-17.86-2-3.62,4.92-12.94,9.26-18.44.8-1.07,10.22,2.14,12.94,5.57,8.73,10.61,18.4,11.48,30,6.11,3.88-1.78,8.47-2.17,12.19-4.17,15-8.06,29.31-3,43.61,1.81a12.69,12.69,0,0,1,6.86,5.95c4.69,10.45,0,28.47-9.16,36.56q-18.75,16.59-37.78,32.9c-4.79,4.11-8.06,8.63-6.47,15.33,1,4.82,1.81,10.19,8.31,10,5.76-.16,11.75.29,14.27-7.48q10.38-31.92,44.09-36.39a356,356,0,0,0,39.7-6.83c8.86-2.19,15.23-1,21.8,5.47,8.51,8.35,20.61,7.93,27.53-1.29,2.56-3.43,2-9.93,1.46-14.88-1.46-12.94-1-14.11,12.16-13.82,13.81.33,27.59,1.65,43.28,2.69-2.55,6.47-3.88,10.35-5.59,14.07-5.73,12.75-5.76,13.2,7.31,15.88,13.68,2.82,27.56,4.73,41.28,7.45,8.47,1.71,11.45-2,9.7-9.48-2.26-8.83,1.14-11.23,9.42-11.94,15.52-1.36,31-3.62,46.42-5.86,10.84-1.55,14.59-10.41,8.77-19.7-7.22-11.51-3.76-21.8,9.28-24.78A440.05,440.05,0,0,1,1564-295.23c10.91-1.1,22.39,1.65,33.39,3.69,13.75,2.52,27.4,5.69,40.89,9.31,7.7,2.07,14,1.23,18.5-5.43,14.92-22.36,37.43-13.72,57.49-13.62,3.23,0,7.25,6.92,9.71,11.29,7,11.94,6.85,12.19,20.12,7.21,14.1-5.34,28.34-10.38,42.05-16.66,10.1-4.66,19.12-5.4,29.12,0a104.22,104.22,0,0,0,16.17,6c6.18-19.41,6.18-19.41-13.65-33.42,5.63-3.24,10-7.12,15-8.09,24.23-4.72,48.52-9,73.08-12.55a45.66,45.66,0,0,1,18.83,2.91c12.94,3.88,25.49,8.61,38.23,12.94,18.18,6.21,37.88,9.71,48.88,31.61a121.06,121.06,0,0,0,9.09-13.49c3.4-7.09,8.12-9.71,15.6-6.47,2,.84,4.14,1.19,6.11,2,7.86,3.23,15.69,6.69,23.52,10-3.69,6.83-6.89,14-11.23,20.38a9.46,9.46,0,0,0,.69,13.35,10,10,0,0,0,1,.76c1.59,1.49,3,3,4.53,4.62,3.63,3.89,7.9,7.09,5.34,13.85-3,7.89-9.32,6-14.91,6-17.63,0-34-5.59-49.63-12.94-4.53-2.13-7.89-7-11.55-10.83-2.91-3.05-5.24-7.93-10.32-4.14-4.2,3.23-9.09,6.47-6.47,13.23a96.62,96.62,0,0,0,5.63,13.36c4.18,7.5,3.76,13.52-2.2,20.38-7.92,9.12-7.5,9.7,1.94,17.69,11,9.19,21,20.16,36.53,22.65a12.23,12.23,0,0,1,7.57,8.09c1.32,6.05-3.79,6.05-8.38,6.47a31.83,31.83,0,0,0-26.72,18.14,334.58,334.58,0,0,0-16.57,33A323.42,323.42,0,0,0,1962-89.58a133.73,133.73,0,0,0-20.51.32,11.32,11.32,0,0,0-8,6.47c-1.81,11.06-10.13,12.65-18.57,14.88-18.47,4.92-18.54,5-16.89,24.2.52,5.89,1.88,11.71,2.2,17.6.55,9.28.91,15.56,13.23,19.67,9.29,3.23,15,17.08,22.1,26.39a4.78,4.78,0,0,1-.88,4.44c-9.41,9.12-3.49,17.66.68,26.33,2.88,6,5.11,11.29-1,17.5a24.28,24.28,0,0,0-5.11,14.49c-1.16,16.18-1.26,32.35-2.23,48.53a37.24,37.24,0,0,1-3.75,9.87c-3-1.78-7-2.82-8.83-5.41-18.25-25.88-36.14-52.27-54.09-78.48a8.88,8.88,0,0,1-2.14-4.27c.78-19.67-5.21-39.69,2.1-59,6.86-18.08,14.21-36,21.74-53.86a57.42,57.42,0,0,0,4.86-31.38,121.6,121.6,0,0,1,0-24.13c.25-4.44,4.52-9.38-3.24-11.65-8.41-2.49-17.24,0-19,6.47-1.13,4.3-1.68,10.16.36,13.68,6,10.45,2.13,18.54-4,26.6-6.47,8.54-15.3,7.5-19.73-2.49-1.94-4.4-2.43-9.52-4.72-13.66-.94-1.68-6.47-3-7.31-2.1-6.12,6.47-13.3,12.94-16.79,20.83-5,11.2-6.8,23.72-10.39,35.59-2.13,7.08-.45,11.35,7,13.1,3.24.71,7.25,1.23,8.77,3.24a13.82,13.82,0,0,1,0,8.76c-11.29.88-15.66,10.71-22.87,16.79a34.78,34.78,0,0,1-7.93,3.72c-.58-2.42-2.23-5.2-1.55-7.24,2.36-7.38-1.88-9-7.38-8.51-7.34.71-16.17.32-21.61,4.14-17.3,12-36.88,17.44-56.51,23-10.1,2.85-15.43,7.37-16.18,18.6-1.13,15.53-4.24,30.86-6.47,46.29a137.63,137.63,0,0,1-12.94,43c-5.08,10-4.3,10.7,6.25,15.2,5.46,2.33,11,4.34,16.56,6.47s8.8,3.79,12.94-3.53c4.79-8.6,10.58-7.5,18-.22,24.2,23.65,36.75,54,48.85,84.56a35.92,35.92,0,0,1,1.36,12.71c0,12.4-.62,24.79-.2,37.18.91,26.72-10.32,50.3-18.73,74.63-3.43,9.86-12.49,10.7-20.09,8.18s-12.94-1.55-17.31,3.92l-11.16-26.56c-3.62-8.64-1.55-14.37,7.8-16.6,6.83-1.62,9-5.21,8.73-11.19q-1.07-27.41-2.49-54.84c-.26-4.65-2.78-7.53-7.34-4.72-5.37,3.24-12.49,6.47-14.69,11.74-4.53,10.62-12.71,11.07-19.6,7.22-22.65-12.94-48.72-21.13-64.7-43.9-3.24-4.4-7.9-7.76-10.23-12.42-13.1-25.88-36.36-25-59.81-22.87-16,1.48-21.9,12.19-15.14,26.91,4.75,10.38,9,20.38,6.08,32.35-2.68,11.16-5.56,15.24-17,15.08a263.29,263.29,0,0,1-32.09-3,22.33,22.33,0,0,0-21.68,7.31c-6.63,7.41-12.39,16.66-25,14.94-9.32-1.26-17.92-1.65-27.3-6.24-8.64-4.2-21.58.16-32.58,1.2-2.46.22-4.63,2.78-7.12,3.62-9,3-15.36,1-20.18-7.5-10-17.6-29.12-16-44.65-21.58a147.57,147.57,0,0,0-14.49,18.37c-1,1.75,3.24,6.73,5.31,10a25.55,25.55,0,0,0,4.43,4.2c-7.6,14.92-18.31,16.63-32.74,11.2-7.57-2.85-14.85-6.47-22.29-9.45-12.45-5.11-12.52-5.11-21.12,6.21-4.21,5.6-8.06,11.45-12.43,16.92-2.29,2.85-5.24,7.12-8.08,7.28-15.47.91-31.87,2.46-44.39-8.7-8.12-7.25-15.62-10.22-26.14-7.6-5.63,1.42-11.77.77-17.66,1.45a21.73,21.73,0,0,1-18.76-7.15c-13.11-12.94-26.76-25-39.76-37.94-6.47-6.47-12.52-9.06-18.77-1-7.66,9.89-15.94,8.31-25.52,3.42s-19.9-8.34-29.12-13.52a27.19,27.19,0,0,0-28.75,0c-17,9.22-34.78,17.08-52.09,25.88-13.84,6.93-19.41,29.44-11.06,42.67,8,12.36,7.6,11.81-4.76,19.67-15.75,10-32.06,6.47-48.52,3.69a8.36,8.36,0,0,1-5.24-3.24c-5.28-9-14.37-7.73-22.65-9.47-21.77-4.5-37.33,7.53-52.44,19.41-10.67,8.47-9.09,34.71,1.36,43.31,1.68,1.39,3.46,2.59,5.18,3.88,15.69,11.88,15.69,11.88,4.59,27.73-7.8,11.06-5.18,14.14.62,28.14,5.24,12.62,7.37,26.27,18.5,35.59-1.42,1.65-3,4.85-4.24,4.69a46.77,46.77,0,0,1-10.71-3.24c-19.15-7.18-38.2-14.62-57.48-21.38-4.76-1.68-11.29-3.23-15.3-1.23-15.34,7.47-27.44-1.42-39.15-7.63-10.84-5.73-10.67-19.41-2.26-30.83s18.08-21.19,23.65-33.39c4.17-9.09,3-20.77,3.23-31.31,0-1.65-5.5-4.31-8.73-4.89a149.12,149.12,0,0,0-25.63-3,22.67,22.67,0,0,1-20-10.84c-13.16-18.73-13.49-18.51-35.39-23.94a50,50,0,0,0-37.75-49c-8.61-2.07-11.55-5.44-14.46-13.78-3.69-10.52-9.9-19.83-8.87-31.87.55-6.47,1.33-11.42,7.64-14.55,5.34-2.69,9.32-6.25,2.81-12-5-4.5-4-9.48-.87-14.56a32.36,32.36,0,0,1,3.4-5.46c18-18.31,16.17-37.5,3.88-58.23a139.8,139.8,0,0,1-12.62-29.67A113.9,113.9,0,0,1,532,59.13c-.45-6.47.33-12.29-6.47-16.79s-5.33-12.1-3.68-19.05Z"/><path class="cls-1" d="M1663.72,588.54c12.94,1.72,15.17,9.71,14.65,19.93-1.36,26.2-6.18,51.11-24.19,71.65a76.18,76.18,0,0,0-7.22,8.71,79.25,79.25,0,0,1-48.52,34.58,34.57,34.57,0,0,0-22,15.14c-3.24,5.27-7.73,5.76-10.87-.68-4.3-8.87-11.42-9.19-19.06-5.82-7,3.23-11.87,1.87-16.91-3.92-7.61-8.73-14.17-19-28.7-17.66a69.56,69.56,0,0,0-40,18.79c-10.52,9.29-20.35,7.8-24.07-5.69a18.29,18.29,0,0,0-11.23-12.49c-14.17-6.76-16.69-14-11.26-28.27,2-5.34,5.83-12.29,4-16.4-3.79-8.61-10.39-16.18-16.53-23.46-4-4.69-9.55-8-13.82-12.48a16.79,16.79,0,0,0-21.74-3.24,147.42,147.42,0,0,0-17.69,11.32c-34.29,25.59-69.59,19.74-105.17,3.47a103.69,103.69,0,0,1-12.49-7.38c-7.93-5.14-15.82-8.35-25.88-5.24-8.61,2.68-16.69,0-24.36-5.21-6.47-4.3-10.42-9.28-9.32-17.18,2-14.59-4.14-25.88-13.36-36.46-8.8-10.15-16.69-21.12-24.88-31.8-5.27-6.85-10.28-13.62-19.76-15.56a14,14,0,0,1-7.83-7c-3.24-6.47-6.47-11.9-15.14-12.45-6.83-.42-7.41-5.92-4.92-10.74,3.79-7.25,8.12-14.3,18.7-10.77,7.15,2.39,12.16-1.14,16.18-7.09,8.57-12.39,17.34-24.65,26.56-36.59,5.17-6.69,5.72-12.78-.55-18.34-11.36-10.09-10.87-20.93-3.43-32.87a73.65,73.65,0,0,0,5.5-11.68c3.78-9.41,7.89-17.43,20.73-16.17,3.24.36,8.48-4.08,10.52-7.64,4-6.95,6-15,9.41-22.25,3.88-8.19,10-9,13.94-1.17,4.56,9,9.71,15.14,20,18.51,4.85,1.58,7.47,10,11.06,15.36a37.69,37.69,0,0,1,4.14,6.93c7.25,18.82,21.13,25.88,40.7,23.45a94.73,94.73,0,0,1,12.94.23,17.07,17.07,0,0,1,17.24,11.71c6.28,14.49,30.7,22.64,45,16.17a112.11,112.11,0,0,0,11.48-5.92,14,14,0,0,1,17.89,1c15.6,13.3,32.71,7.31,49,3a167.1,167.1,0,0,0,32.55-14.1,43.68,43.68,0,0,0,13.33-11.23c9.18-11.26,17.63-23.1,26.49-34.61,4.88-6.47,9.51-12.39,18.12-15.24,4.46-1.46,7.66-8.15,10.38-12.94,4.11-7.47,6.47-15.43,17.53-16.17,7.06-.55,7.87-10.2,1.07-14.53-8.93-5.73-18.08-12.2-29.79-5.53-5.11,2.88-11.45,5.69-14.27-3.24s.52-18.53,7.6-21.15,16.44-2.62,18-11.42a150,150,0,0,0,1.49-33.13c-.23-5-4.24-9.71-6-14.88-2.94-8.54,0-14,8.87-14.72a258.66,258.66,0,0,1,33.87.19,15.56,15.56,0,0,1,8,4.69,45.6,45.6,0,0,1,7.25,8.67c19.18,29.6,47.58,47.59,78.48,62.38a56.52,56.52,0,0,0,15.2,4.52c8.22,1.3,14.69-.74,17.34-10.12.81-2.88,4.6-4.92,7-7.34a35.55,35.55,0,0,1,3.75,9.7c.65,9.71.36,19.41.65,29.12.26,8,.23,15.26-10.64,16.33a8.57,8.57,0,0,0-5,6.67,143.53,143.53,0,0,0,3.24,21.83c.48,2.53,2.65,4.66,3.46,7.15,3.23,10.26-6.12,15.21-9.71,22.65s-1.55,16.63-14.39,18.37c-11.62,1.59-19.41,12.68-21,23.78-1.87,13.49-12.94,17.53-20.21,25.59-.62.68-6.47-1.39-7-2.95a88.76,88.76,0,0,1-.84-14.39c-.58-9.9-8.38-14.59-16.18-9-14.46,10.15-21.28,25.55-24.16,42.28-1.49,8.7,17.79,25.13,26.88,23.64a15.48,15.48,0,0,0,7.9-6.47,21.87,21.87,0,0,1,25-8c5.44,2.14,6.08,5.89,2.07,9.87-2.26,2.23-5.53,3.4-8,5.44-16.88,14.23-17.69,32.8-2.16,48.52,7.18,7.28,14.49,14.46,21.61,21.77C1673.46,564.12,1674.1,569.45,1663.72,588.54Z"/><path class="cls-1" d="M1184.68,322.85c-3.59,8.7-5.82,16.53-10,23.13a15.53,15.53,0,0,1-11.68,5.69c-8.54,0-12.68,3.79-15.65,11a202.9,202.9,0,0,1-11.59,24.88c-7.21,12.49-8.31,23.29,3.24,34.32,6.47,6.22,5.24,13-1.81,17.34a17.23,17.23,0,0,1-10.22,1.69c-15-1.69-29.86-3.89-44.81-5.76-3.23-.39-8.57-1.33-9.15,0-6.09,12.26-16.18,9.19-26.31,8.41-1.61-.16-3.81,1.68-5.11,3.23-4.75,5.47-8.89,11.49-13.91,16.73-11.68,12.2-28.82,11.68-37.56-3-10.48-17.69-22.64-27.2-44.15-21-9.71,2.81-18.28-1-25.88-8.9-12.49-12.94-34.49-14.82-50.76-7.34-8.8,4-10.68,9.7-8.35,18.08s5.6,16.34,7.38,24.72c.77,3.59-1.13,7.76-1.81,11.67-3.24-1.16-6.47-2.16-9.71-3.52s-6.47-4.53-9.7-4.6c-4.34,0-10.74,4.57-12.72,2.92A167.61,167.61,0,0,1,809,446.88c-6.47-8.35-3.95-15.85,5.63-20.8,3.88-2,8.57-2.27,8.28-8A206,206,0,0,0,821,395.77c-.26-1.49-4.3-3.24-6.67-3.24A80.46,80.46,0,0,0,800,393.89c-6.21,1-13.72,5.14-18.31,2.94a82.54,82.54,0,0,1-24.07-18.53c-6.82-7.31-2.39-26.95,5.7-33.1,13.29-10.06,27.36-16.53,44.8-13.78,6.66,1.07,12.62,1.49,16.63,7.8a11.42,11.42,0,0,0,6.08,4.92c25.88,5.33,50.21,3,71.56-14.43,4-3.24,3.49-6.15.81-9.71s-4.89-5.76-7.15-8.76c-9.29-12.33-6-28.12,7.5-35.07,16.79-8.61,33.94-16.44,50.63-25.17a23.33,23.33,0,0,1,23,.19c11.58,5.73,23.74,10.26,35.16,16.18,8.93,4.75,15.56,3.75,23.1-3.07,9.22-8.38,9.71-7.87,19.41,1.35,12.07,11.55,24.33,22.91,35.91,34.91a24.26,24.26,0,0,0,23.23,7.76,161.56,161.56,0,0,1,20.8-2.52c4.08,0,9.7,0,12,2.65C1156.4,319.23,1169.47,321.23,1184.68,322.85Z"/><path class="cls-1" d="M1072.39,730.14a88.52,88.52,0,0,1,8.77-2.49c5.63-.88,12.48.74,14.33-7.28s2.26-15-4.34-20.9a127.45,127.45,0,0,1-11.61-11.16c-4.88-5.63-3.23-11.19,4-10.68,15.27,1.1,20.55-8.34,25.59-19.7,5.44-12.29,11.65-24.23,17.5-36.33,7.77-16.17,8.84-15.36-4.88-26.65-7.73-6.47-7.47-6.7-8.44-20.13,9.44-1.19,18.89-2.78,28.43-3.55,7.38-.59,19.93,11.77,21.74,20.86a24.26,24.26,0,0,1,.39,8.06c-2.17,15.2,3.69,25.36,17.5,32.35,4.27,2.2,7.6,8.86,8.57,14,1.75,9,7.09,12.94,14.5,17.5,24.42,14.72,51.76,11.94,78.32,15.43,11.48,1.52,8.57-8.09,9.7-12.71,9.19,2.52,17.41,5.2,25.88,6.82,4,.78,9.71,1,12.46-1.16s2-7.54,2.87-11.52c1.59-7.57,34.62-30.89,42.06-28.76a13.53,13.53,0,0,1,8.51,8.15c1,5.83,1.58,15.63-1.52,17.54-15.82,9.7-14.53,24.91-16.18,39.85-1.07,10.45-1.58,21.64-9.9,29.12l-16.75-14.69a57.63,57.63,0,0,0,3.23-6.95c2.43-7.32-.42-11.3-8.05-12.1-9.06-1-18-1.52-25.08-9.06-2.75-2.91-10.12-6.08-11.64-4.76-5.15,4.37-9.71,10.48-5.7,18.31,2.85,5.79,6.22,11.39,8.51,17.37a83.9,83.9,0,0,1,4.24,17c.39,2.39-.32,6.79-1.71,7.37-11.42,4.69-12.3,14.79-14.59,24.78-1,4.27-5.34,7.93-8.58,11.45-15.27,16.7-30,33.84-46.26,49.56a35,35,0,0,0-10.74,32.1c3,21.9-1,42.76-8,63.34-.84,2.55-.94,6-2.68,7.44a48.9,48.9,0,0,1-15.6,9.93c-1.71.55-6.72-5.73-8.67-9.71-20.54-42-40.69-84.11-61.11-126.32A32.11,32.11,0,0,1,1126,774a33.79,33.79,0,0,0,2.71-15.69,13.68,13.68,0,0,0-6.82-9.7c-5.63-2.36-7.86,2.88-10.32,7.31-7.6,13.68-17.18,16.17-26.79,7.54-5.43-4.89-6.08-11.2-1.68-16.18,8.57-9.93,8.19-11-5-14.2A33.18,33.18,0,0,1,1072.39,730.14Z"/><path class="cls-1" d="M1544.74,304.7c-4.24,4.56-9.29,8.48-12.3,13.59-5.56,9.51-8.51,20.18-21.41,24-5.11,1.56-8.38,9.39-12.43,14.43a95.55,95.55,0,0,0-9.7,12.94c-12.75,23.29-34,34.94-57.91,43-15.75,5.34-31.57,8.12-45.81-3.82-8.44-7.12-15.81-3.72-23.51,1-8.93,5.4-17.7,9-28.83,4.63-8.86-3.5-16.85-6.25-19.41-16.79-1.75-7.25-7.34-9.71-14.65-9.93-10.74-.43-21.42-2.3-32.13-2.53a18.51,18.51,0,0,1-17.72-11.32c-4.21-8.09-9.26-15.75-13.85-23.65-3.85-6.47-7.73-12-16.18-14.3-9.44-2.59-11.61-12-6.47-20.47,16-25.88,16.18-25.88,44.68-14.11,22.16,9.25,28.37,7.7,44.9-9.7,5.31-5.57,6.08-9.71-.65-14.17s-7.5-10.06-1.52-15.73a8.73,8.73,0,0,1,6.86-2.52c11.81,4.27,25.27,5,33.26,17.44,8.9,13.88,19.76,16.17,34.06,8.15,11.23-6.47,21.1-7.73,32.35.55,12.2,8.83,40.09,5.05,50.08-6.76,9.16-10.87,19.77-13.65,32.87-11.39,6.7,1.17,10.9,4.24,10.42,11.71-.23,3.24,0,6.47,0,9.71.25,14.3,6.85,19.41,20.47,14.23C1529.34,299.46,1537.52,296.55,1544.74,304.7Z"/><path class="cls-1" d="M300.81,809.72c-7.22-3.07-14.82-4.79-20.48-9-40.47-30.37-80.58-61.27-120.76-92a30.6,30.6,0,0,1-7.06-6.47c-6-8.8-1.84-19.06,8.64-22.07a55.93,55.93,0,0,1,9.35-2.45c14.43-1.53,25.3-8,31.19-21.71,3.91-9.19,11.13-11.55,20.7-11.81,15.56-.45,16.53-2.33,13.59-17.6-1.23-6.47-2.62-12.61-3.82-19-3.23-17.33.23-23.55,17.92-28,14.56-3.65,29.47-6,44.23-8.93,4.75-.93,9.51-1.78,14.26-2.62C333.29,563.6,343.83,581,337,602c-3.24,9.7-3.24,18.73,3.62,25.2,13.78,12.71,12.94,29.63,15,45.48,1.62,12.2.19,24.75.42,37.11.26,14.36,3.65,26,20.51,29.92,10.38,2.36,10.9,8.44,2.1,15.43-20.25,16.18-40.56,32.06-61.24,47.59C313,805.9,307,807.13,300.81,809.72Z"/><path class="cls-1" d="M409.12,1126c11.12-8,21.22-15.56,31.5-22.64a20.78,20.78,0,0,0,10.1-20.38,20.93,20.93,0,0,1,10.06-20.71c9.7-6.18,12.49-15.23,12.94-26.1.45-10.16,1.94-20.32,3.23-30.41,1.65-12.07,6.8-14.4,17.63-8.25a43.51,43.51,0,0,1,6.73,4.4c7.35,6.11,14.14,7.12,20.74-1.13a19,19,0,0,1,17.11-7c23.65,1.29,47.33,1.81,70.91,3.52,15,1.1,24.11,19.12,16.73,32.35a185,185,0,0,1-15.63,24.46c-12.52,16.18-12.32,33.65-7.18,52,3.24,11.9,7.09,23.68,10.48,35.58s3.24,12.16-9.05,15.4c-13.78,3.59-13.53,16.6-16.86,26.72-2.81,8.54,1.68,14.3,10.06,17.28,2.49.87,6,2.1,6.73,4.07a85.37,85.37,0,0,1,3.24,14.46,47.39,47.39,0,0,1-11.33-2c-23.84-10.8-46.74-23.64-71.81-31.73a12.3,12.3,0,0,1-6.47-7.44,129.34,129.34,0,0,1-2.59-17.5c-2.36-17-2.3-17.44-18.57-19.9a15.92,15.92,0,0,0-12.46,3.88,18.07,18.07,0,0,1-15.52,6.47c-6.47,0-10.48-1.48-12.78-9-4.24-14-7.25-15.14-22.65-15.14H411.77A15.69,15.69,0,0,1,409.12,1126Z"/><path class="cls-1" d="M708.78,631.79a233.43,233.43,0,0,1,23.51,11.65A137.66,137.66,0,0,1,751,658.77c8.61,7.9,18,11.13,30.12,12.43a56.76,56.76,0,0,1,38.27,20.41c10.81,13.36,21.26,27,31.77,40.57a12.15,12.15,0,0,1,3.24,5.53c1.61,15.95,12.26,17.76,25.29,17.3,6.47-.25,12.94,1.91,19.22,2.2,9.28.42,11.26,6.22,8.8,12.94-2,5.63-5.47,12.49-10.29,15.05a332.34,332.34,0,0,1-46.84,20.86c-12.94,4.47-24.78,9.22-34.39,19.57s-9.7,9.32-22,2.56a37.75,37.75,0,0,1-4.17-2.43c-7.41-5.33-14.46-6.72-21.29,1.07-5.69,6.47-9.7,4.14-13.36-2.52-3.23-5.7-6.85-11-10-16.6a35.61,35.61,0,0,0-18.15-17.47,16.16,16.16,0,0,1-11.16-17.72c.87-10-3.75-17.38-9.93-24.59C691.89,731.14,678,714,663.94,697a69.69,69.69,0,0,1-6.93-8.93c-3.23-5.72-3.23-10.74,4.89-11.45,11.39-1,17.57-9.71,25.14-16.34a15.36,15.36,0,0,0,4.49-9.7C692.57,634.15,692.66,633.83,708.78,631.79Z"/><path class="cls-1" d="M966.25,630.89c-12.2,17.89-12.1,17.79,2.88,30.34a115.9,115.9,0,0,1,15,14.49c8.57,10.42,8.31,10.58-2.75,18.8a16.33,16.33,0,0,0-4.43,4.3c-7.57,12.68-7.51,12.68-21.36,10.35a114.78,114.78,0,0,0-12.94-1.55,16.17,16.17,0,0,1-14.36-8.41c-6.47-10.87-10.77-12.55-20.41-6.47-11.81,7.63-22.13,5.89-33-1-6.47-4-12.94-7.73-19.41-11.39-5.85-3.23-10.51-6.79-11-14.49-.59-9.54-7.77-14.56-16.18-15.59s-13.23-6-17.79-12.17c-7.8-10.64-14-22.09-28.89-26.27-9.7-2.71-12-14.33-6.86-23.64a13.42,13.42,0,0,0-2.13-17.47c-6.83-7.6-13.85-15.08-20-23.23-2.27-3-4.08-8.6-2.72-11.39s7-3.23,10.8-4.17,9.32-.52,11.68-2.94c6.67-7,10.78-5.11,17,.87a209.52,209.52,0,0,0,28,21.67c13.92,9.35,38.82,6.86,50.44-5,8.54-8.67,18.66-9.71,29.7-8.41a26.39,26.39,0,0,1,4.59,1.39c37.95,12.06,37.91,12.06,41.57,52.66a152.84,152.84,0,0,1,2.26,15.92C946,621.05,950,630.11,966.25,630.89Z"/><path class="cls-1" d="M542,716.71c0,21-.29,42.06,0,62.86.32,16.66-4.66,20.38-20.25,12.71-21.71-10.67-43-22.13-64.51-33.25a47,47,0,0,0-27-5.7c-14,1.07-30.09-1-41.25-13.71a23.68,23.68,0,0,0-10.58-6.47,18.45,18.45,0,0,1-14.59-18.8c-.26-15-3-30.93.78-44.93,4.24-15.37,14.68-29.12,22.64-43.39a4.83,4.83,0,0,1,4.05-2.1c11.77,3,25.88,2.2,33.41,13.33,9.42,13.75,24.46,17,38.08,22.39,4.59,1.78,12.58-1.85,17.57-5.18,6.11-4.14.45-9.16-1.1-14a12.91,12.91,0,0,1,2.49-10.77c6.79-7.12,24.78-6.76,32.86-.68,4.53,3.39,9.42,7.73,14.66,8.57,8.41,1.39,10.58,5.4,10.51,12.94-.22,22,0,44.09,0,66.12Z"/><path class="cls-1" d="M662.42,920.78c-2.59-7.31-4.89-14.76-7.8-21.94a67.86,67.86,0,0,0-6-9.7,64,64,0,0,0-9.15,7.34c-3.24,3.62-5.27,8.09-8.06,12-1.19,1.74-3.23,4.65-4.36,4.4-16.18-4-27.79,13.68-44,8.44-3.49-1.13-7.92-1-10.54-3.07-7.09-5.73-13.66-7-21.94-2.27-7,3.92-12.94-1.1-16.88-5.82-8.67-10.68-14.11-23.13-11.13-37.3a23.3,23.3,0,0,1,7.7-11.55,22.45,22.45,0,0,0,8.18-19.9c-.39-7-.19-14,0-21s-1.81-14.91,8-19c2.33-1,2.69-8.51,2.65-12.94,0-12.94-.35-13.13,12.94-12.94,26.89.29,53.77.49,80.65,1.07,10,.23,19.25-.36,26.11-9.16,4.85-6.27,8.51-3.85,12,2.07,7.12,12,14.4,24,22.26,35.59,4.53,6.7,3.66,12.2-1.88,17-10.9,9.42-12.23,21.55-12.48,35a85,85,0,0,1-6.25,27.76c-4.69,12.33-11,24-16.66,35.94Z"/><path class="cls-1" d="M522,906.77c-22.13,4.2-33.29,21.29-45.78,36.23-3.39,4.08-5.56,7.34-11,7a10.33,10.33,0,0,0-4.82,0c-15.37,6.47-23.29-1.42-30.08-14-2.27-4.21-4.44-6.47-.49-10.71,8.35-9.12,4.66-20.28,3.69-30.7-.2-2.17-4.08-4.3-6.47-5.85-4.08-2.46-8.61-4.18-12.59-6.83a5.85,5.85,0,0,1-1.91-5.24c5.6-10,10.49-20.74,17.8-29.38,6.47-7.69,12.23-14.65,11.61-25.33a60.23,60.23,0,0,1,1.55-9.51c1.88-14.42,3.56-28.76-5.33-42-1.65-2.46-.65-6.7-.88-10.13,3.43.2,7.38-.68,10.19.75,25.4,12.94,50.53,26.23,75.86,39.24a14.23,14.23,0,0,1,8.16,14.36c-.23,9.71.22,19.41-.75,29.12a19.58,19.58,0,0,1-5.69,12.48c-14.4,11.33-11.68,25.11-7.15,39.44C518.78,899,520.37,902.4,522,906.77Z"/><path class="cls-1" d="M258.3,862.32a240.53,240.53,0,0,1,26.85-3.91c9.87-.3,12.94-5.63,13.59-14.24.22-4.27.32-8.6.87-12.94,1-8.22,3.62-13.91,12.94-17.86C323.13,808.88,332,800,341.21,792.8c13.62-10.48,27-21.32,40.73-31.7,15.66-11.91,40.44-6.21,49.17,11a68.15,68.15,0,0,1-10.54,74.14c-2.49,2.75-5.89,5.63-6.47,8.93-5,24.49-25.88,27.6-44.32,30.35-15.89,2.32-33,2.87-48.33-7.25C313.1,872.7,303.1,876,295.57,884c-11,11.45-13.85,11.36-23.23-1.49C267.75,876.59,263.73,870.34,258.3,862.32Z"/><path class="cls-1" d="M160.83,914.82c-10.16,2.07-16.69-1.74-19.22-12-1.81-7.47-6.47-11-14.2-9.41-7.21,1.52-12.68.68-14.52-7.86-.42-1.94-2.37-3.53-3.56-5.31-8.93-13.26-6.47-18.53,10.09-19.15,17.21-.64,34.42-.22,51.76-.51,15.66-.26,16.66-1,14.66-16.89-3.24-26.11-7.45-52.09-11.23-78.13-.52-3.72-1.26-7.41-1.42-11.16-.55-12.94,6.47-17.4,18.21-11.77A67,67,0,0,1,202,750q34.07,25.88,67.93,51.76,5.14,3.91,10.39,7.67c4.49,3.23,12.61,6.05,12.94,9.7a87.29,87.29,0,0,1-3.53,28.47c-.65,2.52-6.69,4.59-10.51,5.18a170,170,0,0,1-30.44,2.94c-12.94-.36-22.65,4.66-32.13,12.45-7,5.83-15.07,10.52-21.74,16.7-5.3,4.91-11.12,10.71-13.32,17.27C177.81,913,171.12,916.12,160.83,914.82Z"/><path class="cls-1" d="M828.47,948.82c-17.4,17.47-27.79,38.82-52.7,44.71-11,2.53-21.54,6.63-32.35,9.9s-20.8,2.23-29.79-6.08c-13.62-12.55-31.25-20.93-39.76-38.82a15.68,15.68,0,0,0-7.34-5.69C656,947.66,656.14,948,664,938.37a71.65,71.65,0,0,0,8.8-15.43c6.15-13.13,11.87-26.46,17.82-39.66,7.74-17,26.69-21.93,41.77-10.09,10.64,8.35,23.91,15.53,21.35,33-.23,1.74,3.85,5.95,5.79,5.88,9.87-.35,13.59,6.47,20,12.23,10.48,9.25,24.68,14.37,37.43,21A70.74,70.74,0,0,0,828.47,948.82Z"/><path class="cls-1" d="M44.4,845.63V787.07c9.12-.38,19.64-.71,30.12-1.36,13.62-.8,13.59-.9,16.82-14.29.74-3,1.26-8.09,3-8.64,12.94-4,10.22-14.56,10.71-23.88.58-11.67,1.23-12.35,13.29-12.94,7-.32,14,0,21-.45,3-.19,8.18-.9,8.7-2.52,4.82-15.4,11.16-5,16.85-1.23,3.56,2.33,6.7,5.3,10.19,8.09-3.78,3-8.73,5-9.93,8.41-1.49,4.2-.23,9.54.45,14.3,4.21,29.11,8.71,58.23,12.94,87.5,1.75,12.43,1.46,12.62-10.8,12.94-13.43.33-26.92-.39-40.28.58a86.13,86.13,0,0,0-24.45,5.8c-5.7,2.23-9,1.52-12.17-3.24a76.72,76.72,0,0,0-4.75-6.47c-9.71-11.87-18.77-14.27-32.35-8.41C51.16,842.26,48.9,843.46,44.4,845.63Z"/><path class="cls-1" d="M658.24,575.12c-4.52-9.71-8.18-12.94-16.88-6.9a27.81,27.81,0,0,1-33.1-.16c-7.11-4.82-12.94-7.89-19,3.46-4.43,8.48-26.11,8.29-32.35,1.23a14.39,14.39,0,0,1-1.68-8.89c.19-7.09-3-11.78-9.71-12.2-5-.32-6.82-1.23-6-6.47a22,22,0,0,0-.94-9.25c-3.23-10.55,0-15.56,11-16.89,5.31-.64,11.39.81,15.89-1.29,5.17-2.4,8.41-8.93,13.55-11.42s12.46-2.17,18.44-4.17a43.44,43.44,0,0,0,10.74-7,30.3,30.3,0,0,1,36.23-1.52c13.75,9.05,28.28,9.12,43.29,8.79a15.05,15.05,0,0,0,9.12-2.13c6.47-6.18,12.71-6.21,20.22-1.88,5.76,3.24,14.33,3,13.88,12.94a5.21,5.21,0,0,0,2.42,3.92c11.78,6.08,9.71,16.59,10.78,27.33.87,10-4,11.07-10.49,11.84-14.94,1.82-29.92,3.24-44.9,4.63C676.85,560.27,664.36,559.81,658.24,575.12Z"/><path class="cls-1" d="M547,704c0-16.66-.26-33.35,0-50,.23-11.78,3.23-14.14,15-12.1a87.56,87.56,0,0,1,12.45,3.23c8.28,2.75,16,2.53,22.45-4,5.79-5.85,11.75-6.63,18.64-2a9.67,9.67,0,0,0,6,2c14.63-2.24,18.15,7.83,21.19,18.6,1.78,6.18,4,12.29,5.24,18.6a22.45,22.45,0,0,1-1.58,8.18c-2.27-2-5.4-3.49-6.47-6-2.27-4.82-2.85-10.42-5.24-15.17-1.46-2.88-5-4.73-7.57-7-1.62,3.42-5.34,7.56-4.5,10.19A93.66,93.66,0,0,0,633.82,693c8.6,12.29,19,23.39,28,35.36,7.92,10.41,8.73,23.26,2.88,31.38a19.43,19.43,0,0,1-17.6,9.15c-29.12-1-58.07-1.55-87.09-2-8.86,0-12.42-4-12.23-12.94.33-16.66,0-33.35,0-50Z"/><path class="cls-1" d="M670.83,1266.63c-.23-13.13-1.88-24.45-11.42-33.25-2-1.85-2.1-7.48-1.07-10.68a56.55,56.55,0,0,0-.65-33.26c-2-7.37-.77-12.61,9.71-12.94l-1.65-3.23c-4.3-1-8.57-2.07-12.94-2.94-15.63-3.24-28.63-9.06-30.93-27.47a70.27,70.27,0,0,0-4.4-15.43c-2.88-7.67-2.36-13.1,4-19.93,5.34-5.76,6.28-15.53,9.45-23.42,2.07-5.18,3.24-12.58,7.25-14.65,7.76-4.15,17.27-7.67,26.14-2.33,20.25,12.22,40.17,24.91,60.2,37.46,4,2.52,5.05,5.56,4,10.8-4,20.38-3.59,40.21,7.89,58.94,6.47,10.36,4.89,12.52-7.15,14.17-12.74,1.78-25.58,2.88-38.39,4.24-20.26,2.17-25.33,12.94-12.94,29.6a32.35,32.35,0,0,1,7.53,17C686.81,1251.39,682,1259.55,670.83,1266.63Z"/><path class="cls-1" d="M472,76.79c2,8.38-1.49,15.43-10.1,20.29-6.47,3.69-9.15,9.15-10.06,17a34,34,0,0,1-17.82,25.3,33.9,33.9,0,0,0-16.73,36.75c1.26,5.05,6,9.71,10.1,13.46,10.57,9.44,12.48,13.75,2.23,23.58a41,41,0,0,0-12.94,37.5c.84,6.66-1.85,10.74-8.09,14a53.84,53.84,0,0,0-14.27,11.84c-4.4,4.82-8.21,4.27-9.09-1.39-2.39-15.53-11.42-27.53-18.69-40.66a16.35,16.35,0,0,1,.25-14.53c11.26-14.94,11.39-32.06,11.84-49.27.26-8.6.23-17.24.65-25.88.2-3.65,0-8.86,2.17-10.71,11-9.25,10.12-22,10.74-34.06A39,39,0,0,1,400,77.67c7.09-9.51,13.39-19.57,20.54-29.12,7.54-9.93,12.94-10.9,24.65-5.72a45.94,45.94,0,0,0,4.5,1.81C468.61,50.72,471.55,54.76,472,76.79Z"/><path class="cls-1" d="M1142,564.12c-10.94,1.55-20.38,3.23-29.86,4.1-6.47.68-8.09,3.82-6.83,9.71,1.85,8.57,4.18,16.76,12.2,21.77,7.54,4.69,7.41,10.48,3.62,17.79-6.47,12.39-12.74,24.88-18.05,37.76-3.91,9.44-9.48,15-20,15.56-6,.32-12.94,1.58-12.94,9.12,0,4.56,3.49,9.25,5.95,13.55a27.07,27.07,0,0,0,5.69,5.67c4.92,4.49,10.26,10,6.47,16.43-1.87,3.23-8.89,3.59-13.58,5.14-1.52.52-3.89.23-4.57,1.2-7.34,10.87-13.87,4.4-18.86-1.62-13.55-16.4-31.38-13.46-49-12-2.59.23-5.21,2.59-7.57,2.27a79.46,79.46,0,0,1-12.75-3.69,43.68,43.68,0,0,1,7.12-9.12c9.35-6.93,10.12-9,4.82-19.7-1.17-2.37-2.56-4.63-5-9,9.9-3.75,19-7.6,28.37-10.64,8.67-2.85,15.63-6.21,16.37-17,.62-8.45,7.86-12.65,14.59-16,11.65-5.7,16.89-15.11,20.06-27.24,2.78-10.71,8.06-20.74,12-31.16.91-2.36,1.91-5.85.84-7.53-6.47-10.06,1.59-13.33,7.8-17.25,29.11-18.27,28.14-15.75,45.29,8.9C1136.67,555.09,1139,559.17,1142,564.12Z"/><path class="cls-1" d="M641.49,431.22c-6,4.69-10.65,7.38-13.85,11.26-3.82,4.56-8.22,9.22-12.94,4.56-4.11-3.91-8.15-11.52-7.05-16.17,1.62-6.93,2.07-10.94-4.56-14.46-7.41-3.89-13.33-2.72-18.41,3.85a38.87,38.87,0,0,1-7.67,8.37,24.43,24.43,0,0,1-8.44,2.14,33.48,33.48,0,0,1-1-8.28c.68-5.05,4.43-11,2.78-14.79a48.49,48.49,0,0,0-13.81-17.43c-3-2.43-10.42-3.24-13.23-1.3-12.33,8.8-25,3.59-37.5,2.53-7.76-.68-10-5.73-7.54-12.65,1.82-5.05,4.44-9.71,6.48-14.79a69.35,69.35,0,0,0,3.59-10.61c1-4.33,0-11.48,2.36-12.68a37.78,37.78,0,0,1,18.34-3.23c12.23.51,24.42,2.42,36.65,3.59a14.31,14.31,0,0,0,15.53-8.54c6.47-12.1,20-13.56,31.15-4.37a18.23,18.23,0,0,1,5.12,6.15c8.41,18.37,24,22.64,42.31,22.9,5.82,0,15.27-3.24,16.59,5.18,1.4,9.05,3.24,20.34-5.56,27.2-12.94,10.39-23.39,26.21-43.64,24.13a8.31,8.31,0,0,0-6.47,5.21c-.29,2,2.52,5.47,4.82,6.67A121,121,0,0,0,641.49,431.22Z"/><path class="cls-1" d="M961,571.69c11.81,5.43,20.32-2.72,28.41-12.1,2.78-3.24,6.17-6.05,8.79-9.42,7.19-9.22,15.44-13.45,27.92-11.06,10.13,1.94,20.45,0,24.52-12.55.52-1.65,4.14-2.88,6.47-3.24.91,0,2.92,3.08,3.24,4.86.58,7,2.07,12.94,10.74,13.39.55,0,1.26,2.26,1.39,3.56.42,4.43.74,8.89.91,13.32a21.58,21.58,0,0,1-.42,7.64c-3.76,11.1-8.77,21.84-11.55,33.16a28.76,28.76,0,0,1-14.85,19.7c-9.32,5.21-17.7,10.38-19.8,23.29-1.88,11.65-40.6,22.65-50.53,15.85s-10-8-5.18-19.63c2.66-6.47,1.62-12.62-5.56-14.11-10.42-2.13-12-9.41-12.94-17.66s-2.27-17.05-3.24-25.56C948.26,574,950.59,569.55,961,571.69Z"/><path class="cls-1" d="M521.24,23.38a103.72,103.72,0,0,1-11.48-12.94C506,4.49,502,4,496.46,7.4c-6.79,4.27-14.3,7.51-15.24,17.25-.71,6.89-5.07,6.72-10.64,4.49a126.68,126.68,0,0,0-17-4.79c-2.59-.64-6.05-1.84-7.8-.71a264.63,264.63,0,0,0-31,21.81C409,50.62,405.78,58.74,400.74,65,389.9,78.61,382.91,92.84,384.17,111c.3,4.33-1.42,10.67-4.56,12.94-8.31,6.47-7.92,14.59-7.92,23.19,0,12.39-.46,24.78,0,37.14a37.69,37.69,0,0,1-10.1,28.47c-3.23-4.69-5.75-11.16-12-2a103.07,103.07,0,0,1-20,20.83c-8.09,6.47-16.89,5.5-20.35-3.07-8.38-20.54-13.75-41.86-6.79-64.12,1.07-3.4,3.49-8.44,6-8.9,11.58-2.07,16.18-10.19,21.35-19.41,4.14-7.11,10.1-15.59,22-9.7,2.88,1.46,9.16-1.36,12.26-4.08,1.33-1.13-1.58-6.95-2.29-10.74-.46-2.59-1.49-5.88-.43-7.86,7.41-13.62,15-27.11,23.17-40.31,4.4-7.11,10-13.49,15.07-20.18.94-1.26,2.95-2.53,2.82-3.63C401.13,25.62,412.8,20.7,421.25,16c9.25-5.18,22.35-3.56,26.88-16.89A23.78,23.78,0,0,1,459.26,1.9c6.24,4.66,9.54,4.31,14-2.59C478.64-9.1,510.89-11.46,518.14-5c.38.36,1.1.65,1.13,1,.84,9,1.62,17.92,2.42,26.88Z"/><path class="cls-1" d="M446.9,34.54c10.35-4.78,18.67-1.13,26.56,3.24,6.47,3.66,11.16,4.24,12.94-4.5s4.46-19.7,13.94-19,10.16,13.2,14.46,20.93c7.64,13.62,8.12,28.67,12.17,43,4.2,14.92,11.55,28.89,17.53,43.29A105.11,105.11,0,0,0,549,131.79a22.2,22.2,0,0,1-2.17,26.91c-3.69,4.6-5.33,11.62-9.7,14.56-16.5,10.84-36,16.18-54.77,19.15C468,194.74,454,167.6,459,151.23a51.76,51.76,0,0,1,9.7-16.4c6.47-8,13.59-15.27,20.48-22.81,5.82-6.47,5.63-13.58-.74-18.34-7.74-5.73-8.25-12.94-8.67-21.19a40.84,40.84,0,0,0-2.62-14.17c-4.6-10.19-8.74-21.38-23.59-20.15C451.2,38.36,449,35.84,446.9,34.54Z"/><path class="cls-1" d="M282.24,958.14c1.88-5.5,2.59-11.9,5.92-16.17,7-9.32,8.25-19.41,7.76-30.45a65.51,65.51,0,0,1,.23-11.29c1.91-15.39,12.62-21.06,26.43-13.55,21,11.42,42.25,9,63.76,2.36a31.1,31.1,0,0,0,7.38-3.23c7-4.37,12.94-3,18.95,2.36A14.51,14.51,0,0,1,415.91,906c-8.8,17.83-18.44,35.26-28.57,52.34-1.61,2.78-7.21,3.85-11.19,4.5-12.52,2-21.8,7.38-26.78,19.89s-22,15.69-32,7c-4-3.56-6.92-8.41-11.13-11.68a39.09,39.09,0,0,0-14.88-8.12C284.41,968.23,282.63,965,282.24,958.14Z"/><path class="cls-1" d="M37.9,778.63c16.76-27.5,30.76-52.31,46.78-75.7,5.37-7.86,15.43-13.13,24.26-17.86a38.81,38.81,0,0,0,20.67-25.13c1.42-5.18,3.88-10,5.4-15.17,3.66-12.3,9.38-22.07,22.65-27.18,5.11-2,9.48-8.54,12-14,3.75-8.09,8.86-11.22,17.56-10.64a240.24,240.24,0,0,0,25.88,0c6.47-.2,10.13,2.36,11.2,8.8.68,4.24,1.94,8.38,2.49,12.61.81,6.28,3.23,13.56,1,18.57-1.42,3.24-10.67,2.11-15.69,4.47s-11.06,5.69-12.94,10.19c-7.31,16.17-19.76,23.1-36.46,24.75-3.23.29-6.18,1.9-9.35,2.39-7.24,1.07-9.7,5.63-10,12.36-.19,7.5-.58,15-.51,22.64s-2.88,11-10.52,10.71c-7-.26-14-.19-21,0-11.61.45-12.62,1.33-13.17,13.23-.45,9.06.85,18-10.28,23-2.62,1.13-2.91,8.64-3.24,13.3-.58,6-3.43,8.67-9.28,8.63Z"/><path class="cls-1" d="M198.23,393.86c8.15-.84,12.94-1.17,17.33-1.85,3.24-.45,7.9-.45,9-2.36,4.85-8.34,10.77-10.45,19.93-7.34,2.26.77,6.47-2.85,9.28-5.18,4-3.52,7.47-7.76,11.23-11.58,5.3-5.37,10.77-5.69,17.4-1.71,11.94,7.18,24.3,13.65,36.43,20.47,9,5.05,10.67,12.94,4.27,21.55-3.82,5.18-8.64,9.7-12.52,14.75-3.5,4.63-4.05,9.38,3.23,10.61s7.6,5,7.67,11.45a48.09,48.09,0,0,0,5.27,17.76c3.75,8.54,1.78,13.69-7.54,14.56a60.23,60.23,0,0,1-15.75-2c-7.6-1.36-14.46-1.55-21.22,3.88-13.26,10.61-37,2.1-47.91-6.47a8.4,8.4,0,0,1-1.2-7.05,50.53,50.53,0,0,1,4.21-8.54c7.4-15.85,4.88-27.27-8.77-38.08C219.61,409.58,210.19,402.82,198.23,393.86Z"/><path class="cls-1" d="M1449.82,897.23c-7.47-6.47-12.36-11.72-7.7-19.19,6.08-9.7,1.07-17.08-5.27-22.64a18.62,18.62,0,0,1-6.73-15.21c-.32-12.94-5.34-23.61-14.91-34.13-3.73,5.15-6.47,9.71-9.87,13.56-5.11,5.92-10.68,5-13.27-2.4-1.77-5-2.26-10.51-3.81-15.65-4-12.94-14.3-21.19-23.72-29.93-5.49-5.11-9-8.8-6.47-18.63,3-11.49,7.12-22.13,11-33.16s4.75-24.07,6-36.3a21,21,0,0,1,8.38-16.37,27.1,27.1,0,0,0,8-11.12c3.69-9,5.24-9.71,11-2.85,7.77,9.06,12.2,17.76,4.82,30.34s-1.74,25.14,11.39,31.8c5.6,2.82,10.35,5.5,11.16,12.33,1.13,9.35,5.86,14.49,15.89,14.39,2.2,0,4.43,2.37,6.66,3.63-1.52,2.62-2.43,6.47-4.69,7.63-6,3.4-12.75,5.6-19.09,8.48a20.48,20.48,0,0,0-11,26.78,20.84,20.84,0,0,0,2.09,3.82A99.75,99.75,0,0,0,1428.5,804c8.35,9.45,12.59,19,7.73,32.35-1.61,4.5,2.23,12.52,5.89,17.12C1452.28,866,1453,879.59,1449.82,897.23Z"/><path class="cls-1" d="M191.63,576A103,103,0,0,1,176.16,573c-11.26-4.21-12.94-7.57-10.93-19.41s4.24-24.3,6.47-36.43c2.81-15.72,1.36-18.6-14.27-22.29-8.15-1.94-11-6.47-9.09-13.81,1.49-5.66,4-10.87,12.1-10.16,16.47,1.42,33,1.84,49.53,3.24a60.77,60.77,0,0,1,20.22,3.78c12.29,5.66,24.32,10.77,38.27,11.06,8.05.2,9.7,5.47,4,11.84a179.77,179.77,0,0,1-17.76,16.37,24.24,24.24,0,0,0-9.22,19.41,35.59,35.59,0,0,1-26.75,33.52C209.39,572.37,199.94,574.18,191.63,576Z"/><path class="cls-1" d="M965.21,567.09c-8.7-2-15.65-2.72-19.11-11.84a19.1,19.1,0,0,0-9.9-9.09A365,365,0,0,0,901.58,533a35.57,35.57,0,0,0-38.2,8.92,49.71,49.71,0,0,1-8.67,5.63c-.36-3.39-2-7.34-.84-10.06,4.4-10.12,2.58-17-7.41-22.64a16.63,16.63,0,0,1-6.89-11.39c-.65-6.47,5.66-6.24,10.38-7.15,2.43-.48,5.95-1.68,6.73-3.49,3.24-7.19,9.16-7,15-6.67a20.55,20.55,0,0,0,20.9-11.42c7.11-12.06,19.21-10.61,26.59,1.56a33.3,33.3,0,0,0,10.06,10c14.69,9.9,29.47,19.7,44.67,28.82a95.83,95.83,0,0,0,19.41,7.35c11.2,3.68,12.94,8.67,5.73,17.24a186,186,0,0,1-18.89,19.8C975.83,563.05,970.1,564.67,965.21,567.09Z"/><path class="cls-1" d="M645.5,902.43c4,7.7,6.79,13.49,10,19.06s4.53,9.7-1.26,15.36c-7.05,7-3.23,17.21,5.76,21.42a36.28,36.28,0,0,1,12.36,9.06c4.56,5.53,11.29,12.45-1.85,16.63-.87.26-1.52,1.45-2.16,2.29-3,3.92-5.83,11-9.16,11.23a158.65,158.65,0,0,1-33.45-1.62c-7.73-1.07-15.08-5.27-22.65-6.15a29.08,29.08,0,0,1-19.7-9.22c-11.32-12.26-23-24.19-34.81-36-4.85-4.82-6.82-9.48-2.71-15.53s14-9.35,19.63-6.11c15.73,8.93,31.09,10.51,46.52-.52,1.23-.87,3.5-1.84,4.44-1.29,13.78,7.89,17.76-3.59,23.58-11.58C641.36,907.38,643.1,905.41,645.5,902.43Z"/><path class="cls-1" d="M1063,478.71c-6.47,6.08-11,6.47-17.11,2-9.71-7-12-6.18-20,2.91-2.82,3.24-5.24,6.83-8.09,10.06-5.18,5.89-8,11.29.39,17.21a10.84,10.84,0,0,1,3.23,8.51,62.13,62.13,0,0,1-3.85,12.94c-3.23-2.3-6.47-4.56-9.38-6.92s-6.14-7-9.7-7.54c-17.34-2.68-30.41-13.3-43.84-22.87-12.32-8.74-27.79-13.65-33.77-30.51-2.85-8-25.59-6.14-31.48,1.52-2.81,3.63-5.21,7.61-9.7,14.46-4.69-16.37-8.45-29.47-12.26-42.57-1.52-5.27,1.1-7.7,5.59-9.87,11.75-5.63,32.68-3.68,42.06,6.7,10.8,12,22.64,14.72,37.46,10.61,11.71-3.23,21.09.29,26.62,11.84a39.63,39.63,0,0,0,3.69,5.31,36.18,36.18,0,0,0,40.44,14c.52-.19,1.17,0,1.52-.48,3.92-3.5,8.77-10.68,11.39-9.93C1045.12,468.49,1053.27,473.79,1063,478.71Z"/><path class="cls-1" d="M577,989.07c-11.74-.68-23.52-1-35.23-2.11-8.44-.77-16.17-.38-21.86,6.93-5.15,6.47-10.62,6.08-16.5,1.1a40.09,40.09,0,0,0-3.95-2.78c-14.49-9.71-15.79-8.61-28.11,3.23-5.83,5.63-16,11.36-22.84,10.06s-12.94-10.74-17.08-17.89S438.1,963,446.8,961.08a198.29,198.29,0,0,1,23.59-4c6.05-.58,8.67-3.52,12.13-8.41A131.89,131.89,0,0,1,509,919.19c4.92-3.72,15.11-1.36,22.65-.16,1.9.29,5,8.09,3.81,9.93-5.24,7.89,0,11.81,4.47,16.4,10.09,10.45,20.25,20.8,30.31,31.25,2.88,3,5.6,6.21,8.35,9.32Z"/><path class="cls-1" d="M400.7,350.15c-5.49,3.24-12.32,7.22-19.11,11.29-6.12,3.69-6.28,8.09-1.27,12.94a110.43,110.43,0,0,1,9.22,9c6.28,7,6,10.32-2.81,14.46-10,4.66-20.48,10.29-31,10.78-6.66.32-15.82-6.47-20.12-12.94-7.25-10.45-11.13-23.13-17.18-34.52-3.23-6.24-3-12.78,1.62-16.18,8.8-6.47,8.51-14.07,6.47-22.64-1.26-5.27-.88-8.44,5.37-11.07,5.72-2.39,9.7-10.25,15.2-11.51s11.78,3.75,17.92,4.72c3.24.55,7.15-1.84,10.84-2.36,12.65-1.71,20.38,4.79,21.55,17.57C398.31,329.61,399.54,339.48,400.7,350.15Z"/><path class="cls-1" d="M1704.45,1036.65c-14.5,6-19.12,19.41-19.12,33.36,0,15.82-8.57,26.14-17.7,36.55-1.87,2.17-9.7,3-10.51,1.65-9.38-14.33-24.88-15.88-39.21-19s-15.07-2.24-18.89-17c-3.24-12.71-6.12-25.49-9.16-38.24l3.59-2.13a135.79,135.79,0,0,1,10.58,10.61,13.65,13.65,0,0,0,17.12,4.59c11.61-4.17,23.32-8.18,35.13-11.84a18.38,18.38,0,0,0,14-15.72,86.77,86.77,0,0,1,6-20,10.64,10.64,0,0,1,8.25-5.27,11.16,11.16,0,0,1,8,6.05C1697,1012.26,1700.57,1024.56,1704.45,1036.65Z"/><path class="cls-1" d="M403,314.76a39.93,39.93,0,0,1,4.92-8.7c7.34-8.51,17.37-12.33,28-14.78,1.46-.33,4.05-.72,4.47,0,8.44,13.1,21.54,6.14,32.35,7.24,14.85,1.49,20.93,6.92,22,21.61a85.51,85.51,0,0,0,4.2,23.52c3.75,9.93.84,17.82-4.27,25.72-1.13,1.75-3,4.3-4.49,4.27-13.95-.29-28.21,7.5-42.06-2.2a300.63,300.63,0,0,0-30-18.86C403.84,344.72,405.2,330.55,403,314.76Z"/><path class="cls-1" d="M745.23,1009.84c-.29,16.17-.71,30.37-.71,44.67a29.05,29.05,0,0,0,2.46,9.19c1.49,4.2,5.79,9.51,4.5,12.23a154.6,154.6,0,0,1-15.79,24c-.58.81-4.17.29-5.73-.68-18.82-11.35-37.68-22.64-56.06-34.71-2.49-1.62-3.23-7-3.43-10.67a13.7,13.7,0,0,1,2.85-7.41c8.73-13.65,11.13-27,1.1-41.57-2.33-3.4-2.27-12.65,0-14.17A21.52,21.52,0,0,1,690.59,989a37,37,0,0,1,14.47,9.71C716.67,1010.29,729.29,1016.53,745.23,1009.84Z"/><path class="cls-1" d="M1974.54,1200.54c-10.48-6.89-18.93-15-17.08-29.44,1.55-12-3.5-20.41-13.23-27.2-8.35-5.86-15.79-12.94-23.81-19.41-6.47-5.15-11.65-10.68-13.17-19.41a13.21,13.21,0,0,0-7-9.16c-6-1.88-8,3.24-9.35,8.38a70.46,70.46,0,0,1-4.59,9.7c-5.8-9.7-9.71-17.08.25-25,5.08-4.11,4.4-8.41-2.78-10a13,13,0,0,1-4.66-1.16c-3.52-2.69-6.76-5.76-10.09-8.67a79.74,79.74,0,0,1,11.29-7.83,36.48,36.48,0,0,1,11-2.2,7.83,7.83,0,0,1,9.71,8c.39,4.82.19,9.71.81,14.5,1.84,14.39,14.42,20.64,26.65,13.36,4.18-2.46,8-5.57,12.17-8,6.11-3.46,11.29-11.26,19.89-4.69s19.41,10.35,19,25.2c-1.06,30.54-.32,61.14-.32,91.71Z"/><path class="cls-1" d="M1460.56,877.85c-3.62-7.48-8.31-18-13.88-28.08-2.94-5.34-5.21-9.29-2.42-16.18,3.88-9.41,1-19-5.34-27.17-4-5.08-8.32-9.93-11.81-15.34-7-10.8-4.4-19,7.12-24.45,16.53-7.86,27.88-1.59,29.76,16.59.35,3.24.23,6.47.35,9.71.3,6.63,4,8.22,9.71,6.73a5.71,5.71,0,0,0,1.52-.52c6.92-2.07,14.14-10.16,20.8-4.17a124,124,0,0,1,24.68,29.34c5.41,9.28-.8,14.72-11.8,13.23a16.13,16.13,0,0,0-12.39,3.4c-5.41,5.88-9.93,13.13-5.79,21.93,2.1,4.4,10.09,8.64,3.62,12.94-2.46,1.68-10.77-4.21-15.72-7.63-2.17-1.53-2.17-5.89-4-8.38s-4.46-5.44-6.47-5.24a9.23,9.23,0,0,0-6.47,5.62A137.52,137.52,0,0,0,1460.56,877.85Z"/><path class="cls-1" d="M807.54,644.44c-5.56,3.79-10.71,6-14.17,9.71-9.28,10.19-20.74,12.29-32,4.14a271.74,271.74,0,0,1-23.81-19.12c-8.71-8-18.12-12.94-30.28-12.55-3.24,0-6.47-2.43-9.71-3.79a109.63,109.63,0,0,1,5.08-10.74,16.34,16.34,0,0,1,4.85-4.14A42.58,42.58,0,0,0,728,575.21c.59-5.92.23-13.46,9.35-14.62,8.51-1.1,16.18-2.85,23.36,5.43,6.47,7.67,12.62,12.94,5.24,24.14-5.05,7.63,2.49,25.36,13.72,28.79C794.37,623.61,800,635.35,807.54,644.44Z"/><path class="cls-1" d="M1421.51,969c3.79,2.78,7.74,5.31,11.29,8.35,29.12,24.94,58,49.75,86.57,75.15a39.85,39.85,0,0,1,10.78,17c2.45,7.6,5.53,13.82,12.94,17.34s8.79,8.67,5.33,15.79c-1.16,2.39-1.74,5.08-2.75,7.57-2.49,6.15-2.49,14.14-12.26,14.59s-17.08-2-22.64-11.58c-14-24.82-28.92-49.11-43.74-73.47-4.88-8-7.93-18-19.18-20.28-1.27-.26-2.46-2.07-3.24-3.4q-13.26-22-26.36-44Z"/><path class="cls-1" d="M891.23,839c-3.72,3.75-5.92,7.73-9.22,9.12-30.21,12.68-60.49,25.17-91,37.07-9,3.5-18.25-4.14-20-15a136.91,136.91,0,0,0-3.94-22c-2.4-7,0-11,5-15.2a11.69,11.69,0,0,1,14.69-1.3c6.92,3.59,14.75,9.26,21.48,8.45,6.14-.75,11.58-8.77,16.92-14,12.32-12,29.11-13.1,44.15-18a6.22,6.22,0,0,1,5.67,1.77C880.36,819,885.34,828.38,891.23,839Z"/><path class="cls-1" d="M751.7,1038c0-24,5.37-31.83,28.08-38.37a57.59,57.59,0,0,0,28.08-17.73,481.54,481.54,0,0,1,34.72-36c10.22-9.29,14.49-19.41,11.61-32.93-1.59-7.48,3.62-12.72,11.58-12.69s8.15,6.47,7.09,11.52c-4.6,22-8.71,44.87-24.07,62.24-24.95,28.24-51.25,55.26-77,82.75a54.52,54.52,0,0,1-4.49,4.63c-6.15,5.18-12.62,3.62-14.33-4.17A122.81,122.81,0,0,1,751.7,1038Z"/><path class="cls-1" d="M181.76,370l27.59-17.86-15.27-8c5.08-9,5.25-19.77,16.73-25.69,8.64-4.49,3.75-25.39-6.21-27s-12.94-6-12.29-15c0-2.07.29-5.37-.91-6.14-12.23-8.19-2.2-17.25-.74-25.46s8.18-13.49,16.49-15.79a10.29,10.29,0,0,1,2.3,1.07,19.87,19.87,0,0,1-.94,5.4c-3.46,7.28-1.78,11.81,6.7,11.65,10.38-.17,10.87,3.91,8.57,12.94-1.52,6.14.52,13.91,2.88,20.22a227.92,227.92,0,0,0,14.56,30.5,32.25,32.25,0,0,0,10.19,9.71c10.84,7.47,11.71,10.67,4.85,21.51a19.49,19.49,0,0,0-2.91,5.5c-2.68,11.42-6,15.66-15.75,13.2-13.49-3.4-24,2-35.4,6.95C196.38,370.31,190.46,376,181.76,370Z"/><path class="cls-1" d="M427.17,900.3c-.46,8.05,2.2,17.18-5.73,24.78-4.66,4.43-3.23,9.7,1.59,13.91,11.77,9.93,13.49,21.09,4.49,33.93-6.47,9.45-4.85,18.09,3.24,25.89a87.08,87.08,0,0,1,9.7,10.7c1.69,2.3,3.69,6.47,2.75,8.06a11,11,0,0,1-8.12,3.49c-19.86.84-39.76,1.2-59.62,1.88-6.27.22-9-2.69-8.34-8.74a20.39,20.39,0,0,0-6.77-17.14c-7.34-7.7-6.47-15.59,2.24-21.35,5.17-3.24,11.93-4.18,17.79-6.47,4.69-1.94,11.16-3.24,13.29-7C405.56,941.67,416.23,920.74,427.17,900.3Z"/><path class="cls-1" d="M1804.44,479.2l5.28,1.42c10.83,2.69,10.83,2.69,9.34-7.8-1.74-12.45.94-15,11.78-22.16a31.37,31.37,0,0,0,12.94-18.6c1.46-9.06-.94-19.05-3.23-28.24-1.49-5.72-2.08-10.16,1.58-15,6.79-9.06,10.09-9.25,16.6,0a164,164,0,0,1,9.7,14.91c1.17,2.11,2.23,6,1.2,7.28-8,9.22-2.27,18.51-.68,27.69,1,5.8,3,11.42,4.5,17.15,4.91,19.09-3.24,31.25-23,35.59a19.78,19.78,0,0,0-10.32,8.12c-6.18,8.83-6.76,9.25-14.3,2.87-11.45-9.7-15.53-9.86-28-1.48a115.44,115.44,0,0,1-15,9.15,7.79,7.79,0,0,1-7.15-1.84,7.41,7.41,0,0,1,1-6.86,106.61,106.61,0,0,1,15.24-16.6C1795.64,481.56,1801.24,480.52,1804.44,479.2Z"/><path class="cls-1" d="M912.61,724.7c15,8.48,27,15.17,38.82,22.1,10.16,5.89,12.17,11.16,5.89,20.93-12.16,19-24.84,37.78-38.07,56.09a17.34,17.34,0,0,1-29.35-1.36c-1.71-2.71-2.94-5.79-4.75-8.44-5.21-7.47-3.5-12.78,4.62-16.53a85.47,85.47,0,0,0,8.45-4.76c15.95-9.47,19.41-22.64,14-40.43C910,744.27,912.39,734.73,912.61,724.7Z"/><path class="cls-1" d="M446.25,514.75c-4.65,12.26-8.54,22.64-12.45,32.77h-2.91a40.4,40.4,0,0,1-2.46-9.41,27.61,27.61,0,0,0-21.87-28.41c-14.23-3.68-23.32-12.42-31.8-23-4.4-5.47-9.25-10.51-13.68-15.92a21.81,21.81,0,0,0-16.37-8.83A18.81,18.81,0,0,1,332.48,456a15.25,15.25,0,0,1-3-12.94c1.2-2.78,8.48-5.5,11.72-4.37,9.7,3.47,13.65-2.81,18.6-8.54,8-9.28,17.47-11.35,25.23-5.85,6.21,4.4,6.86,9,.23,13.29-6,3.82-6.47,8-4.47,13.53a48.13,48.13,0,0,0,5.76,12.94c14,18.44,28.86,36.16,51,45.61A73.91,73.91,0,0,1,446.25,514.75Z"/><path class="cls-1" d="M503,334.4c-.45-9.71-.81-18.18-1.19-27a35.28,35.28,0,0,0,26.94-28.05,10.49,10.49,0,0,1,11.2-9.22c13.36-.32,25.52,2.65,33.8,14.46.91,1.33,1.88,2.59,2.82,3.92,10,14.07,9.31,29.34-2.4,41.57a13.59,13.59,0,0,1-8.37,3.75c-7.48.32-15.4,1.23-22.36-.81A57.17,57.17,0,0,0,503,334.4Z"/><path class="cls-1" d="M517.88,399.23c17.72.32,25.59,6.24,28.53,23.35,1.42,8.45,4.27,12.78,12.94,12.75a3.88,3.88,0,0,1,1.52.45c4.4,2.24,11.65,1.26,11,9.26-.55,6.47-8.61,11.64-16.18,11.77a55.37,55.37,0,0,0-16.88,2.82c-21.42,7.5-36.82,1.84-46.52-13.3-16.4-25.49-15.76-20,3.59-36.78C502.93,403.4,508.66,396.45,517.88,399.23Z"/><path class="cls-1" d="M67.43,149.29c-8.28-2.49-19-5.66-29.6-8.9a2.12,2.12,0,0,1-1.19-1,42.07,42.07,0,0,0-11.78-16.92c-3.23-3.07,1.29-14.23-8.28-17.53a9.34,9.34,0,0,1,1.29-5.37,40.45,40.45,0,0,1,8.61-7.15c8.47-5.18,11.84-3.24,12.94,6.85a46.93,46.93,0,0,0,3.23,9.87,37.5,37.5,0,0,0,9.29-4.62c8-7.25,15.59-13.72,26.65-5.12a7.55,7.55,0,0,0,7.28-.45c5.57-5.6,10.13-6,16.18-.48s9.22,11.67,7.28,19.76C106,132.92,85.29,149.06,67.43,149.29Z"/><path class="cls-1" d="M213.14,985.83c-21-3-39.73-1.13-57.88,13.2-1.26-15.36-2.78-27.88-12.94-37.52-1.9-1.82-1.39-8.9.62-11.46a22.38,22.38,0,0,0,4.79-18c-.91-7.09,3-9.71,9.7-9.71,8.48.16,17.18-1.84,24.59,4.82a17.35,17.35,0,0,0,8.93,2.91c12.94,1.75,13.75,1.72,12.39,14C201.75,959.21,202,973.25,213.14,985.83Z"/><path class="cls-1" d="M424.16,1057.62v10.9c-.52,14.69-3,16.43-15.85,9.41-5.37-2.91-9.71-3.75-14.75,0-4.6,3.24-8.71,6-4.82,12.94,1.29,2.33-.49,6.47-.88,9.71a32.28,32.28,0,0,1-9.35-4,205.93,205.93,0,0,1-14.36-15.18c-12.55-13.74-12.94-20.12-1.42-34.51a12.91,12.91,0,0,1,7.5-5.15c9.71-.68,19.41-.22,24.68-10.8.42-.88,6.47-.49,7,.55,3,7.54,9.45,7.24,15.75,8.44a9.71,9.71,0,0,1,5.73,6.47A52.82,52.82,0,0,1,424.16,1057.62Z"/><path class="cls-1" d="M249.89,912c-10-1.33-17.44-2.69-24.91-3.24s-14.91,0-18.31,9.25c-3,8.19-10.68,6.73-16.6,5-7-2-5.33-8.38-3.88-13.59,1.13-4.1,1.78-9.51,4.66-11.8,15-12,30.44-23.59,46.39-34.36,5.89-3.95,12.33-1.78,16.5,4.92,3.23,5,7.31,9.38,10.12,14.52s7.22,12.3,5.44,15.11C264.58,905.28,257.26,911.43,249.89,912Z"/><path class="cls-1" d="M1763.71,1061.66c-5,5.73-13.23,11-14.2,17.34-1.07,7,4.6,15,7.18,22.65s4,15.75-.45,23.39a25.58,25.58,0,0,1-4.27,4.43c-1.65-1.72-4.24-3.24-4.79-5.21-2.49-9.35-4.3-18.86-6.47-28.24a50.75,50.75,0,0,0-3.78-8.16c-7.67,5.5-6.47,12.78-7.38,19.19a192.57,192.57,0,0,1-3.78,20.48c-.39,1.45-4.21,2-6.47,2.94-.59-1.81-2.14-4-1.59-5.4,3.24-8.74,2.78-16.6-3.72-23.75a5.74,5.74,0,0,1-.78-4.56c5.44-18.44,10-37.3,17-55,4.34-10.94,11-13.4,20.77-8.45,14.07,7.12,25.59,5.37,37-4.49.84-.72,2.84,0,4.56,0-6,15.49-12.55,19.41-25.88,16-9.71-2.66-19.41-6.67-29.34.32-6,4.21-9.71,8-5.21,15.69,5.14,8.44,8.93,10.29,16.85,6.47,2.4-1.16,4.5-2.94,6.89-4.21a72.47,72.47,0,0,1,6.86-2.84Z"/><path class="cls-1" d="M1752.84,118.82c19.22,27.33,36.85,52.34,54.48,77.38a14,14,0,0,1,0,17.73c-6.47,9.7-4.69,19.21,3.43,27.66,6.47,6.47,12.42,13.42,18.6,20.18a8.61,8.61,0,0,1,.91,12.14,8.34,8.34,0,0,1-2.17,1.8c-5.66,4.4-10.26,1.75-13.13-3.81-6.64-12.94-15.73-25.3-18.83-39a218.37,218.37,0,0,0-38.82-82.39C1750.77,141.69,1748.77,132.34,1752.84,118.82Z"/><path class="cls-1" d="M1468.55,794.48c4.4-15.24.78-24.91-7.12-34-5-5.82-.48-24.59,6.28-28.89,1.39-.87,6.79,1.13,7,2.33,1.82,11.78,10.26,14.82,20.09,17.31,6.73,1.68,10.07,6.47,5.37,13.23s-.87,11.94,4.08,16.63c12.46,11.8,25.07,23.45,37.24,35.58,9.7,9.71,8.79,17.63-2.69,24.43-6.47,3.91-11.48,2.23-10.74-4.92,2.52-24.07-17.73-33.81-29.66-48.53-1.69-2.1-7.83-1.81-11.49-.9C1481.81,787.79,1477.19,790.63,1468.55,794.48Z"/><path class="cls-1" d="M397.44,1104.65c.32-6.24.64-13.32,1.1-22.45a76.37,76.37,0,0,0,14.23,6.7c12.94,2.91,20.74,2.3,19.41-13.49-.65-7.47-.26-15-.32-22.64-.2-17.18-.2-17.18-18.54-22.65a150,150,0,0,1,16.53-1.16c10.45.55,19.06-2.11,24.39-11.94a16.66,16.66,0,0,1,4.08-4.95c4.79-3.85,10.48-1.91,10,4.07-1.29,14.85,2.24,31.45-14.13,41.74-8.87,5.56-10.87,15.27-11.32,25.36-.43,8.64-15.89,26.33-24.07,27.37-2.62.32-5.54-2.3-8.45-3.24C406,1106.4,401.68,1105.59,397.44,1104.65Z"/><path class="cls-1" d="M721.2,563.05c2.65,20.35-5.76,33.55-21.29,43.12-8.22,5.05-16.17,10.74-24.46,15.43-6.47,3.59-10,1.36-10.9-6-.42-3.72,0-7.51-.19-11.29a19.88,19.88,0,0,0-.78-7.93,153.81,153.81,0,0,0-8.83-13.62c11.39-2.59,15-18.34,29.12-16.79,4.14.46,8.44-1.45,12.71-1.78C704.54,563.63,712.56,563.44,721.2,563.05Z"/><path class="cls-1" d="M248.82,952.06c0,5.89-.42,11.77,0,17.63.68,8.28-3.65,12.75-10.42,16.17-9.44,4.86-12.13,3.92-19-4.07-16.5-19.41-9.71-40.41-4-60.69,2.59-9.06,12.94-4.59,20-4.46s12.65,3.23,12.78,11.38,0,16,0,24Z"/><path class="cls-1" d="M1131.43,448.43c-6.47,9-10.81,16.5-16.63,22.42-2.81,2.88-8.57,2.82-12.94,4.24s-12,1.78-14.07,5.11c-10.55,16.89-25.88,16.95-44.9,14.17,13.94-4.82,26.78-6.86,38.59-17.24-9.15-3.43-16.43-6.12-23.71-8.9-3-1.13-7.31-1.68-8.61-3.91-1.81-3.24-1.39-7.57-1.94-11.46a24.1,24.1,0,0,1,8.67-.51,28.5,28.5,0,0,1,7.35,5.11c1.74-.65,3.23-.71,3.59-1.39,9.7-16.5,9.7-16.44,29.11-13.17C1106.81,444.74,1117.78,446.3,1131.43,448.43Z"/><path class="cls-1" d="M90.89,901.66c11.19-.49,22.38-.84,33.54-1.49,6.22-.36,10.62,1.71,12,8.05,1.94,8.84,4.79,17.7,5,26.56a17.85,17.85,0,0,1-7.93,12.94c-1.94,1.27-8-3.23-11.84-5.85a20,20,0,0,1-4.07-5c-12.94-15.95-19.8-17-36.27-5.37-8.18,5.76-15,3.23-17.3-6.47a8.87,8.87,0,0,1-.33-3.24C64.43,916.47,85,900.1,90.89,901.66Z"/><path class="cls-1" d="M1711.89,373.35c-12.33,13.16,1.84,29.89-12.2,41.5-4,3.24-3.59,14.33-2.33,21.29,1.62,8.9-3.23,13.26-8.67,17.34-7.28,5.63-14.52,2.26-16-6.89-1.22-7.86-2-15.14-7.89-22-6.86-8,.68-25.68,12.94-27.37s14.79-8.08,17.73-17a18.52,18.52,0,0,1,5.76-9.09C1702.8,370,1706.74,372.18,1711.89,373.35Z"/><path class="cls-1" d="M649,1005c21.55.26,29.76,13.32,22.19,30.34-1.29,2.94-3.23,5.73-4.1,8.74-3.43,9.89-8.58,16.91-20.68,16.36-4.56-.19-9.25,3.56-13.87,3.53a15.08,15.08,0,0,1-10.52-5.14c-1.49-1.94-.48-7,1-9.9,2.91-5.7,7.35-10.61,10.35-16.18a48.26,48.26,0,0,0,4.5-13.42c.71-3.82-1.36-9.93.58-11.42C641.71,1005.24,647.34,1005.4,649,1005Z"/><path class="cls-1" d="M360.91,653.76c-.9-1.07-2.87-2.3-2.78-3.24.84-11.74-4.49-20.22-12.58-28.17-2.82-2.75-4.92-10.58-3.24-12.94,6.8-8.77,3.59-17.21,1.94-26.08-2.23-11.93,5.5-20.09,17.83-19.41,5.69.39,7.47,3.88,6.47,8.87-2.56,12.48,7.37,25,0,37.68-.52.91,3,5.7,5.47,6.64,9.12,3.49,5.92,8.34,2.33,13.65C371.43,638.07,366.74,645.31,360.91,653.76Z"/><path class="cls-1" d="M1555.54,819.42c13.91,12.39,18.34,29.12,18.57,47.33.19,15.08-2,28.34-19.18,34.75-5.76,2.13-9.94,9.31-14.14,14.75s-9.09,7.89-15,3.39a12.75,12.75,0,0,1-.61-18l.19-.2c6.18-5.14,13.46-9,19.19-14.59a26.33,26.33,0,0,0,8.28-14.33C1554.6,854.56,1554.83,836.5,1555.54,819.42Z"/><path class="cls-1" d="M1545.87,845.89c5,26.07-4.79,43.67-27.69,52.18-5.92,2.2-18.38-8.77-16-15.11,3.59-9.19,3.23-16-4.31-23.1-1.74-1.68.42-8.83,2.53-12.45,1.16-2,5.92-2.49,9.06-2.56a29.51,29.51,0,0,1,7.6,2.46C1526.78,849.9,1536.45,853.88,1545.87,845.89Z"/><path class="cls-1" d="M1467.87,958c8.25,8,15.69,16.17,28.86,14.3,1.74-.26,4.88,2.58,5.79,4.65,6.47,15.27,13.26,30.45,18.57,46.14,2.94,8.6-.84,11.61-8.87,7.82-20.64-9.7-38-22.06-39-48.17C1472.85,974.38,1469.88,966.2,1467.87,958Z"/><path class="cls-1" d="M1826.38,296.61a191.36,191.36,0,0,0,17.11,13.46c6.89,4.37,14.39,7.86,21.83.19,3.24-3.23,6.47-3.62,9.16,1,2.2,4,5.89,7.76-.26,12.29-7.54,5.56-17.18,9.38-19.6,20.22,0,.77-4.44.77-6.8.84-11.48.32-14.52,5.92-9.22,16a30,30,0,0,1,1.49,9.54c-3.65-1.13-8.41-1.19-10.8-3.59-12.13-12.06-12-15.78-1.81-29.27,5.82-7.7,4.69-15.79,1-24.14A151.12,151.12,0,0,1,1823.4,298Z"/><path class="cls-1" d="M463.5,290.05c.35-4.95,1-9.71,1-14.34s1.58-8.24,6.95-8.86a7.61,7.61,0,0,0,4.47-1.55c14-15.79,26.85-6.67,39.5,1.91,8.83,6,9.38,9.93,3.78,18.53-9.15,14-13.84,14.63-30.21,8.09C481.39,290.82,472.43,291.28,463.5,290.05Z"/><path class="cls-1" d="M1530.4,800.37c-4.75-5.76-9.28-11.71-14.33-17.24-5.56-6-12.94-10-7.18-21.26,3.66-7-3.91-14.85-14.23-17.76-5.15-1.45-11.26-1.29-12.2-8.31-.68-5-3.69-10.22,2.59-14.56,7.6-5.24,19.41-7.7,25.72-2.59a92.77,92.77,0,0,1,17.3,19c1.69,2.43.68,8.86-1.48,11.48-11.16,13.3-7.86,25.37,1.48,37.63a86,86,0,0,1,5.92,10.61Z"/><path class="cls-1" d="M1072.33,531.51c-5-5.79-9.13-14.69-15.08-16.18-7.41-1.91-11.68,7.09-15.62,13.62a9.27,9.27,0,0,1-8.25,3c-2-.58-3.92-4.75-4.14-7.5-.59-7-.26-13.82-6.28-19.15a7.12,7.12,0,0,1-.55-6.89c3.72-5.54,8.22-10.55,13.72-17.41,0,7.67-1.85,14.07.48,16.56,3,3.24,9.32,4.27,14.37,4.92a97.5,97.5,0,0,0,17.59,0c12.23-.65,28.28,10.16,33,22.65-5.53-.46-11.32-2.2-16.4-1S1076,529.08,1072.33,531.51Z"/><path class="cls-1" d="M1267.14,672.17c-21-.75-41.38-3.76-60.24-14.17-6.47-3.56-10.58-7.48-8.93-15,1.82-8.44,9.13-8.18,15.4-7.89a25.41,25.41,0,0,1,11.91,3.94,140.64,140.64,0,0,0,48.52,20.48,13.49,13.49,0,0,1,6,1.91,40.77,40.77,0,0,1,5.18,7.21,22.83,22.83,0,0,1-6.47,3.24A76.39,76.39,0,0,1,1267.14,672.17Z"/><path class="cls-1" d="M1669.32,993.43a32.81,32.81,0,0,1-.68,5.5c-3,9.06-3.24,22.2-9.71,26.24-12.23,7.89-27.66,10.9-42,15.27-2.17.65-5.44-2.3-8.19-3.59,1.75-1.94,3.62-3.79,5.27-5.86a11.91,11.91,0,0,0,3.24-5.17c2.17-21,21.93-24.49,35-34.2C1655.57,989.13,1663.36,992.66,1669.32,993.43Z"/><path class="cls-1" d="M1734.73,491.94a75.33,75.33,0,0,1-9.06,14.2c-6.83,7.32-12.62,6.09-17.47-3.23-7.12-13.52-14.23-27.3-11.29-43.35a16.94,16.94,0,0,1,6.21-10.19c1.88-1.26,6.89.49,9.71,2.26C1728.94,462.47,1734.82,472.6,1734.73,491.94Z"/><path class="cls-1" d="M1352.32,748.8c-8.38-10.25-8.38-10.25-19.41-4.88-13.2,6.47-21.61,2.59-21.48-11.52,0-12.65-5.92-22.42-10.71-33.06-1.3-2.91-.49-6.76-.62-10.19,3.24,1.07,6.47,1.94,9.51,3.23,8,3.24,16,6.83,25.43,10.87-.26.75-1,3.5-2,6.18-2.2,6-1.1,10.19,5.4,12.72C1351,726.9,1351.54,738,1352.32,748.8Z"/><path class="cls-1" d="M1708.46,792.06V784c0-7.08,4.56-12.07,10.58-12.13a21,21,0,0,1,15,6.7c5.88,7.57,6,16.43.93,25.65-7.7,14-4.17,19.93,11.62,25.13a44.79,44.79,0,0,1,14.13,9.71c1,.87-.29,4.43-.55,6.76-2-.35-5.07,0-5.75-1.2-5.47-9.18-12.52-12.64-23-8.63a7.59,7.59,0,0,1-6.79-2.79C1717.26,820.26,1707.23,808.3,1708.46,792.06Z"/><path class="cls-1" d="M107.13,891.34a26.42,26.42,0,0,1-6.86,3.23c-7.73.94-19.41-6-20.64-14.07-1.49-9.19-6-9.7-13.39-8.48a86.41,86.41,0,0,1-19.22.52c-9.09-.74-12-6.11-6.08-12.48A49.47,49.47,0,0,1,60,846.18a20,20,0,0,1,17.11,4.56,390.4,390.4,0,0,1,26.91,33.9A35.31,35.31,0,0,1,107.13,891.34Z"/><path class="cls-1" d="M145.11,343.2a44.9,44.9,0,0,1-10.23-1.75c-3.78-1.81-6.76-5.86-1.94-8.44,10.13-5.5,13.46-12.49,9.9-23.55-.48-1.62,5.31-7.41,6.47-7,5.37,2.2,9-10.22,14.79-1.29a22.67,22.67,0,0,0,9.05,6.47c3.85,1.91,10.78,0,9.13,7.95-1.36,6.47.22,14.4-8.8,17.34C163.25,336.31,153.23,340.22,145.11,343.2Z"/><path class="cls-1" d="M501,467.58c14,2.43,26.95,4.95,40-.58,3.82-1.65,8.7-.78,12.94-1.07-.45,6.47,1.62,16.18-1.84,19-7.93,6.47-16.44,13.36-28.57,12.78-16.17-.81-19.6-2.88-22-18.89C501.12,475.22,501.18,471.56,501,467.58Z"/><path class="cls-1" d="M542,506.14c-5.54.55-11.75-.32-16.41,2-7.27,3.56-12.94,8.31-22.64,6.69-4.79-.84-6.47,6.73-3.43,11.39,3.4,5.4,8.12,10,11.84,15.17,2.07,2.92,5.08,6.86,4.5,9.71A58.46,58.46,0,0,1,508,569.87c-.52.81-9.09-2.62-12.94-5.4-1.2-.84.19-6.47,1.49-9.22.55-1.26,4-1,5.85-2,5.4-3.23,4.82-6.66-.19-9.47s-10.58-5.21-15.85-7.83c-6.18-3.24-6.47-7.25-3.24-13.14a37,37,0,0,1,32.45-19.86c8.51-.49,17.08,0,25.59,0Z"/><path class="cls-1" d="M712.27,820.62c2.36,2.69,4.17,3.79,4.3,5,2.49,21.38,17.11,33.25,33.52,44.15,4.36,2.92,7.24,8.09,10.8,12.27-8.35,5-11.26-3.53-15.27-7.06-9.7-8.44-19.41-14-32.87-13.2-15.23.88-21.77-11.67-13.81-25.58C702.21,830.55,707.51,826.06,712.27,820.62Z"/><path class="cls-1" d="M783.37,913.24c11.75,11.84,24,7,36.2,2.52,5-1.84,10.1-3.75,15.24-5.3,9.71-3,13.94,0,14.33,10.32.42,10.77-6.47,19.41-17.24,19.05a65.82,65.82,0,0,1-24.46-5.69c-9.41-4.31-17.79-10.91-26.59-16.5Z"/><path class="cls-1" d="M1749.67,938.7c6.47-9.71,11.29-14.85,20.32-16.6,9.7-1.91,16.69-9,21.9-21.15a68.16,68.16,0,0,1,5.79,11.67c1.52,5.67,1.62,11.71,3.24,17.34s2.07,9-6,8.45c-5.6-.36-7.15,3.23-4.17,8.76a22.14,22.14,0,0,1,.84,8.29c-3-.65-6.47-.42-8.77-2.11a23.09,23.09,0,0,1-7.73-9.7c-3.23-9.32-8-11.91-16.59-6.47C1756.85,938.05,1754.56,937.86,1749.67,938.7Z"/><path class="cls-1" d="M385.92,368.07c17.31-14.39,39.05-12.26,53.38,5.15,1.16,1.39,2.3,4.75,1.65,5.4-3.72,3.62-9.35,10.35-11.81,9.41C414.62,382.47,394.59,388.81,385.92,368.07Z"/><path class="cls-1" d="M493.36,399.13C483.65,418,461,431.9,444.28,429c-5.89-1-12.07-2-12.39-10-.36-8.54,5.37-10.55,12.36-11.68C460.75,404.76,477.21,401.85,493.36,399.13Z"/><path class="cls-1" d="M365.48,411.36A71.21,71.21,0,0,1,374,409c10.71-1.68,20.29-4.43,26.76-14.75,1.94-3.24,9.93-5.15,13.71-3.75,5.47,2,10.1,7.11,13.95,11.84.87,1.06-2.11,7.11-4.69,8.92-11.59,8.12-23.43,14.08-38.21,5.79-5.4-3-12.94-2.16-19.41-3.07Z"/><path class="cls-1" d="M494.36,472c1,5.6-1.52,10.16-8.44,12s-9.52-3-11.65-8.12c-4.47-10.67-9.22-21.28-12.94-32.35-.74-2.29,1.91-7.08,4.33-8.64s8.42-2.07,9.71-.51C483.75,445.33,494,455.52,494.36,472Z"/><path class="cls-1" d="M165,512.1c-2.71,19.21-4.62,35.1-7.47,50.79-.42,2.26-5.08,4.59-8.12,5.14-1.32.23-4.2-3.66-5.08-6.11-5.66-15.95,5-30.41,4.6-45.94a38.38,38.38,0,0,1,1-6.31c.71-5.24,4.08-8.09,8.8-6.47,2.65.94,4.46,4.79,6.14,7.6C165.62,512.1,165,513.88,165,512.1Z"/><path class="cls-1" d="M1457.87,900.59c1.1,20.61,11.13,36.36,25.66,49.95,3.78,3.59,12.55,8.18,7.54,13.23-5.86,5.89-8.87-3.75-12.94-7.18a43.1,43.1,0,0,0-12.94-8.38c-19.09-6.47-23.39-14.72-16.18-33,1.88-4.88,3.69-9.7,5.53-14.65Z"/><path class="cls-1" d="M690.47,626.29c0,.52.19,1.3,0,1.52-7.67,7.19-12.17,15.11-6.15,25.53-7.05,5.24-13.56,11.61-21.35,15.33-5.08,2.43-9.29-2.23-7.93-8.28a253.44,253.44,0,0,1,7-24.65c1.13-3.4,23.68-13.1,26.53-11.81C689.33,624.32,689.82,625.48,690.47,626.29Z"/><path class="cls-1" d="M270.56,967.33c0-7.18,0-14.37-.45-21.55a155.83,155.83,0,0,0-2.33-23.71c-2.07-9.7,2.81-19.22,12.65-20.9,2.07-.35,6.79,2.59,6.79,4.05,0,8.92,1.65,19.12-2,26.49a62.18,62.18,0,0,0-7.73,30.44,16.53,16.53,0,0,1-2,5.47Z"/><path class="cls-1" d="M751.45,486c-16.5,16.56-45,6.47-54.39-11.16-2.84-5.41-.19-9.16,6.22-9S744.59,480.69,751.45,486Z"/><path class="cls-1" d="M808.32,501.81l-16.18,20.12a50.64,50.64,0,0,1-30.57-24.81,26,26,0,0,1-1.75-7.15,25.06,25.06,0,0,1,7.38-.49c8.77,2.2,17.08,10.29,26.46,1.52Z"/><path class="cls-1" d="M1712.66,972.57c-5.53,4.08-9.7,8.8-14.84,10.45-6.28,2-17.51,4.17-19.41,1.49-3.82-5.83-4.08-14.79-3.59-22.29.32-4.76,4.65-9.26,7.37-14.14Z"/><path class="cls-1" d="M146.17,985.09c.2,8.31-2.39,10.45-9,6.47a280.67,280.67,0,0,1-26.36-18c-2-1.55-3.59-7.4-2.4-8.79,3.79-4.5,8.74-10.62,13.62-11C129.38,953.22,146,976.87,146.17,985.09Z"/><path class="cls-1" d="M887.35,750.13a117.41,117.41,0,0,1-17.28-2.91c-3-1-5.11-4.5-7.63-6.89a66.52,66.52,0,0,1,8.38-5.15,14.88,14.88,0,0,1,6.47-.35,20.46,20.46,0,0,0,20.93-11.75,25,25,0,0,1,5.5-7.82,41.54,41.54,0,0,1,9-4.5c-1,3-2,6.08-3,9.12a79.26,79.26,0,0,0-4.21,13.46C903.3,750,903.49,750,887.35,750.13Z"/><path class="cls-1" d="M452.34,400.55a8.45,8.45,0,0,1-1.59,0l-14.69-3.49c3.69-4.17,6.83-11.06,11.2-12A199.09,199.09,0,0,1,483,382.15c2.27,0,4.63,3.23,7,5.17-1.81,1.78-3.24,4.43-5.47,5.21-10.38,3.72-20.93,6.92-31.41,10.29C452.85,402.11,452.59,401.33,452.34,400.55Z"/><path class="cls-1" d="M399.09,449.18c10.74-5.54,19.41-11.36,29.11-14.53,6.47-2.1,14.27-.39,21.48-.39,0,1.68.29,3.24.46,5.08-6.89,1.07-13.75,2.07-20.61,3.24-9.32,1.58-11.16,5.63-5.11,12.74,6.92,8.06,14.56,15.5,22.64,23.84-17.34-1.81-24.55-6.47-31.05-19.86C412.51,452.18,412.51,452.18,399.09,449.18Z"/><path class="cls-1" d="M347.33,239.81c7.79,12.58,11.13,20.6,4,30.37-2.46,3.24-1.72,9-2.88,13.56-.59,2.29-2.11,6.14-3.24,6.14a11.44,11.44,0,0,1-8.09-3,26.4,26.4,0,0,1,.26-32.61C340.4,250.06,343.19,245.66,347.33,239.81Z"/><path class="cls-1" d="M506.3,207.49c15.88.16,22.64,8.57,19.41,20.09-.49,1.78-2.82,4.62-3.76,4.43a155.36,155.36,0,0,1-28.72-7.41c-5-2.1-4.63-8.7.51-11.84A68.82,68.82,0,0,1,506.3,207.49Z"/><path class="cls-1" d="M98,931.81c7.22,0,16.67,8.09,14.17,13.65-2.78,6.28-9,11.06-13.71,16.5-6.47-6-13.69-11.39-18.9-18.31C77.2,940.54,90.43,931.81,98,931.81Z"/><path class="cls-1" d="M507.27,237.61c12.22,1.84,23.06,3.23,27.56,15.36,3,8.15-1.07,14.43-8.57,11.55a113.55,113.55,0,0,1-24.46-14.65c-1.68-1.2-2.07-6.47-.94-8.71S505.84,238.35,507.27,237.61Z"/><path class="cls-1" d="M1256,956.33c-2,1.58-5.25,5.85-9.42,7a11.27,11.27,0,0,1-9.7-4.75,26.85,26.85,0,0,1-1.72-13.53,142.58,142.58,0,0,1,2.43-16.46c.32-2,.68-5.47,1.39-5.57a9.26,9.26,0,0,1,6.92,1.3,31.55,31.55,0,0,1,7.8,11.38C1255.23,941.22,1255,947.27,1256,956.33Z"/><path class="cls-1" d="M319,419.93c2.52-2.65,5.17-5.3,7.7-8.09,5.4-6,11-5.75,16.85-.71a95,95,0,0,1,7,6.47c2.2,2.33,5.14,5.4,4.72,6-2.29,3.23-6.76,8.86-8.34,8.25C337.62,428.15,324.23,435.75,319,419.93Z"/><path class="cls-1" d="M750.18,496.92a19.12,19.12,0,0,1,5.18,3.47,120.34,120.34,0,0,1,11.52,15.14,9.26,9.26,0,0,1,.55,8.31,8.73,8.73,0,0,1-8.38,1.52,109.91,109.91,0,0,1-21.22-16C733.17,504.53,739.9,497.05,750.18,496.92Z"/><path class="cls-1" d="M431.76,447.79c5.79,0,11.91-1.17,17.28.35,4.53,1.29,10.7,5.14,11.51,8.9,1,4.62-2.78,10.28-4.46,15.53-3.53-1.43-7.7-2.08-10.39-4.44-5.82-5.08-10.9-11.06-16.17-16.69Z"/><path class="cls-1" d="M307.21,350.8l-20.47-7.6c4-3.4,7.24-8.25,9.44-7.8,8.54,1.75,9.06-2.36,8.57-8.77s4.95-8.7,9.42-8.05c2.33.35,5,6,5.43,9.48a18.93,18.93,0,0,1-3.69,9.7C313.62,342,310.74,345.69,307.21,350.8Z"/><path class="cls-1" d="M257.52,919.39c1.94,2.75,5.37,5.37,5.57,8.24.9,13.2,1,26.5,1,39.73,0,1.59-2.36,3.24-3.62,4.76-1.39-1.17-3.92-2.24-4-3.47-1-16.17-1.72-32.35-2.53-48.36Z"/><path class="cls-1" d="M1775.23,526.72a167.57,167.57,0,0,1,13.2,14.36c4.5,6,2.33,12.43-1.68,17.86a9.75,9.75,0,0,1-6.47,3.24c-1.07,0-2.66-2.92-3.5-4.76-3.23-7.09-6.24-14.3-9.31-21.45C1765.3,531,1767.69,526.3,1775.23,526.72Z"/><path class="cls-1" d="M1698,706.2c-16.69-15-16.17-28.73,1.1-38.82C1700.15,680.32,1701.73,692.87,1698,706.2Z"/><path class="cls-1" d="M1742.69,878l5.07-8.09c2.43,1.75,6.47,3,7,5.28,2.75,9.7,4.59,19.6,6.47,29.5.19,1.1-1.1,2.75-2.1,3.72a3,3,0,0,1-2.88-.36C1751.71,898.2,1747.28,888.23,1742.69,878Z"/><path class="cls-1" d="M1711.34,880.31c1.91,5.72,5.24,10.8,4,12.61-7.38,10.42-15.08,20.84-25.89,28l-3.23-2.62Z"/><path class="cls-1" d="M556.63,424.56c-3.81-7-8.12-14.14-11.58-21.71-1-2.2.49-5.53.84-8.35a22.11,22.11,0,0,1,7.22,1.59C566.14,404.89,566.73,412.3,556.63,424.56Z"/><path class="cls-1" d="M649.32,657c-8.54-12.45-8.29-22.64-3.24-32.7,1-2,3.82-3.08,5.79-4.6,1.49,2.43,4.5,5.12,4.14,7.25C654.65,636.26,652,645.44,649.32,657Z"/><path class="cls-1" d="M282.43,352.32c14.75-.52,23.49,7,31.87,14.82,1.07,1,1,3.85.55,5.62-.16.72-3.24,1.65-4.08,1.1C301,368.24,290.23,363.84,282.43,352.32Z"/><path class="cls-1" d="M1580.58,755.08c3.53,5.18,6.47,7.73,6.92,10.61.71,6.7-7.6,14.59-13.33,12.52-3.23-1.13-7.66-7.41-7-8.54C1570.16,764.78,1574.89,761,1580.58,755.08Z"/><path class="cls-1" d="M473.88,522.29c-7.5-11.07-8.86-20.58-2.26-31.19C481.22,504.43,481.74,509.9,473.88,522.29Z"/><path class="cls-1" d="M358.52,524.33,348.2,535.78a65.2,65.2,0,0,1-6.47-12.94,7.25,7.25,0,0,1,4.82-9.05,7.41,7.41,0,0,1,3.14-.24C352.54,513.78,354.74,519.38,358.52,524.33Z"/><path class="cls-1" d="M1816.7,1028.53a130.08,130.08,0,0,1,11.62,8c3.91,3.23,2,12.71-2.85,14.75a5.61,5.61,0,0,1-4.3-.52C1814.18,1046.68,1812.37,1038.24,1816.7,1028.53Z"/><path class="cls-1" d="M391.65,556.45c20.31-8,22.29-6.83,20.67,10.58Z"/><path class="cls-1" d="M175.52,282.41l10.8,13.43c-2.88,1.91-6.28,5.85-8.48,5.27a18.08,18.08,0,0,1-9.7-7.73C167.3,292.12,171.7,287.75,175.52,282.41Z"/><path class="cls-1" d="M408.5,439.12l-9.12-6.25c1.87-1.94,3.69-4,5.69-5.85a6.07,6.07,0,0,1,2.95-1.1c4.56-.81,9.12-1.52,13.71-2,.2,0,1.43,3.53.91,3.95C418.14,431.74,413.39,435.33,408.5,439.12Z"/><path class="cls-1" d="M805.53,676.63c-3.85-6.11-7.6-9.54-7.86-13.23-.16-2.56,4.4-5.47,6.86-8.25a59,59,0,0,1,6,11.55C811,668.54,808.32,671.29,805.53,676.63Z"/><path class="cls-1" d="M484,250.06c-6.76,4.53-11.52,8.06-16.66,10.77-.88.46-3.59-2.68-5.47-4.14a143.38,143.38,0,0,1,12.62-12.52C475.21,243.59,479.06,247,484,250.06Z"/><path class="cls-1" d="M626.8,1075.47c-4.63,3.24-7,5.8-9.71,6.47-5.11,1-8.57-2.1-7.6-7.21.65-3.49,3.69-6.47,5.7-9.7Z"/><path class="cls-1" d="M1799.85,532.25c-2.82-11.77,1.58-16.72,8.22-20.12.87-.45,4.27,1.52,4.52,2.78C1814.57,525,1806.58,526.88,1799.85,532.25Z"/><path class="cls-1" d="M69.6,902.4c-3.88,4.82-5.92,12.49-13.23,8.41a8.89,8.89,0,0,1-1.91-8.41C58.83,895,64.3,900.59,69.6,902.4Z"/><path class="cls-1" d="M502.61,496.44c-5.95,3.23-9.19,6.05-12.94,6.76-1.55.32-3.95-3.49-5.95-5.43,2.68-2.62,4.94-6.47,8.15-7.48C494,489.68,497.37,493.24,502.61,496.44Z"/><path class="cls-1" d="M1318.28,660.26a29.08,29.08,0,0,1,6.47,2.27c.85.48.62,2.78.88,4.27l-18-.52c.61-1.68.78-4.37,1.88-4.79A36.76,36.76,0,0,1,1318.28,660.26Z"/><path class="cls-1" d="M864.57,717.65l-7.28,8.7c-1.61-2.39-5.07-5.37-4.52-7.05a49.15,49.15,0,0,1,6.92-11Z"/><path class="cls-1" d="M772,887.36a21.64,21.64,0,0,1,.87,7.63,26.73,26.73,0,0,1-4.75,9.09c-.42.55-5.28-1-5.31-1.71a34.58,34.58,0,0,1,1-10.58,37.38,37.38,0,0,1,3.59-7.15Z"/><path class="cls-1" d="M638.19,587.12a150.14,150.14,0,0,1-14.56,10.25c-1.33.75-4.34-1.45-6.47-2.33,1.36-1.74,2.39-4.27,4.17-5.11,4.69-2.2,9.71-3.65,14.59-5.4Z"/><path class="cls-1" d="M1770.28,896c-1.65-1.84-2.3-2.26-2.3-2.62.39-4.85.88-9.7,1.33-14.55,1.36.38,3.62.42,4,1.23C1775.52,885.45,1776.46,890.88,1770.28,896Z"/><path class="cls-1" d="M556.73,506.44c-2.52-2.85-5.5-5.28-5.14-6a16.55,16.55,0,0,1,6.47-7.31c1.23-.55,4.4,3,6.69,4.73Z"/><path class="cls-1" d="M1785,875.45l-9.7-15.82C1787.33,860.57,1787.33,860.57,1785,875.45Z"/><path class="cls-1" d="M526,587.67l19.41,3.23C538.19,594.85,531.27,595.88,526,587.67Z"/><path class="cls-1" d="M1894.12,286,1884,299.56l-3.46-2.3,9.31-14.17Z"/><path class="cls-1" d="M463.79,474.09c2.07,3,4.33,5.17,3.94,5.82a50.46,50.46,0,0,1-6.11,7.41c-1.07-.94-3.23-2.3-3-2.75C459.91,481.46,461.59,478.52,463.79,474.09Z"/><path class="cls-1" d="M658.37,598.54c-.68,4.2-1.39,8.38-2.1,12.55l-4.59-.58c.32-4.34.61-8.67.94-12.94Z"/><path class="cls-1" d="M373.66,284.38a16.44,16.44,0,0,1-6,1.59,21.87,21.87,0,0,1-6.18-3.24c1.1-1.58,2.1-4.39,3.23-4.52a16.74,16.74,0,0,1,6.47,2.23Z"/><path class="cls-1" d="M1913.07,257.24l-7,12-3.23-1.71,5.75-12.39Z"/><path class="cls-1" d="M370.52,1030.35h10.29a8.06,8.06,0,0,0,.23,2.33l-10.32.87Z"/><path class="cls-1" d="M1092.51,531.25a34.37,34.37,0,0,1-6.69,5c-.81.33-2.62-1.78-4-2.78a33.16,33.16,0,0,1,5.56-4.46C1088.15,528.63,1089.89,530.05,1092.51,531.25Z"/><path class="cls-1" d="M350.92,486.38a52.82,52.82,0,0,1,1,9c0,1-1.85,1.84-2.85,2.78-1.13-1.87-3-3.72-3.23-5.66C345.81,491.13,348.1,489.65,350.92,486.38Z"/><path class="cls-1" d="M902.65,884.9c-1.39,1.71-2.07,3.49-3.24,3.82A49,49,0,0,1,891,890a8.6,8.6,0,0,1-.61-1.26,48.15,48.15,0,0,1,7.11-4.63C898.61,883.61,900.51,884.48,902.65,884.9Z"/><path class="cls-1" d="M68.76,891.34H50.39v-.75H68.76Z"/><path class="cls-1" d="M67.08,881.73H49.48v-.84l18.7-1.07Z"/></g><circle class="cls-2" cx="642.13" cy="325.95" r="49.01"/></svg>