<?xml version="1.0" encoding="utf-8"?>
<!-- Generator: Adobe Illustrator 25.2.3, SVG Export Plug-In . SVG Version: 6.00 Build 0)  -->
<svg version="1.1" id="Слой_1" xmlns="http://www.w3.org/2000/svg" xmlns:xlink="http://www.w3.org/1999/xlink" x="0px" y="0px"
	 viewBox="0 0 1920 1080" style="enable-background:new 0 0 1920 1080;" xml:space="preserve">
<style type="text/css">
	.st0{fill:#F2F2F2;}
	.st1{fill:#2EFF98;}
	.st2{fill:#DA49E2;}
</style>
<g id="map">
	<g id="sFFT8b.tif">
		<path class="st0" d="M753.4,155c20.5-7.9,39.7-4.2,58.8,5.2c10.6,5.2,22.2,8.4,32.8,13.4c12.7,6,16.7,18.9,8.4,27.1
			c-3.8,3.5-8.9,5.3-14,5.1c-16-1.8-31.7-5.2-47.6-7.7c-5.4-0.9-12.8-5-15.6,2.4c-3.4,8.9,5.3,10.8,11.1,12.4
			c10.7,3.2,11.3,11.8,12.9,20.2c2.8,15.2,12.9,23.4,27.8,22.6c11.5-0.7,13.5-4.3,8.5-15.5c-0.6-1.4-1.1-2.9-2.1-5.6l28.3-1.6
			c3-7.5-7.1-13.4,0-20.4c5.3-5.2,10-8.8,18.2-7.5c12.2,2,15.3-2.5,10.7-14.3c-2-4.5-4.2-8.8-6.8-12.9c-1.4-2.3-2.7-4.7-3.7-7.1
			c-1.5-4.8-5.2-12-3.2-14.3c5.8-7.1,13.7-2.5,20.8-0.2s8.9,7.5,7.5,14c-1.2,5.6-2.9,11.1-4.4,16.8c19.9,2.3,20.1,1.8,23.8-14.6
			c1.1-4.5,3.9-8.4,7.7-11c12.3-7.6,25.2-14.4,38-21.2c2.6-1.4,7.7-2.6,8.7-1.4c7.6,9.3,15.6,4,23.3,1c12.6-4.9,27.7-6,33-22.6
			c0.6-1.8,7.8-3,11.4-2.2c19.8,4.2,40.8,4.7,58.2,17.6c0.6,0.5,2-0.2,3.7-0.4c1.2-13.1-0.9-23.4-15.5-29.3
			c-11.7-4.8-15.4-29.8-6.5-39c4.6-4.8,6-8.3,3.8-15.3c-3.9-12.5,0.6-16.5,14.1-15.2c16.5,1.6,20,4.2,21.6,20
			c2,19.6,6.7,37.4,20.4,52.9c10.6,12,5.7,35.6-7.5,45.3c-2.2,1.6-5.3,2.8-6.3,4.9c-1.6,3.2-2.1,6.8-1.5,10.3
			c1.5,2.7,4.2,4.4,7.2,4.7c8.1-0.4,16.1-1.5,23.9-3.2c2.9-1,5.2-3.5,6-6.5c1.1-12.6,7.1-24.8,2.5-38c-3.6-10.2,0-12.9,11.2-11.5
			c3.4,0.1,6.7-0.2,10-0.8c-0.4-4.1,0.5-9.2-1.6-12.2c-2.7-3-6.6-4.8-10.7-4.8c-6,0-14.3,5-17.6,2.5c-4.8-3.6-6.3-11.9-8.5-18.4
			c-5.2-15.3-10.1-30.6-14.8-46.1c-1.2-4.9-2.2-9.8-2.9-14.8l3.9-2c4.4,4.9,9,9.7,13.1,14.9c4.8,6,9.7,8.8,15.8,2.1
			c5.6-6.1,11.8-6.2,18.9-2.9c4,1.7,8,3.2,12.1,4.4c15.9,5.5,18,4.8,30.2-10.9c-7-3.2-13.7-6.2-20.4-9.3
			c-11.7-5.4-16.2-15.3-8.7-25.9c12.5-18,23.7-36.9,41.7-50.9c27.8-21.8,57.6-41,89-57.2c6.9-3.5,14.8-6,8.4-17.9
			c-2-3.6,4.9-12.9,9.2-18.4c0.8-1.1,10.2,2.1,12.9,5.6c8.7,10.6,18.4,11.5,30,6.1c3.9-1.8,8.5-2.2,12.2-4.2c15-8.1,29.3-3,43.5,1.8
			c2.9,1.1,5.4,3.2,6.8,6c4.7,10.5,0,28.5-9.1,36.5c-12.5,11.1-25.1,22-37.8,32.9c-4.8,4.1-8,8.6-6.5,15.3c1,4.8,1.8,10.2,8.3,10
			c5.8-0.2,11.7,0.3,14.3-7.5c6.9-21.3,21.6-33.4,44.1-36.4c13.3-1.5,26.6-3.8,39.7-6.8c8.9-2.2,15.2-1,21.8,5.5
			c8.5,8.3,20.6,7.9,27.5-1.3c2.6-3.4,2-9.9,1.5-14.9c-1.5-12.9-1-14.1,12.2-13.8c13.8,0.3,27.6,1.6,43.3,2.7
			c-2.6,6.5-3.9,10.4-5.6,14.1c-5.7,12.7-5.8,13.2,7.3,15.9c13.7,2.8,27.5,4.7,41.3,7.5c8.5,1.7,11.4-2,9.7-9.5
			c-2.3-8.8,1.1-11.2,9.4-11.9c15.5-1.4,31-3.6,46.4-5.9c10.8-1.5,14.6-10.4,8.8-19.7c-7.2-11.5-3.8-21.8,9.3-24.8
			c17.7-4.5,35.7-7.9,53.8-10.1c10.9-1.1,22.4,1.7,33.4,3.7c13.7,2.5,27.4,5.7,40.9,9.3c7.7,2.1,14,1.2,18.5-5.4
			c14.9-22.4,37.4-13.7,57.5-13.6c3.2,0,7.2,6.9,9.7,11.3c7.1,12,6.9,12.2,20.1,7.2c14.1-5.3,28.3-10.4,42-16.7
			c10.1-4.7,19.1-5.4,29.1,0c5.2,2.4,10.6,4.4,16.2,6c6.2-19.4,6.2-19.4-13.6-33.4c5.6-3.2,10-7.1,15-8.1c24.2-4.7,48.5-9,73-12.5
			c6.4-0.4,12.8,0.6,18.8,3c12.9,3.9,25.5,8.6,38.2,12.9c18.2,6.2,37.9,9.7,48.9,31.5c3.3-4.3,6.3-8.8,9-13.5
			c3.4-7.1,8.1-9.7,15.6-6.5c2,0.8,4.1,1.2,6.1,2c7.9,3.2,15.7,6.7,23.5,10c-3.7,6.8-6.9,14-11.2,20.4c-3.5,3.9-3.2,9.8,0.7,13.3
			l0,0l0,0c0.3,0.3,0.6,0.5,1,0.8c1.6,1.5,3,3,4.5,4.6c3.6,3.9,7.9,7.1,5.3,13.8c-3,7.9-9.3,6-14.9,6c-17.6,0-34-5.6-49.6-12.9
			c-4.5-2.1-7.9-7-11.5-10.8c-2.9-3-5.2-7.9-10.3-4.1c-4.2,3.2-9,6.5-6.5,13.2c1.5,4.6,3.4,9,5.6,13.4c4.2,7.5,3.8,13.5-2.2,20.4
			c-7.9,9.1-7.5,9.7,1.9,17.7c11,9.2,21,20.1,36.5,22.6c3.6,1.3,6.4,4.3,7.5,8.1c1.3,6-3.8,6-8.4,6.5c-11.5,0.7-21.8,7.7-26.7,18.1
			c-6.1,10.7-11.6,21.7-16.5,33c-3.8,11.3-6.9,22.7-9.3,34.3c-6.8-0.4-13.7-0.3-20.5,0.3c-3.5,0.8-6.5,3.2-8,6.5
			c-1.8,11.1-10.1,12.6-18.6,14.9c-18.5,4.9-18.5,5-16.9,24.2c0.5,5.9,1.9,11.7,2.2,17.6c0.6,9.3,0.9,15.6,13.2,19.7
			c9.3,3.2,15,17.1,22.1,26.4c0.5,1.5,0.2,3.3-0.9,4.5c-9.4,9.1-3.5,17.7,0.7,26.3c2.9,6,5.1,11.3-1,17.5c-3.2,4.1-5,9.2-5.1,14.5
			c-1.2,16.2-1.3,32.3-2.2,48.5c-0.8,3.5-2,6.8-3.8,9.9c-3-1.8-7-2.8-8.8-5.4c-18.2-25.9-36.1-52.3-54-78.4
			c-1.1-1.2-1.8-2.7-2.1-4.3c0.8-19.7-5.2-39.7,2.1-59c6.9-18.1,14.2-36,21.7-53.8c4.5-9.8,6.2-20.7,4.8-31.4
			c-0.8-8-0.8-16.1,0-24.1c0.3-4.5,4.5-9.4-3.2-11.6c-8.4-2.5-17.2,0-19,6.5c-1.1,4.3-1.7,10.2,0.4,13.7c6,10.5,2.1,18.5-4.1,26.6
			c-6.5,8.5-15.3,7.5-19.7-2.5c-2-4.4-2.4-9.5-4.7-13.6c-0.9-1.7-6.5-3-7.3-2.1c-6.1,6.5-13.3,12.9-16.8,20.8
			c-4.9,11.2-6.8,23.7-10.4,35.6c-2.1,7.1-0.5,11.3,7,13.1c3.2,0.7,7.2,1.2,8.8,3.2c1,2.8,1,5.9,0,8.8
			c-11.3,0.9-15.6,10.7-22.8,16.8c-2.5,1.6-5.1,2.8-7.9,3.7c-0.6-2.4-2.2-5.2-1.5-7.2c2.4-7.4-1.9-9-7.4-8.5
			c-7.3,0.7-16.2,0.3-21.6,4.1c-17.3,12-36.8,17.4-56.5,23c-10.1,2.9-15.4,7.4-16.2,18.6c-1.1,15.5-4.2,30.8-6.5,46.3
			c-1.9,14.9-6.3,29.4-12.9,43c-5.1,10-4.3,10.7,6.2,15.2c5.5,2.3,11,4.3,16.5,6.5c5.5,2.1,8.8,3.8,12.9-3.5
			c4.8-8.6,10.5-7.5,18-0.2c24.2,23.6,36.7,54,48.8,84.5c1.2,4.1,1.7,8.4,1.4,12.7c0,12.4-0.6,24.8-0.2,37.2
			c0.9,26.7-10.3,50.3-18.7,74.6c-3.4,9.9-12.5,10.7-20.1,8.2s-12.9-1.5-17.3,3.9l-11.1-26.5c-3.6-8.6-1.5-14.4,7.8-16.6
			c6.8-1.6,9-5.2,8.7-11.2c-0.7-18.3-1.5-36.5-2.5-54.8c-0.3-4.7-2.8-7.5-7.3-4.7c-5.4,3.2-12.5,6.5-14.7,11.7
			c-4.5,10.6-12.7,11.1-19.6,7.2c-22.6-12.9-48.7-21.1-64.7-43.9c-3.2-4.4-7.9-7.8-10.2-12.4c-13.1-25.9-36.3-25-59.8-22.8
			c-16,1.5-21.9,12.2-15.1,26.9c4.8,10.4,9,20.4,6,32.3c-2.7,11.1-5.6,15.2-16.9,15c-10.7-0.3-21.5-1.3-32.1-3
			c-8-1.7-16.3,1.1-21.7,7.3c-6.6,7.4-12.4,16.6-25,14.9c-9.3-1.3-17.9-1.7-27.3-6.2c-8.6-4.2-21.6,0.2-32.6,1.2
			c-2.5,0.2-4.6,2.8-7.1,3.6c-9,3-15.4,1-20.2-7.5c-10-17.6-29.1-15.9-44.6-21.6c-5.3,5.7-10.2,11.9-14.5,18.4
			c-1,1.7,3.2,6.7,5.3,10c1.3,1.6,2.8,3,4.5,4.2c-7.6,14.9-18.3,16.6-32.7,11.2c-7.5-2.9-14.8-6.5-22.3-9.5
			c-12.4-5.1-12.5-5.1-21.1,6.2c-4.2,5.6-8.1,11.4-12.4,16.9c-2.3,2.9-5.2,7.1-8.1,7.3c-15.5,0.9-31.9,2.5-44.4-8.7
			c-8.1-7.2-15.6-10.2-26.1-7.6c-5.6,1.5-11.8,0.8-17.7,1.5c-7,0.8-14-1.8-18.8-7.1c-13.1-12.9-26.7-25-39.7-37.9
			c-6.5-6.5-12.5-9-18.8-1c-7.7,9.9-15.9,8.3-25.5,3.4s-19.9-8.3-29.1-13.5c-8.8-5.5-19.9-5.5-28.7,0c-17,9.2-34.8,17.1-52.1,25.9
			c-13.8,6.9-19.4,29.4-11.1,42.6c8,12.4,7.6,11.8-4.8,19.7c-15.7,10-32,6.5-48.5,3.7c-2.1-0.4-4-1.5-5.2-3.2
			c-5.3-9-14.4-7.7-22.6-9.5c-21.8-4.5-37.3,7.5-52.4,19.4c-10.7,8.5-9.1,34.7,1.4,43.3c1.7,1.4,3.5,2.6,5.2,3.9
			c15.7,11.9,15.7,11.9,4.6,27.7c-7.8,11.1-5.2,14.1,0.6,28.1c5.2,12.6,7.4,26.2,18.5,35.6c-1.4,1.7-3,4.8-4.2,4.7
			c-3.7-0.6-7.3-1.7-10.7-3.2c-19.1-7.2-38.2-14.6-57.4-21.4c-4.8-1.7-11.3-3.2-15.3-1.2c-15.3,7.5-27.4-1.5-39.1-7.6
			c-10.8-5.7-10.7-19.4-2.3-30.8c8.4-11.4,18-21.2,23.6-33.4c4.2-9,3-20.7,3.2-31.3c0-1.7-5.5-4.3-8.7-4.9c-8.4-1.7-17-2.7-25.6-3
			c-8.1,0.2-15.7-3.9-20-10.8c-13.2-18.7-13.5-18.5-35.4-24c0.3-23.1-15.3-43.3-37.7-49c-8.6-2.1-11.6-5.4-14.5-13.8
			c-3.7-10.5-9.9-19.8-8.9-31.9c0.5-6.5,1.3-11.4,7.6-14.6c5.3-2.7,9.3-6.2,2.8-12c-5-4.5-4-9.5-0.9-14.6c0.9-1.9,2.1-3.8,3.4-5.5
			c18-18.3,16.2-37.5,3.9-58.2c-5.3-9.4-9.6-19.3-12.6-29.7c-2.5-8.6-4-17.5-4.4-26.4c-0.5-6.5,0.3-12.3-6.5-16.8s-5.3-12.1-3.7-19
			L753.4,155z"/>
		<path class="st0" d="M1894.8,720.2c12.9,1.7,15.2,9.7,14.7,19.9c-1.4,26.2-6.2,51-24.2,71.6c-2.6,2.7-5,5.6-7.2,8.7
			c-11.1,17.4-28.5,29.8-48.5,34.5c-9,1.9-16.9,7.4-21.9,15.2c-3.2,5.3-7.7,5.8-10.9-0.7c-4.3-8.9-11.4-9.2-19-5.8
			c-7,3.2-11.9,1.9-16.9-3.9c-7.6-8.7-14.2-19-28.7-17.6c-15,1.7-29.1,8.3-40,18.8c-10.5,9.3-20.3,7.8-24-5.7
			c-1.5-5.7-5.7-10.4-11.2-12.5c-14.2-6.8-16.7-14-11.3-28.3c2-5.3,5.8-12.3,4-16.4c-3.8-8.6-10.4-16.2-16.5-23.4
			c-4-4.7-9.5-8-13.8-12.5c-5.4-6.3-14.7-7.7-21.7-3.2c-6.2,3.3-12.1,7.1-17.7,11.3c-34.3,25.5-69.5,19.7-105.1,3.5
			c-4.3-2.2-8.5-4.6-12.5-7.4c-7.9-5.1-15.8-8.3-25.9-5.2c-8.6,2.7-16.7,0-24.3-5.2c-6.5-4.3-10.4-9.3-9.3-17.2
			c2-14.6-4.1-25.9-13.4-36.4c-8.8-10.2-16.7-21.1-24.9-31.8c-5.3-6.9-10.3-13.6-19.7-15.6c-3.4-1.2-6.2-3.8-7.8-7
			c-3.2-6.5-6.5-11.9-15.1-12.4c-6.8-0.4-7.4-5.9-4.9-10.7c3.8-7.2,8.1-14.3,18.7-10.8c7.1,2.4,12.2-1.1,16.2-7.1
			c8.6-12.4,17.3-24.7,26.5-36.6c5.2-6.7,5.7-12.8-0.5-18.3c-11.4-10.1-10.9-20.9-3.4-32.8c2.2-3.7,4-7.6,5.5-11.7
			c3.8-9.4,7.9-17.4,20.7-16.2c3.2,0.4,8.5-4.1,10.5-7.6c4-7,6-15,9.4-22.2c3.9-8.2,9.9-9,13.9-1.2c4.5,9,9.7,15.1,20,18.5
			c4.9,1.6,7.5,10,11.1,15.4c1.6,2.1,3,4.5,4.1,6.9c7.2,18.8,21.1,25.9,40.7,23.4c4.3-0.2,8.6-0.1,12.9,0.2
			c7.7-0.4,14.7,4.4,17.2,11.7c6.3,14.5,30.7,22.6,45,16.2c3.9-1.8,7.8-3.7,11.5-5.9c5.4-4,12.9-3.6,17.9,1
			c15.6,13.3,32.7,7.3,48.9,3c11.3-3.5,22.2-8.3,32.5-14.1c5.2-2.8,9.7-6.6,13.3-11.2c9.2-11.3,17.6-23.1,26.5-34.6
			c4.9-6.5,9.5-12.4,18.1-15.2c4.5-1.5,7.7-8.1,10.4-12.9c4.1-7.5,6.5-15.4,17.5-16.2c7.1-0.6,7.8-10.2,1.1-14.5
			c-9-5.7-18-12.2-29.8-5.5c-5.1,2.9-11.4,5.7-14.3-3.2s0.5-18.5,7.6-21.1s16.5-2.6,18-11.4c1.7-10.9,2.2-22.1,1.5-33.1
			c-0.2-5-4.2-9.7-6-14.9c-3-8.5,0-14,8.9-14.7c11.3-0.7,22.6-0.6,33.9,0.2c3.1,0.7,5.9,2.4,8,4.7c2.7,2.6,5.2,5.5,7.2,8.6
			c19.2,29.6,47.6,47.6,78.4,62.3c4.8,2.2,9.9,3.7,15.2,4.5c8.2,1.3,14.7-0.7,17.3-10.1c0.8-2.9,4.6-4.9,7-7.4c1.7,3,3,6.3,3.8,9.7
			c0.6,9.7,0.3,19.4,0.6,29.1c0.3,8,0.2,15.3-10.6,16.3c-2.7,1.2-4.7,3.7-5.1,6.7c0.5,7.3,1.6,14.6,3.2,21.8
			c0.5,2.5,2.7,4.7,3.5,7.2c3.2,10.2-6.1,15.2-9.7,22.6s-1.5,16.6-14.4,18.4c-11.6,1.6-19.4,12.7-21,23.8
			c-1.9,13.5-12.9,17.5-20.2,25.5c-0.6,0.7-6.5-1.4-7-3c-0.7-4.8-1-9.6-0.8-14.4c-0.6-9.9-8.4-14.6-16.2-9
			c-14.5,10.1-21.3,25.5-24.2,42.2c-1.5,8.7,17.8,25.1,26.9,23.6c3.3-1.2,6.1-3.5,7.9-6.5c5.6-7.9,15.8-11.2,25-8
			c5.4,2.1,6.1,5.9,2.1,9.9c-2.3,2.2-5.5,3.4-8,5.4c-16.9,14.2-17.7,32.8-2.2,48.5c7.2,7.3,14.5,14.5,21.6,21.8
			C1904.5,695.8,1905.1,701.1,1894.8,720.2z"/>
		<path class="st0" d="M313.7-76.4c5.7-6.2,11.7-12.1,18.2-17.4c5.5-3.9,11.8-6.6,18.4-7.9c9.5-1.8,19.2-2.8,28.8-2.9
			c5.2-0.5,10.5,0.5,15.2,2.7c9,5.3,9.3,10.9,1.3,17.5c-18,15-33.5,33.4-56.2,42.7c-5.1,2.1-7.9,10.5-10.8,16.5
			c-2.6,5.4-0.4,8.6,6,10.2c15,3.8,20,17.4,11.2,29.9s-18,24.2-26.7,36.4c-6.9,9.5-6.5,9.5,2.7,17.5c1.8,2.2,3.2,4.6,4.2,7.2
			c-3.5,1.7-7.6,5.6-10.2,4.8c-7-2.8-13.7-6.1-20.2-9.9c-10.2-5.1-25.1-2-31.5,7c-1.3,1.6-1.8,3.7-1.5,5.8
			c3.7,10.3,4.9,21.9,18.5,26.1c7.5,2.9,14.2,7.4,19.7,13.2c9.7,9.3,8,22.9-4.4,27.3c-16.6,6.3-31.4,16.4-43.4,29.6
			c-10.9,11.2-25.9,8.4-38,4.2c-12.9-4.5-20.1-1.5-26.5,9c-12.3,20.5-32.3,35.2-55.5,40.9c-14,3.8-24,12.7-33.3,23.9
			c-14.7,17.6-27.3,35.6-30.9,59c-0.9,5.6-2.1,11.9-10.4,12.1s-11.2-5.3-13.2-11.7c-1.1-3.6-0.8-7.7-2.4-11c-1-2.2-4.7-5.3-6.5-4.9
			c-20.5,5.2-26.6-11.4-33-23.7c-6-11.9-12.2-25.1-5.9-40.1c1.9-4.5-1.1-11.4-2.6-17c-5.2-19.7-3.2-38,9.5-54.6
			c9.7-12.7,19.1-25.9,29.1-39.2c-9.7-5.4-18-10.1-26.3-14.8l1.2-3.2c2.4-0.3,4.9-0.6,7.4-0.8c5.9-0.4,12.5,0.4,12.9-8.4
			c0.7-7.3-4.2-14.1-11.4-15.6c-6-1-12.2-1.4-18.3-1.4c0.3-2.8,1.1-5.6,2.2-8.2c10-14.1,6.5-27.5,0.8-42.4
			c-6.7-18.6-15-35.3-29.3-49.3c-7.7-7.5-14.8-11.8-25.5-9.2c-5.2,1.2-10.6,1.3-15.8,2.6c-15.4,3.8-25.3-4.1-25.2-20
			c-0.4-3.5-1.2-7-2.3-10.4c-0.8-3.2-1.4-6.5-2.1-9.7c3.4,0.4,7.5-0.3,10.2,1.3c10.9,6.7,19.7,0.9,28.5-4.2c2.2-1.3,4.8-5.9,4.1-7.4
			c-1.7-3-4.6-5.2-8-6c-4.3-0.3-8.6,0.3-12.7,1.7c-9,2.2-14.8-2.5-18.7-9.2c-1.4-3.7-1.1-7.8,0.8-11.2c0.9-1.7,7-2.7,9.1-1.4
			c12,7.6,23,1,34.1-1.5c6.9-1.5,5.8-8,5.8-13.4c0-12.9,6.5-19.1,19.4-18c4.3,0.3,8.5,1.5,12.7,1.9c5.1,0.5,9.5-0.2,10.8-6.7
			c2.4-11.8,12.9-14.6,22.1-15.2c10.7-0.2,21.5,1.1,31.9,3.8c3.2,0.7,6.9,5.2,8.4,8.8c3.9,9.5,10.3,12.5,20.2,12.2
			c9-0.3,13.8-3.7,15.4-12.9c0.3-1.7,6.5-4.4,8.5-3.5c7.7,3.2,15.9,6.5,21.9,12c12.9,11.8,12.3,12.5,26.1,2
			c3.2-2.5,6.1-5.6,10.4-9.4c-6.3-2.9-11.1-4.9-15.8-7.4c-5.5-2.8-4.7-6.8-0.9-10.3c4.9-4.5,13.2-1.9,19,1.7
			c8.7,4.8,17.9,8.7,27.4,11.8c1.2,0.4,5.2-2.4,5.3-4c0.7-10.7,8.5-12,16.2-11.6c15.5,0.7,31,2.1,46.3,4c9,1.1,17.9,4.4,26.9,5
			c14.4,1,21.7,9.5,28.1,24.2l-33,0.5c-5.4,0-10.8,0.6-16.2,0.2c-14.1-1.2-22.1,5.6-26.2,20.3c8.8,0.5,17.7,0.4,26.5-0.3
			c9-1.3,16.8-1.3,23.6,5.8c4.5,4.5,8.5,3.2,11.6-2c1.3-2.3,2.6-5.8,4.6-6.5c4.4-0.9,8.8-1.2,13.3-1.1c0.5,3.4,0.5,6.8,0,10.1
			c-2.4,7.1-5.7,13.8-8.6,20.7L313.7-76.4z"/>
		<path class="st0" d="M1416,454.6c-3.6,8.7-5.8,16.5-10,23.1c-2.9,3.5-7.1,5.6-11.7,5.7c-8.5,0-12.7,3.8-15.6,11
			c-3.3,8.5-7.2,16.8-11.6,24.9c-7.2,12.5-8.3,23.3,3.2,34.3c6.5,6.2,5.3,12.9-1.8,17.3c-3.2,1.6-6.7,2.2-10.2,1.7
			c-15-1.7-29.8-3.9-44.8-5.8c-3.2-0.4-8.6-1.3-9.2,0c-6,12.3-16.2,9.2-26.3,8.4c-1.6-0.1-3.8,1.7-5.1,3.2
			c-4.8,5.5-8.9,11.5-13.9,16.7c-11.7,12.2-28.8,11.7-37.5-3c-10.5-17.7-22.6-27.2-44.1-21c-9.7,2.8-18.3-1-25.9-8.9
			c-12.5-12.9-34.5-14.8-50.7-7.3c-8.8,4-10.7,9.7-8.3,18c2.3,8.3,5.6,16.3,7.4,24.7c0.8,3.6-1.1,7.8-1.8,11.7
			c-3.2-1.2-6.5-2.2-9.7-3.5c-3.2-1.4-6.5-4.5-9.7-4.6c-4.3,0-10.7,4.5-12.7,2.9c-9.4-7.6-17.9-16.2-25.4-25.7
			c-6.5-8.3-3.9-15.8,5.6-20.8c3.9-2,8.6-2.3,8.3-8c-0.2-7.5-0.9-14.9-2-22.3c-0.3-1.5-4.3-3.2-6.7-3.2c-4.8,0-9.6,0.5-14.4,1.4
			c-6.2,1-13.7,5.1-18.3,3c-9.1-4.6-17.2-10.9-24-18.5c-6.8-7.3-2.4-27,5.7-33c13.3-10.1,27.4-16.5,44.8-13.8
			c6.7,1.1,12.6,1.5,16.6,7.8c1.4,2.3,3.5,4,6,4.9c25.9,5.3,50.2,3,71.5-14.4c4-3.2,3.5-6.2,0.8-9.7c-2.7-3.6-4.9-5.8-7.1-8.8
			c-9.3-12.3-6-28.1,7.5-35c16.8-8.6,33.9-16.5,50.6-25.2c7.2-4,15.9-3.9,23,0.2c11.6,5.7,23.7,10.2,35.1,16.2
			c8.9,4.8,15.6,3.8,23.1-3c9.2-8.4,9.7-7.9,19.4,1.4c12,11.5,24.3,22.9,35.9,34.9c5.8,6.6,14.6,9.6,23.2,7.8
			c6.9-1.3,13.8-2.1,20.8-2.5c4.1,0,9.7,0,12,2.7C1387.7,451,1400.8,453,1416,454.6z"/>
		<path class="st0" d="M1303.8,861.7c2.9-1,5.8-1.8,8.8-2.5c5.6-0.9,12.5,0.8,14.3-7.3c1.8-8,2.3-15-4.3-20.9
			c-4.1-3.5-8-7.2-11.6-11.2c-4.9-5.6-3.2-11.2,4.1-10.7c15.3,1.1,20.5-8.3,25.5-19.7c5.4-12.3,11.6-24.2,17.5-36.3
			c7.8-16.2,8.8-15.4-4.9-26.6c-7.7-6.5-7.5-6.7-8.4-20.1c9.5-1.2,18.9-2.8,28.5-3.6c7.4-0.6,19.9,11.8,21.7,20.9
			c0.6,2.6,0.7,5.4,0.4,8.1c-2.2,15.2,3.7,25.4,17.5,32.3c4.3,2.2,7.6,8.9,8.6,14c1.7,9,7.1,12.9,14.5,17.5
			c24.4,14.7,51.7,11.9,78.3,15.4c11.5,1.5,8.6-8.1,9.7-12.7c9.2,2.5,17.4,5.2,25.9,6.8c4.1,0.8,9.7,1,12.5-1.2
			c2.7-2.2,2-7.5,2.9-11.5c1.5-7.5,34.6-30.9,42-28.7c3.9,1.3,7.1,4.3,8.5,8.1c1,5.8,1.6,15.6-1.5,17.5
			c-15.8,9.7-14.5,24.9-16.2,39.8c-1.1,10.5-1.6,21.6-9.9,29.1l-16.8-14.7c1.2-2.2,2.3-4.6,3.2-7c2.4-7.3-0.4-11.3-8.1-12.1
			c-9-1-18-1.5-25.1-9c-2.7-2.9-10.1-6-11.6-4.8c-5.1,4.4-9.7,10.5-5.7,18.3c2.9,5.8,6.2,11.4,8.5,17.4c2,5.5,3.4,11.2,4.2,16.9
			c0.4,2.4-0.3,6.8-1.7,7.4c-11.4,4.7-12.3,14.8-14.6,24.8c-1,4.3-5.3,7.9-8.6,11.4c-15.3,16.7-30,33.8-46.2,49.5
			c-8.9,8.1-12.9,20.3-10.7,32.1c3,21.9-1,42.7-8,63.3c-0.8,2.6-0.9,6-2.7,7.5c-4.5,4.3-9.8,7.6-15.6,9.9c-1.7,0.5-6.7-5.7-8.7-9.7
			c-20.5-42-40.7-84-61.1-126.3c-4.7-8.6-5.3-18.8-1.5-27.9c2.1-4.9,3.1-10.3,2.7-15.7c-0.7-4.1-3.2-7.7-6.8-9.7
			c-5.6-2.4-7.9,2.9-10.3,7.3c-7.6,13.7-17.2,16.2-26.8,7.5c-5.4-4.9-6-11.2-1.7-16.2c8.6-9.9,8.2-11-5-14.2
			C1307.5,863.9,1305.6,862.9,1303.8,861.7z"/>
		<path class="st0" d="M1775.8,436.5c-4.2,4.5-9.3,8.5-12.3,13.5c-5.6,9.5-8.5,20.2-21.4,24c-5.1,1.5-8.4,9.4-12.4,14.4
			c-3.6,4-6.8,8.4-9.7,12.9c-12.8,23.3-34,34.9-57.9,43c-15.8,5.3-31.5,8.1-45.8-3.8c-8.4-7.1-15.8-3.7-23.5,1
			c-9,5.4-17.7,9-28.8,4.6c-8.9-3.5-16.8-6.2-19.4-16.8c-1.8-7.2-7.4-9.7-14.7-9.9c-10.7-0.4-21.4-2.3-32.1-2.5
			c-7.7,0.3-14.7-4.2-17.7-11.3c-4.2-8.1-9.2-15.8-13.8-23.6c-3.9-6.5-7.7-12-16.2-14.3c-9.4-2.6-11.6-12-6.5-20.5
			c16-25.9,16.2-25.9,44.7-14.1c22.1,9.2,28.4,7.7,44.9-9.7c5.3-5.6,6-9.7-0.6-14.2s-7.5-10.1-1.5-15.7c1.8-1.8,4.3-2.7,6.9-2.5
			c11.8,4.3,25.3,5,33.2,17.4c8.9,13.9,19.7,16.2,34,8.1c11.2-6.5,21-7.7,32.3,0.5c12.2,8.8,40.1,5.1,50.1-6.8
			c9.2-10.9,19.8-13.7,32.9-11.4c6.7,1.2,10.9,4.2,10.4,11.7c-0.2,3.2,0,6.5,0,9.7c0.3,14.3,6.9,19.4,20.5,14.2
			C1760.4,431.3,1768.6,428.3,1775.8,436.5z"/>
		<path class="st0" d="M532.6,941.2c-7.2-3-14.8-4.8-20.5-9c-40.5-30.4-80.5-61.2-120.7-92c-2.7-1.8-5.1-3.9-7.1-6.5
			c-6-8.8-1.8-19,8.6-22.1c3-1.1,6.2-1.9,9.3-2.5c14.4-1.5,25.3-8,31.2-21.7c3.9-9.2,11.1-11.5,20.7-11.8
			c15.6-0.5,16.5-2.3,13.6-17.6c-1.2-6.5-2.6-12.6-3.8-18.9c-3.2-17.3,0.2-23.5,17.9-28c14.6-3.6,29.5-6,44.2-8.9
			c4.8-0.9,9.5-1.8,14.3-2.6c24.7-4.5,35.2,12.9,28.4,33.9c-3.2,9.7-3.2,18.7,3.6,25.2c13.8,12.7,12.9,29.6,15,45.5
			c1.6,12.2,0.2,24.7,0.4,37.1c0.3,14.4,3.6,26,20.5,29.9c10.4,2.4,10.9,8.4,2.1,15.4c-20.2,16.2-40.5,32-61.2,47.6
			C544.8,937.4,538.8,938.7,532.6,941.2z"/>
		<path class="st0" d="M940.3,763.4c8,3.4,15.9,7.3,23.5,11.6c6.7,4.6,12.9,9.7,18.7,15.3c8.6,7.9,18,11.1,30.1,12.4
			c14.9,1.5,28.7,8.8,38.3,20.4c10.8,13.4,21.2,27,31.7,40.5c1.6,1.5,2.7,3.4,3.2,5.5c1.6,15.9,12.3,17.7,25.3,17.3
			c6.5-0.3,12.9,1.9,19.2,2.2c9.3,0.4,11.3,6.2,8.8,12.9c-2,5.6-5.5,12.5-10.3,15c-15.1,8.1-30.7,15.1-46.8,20.9
			c-12.9,4.5-24.8,9.2-34.4,19.5s-9.7,9.3-21.9,2.6c-1.4-0.7-2.8-1.5-4.2-2.4c-7.4-5.3-14.4-6.7-21.3,1.1c-5.7,6.5-9.7,4.1-13.4-2.5
			c-3.2-5.7-6.9-11-10-16.5c-3.7-7.8-10.2-14-18.1-17.5c-7.6-2.4-12.3-9.9-11.1-17.7c0.9-10-3.8-17.4-9.9-24.6
			c-14.3-16.8-28.2-33.9-42.2-50.9c-2.5-2.8-4.9-5.8-6.9-9c-3.2-5.7-3.2-10.7,4.9-11.4c11.4-1,17.6-9.7,25.1-16.3
			c2.6-2.6,4.2-6,4.5-9.7C924.1,765.8,924.2,765.4,940.3,763.4z"/>
		<path class="st0" d="M1197.7,762.5c-12.2,17.9-12.1,17.8,2.9,30.3c5.4,4.4,10.4,9.2,15,14.5c8.6,10.4,8.3,10.5-2.7,18.8
			c-1.8,1.1-3.3,2.6-4.5,4.3c-7.5,12.7-7.5,12.7-21.3,10.3c-4.3-0.7-8.6-1.2-12.9-1.5c-6,0.1-11.5-3.2-14.4-8.4
			c-6.5-10.9-10.8-12.6-20.4-6.5c-11.8,7.6-22.1,5.9-33-1c-6.5-4-12.9-7.7-19.4-11.4c-5.9-3.2-10.5-6.8-11-14.5
			c-0.6-9.5-7.8-14.6-16.2-15.6c-8.4-1-13.2-6-17.8-12.2c-7.8-10.6-14-22.1-28.9-26.3c-9.7-2.7-12-14.3-6.9-23.6
			c3.7-5.5,2.8-13-2.1-17.5c-6.8-7.6-13.8-15-20-23.2c-2.3-3-4.1-8.6-2.7-11.4c1.4-2.8,6.9-3.2,10.8-4.2c3.9-0.9,9.3-0.5,11.7-3
			c6.7-7,10.8-5.1,17,0.9c8.7,8,18.1,15.2,28,21.7c13.9,9.3,38.8,6.9,50.4-5c8.5-8.7,18.7-9.7,29.7-8.4c1.6,0.3,3.1,0.8,4.6,1.4
			c37.9,12,37.9,12,41.5,52.6c1,5.3,1.8,10.6,2.3,15.9C1177.5,752.7,1181.4,761.7,1197.7,762.5z"/>
		<path class="st0" d="M773.6,848.3c0,21-0.3,42,0,62.8c0.3,16.7-4.7,20.4-20.2,12.7c-21.7-10.7-43-22.1-64.5-33.2
			c-8.2-4.6-17.6-6.5-27-5.7c-14,1.1-30-1-41.2-13.7c-2.9-3-6.5-5.3-10.5-6.5c-8.8-1.9-15-9.8-14.6-18.8c-0.3-15-3-30.9,0.8-44.9
			c4.2-15.4,14.7-29.1,22.6-43.4c0.9-1.3,2.4-2.1,4-2.1c11.8,3,25.9,2.2,33.4,13.3c9.4,13.7,24.5,17,38.1,22.4
			c4.6,1.8,12.6-1.8,17.6-5.2c6.1-4.1,0.5-9.2-1.1-14c-0.8-3.8,0.1-7.7,2.5-10.8c6.8-7.1,24.8-6.8,32.8-0.7
			c4.5,3.4,9.4,7.7,14.7,8.6c8.4,1.4,10.5,5.4,10.5,12.9c-0.2,22,0,44.1,0,66.1L773.6,848.3z"/>
		<path class="st0" d="M894,1052.2c-2.6-7.3-4.9-14.7-7.8-21.9c-1.7-3.4-3.7-6.6-6-9.7c-3.3,2.2-6.3,4.6-9.2,7.3
			c-3.2,3.6-5.3,8.1-8.1,12c-1.2,1.7-3.2,4.7-4.4,4.4c-16.2-4-27.8,13.7-43.9,8.4c-3.5-1.1-7.9-1-10.5-3c-7.1-5.7-13.6-7-21.9-2.3
			c-7,3.9-12.9-1.1-16.9-5.8c-8.7-10.7-14.1-23.1-11.1-37.3c1.3-4.5,4-8.6,7.7-11.5c5.9-4.8,9-12.3,8.2-19.9c-0.4-6.9-0.2-14,0-21
			s-1.8-14.9,8-19c2.3-1,2.7-8.5,2.7-12.9c0-12.9-0.4-13.1,12.9-12.9c26.9,0.3,53.7,0.5,80.6,1.1c10,0.2,19.2-0.4,26.1-9.2
			c4.8-6.3,8.5-3.8,12,2.1c7.1,12,14.4,24,22.2,35.6c4.5,6.7,3.6,12.2-1.9,17c-10.9,9.4-12.2,21.5-12.5,35c-0.5,9.6-2.6,19-6.3,27.8
			c-4.7,12.3-11,24-16.7,35.9L894,1052.2z"/>
		<path class="st0" d="M753.7,1038.2c-22.1,4.2-33.3,21.3-45.7,36.2c-3.4,4.1-5.6,7.3-11,7c-1.6-0.4-3.2-0.4-4.8,0
			c-15.4,6.5-23.3-1.5-30-14c-2.3-4.2-4.5-6.5-0.5-10.7c8.3-9.1,4.7-20.3,3.7-30.7c-0.2-2.2-4.1-4.3-6.5-5.9
			c-4.1-2.5-8.6-4.2-12.6-6.8c-1.5-1.3-2.2-3.3-1.9-5.2c5.6-10,10.5-20.7,17.8-29.4c6.5-7.7,12.2-14.6,11.6-25.3
			c0.2-3.2,0.7-6.4,1.5-9.5c1.9-14.4,3.6-28.7-5.3-42c-1.7-2.5-0.6-6.7-0.9-10.1c3.4,0.2,7.4-0.7,10.2,0.8
			c25.4,12.9,50.5,26.2,75.8,39.2c5.5,2.6,8.8,8.3,8.1,14.4c-0.2,9.7,0.2,19.4-0.8,29.1c-0.3,4.7-2.4,9.1-5.7,12.5
			c-14.4,11.3-11.7,25.1-7.2,39.4C750.5,1030.5,752,1033.9,753.7,1038.2z"/>
		<path class="st0" d="M490.1,993.8c8.9-1.8,17.8-3.1,26.8-3.9c9.9-0.3,12.9-5.6,13.5-14.2c0.2-4.3,0.3-8.6,0.9-12.9
			c1-8.2,3.6-13.9,12.9-17.8c10.5-4.5,19.4-13.4,28.7-20.6c13.6-10.5,27-21.3,40.7-31.7c15.6-11.9,40.4-6.2,49.1,11
			c11.6,24.6,7.5,53.7-10.5,74.1c-2.5,2.8-5.9,5.6-6.5,8.9c-5,24.5-25.9,27.6-44.3,30.3c-15.9,2.3-33,2.9-48.3-7.2
			c-8.3-5.6-18.3-2.2-25.9,5.7c-11,11.4-13.8,11.4-23.2-1.5C499.5,1008.1,495.5,1001.8,490.1,993.8z"/>
		<path class="st0" d="M392.7,1046.3c-10.2,2.1-16.7-1.7-19.2-12c-1.8-7.5-6.5-11-14.2-9.4c-7.2,1.5-12.7,0.7-14.5-7.9
			c-0.4-1.9-2.4-3.5-3.6-5.3c-9-13.3-6.5-18.5,10.1-19.1c17.2-0.6,34.4-0.2,51.7-0.5c15.6-0.3,16.6-1,14.6-16.9
			c-3.2-26.1-7.5-52-11.2-78c-0.5-3.7-1.3-7.4-1.5-11.2c-0.5-12.9,6.5-17.4,18.2-11.8c3.7,2.1,7.2,4.6,10.5,7.3
			c22.7,17.2,45.3,34.5,67.9,51.7c3.4,2.6,6.9,5.2,10.4,7.7c4.5,3.2,12.6,6,12.9,9.7c0.4,9.6-0.8,19.3-3.5,28.5
			c-0.6,2.5-6.7,4.6-10.5,5.2c-10,1.9-20.2,2.9-30.4,3c-12.9-0.4-22.6,4.7-32.1,12.5c-7,5.8-15,10.5-21.7,16.7
			c-5.3,4.9-11.1,10.7-13.3,17.3C409.7,1044.5,403,1047.6,392.7,1046.3z"/>
		<path class="st0" d="M1060,1080.3c-17.4,17.5-27.8,38.8-52.7,44.7c-11,2.5-21.5,6.6-32.3,9.9s-20.8,2.2-29.8-6
			c-13.6-12.5-31.2-21-39.7-38.8c-1.8-2.6-4.4-4.6-7.3-5.7c-10.5-5.2-10.4-4.8-2.6-14.4c3.6-4.8,6.5-9.9,8.8-15.4
			c6.1-13.1,11.9-26.5,17.8-39.6c7.7-17,26.7-21.9,41.7-10.1c10.6,8.3,23.9,15.5,21.3,33c-0.2,1.7,3.8,6,5.8,5.9
			c9.9-0.4,13.6,6.5,20,12.2c10.5,9.2,24.7,14.3,37.4,21C1052.2,1078.3,1056,1079.5,1060,1080.3z"/>
		<path class="st0" d="M276.3,977.1v-58.5c9.1-0.4,19.6-0.7,30.1-1.4c13.6-0.8,13.6-0.9,16.8-14.3c0.7-3,1.3-8.1,3-8.6
			c12.9-4,10.2-14.5,10.7-23.9c0.6-11.7,1.2-12.3,13.3-12.9c7-0.3,14,0,21-0.5c3-0.2,8.2-0.9,8.7-2.5c4.8-15.4,11.1-5,16.8-1.2
			c3.6,2.3,6.7,5.3,10.2,8.1c-3.8,3-8.7,5.1-9.9,8.4c-1.5,4.2-0.2,9.5,0.5,14.3c4.2,29.1,8.7,58.2,12.9,87.5
			c1.7,12.4,1.5,12.6-10.8,12.9c-13.4,0.3-26.9-0.4-40.3,0.6c-8.4,0.7-16.7,2.7-24.5,5.8c-5.7,2.2-9,1.5-12.2-3.2
			c-1.5-2.2-3-4.4-4.7-6.5c-9.7-11.9-18.8-14.3-32.3-8.4C283.1,973.8,280.8,975,276.3,977.1z"/>
		<path class="st0" d="M889.8,706.8c-4.5-9.7-8.2-12.9-16.9-6.9c-9.8,7.2-23.2,7.1-33-0.2c-7.1-4.8-12.9-7.9-19.1,3.5
			c-4.5,8.5-26.1,8.3-32.3,1.2c-1.5-2.7-2.1-5.8-1.7-8.9c0.2-7.1-3-11.8-9.7-12.2c-5.1-0.3-6.8-1.2-6-6.5c0.3-3.1,0-6.3-0.9-9.2
			c-3.2-10.5,0-15.5,11-16.9c5.3-0.6,11.4,0.8,15.9-1.3c5.2-2.4,8.4-8.9,13.5-11.4s12.4-2.2,18.4-4.2c3.9-1.8,7.5-4.2,10.7-7
			c10.4-8.5,25.1-9.1,36.2-1.5c13.7,9,28.3,9.1,43.3,8.8c3.2,0.3,6.4-0.5,9.1-2.1c6.5-6.2,12.7-6.2,20.2-1.9
			c5.8,3.2,14.3,3,13.9,12.9c0.2,1.6,1,3.1,2.4,3.9c11.8,6,9.7,16.6,10.8,27.3c0.9,10-4,11.1-10.5,11.8c-15,1.8-29.9,3.2-44.9,4.6
			C908.4,691.9,895.9,691.5,889.8,706.8z"/>
		<path class="st0" d="M778.6,835.6c0-16.7-0.3-33.3,0-50c0.2-11.8,3.2-14.1,15-12.1c4.2,0.8,8.4,1.9,12.4,3.2
			c8.3,2.7,16,2.5,22.5-4c5.8-5.9,11.7-6.6,18.6-2c1.7,1.3,3.8,2,6,2c14.6-2.2,18.1,7.8,21.2,18.6c1.8,6.2,4,12.3,5.2,18.6
			c0,2.8-0.6,5.6-1.6,8.2c-2.3-2-5.4-3.5-6.5-6c-2.3-4.8-2.9-10.4-5.2-15.2c-1.5-2.9-5-4.7-7.5-7.1c-1.6,3.4-5.3,7.5-4.5,10.2
			c2.5,8.7,6.3,16.9,11.3,24.5c8.6,12.3,18.9,23.4,28,35.3c7.9,10.4,8.7,23.3,2.9,31.4c-3.7,6-10.5,9.5-17.6,9.1
			c-29.1-1-58-1.5-87-2c-8.9,0-12.4-4.1-12.2-12.9c0.3-16.7,0-33.3,0-50L778.6,835.6z"/>
		<path class="st0" d="M703.7,208.7c2,8.4-1.5,15.4-10.1,20.3c-6.5,3.7-9.2,9.1-10.1,17c-1.5,10.8-8.2,20.2-17.8,25.3
			c-13.1,7.2-19.8,22.1-16.7,36.7c1.3,5,6,9.7,10.1,13.5c10.6,9.4,12.5,13.7,2.2,23.6c-10.5,9.4-15.4,23.6-12.9,37.5
			c0.9,6.7-1.8,10.7-8.1,14c-5.4,3.1-10.2,7.1-14.3,11.8c-4.4,4.8-8.2,4.3-9-1.4c-2.4-15.5-11.4-27.5-18.7-40.6
			c-2.2-4.6-2.1-10,0.3-14.5c11.3-15,11.4-32,11.8-49.2c0.3-8.6,0.2-17.2,0.6-25.9c0.2-3.6,0-8.9,2.2-10.7c11-9.3,10.1-22,10.7-34
			c0.2-8.1,2.9-15.8,7.7-22.3c7.1-9.5,13.4-19.5,20.5-29.1c7.5-9.9,12.9-10.9,24.6-5.7c1.5,0.7,3,1.3,4.5,1.8
			C700.4,182.7,703.2,186.8,703.7,208.7z"/>
		<path class="st0" d="M1373.3,695.8c-10.9,1.5-20.4,3.2-29.8,4.1c-6.5,0.7-8.1,3.8-6.8,9.7c1.8,8.6,4.2,16.8,12.2,21.8
			c7.5,4.7,7.4,10.5,3.6,17.8c-6.5,12.4-12.7,24.9-18,37.7c-3.9,9.4-9.5,15-20,15.6c-6,0.3-12.9,1.5-12.9,9.1c0,4.5,3.5,9.3,6,13.5
			c1.6,2.2,3.5,4.1,5.7,5.7c4.9,4.5,10.2,10,6.5,16.4c-1.9,3.2-8.9,3.6-13.5,5.1c-1.5,0.5-3.9,0.2-4.5,1.2
			c-7.3,10.9-13.9,4.4-18.8-1.6c-13.5-16.4-31.4-13.5-49-12c-2.6,0.2-5.2,2.6-7.5,2.3c-4.3-0.9-8.6-2.1-12.7-3.7
			c1.9-3.3,4.3-6.4,7.1-9.1c9.3-6.9,10.1-9,4.8-19.7c-1.2-2.4-2.6-4.6-5-9c9.9-3.8,19-7.6,28.4-10.6c8.7-2.8,15.6-6.2,16.4-17
			c0.6-8.4,7.9-12.6,14.6-15.9c11.6-5.7,16.9-15.1,20-27.1c2.8-10.7,8.1-20.7,12-31.1c0.9-2.4,1.9-5.9,0.8-7.5
			c-6.5-10.1,1.5-13.3,7.8-17.2c29.1-18.3,28.1-15.8,45.3,8.9C1368,686.8,1370.3,690.9,1373.3,695.8z"/>
		<path class="st0" d="M873.1,563c-6,4.7-10.6,7.4-13.8,11.3c-3.8,4.5-8.2,9.2-12.9,4.5c-4.1-3.9-8.1-11.5-7-16.2
			c1.6-6.9,2.1-10.9-4.5-14.4c-7.4-3.9-13.3-2.7-18.4,3.9c-2.1,3.1-4.7,6-7.7,8.4c-2.7,1.2-5.5,1.9-8.4,2.1c-0.7-2.7-1-5.5-1-8.3
			c0.7-5,4.5-11,2.8-14.8c-3.2-6.8-7.9-12.8-13.8-17.4c-3-2.4-10.4-3.2-13.2-1.3c-12.3,8.8-25,3.6-37.5,2.5
			c-7.8-0.7-10-5.7-7.5-12.6c1.8-5,4.5-9.7,6.5-14.8c1.5-3.4,2.7-7,3.6-10.6c1-4.3,0-11.5,2.4-12.7c5.7-2.6,12-3.7,18.3-3.2
			c12.2,0.5,24.4,2.4,36.6,3.6c6.5,1.1,12.9-2.4,15.5-8.5c6.5-12.1,20-13.5,31.1-4.4c2.1,1.6,3.9,3.7,5.1,6.2
			c8.4,18.4,24,22.6,42.3,22.9c5.8,0,15.3-3.2,16.6,5.2c1.4,9,3.2,20.3-5.6,27.2c-12.9,10.4-23.4,26.2-43.6,24.1
			c-2.9,0.5-5.4,2.4-6.5,5.2c-0.3,2,2.5,5.5,4.8,6.6C862.4,559.6,867.7,561.5,873.1,563z"/>
		<path class="st0" d="M1192.5,703.3c11.8,5.4,20.3-2.7,28.4-12.1c2.8-3.2,6.2-6,8.8-9.4c7.2-9.2,15.4-13.5,27.9-11.1
			c10.1,2,20.4,0,24.5-12.5c0.5-1.7,4.1-2.9,6.5-3.2c0.9,0,2.9,3,3.2,4.8c0.6,7,2.1,12.9,10.7,13.4c0.6,0,1.3,2.3,1.4,3.6
			c0.4,4.5,0.7,8.9,0.9,13.3c0.3,2.6,0.2,5.1-0.4,7.6c-3.8,11.1-8.8,21.8-11.5,33.1c-1.7,8.5-7.2,15.7-14.9,19.7
			c-9.3,5.2-17.7,10.4-19.8,23.3c-1.9,11.6-40.5,22.6-50.5,15.8s-10-8-5.2-19.6c2.6-6.5,1.6-12.6-5.6-14.1
			c-10.4-2.1-12-9.4-12.9-17.7s-2.3-17-3.2-25.5C1179.7,705.6,1182,701.2,1192.5,703.3z"/>
		<path class="st0" d="M752.9,155.3c-4.2-4-8-8.3-11.5-12.9c-3.8-6-7.7-6.5-13.3-3c-6.8,4.3-14.3,7.5-15.2,17.2
			c-0.7,6.9-5.1,6.7-10.6,4.5c-5.5-2-11.2-3.6-16.9-4.8c-2.6-0.6-6-1.8-7.8-0.7c-10.8,6.5-21.2,13.8-30.9,21.8
			c-5.9,5.2-9,13.3-14.1,19.5c-10.8,13.5-17.8,27.8-16.5,45.9c0.3,4.3-1.4,10.7-4.5,12.9c-8.3,6.5-7.9,14.6-7.9,23.2
			c0,12.4-0.5,24.8,0,37.1c0.8,10.5-2.9,20.8-10.1,28.5c-3.2-4.7-5.7-11.2-12-2c-5.7,7.8-12.4,14.9-20,20.8
			c-8.1,6.5-16.9,5.5-20.3-3.1c-8.4-20.5-13.7-41.8-6.8-64.1c1.1-3.4,3.5-8.4,6-8.9c11.6-2.1,16.2-10.2,21.3-19.4
			c4.1-7.1,10.1-15.6,22-9.7c2.9,1.5,9.2-1.4,12.3-4.1c1.3-1.1-1.6-6.9-2.3-10.7c-0.5-2.6-1.5-5.9-0.4-7.9
			c7.4-13.6,15-27.1,23.1-40.3c4.4-7.1,10-13.5,15-20.2c0.9-1.3,3-2.5,2.8-3.6c-1.3-13.9,10.4-18.8,18.8-23.5
			c9.3-5.2,22.3-3.6,26.9-16.9c3.9,0,7.7,1,11.1,2.8c6.2,4.7,9.5,4.3,14-2.6c5.4-8.4,37.6-10.8,44.9-4.3c0.4,0.3,1.1,0.6,1.1,1
			c0.8,9,1.6,17.9,2.4,26.9L752.9,155.3z"/>
		<path class="st0" d="M678.6,166.5c10.4-4.8,18.7-1.1,26.5,3.2c6.5,3.7,11.2,4.2,12.9-4.5c1.8-8.7,4.5-19.7,13.9-19
			s10.2,13.2,14.5,20.9c7.6,13.6,8.1,28.7,12.2,42.9c4.2,14.9,11.5,28.9,17.5,43.3c1.3,3.5,2.8,7,4.5,10.3
			c5.4,8.4,4.5,19.5-2.2,26.9c-3.7,4.6-5.3,11.6-9.7,14.6c-16.5,10.8-36,16.2-54.7,19.1c-14.4,2.3-28.4-24.8-23.4-41.2
			c2.2-6,5.5-11.6,9.7-16.4c6.5-8,13.5-15.3,20.5-22.8c5.8-6.5,5.6-13.6-0.8-18.3c-7.7-5.7-8.2-12.9-8.7-21.2
			c0-4.8-0.9-9.6-2.6-14.2c-4.6-10.2-8.7-21.4-23.6-20.1C682.9,170.3,680.7,167.8,678.6,166.5z"/>
		<path class="st0" d="M514,1089.6c1.9-5.5,2.6-11.9,5.9-16.2c7.1-9.3,8.3-19.4,7.8-30.4c-0.3-3.8-0.2-7.5,0.2-11.3
			c1.9-15.4,12.6-21,26.4-13.5c21,11.4,42.2,9,63.7,2.4c2.6-0.8,5.1-1.8,7.4-3.2c7-4.4,12.9-3,18.9,2.4c5.1,4.5,6.4,11.8,3.2,17.7
			c-8.8,17.8-18.4,35.2-28.5,52.3c-1.6,2.8-7.2,3.8-11.2,4.5c-12.5,2-21.8,7.4-26.8,19.9s-22,15.7-32,7c-4-3.6-6.9-8.4-11.1-11.7
			c-4.3-3.8-9.4-6.5-14.9-8.1C516.2,1099.7,514.4,1096.4,514,1089.6z"/>
		<path class="st0" d="M269.8,910.2c16.7-27.5,30.7-52.3,46.7-75.7c5.4-7.8,15.4-13.1,24.2-17.8c10.2-4.9,17.8-14.1,20.7-25.1
			c1.5-5.2,3.9-10,5.4-15.2c3.7-12.3,9.4-22.1,22.6-27.2c5.1-2,9.5-8.5,12-14c3.8-8.1,8.9-11.2,17.6-10.6c8.6,0.5,17.3,0.5,25.9,0
			c6.5-0.2,10.1,2.4,11.2,8.8c0.7,4.2,1.9,8.4,2.5,12.6c0.8,6.3,3.2,13.5,1,18.6c-1.5,3.2-10.7,2.1-15.7,4.5s-11.1,5.7-12.9,10.2
			c-7.3,16.2-19.8,23.1-36.4,24.7c-3.2,0.3-6.2,1.9-9.3,2.4c-7.2,1.1-9.7,5.6-10,12.3c-0.2,7.5-0.6,15-0.5,22.6s-2.9,11-10.5,10.7
			c-7-0.3-14-0.2-21,0c-11.6,0.5-12.6,1.3-13.2,13.2c-0.5,9,0.8,18-10.3,23c-2.6,1.1-2.9,8.6-3.2,13.3c-0.6,6-3.4,8.7-9.3,8.6
			L269.8,910.2z"/>
		<path class="st0" d="M430.1,525.6c8.1-0.8,12.9-1.2,17.3-1.8c3.2-0.5,7.9-0.5,9-2.4c4.9-8.3,10.8-10.5,19.9-7.3
			c2.3,0.8,6.5-2.9,9.3-5.2c4.1-3.5,7.5-7.8,11.2-11.6c5.3-5.4,10.8-5.7,17.4-1.7c12,7.2,24.3,13.7,36.4,20.5
			c9,5.1,10.7,12.9,4.3,21.5c-3.8,5.2-8.6,9.7-12.5,14.7c-3.5,4.6-4.1,9.4,3.2,10.6c7.3,1.2,7.6,5,7.7,11.4
			c0.6,6.2,2.4,12.2,5.3,17.7c3.8,8.5,1.8,13.7-7.5,14.6c-5.3,0-10.6-0.6-15.7-2c-7.6-1.4-14.5-1.5-21.2,3.9
			c-13.3,10.6-37,2.1-47.9-6.5c-1.4-2.1-1.9-4.6-1.2-7.1c1.1-3,2.5-5.8,4.2-8.5c7.4-15.8,4.9-27.2-8.8-38
			C451.4,541.3,442,534.6,430.1,525.6z"/>
		<path class="st0" d="M1681,1028.7c-7.5-6.5-12.3-11.7-7.7-19.2c6-9.7,1.1-17.1-5.3-22.6c-4.5-3.7-7-9.4-6.7-15.2
			c-0.3-12.9-5.3-23.6-14.9-34.1c-3.7,5.1-6.5,9.7-9.9,13.5c-5.1,5.9-10.7,5-13.3-2.4c-1.8-5-2.3-10.5-3.8-15.6
			c-3.9-12.9-14.3-21.2-23.7-29.9c-5.5-5.1-9-8.8-6.5-18.6c3-11.5,7.1-22.1,11-33.1s4.8-24,6-36.3c0.1-6.5,3.2-12.5,8.4-16.4
			c3.6-3,6.4-6.8,8.1-11.1c3.7-9,5.2-9.7,11-2.9c7.8,9,12.2,17.7,4.8,30.3s-1.8,25.1,11.4,31.8c5.6,2.8,10.4,5.5,11.2,12.3
			c1.1,9.3,5.9,14.5,15.9,14.4c2.2,0,4.5,2.4,6.7,3.6c-1.5,2.6-2.4,6.5-4.7,7.6c-6,3.4-12.7,5.6-19.1,8.5
			c-10.4,4.3-15.4,16.3-11,26.7l0,0l0,0c0.6,1.3,1.3,2.6,2.1,3.8c2.6,4.1,5.6,7.9,8.8,11.6c8.3,9.4,12.6,19,7.7,32.3
			c-1.6,4.5,2.2,12.5,5.9,17.1C1683.4,997.5,1684.1,1011.1,1681,1028.7z"/>
		<path class="st0" d="M423.5,707.7c-5.2-0.6-10.4-1.7-15.5-3.1c-11.2-4.2-12.9-7.5-10.9-19.4s4.2-24.3,6.5-36.3
			c2.8-15.7,1.4-18.6-14.3-22.3c-8.1-1.9-11-6.5-9.1-13.8c1.5-5.7,4-10.9,12.1-10.2c16.5,1.5,33,1.8,49.5,3.2
			c6.9,0.1,13.7,1.4,20.2,3.8c12.3,5.7,24.3,10.8,38.3,11.1c8,0.2,9.7,5.5,4,11.8c-5.6,5.8-11.5,11.3-17.7,16.3
			c-5.9,4.7-9.3,11.9-9.2,19.4c-0.4,15.9-11.3,29.6-26.7,33.5C441.2,704,431.8,705.9,423.5,707.7z"/>
		<path class="st0" d="M1196.6,698.7c-8.7-2-15.6-2.7-19.1-11.8c-2.1-4.1-5.6-7.4-9.9-9.1c-11.3-5-22.8-9.4-34.6-13.2
			c-13.4-4.9-28.4-1.4-38.2,9c-2.7,2.2-5.6,4.1-8.7,5.6c-0.4-3.4-2-7.3-0.8-10.1c4.4-10.1,2.6-17-7.4-22.6
			c-3.8-2.7-6.3-6.8-6.9-11.4c-0.6-6.5,5.7-6.2,10.4-7.1c2.4-0.5,6-1.7,6.7-3.5c3.2-7.2,9.2-7,15-6.7c8.7,1,17.1-3.5,20.9-11.4
			c7.1-12,19.2-10.6,26.6,1.5c2.6,4,6,7.4,10.1,10c14.7,9.9,29.5,19.7,44.6,28.8c6.2,3.2,12.7,5.6,19.4,7.3
			c11.2,3.7,12.9,8.7,5.7,17.2c-5.8,7-12.1,13.7-18.9,19.8C1207.2,694.7,1201.5,696.3,1196.6,698.7z"/>
		<path class="st0" d="M877.1,1033.9c4,7.7,6.8,13.5,10,19s4.5,9.7-1.3,15.4c-7.1,7-3.2,17.2,5.7,21.4c4.7,2.1,8.9,5.2,12.4,9
			c4.5,5.5,11.3,12.4-1.8,16.6c-0.9,0.3-1.5,1.5-2.2,2.3c-3,3.9-5.8,11-9.2,11.2c-11.2,0.6-22.4,0.1-33.4-1.6
			c-7.7-1.1-15-5.3-22.6-6.2c-7.5-0.4-14.6-3.7-19.7-9.2c-11.3-12.3-23-24.2-34.8-36c-4.8-4.8-6.8-9.5-2.7-15.5s14-9.3,19.6-6.1
			c15.7,9,31.1,10.5,46.5-0.5c1.2-0.9,3.5-1.8,4.5-1.3c13.8,7.9,17.7-3.6,23.6-11.6C873.4,1038.4,875.2,1036.1,877.1,1033.9z"/>
		<path class="st0" d="M1294.4,610.4c-6.5,6-11,6.5-17.1,2c-9.7-7-12-6.2-19.9,2.9c-2.8,3.2-5.2,6.8-8.1,10.1
			c-5.2,5.9-8.1,11.3,0.4,17.2c2.3,2.2,3.4,5.3,3.2,8.5c-0.8,4.4-2.1,8.8-3.8,12.9c-3.2-2.3-6.5-4.5-9.4-6.9s-6.2-7-9.7-7.5
			c-17.3-2.7-30.4-13.3-43.8-22.9c-12.3-8.7-27.8-13.6-33.8-30.5c-2.8-8-25.5-6.2-31.5,1.5c-2.8,3.6-5.2,7.6-9.7,14.4
			c-4.7-16.4-8.4-29.5-12.3-42.5c-1.5-5.3,1.1-7.7,5.6-9.9c11.7-5.6,32.7-3.7,42,6.7c10.8,12,22.6,14.7,37.5,10.6
			c11.7-3.2,21,0.3,26.6,11.8c1.1,1.9,2.3,3.6,3.7,5.3c9,13,25.3,18.6,40.4,14c0.5-0.2,1.2,0,1.5-0.5c3.9-3.5,8.8-10.7,11.4-9.9
			C1276.5,600.2,1284.7,605.5,1294.4,610.4z"/>
		<path class="st0" d="M808.7,1120.5c-11.7-0.7-23.5-1-35.2-2.1c-8.4-0.8-16.2-0.4-21.9,6.9c-5.1,6.5-10.6,6-16.5,1.1
			c-1.3-1-2.6-1.9-3.9-2.8c-14.5-9.7-15.8-8.6-28.1,3.2c-5.8,5.6-16,11.3-22.8,10.1c-6.9-1.3-12.9-10.7-17.1-17.9
			c-4.1-7.1,6.7-24.6,15.4-26.5c7.8-1.8,15.6-3.2,23.6-4c6-0.6,8.7-3.5,12.1-8.4c7.3-11.1,16.2-21,26.5-29.5
			c4.9-3.7,15.1-1.4,22.6-0.2c1.9,0.3,5,8.1,3.8,9.9c-5.3,7.9,0,11.8,4.5,16.4c10.1,10.5,20.2,20.8,30.3,31.2c2.9,3,5.6,6.2,8.3,9.3
			L808.7,1120.5z"/>
		<path class="st0" d="M632.4,481.9c-5.5,3.2-12.3,7.2-19.1,11.3c-6.1,3.7-6.3,8.1-1.3,12.9c3.3,2.8,6.3,5.8,9.2,9
			c6.3,7,6,10.3-2.8,14.4c-10,4.7-20.5,10.3-31,10.8c-6.7,0.3-15.8-6.5-20.1-12.9c-7.2-10.5-11.1-23.1-17.2-34.5
			c-3.2-6.2-3-12.8,1.6-16.2c8.8-6.5,8.5-14.1,6.5-22.6c-1.3-5.3-0.9-8.4,5.4-11.1c5.7-2.4,9.7-10.2,15.2-11.5s11.8,3.8,17.9,4.7
			c3.2,0.6,7.1-1.8,10.8-2.4c12.6-1.7,20.4,4.8,21.5,17.6C630,461.4,631.3,471.3,632.4,481.9z"/>
		<path class="st0" d="M634.7,446.6c1.3-3.1,2.9-6,4.9-8.7c7.3-8.5,17.4-12.3,28-14.8c1.5-0.3,4.1-0.7,4.5,0
			c8.4,13.1,21.5,6.2,32.3,7.2c14.8,1.5,20.9,6.9,22,21.6c0.3,8,1.7,15.9,4.2,23.5c3.8,9.9,0.8,17.8-4.3,25.7
			c-1.1,1.7-3,4.3-4.5,4.3c-13.9-0.3-28.2,7.5-42-2.2c-9.6-6.9-19.6-13.2-30-18.9C635.6,476.5,636.9,462.3,634.7,446.6z"/>
		<path class="st0" d="M1691.7,1009.3c-3.6-7.5-8.3-18-13.9-28.1c-3-5.3-5.2-9.3-2.4-16.2c3.9-9.4,1-19-5.3-27.2
			c-4-5.1-8.3-9.9-11.8-15.3c-6.9-10.8-4.4-19,7.1-24.4c16.5-7.9,27.9-1.6,29.8,16.6c0.4,3.2,0.2,6.5,0.4,9.7c0.3,6.6,4,8.2,9.7,6.7
			c0.5-0.1,1-0.3,1.5-0.5c6.9-2.1,14.1-10.2,20.8-4.2c9.7,8.4,18,18.3,24.6,29.3c5.4,9.3-0.8,14.7-11.8,13.2
			c-4.4-0.6-8.9,0.6-12.4,3.4c-5.4,5.9-9.9,13.1-5.8,21.9c2.1,4.4,10.1,8.6,3.6,12.9c-2.5,1.7-10.8-4.2-15.7-7.6
			c-2.2-1.5-2.2-5.9-3.9-8.4c-1.8-2.5-4.5-5.4-6.5-5.2c-2.9,0.7-5.4,2.8-6.5,5.6C1692.3,997.5,1691.8,1003.4,1691.7,1009.3z"/>
		<path class="st0" d="M1039.1,776.1c-5.6,3.8-10.7,6-14.2,9.7c-9.3,10.2-20.7,12.3-32,4.1c-8.3-5.9-16.2-12.3-23.8-19.1
			c-8.7-8-18.1-12.9-30.3-12.5c-3.2,0-6.5-2.4-9.7-3.8c1.5-3.7,3.2-7.3,5.1-10.7c1.3-1.7,3-3.1,4.8-4.1c11.7-7,19.3-19.2,20.5-32.7
			c0.6-5.9,0.2-13.5,9.3-14.6c8.5-1.1,16.2-2.8,23.3,5.4c6.5,7.7,12.6,12.9,5.2,24.1c-5,7.6,2.5,25.4,13.7,28.8
			C1025.9,755.2,1031.5,767,1039.1,776.1z"/>
		<path class="st0" d="M1122.7,970.5c-3.7,3.8-6,7.7-9.2,9.1c-30.2,12.7-60.5,25.2-91,37.1c-9,3.5-18.2-4.1-20-15
			c-0.7-7.4-2-14.8-3.9-22c-2.4-7.1,0-11,5-15.2c4-3.9,10.1-4.4,14.7-1.3c6.9,3.6,14.7,9.2,21.5,8.4c6.1-0.7,11.6-8.8,16.9-14
			c12.3-12,29.1-13.1,44.1-18c2.1-0.4,4.2,0.3,5.7,1.8C1111.8,950.6,1116.8,959.9,1122.7,970.5z"/>
		<path class="st0" d="M983.2,1169.3c0-24,5.4-31.8,28.1-38.3c10.9-3,20.6-9.2,28.1-17.7c10.9-12.6,22.5-24.6,34.7-36
			c10.2-9.3,14.5-19.4,11.6-32.9c-1.5-7.5,3.6-12.7,11.6-12.7s8.1,6.5,7.1,11.5c-4.6,22-8.7,44.8-24,62.2
			c-24.9,28.2-51.2,55.2-77,82.7c-1.4,1.6-2.9,3.2-4.5,4.6c-6.2,5.2-12.6,3.6-14.3-4.2C983.6,1182.2,983.2,1175.8,983.2,1169.3z"/>
		<path class="st0" d="M413.6,501.8l27.6-17.9l-15.3-8c5.1-9,5.3-19.8,16.7-25.7c8.6-4.5,3.8-25.4-6.2-27s-12.9-6-12.3-15
			c0-2.1,0.3-5.4-0.9-6.2c-12.2-8.2-2.2-17.2-0.8-25.5c1.5-8.3,8.2-13.5,16.5-15.8c0.8,0.3,1.6,0.6,2.3,1.1
			c-0.1,1.8-0.4,3.7-0.9,5.4c-3.5,7.3-1.8,11.8,6.7,11.6c10.4-0.2,10.9,3.9,8.6,12.9c-1.5,6.2,0.5,13.9,2.9,20.2
			c4.1,10.5,8.9,20.7,14.5,30.5c2.6,3.9,6.1,7.2,10.2,9.7c10.8,7.5,11.7,10.7,4.8,21.5c-1.3,1.7-2.2,3.5-2.9,5.5
			c-2.7,11.4-6,15.6-15.7,13.2c-13.5-3.4-24,2-35.4,6.9C428.2,502.1,422.3,507.7,413.6,501.8z"/>
		<path class="st0" d="M658.9,1031.8c-0.5,8.1,2.2,17.2-5.7,24.8c-4.7,4.5-3.2,9.7,1.6,13.9c11.8,9.9,13.5,21,4.5,33.9
			c-6.5,9.4-4.8,18,3.2,25.9c3.5,3.3,6.8,6.9,9.7,10.7c1.7,2.3,3.7,6.5,2.7,8.1c-2.1,2.2-5,3.5-8.1,3.5c-19.9,0.8-39.7,1.2-59.6,1.9
			c-6.3,0.2-9-2.7-8.3-8.7c0.6-6.5-1.9-12.8-6.8-17.1c-7.3-7.7-6.5-15.6,2.2-21.3c5.2-3.2,11.9-4.2,17.8-6.5
			c4.7-1.9,11.2-3.2,13.3-7C637.4,1073.1,648,1052.2,658.9,1031.8z"/>
		<path class="st0" d="M1144.1,856.3c15,8.5,27,15.2,38.8,22.1c10.2,5.9,12.2,11.1,5.9,20.9c-12.2,19-24.8,37.8-38.1,56.1
			c-5.5,7.9-16.3,9.8-24.1,4.3c-2.1-1.5-3.9-3.4-5.2-5.7c-1.7-2.7-3-5.8-4.7-8.4c-5.2-7.5-3.5-12.8,4.6-16.5c2.9-1.4,5.7-3,8.4-4.8
			c15.9-9.5,19.4-22.6,14-40.4C1141.5,875.8,1143.8,866.3,1144.1,856.3z"/>
		<path class="st0" d="M678,646.4c-4.7,12.2-8.5,22.6-12.5,32.8h-2.9c-1.2-3-2-6.2-2.4-9.4c0.7-13.6-8.6-25.6-21.9-28.4
			c-14.2-3.7-23.3-12.4-31.8-23c-4.4-5.5-9.2-10.5-13.7-15.9c-3.9-5.2-9.9-8.5-16.4-8.8c-4.7-0.4-9-2.5-12.2-5.9
			c-2.9-3.6-4-8.4-3-12.9c1.2-2.8,8.5-5.5,11.7-4.4c9.7,3.5,13.6-2.8,18.6-8.5c8-9.3,17.5-11.3,25.2-5.9c6.2,4.4,6.9,9,0.2,13.3
			c-6,3.8-6.5,8-4.5,13.5c1.3,4.6,3.2,8.9,5.7,12.9c14,18.4,28.8,36.1,51,45.6C672.3,642.8,675.2,644.5,678,646.4z"/>
		<path class="st0" d="M734.6,466.2c-0.5-9.7-0.8-18.2-1.2-27c13.8-3.1,24.4-14.1,27-28c0.7-5.6,5.6-9.6,11.2-9.2
			c13.4-0.3,25.5,2.7,33.8,14.4c0.9,1.3,1.9,2.6,2.8,3.9c10,14.1,9.3,29.3-2.4,41.5c-2.3,2.2-5.2,3.5-8.4,3.8
			c-7.5,0.3-15.4,1.2-22.3-0.8C761.9,460.3,747.5,460.8,734.6,466.2z"/>
		<path class="st0" d="M749.5,531c17.7,0.3,25.6,6.2,28.5,23.3c1.5,8.4,4.3,12.8,12.9,12.7c0.5,0,1,0.2,1.5,0.5
			c4.4,2.2,11.6,1.3,11,9.2c-0.6,6.5-8.6,11.6-16.2,11.8c-5.7,0.1-11.4,1-16.9,2.8c-21.4,7.5-36.8,1.8-46.5-13.3
			c-16.4-25.5-15.8-20,3.6-36.8C734.6,535.2,740.3,528.2,749.5,531z"/>
		<path class="st0" d="M299.3,281.2c-8.3-2.5-18.9-5.7-29.6-8.9c-0.5-0.2-0.9-0.5-1.2-1c-2.5-6.5-6.5-12.4-11.8-17
			c-3.2-3.1,1.3-14.2-8.3-17.5c-0.1-1.9,0.3-3.8,1.3-5.4c2.5-2.8,5.4-5.2,8.6-7.1c8.5-5.2,11.8-3.2,12.9,6.9
			c0.7,3.4,1.8,6.7,3.2,9.9c3.3-1.1,6.4-2.7,9.3-4.6c8-7.2,15.6-13.7,26.6-5.1c2.3,1.1,5.1,0.9,7.3-0.5c5.6-5.6,10.1-6,16.2-0.5
			s9.2,11.7,7.3,19.8C337.9,264.8,317.2,281,299.3,281.2z"/>
		<path class="st0" d="M445,1117.3c-21-3-39.7-1.1-57.9,13.2c-1.3-15.4-2.8-27.9-12.9-37.5c-1.9-1.8-1.4-8.9,0.6-11.4
			c4.1-5,5.9-11.6,4.8-18c-0.9-7.1,3-9.7,9.7-9.7c8.5,0.2,17.2-1.8,24.6,4.8c2.6,1.8,5.7,2.8,8.9,2.9c12.9,1.8,13.7,1.7,12.4,14
			C433.6,1090.7,433.9,1104.7,445,1117.3z"/>
		<path class="st0" d="M481.7,1043.4c-10-1.3-17.4-2.7-24.9-3.2c-7.5-0.6-14.9,0-18.3,9.2c-3,8.2-10.7,6.7-16.6,5
			c-7-2-5.3-8.4-3.9-13.5c1.1-4.1,1.8-9.5,4.7-11.8c15-12,30.4-23.6,46.4-34.3c5.9-3.9,12.3-1.8,16.5,4.9c3.2,5,7.3,9.4,10.1,14.5
			c2.8,5.1,7.2,12.3,5.4,15.1C496.3,1036.7,489.1,1042.9,481.7,1043.4z"/>
		<path class="st0" d="M1699.7,926c4.4-15.2,0.8-24.9-7.1-34c-5-5.8-0.5-24.6,6.3-28.9c1.4-0.9,6.8,1.1,6.9,2.3
			c1.8,11.8,10.2,14.8,20.1,17.3c6.7,1.7,10.1,6.5,5.4,13.2c-4.7,6.8-0.9,11.9,4.1,16.6c12.5,11.8,25.1,23.4,37.2,35.6
			c9.7,9.7,8.8,17.6-2.7,24.4c-6.5,3.9-11.5,2.2-10.7-4.9c2.5-24-17.7-33.8-29.6-48.5c-1.7-2.1-7.8-1.8-11.5-0.9
			C1713,919.3,1708.3,922.2,1699.7,926z"/>
		<path class="st0" d="M952.8,694.7c2.7,20.3-5.8,33.5-21.3,43.1c-8.2,5-16.2,10.7-24.4,15.4c-6.5,3.6-10,1.4-10.9-6
			c-0.4-3.7,0-7.5-0.2-11.3c0.3-2.7,0-5.4-0.8-7.9c-2.7-4.7-5.7-9.2-8.8-13.6c11.4-2.6,15-18.3,29.1-16.8c4.1,0.5,8.4-1.5,12.7-1.8
			C936.1,695.4,944.1,695.1,952.8,694.7z"/>
		<path class="st0" d="M980.2,41.2c-6-1.5-9.2-2.4-12.3-3.2c-6-1.5-8.5-5-5.4-10.5c9.7-16.7,19-33.7,29.8-49.6
			c2.6-3.9,10.1-5.4,15.7-6.5c15.7-3.2,29.8-8.4,39.6-22.2c1.8-2.5,6.1-5.4,8.4-4.9c3.2,1.4,5.6,4.3,6.2,7.8c0.3,3.6-1.1,9.3-3.7,11
			c-15.2,9.9-30.7,19.4-46.8,27.9c-8.8,4.6-14.5,10.4-16.8,20c-1.8,7.9-4.2,15.6-7.2,23C986.2,37.5,982,39.7,980.2,41.2z"/>
		<path class="st0" d="M480.6,1083.5c0,5.9-0.4,11.8,0,17.6c0.7,8.3-3.7,12.7-10.4,16.2c-9.4,4.8-12.1,3.9-18.9-4.1
			c-16.5-19.4-9.7-40.4-4-60.7c2.6-9,12.9-4.6,20-4.5c7,0.1,12.6,3.2,12.8,11.4c0.1,8.1,0,16,0,24L480.6,1083.5z"/>
		<path class="st0" d="M1362.8,580.2c-6.5,9-10.8,16.5-16.6,22.4c-2.8,2.9-8.6,2.8-12.9,4.2c-4.4,1.4-12,1.8-14.1,5.1
			c-10.5,16.9-25.9,16.9-44.9,14.2c13.9-4.8,26.8-6.9,38.6-17.2c-9.2-3.4-16.5-6.1-23.7-8.9c-3-1.1-7.3-1.7-8.6-3.9
			c-1.8-3.2-1.4-7.5-1.9-11.4c2.8-0.7,5.8-0.9,8.7-0.5c2.7,1.3,5.2,3,7.3,5.1c1.8-0.6,3.2-0.7,3.6-1.4c9.7-16.5,9.7-16.4,29.1-13.2
			C1338.2,576.5,1349.1,578,1362.8,580.2z"/>
		<path class="st0" d="M322.8,1033.1c11.2-0.5,22.4-0.8,33.5-1.5c6.2-0.4,10.6,1.7,12,8c2,8.8,4.8,17.7,5,26.6
			c-0.6,5.3-3.5,10-7.9,12.9c-1.9,1.3-8-3.2-11.8-5.9c-1.6-1.4-3-3.1-4.1-5c-12.9-15.9-19.8-17-36.2-5.4c-8.2,5.8-15,3.2-17.3-6.5
			c-0.3-1-0.4-2.1-0.3-3.2C296.3,1047.9,316.9,1031.6,322.8,1033.1z"/>
		<path class="st0" d="M1942.9,505.1c-12.3,13.2,1.8,29.9-12.2,41.5c-4,3.2-3.6,14.3-2.3,21.3c1.6,8.9-3.2,13.2-8.7,17.3
			c-7.3,5.6-14.5,2.3-15.9-6.9c-1.2-7.9-2-15.1-7.9-21.9c-6.9-8,0.7-25.7,12.9-27.4s14.8-8.1,17.7-17c1-3.5,3-6.7,5.7-9.1
			C1933.8,501.8,1937.8,503.9,1942.9,505.1z"/>
		<path class="st0" d="M592.7,785.4c-0.9-1.1-2.9-2.3-2.8-3.2c0.8-11.7-4.5-20.2-12.6-28.2c-2.8-2.7-4.9-10.5-3.2-12.9
			c6.8-8.8,3.6-17.2,1.9-26.1c-2.2-12,5.5-20.1,17.8-19.4c5.7,0.4,7.5,3.9,6.5,8.9c-2.6,12.5,7.4,25,0,37.7c-0.5,0.9,3,5.7,5.5,6.6
			c9.1,3.5,5.9,8.3,2.3,13.7C603.2,769.7,598.5,776.9,592.7,785.4z"/>
		<path class="st0" d="M1786.6,950.9c13.9,12.4,18.3,29.1,18.6,47.3c0.2,15-2,28.3-19.2,34.7c-5.8,2.1-9.9,9.3-14.1,14.7
			c-4.2,5.4-9,7.9-15,3.4c-5.1-4.8-5.4-12.9-0.6-18l0,0l0,0l0.2-0.2c6.2-5.1,13.5-9,19.2-14.6c4.2-3.8,7.1-8.8,8.3-14.3
			C1785.7,986.1,1785.9,968,1786.6,950.9z"/>
		<path class="st0" d="M1777,977.4c4.9,26.1-4.8,43.6-27.7,52.2c-6,2.2-18.4-8.8-15.9-15.1c3.6-9.2,3.2-15.9-4.3-23.1
			c-1.8-1.7,0.4-8.8,2.5-12.5c1.2-2,5.9-2.5,9-2.6c2.6,0.5,5.2,1.3,7.6,2.5C1757.9,981.4,1767.6,985.4,1777,977.4z"/>
		<path class="st0" d="M613.2,3.6c-7-6.5-4.7-13.4-3-20.1c1.3-2.9,2.3-6,2.9-9.1c0-3.8,0-8.9-2.5-11c-4.8-4.2-7.1,1.3-9.7,4.5
			c-8.1,10.2-16.9,9.7-23.2-1.2c-3.3-5.2-1.8-12,3.3-15.4c1.4-0.9,2.9-1.4,4.5-1.7c11-1.9,22.2-5.9,32.9-4.7
			c8.7,0.9,16.7,7.9,24.7,12.9c0.6,0.4-0.9,5.9-2.5,8.2C632-21.6,623-9.7,613.2,3.6z"/>
		<path class="st0" d="M695.2,421.9c0.3-5,1-9.7,1-14.3s1.6-8.3,7-8.9c1.6,0,3.2-0.5,4.5-1.5c14-15.8,26.8-6.7,39.5,1.9
			c8.8,6,9.4,9.9,3.8,18.5c-9.2,14-13.8,14.6-30.2,8.1C713.1,422.6,704.1,423.1,695.2,421.9z"/>
		<path class="st0" d="M1761.5,931.9c-4.7-5.8-9.3-11.7-14.3-17.2c-5.6-6-12.9-10-7.2-21.2c3.7-7-3.9-14.8-14.2-17.7
			c-5.1-1.5-11.3-1.3-12.2-8.3c-0.7-5-3.7-10.2,2.6-14.6c7.6-5.2,19.4-7.7,25.7-2.6c6.6,5.5,12.4,11.9,17.3,18.9
			c1.7,2.4,0.7,8.9-1.5,11.5c-11.1,13.3-7.9,25.3,1.5,37.6c2.3,3.4,4.3,6.9,6,10.6L1761.5,931.9z"/>
		<path class="st0" d="M1303.7,663.2c-5-5.8-9.1-14.7-15-16.2c-7.4-1.9-11.7,7.1-15.6,13.6c-2.1,2.3-5.2,3.4-8.3,3
			c-2-0.6-3.9-4.8-4.1-7.5c-0.6-6.9-0.3-13.8-6.3-19.1c-1.4-2-1.6-4.7-0.5-6.9c3.7-5.5,8.2-10.5,13.7-17.4c0,7.7-1.8,14.1,0.5,16.5
			c3,3.2,9.3,4.3,14.4,4.9c5.8,0.5,11.7,0.5,17.6,0c12.2-0.6,28.3,10.2,33,22.6c-5.5-0.5-11.3-2.2-16.4-1S1307.3,660.8,1303.7,663.2
			z"/>
		<path class="st0" d="M1498.4,803.8c-21-0.8-41.4-3.8-60.2-14.2c-6.5-3.6-10.5-7.5-9-15c1.8-8.4,9.1-8.2,15.4-7.9
			c4.2,0.3,8.3,1.7,11.9,3.9c14.7,9.8,31.2,16.8,48.5,20.5c2.1,0.1,4.2,0.8,6,1.9c2,2.2,3.7,4.6,5.2,7.2c-2,1.4-4.2,2.5-6.5,3.2
			C1505.9,803.9,1502.2,803.9,1498.4,803.8z"/>
		<path class="st0" d="M1583.5,880.4c-8.4-10.2-8.4-10.2-19.4-4.9c-13.2,6.5-21.6,2.6-21.5-11.5c0-12.6-5.9-22.4-10.7-33
			c-1.3-2.9-0.5-6.8-0.6-10.2c3.2,1.1,6.5,2,9.5,3.2c8,3.2,16,6.8,25.4,10.9c-0.3,0.8-1,3.5-2,6.2c-2.2,6-1.1,10.2,5.4,12.7
			C1582.2,858.5,1582.7,869.6,1583.5,880.4z"/>
		<path class="st0" d="M339,1022.8c-2.1,1.4-4.4,2.5-6.9,3.2c-7.7,0.9-19.4-6-20.6-14.1c-1.5-9.2-6-9.7-13.4-8.5
			c-6.4,0.9-12.8,1.1-19.2,0.5c-9.1-0.7-12-6.1-6.1-12.5c5.1-6.1,11.7-10.9,19.1-13.9c6.1-1.2,12.4,0.4,17.1,4.5
			c9.6,10.8,18.6,22.1,26.9,33.9C337.2,1018.2,338.2,1020.5,339,1022.8z"/>
		<path class="st0" d="M377,475c-3.5-0.2-6.9-0.8-10.2-1.7c-3.8-1.8-6.8-5.9-2-8.4c10.1-5.5,13.5-12.5,9.9-23.5
			c-0.5-1.6,5.3-7.4,6.5-7c5.4,2.2,9-10.2,14.8-1.3c2.4,2.9,5.5,5.1,9,6.5c3.9,1.9,10.8,0,9.1,8c-1.4,6.5,0.2,14.4-8.8,17.3
			C395.1,468.1,385.1,472,377,475z"/>
		<path class="st0" d="M732.6,599.3c14,2.4,27,5,40-0.6c3.8-1.7,8.7-0.8,12.9-1.1c-0.5,6.5,1.6,16.2-1.8,19
			c-7.9,6.5-16.4,13.4-28.5,12.8c-16.2-0.8-19.6-2.9-22-18.9C732.8,606.9,732.9,603.3,732.6,599.3z"/>
		<path class="st0" d="M992.7,94.7c0,6.5-7.9,11.1-12.7,6.5c-7.7-7.4-16.8-8.3-25.9-10.5c-4.9-1.7-9-5.1-11.6-9.7
			c-3.2-5.9,3.2-7.3,6.7-10.4c2.8-2.4,3-7.4,5.2-10.8c1.7-2.7,4.3-6.2,7-6.7s8.9,1.3,9.5,3.2c4,13.3,11.3,25.4,21.2,35.2
			C992.5,92.6,992.7,93.6,992.7,94.7z"/>
		<path class="st0" d="M773.6,637.8c-5.5,0.6-11.7-0.3-16.4,2c-7.3,3.6-12.9,8.3-22.6,6.7c-4.8-0.8-6.5,6.7-3.4,11.4
			c3.4,5.4,8.1,10,11.8,15.2c2.1,2.9,5.1,6.9,4.5,9.7c-1.5,6.7-4.1,13-7.8,18.8c-0.5,0.8-9.1-2.6-12.9-5.4c-1.2-0.8,0.2-6.5,1.5-9.2
			c0.6-1.3,4-1,5.9-2c5.4-3.2,4.8-6.7-0.2-9.5s-10.6-5.2-15.8-7.8c-6.2-3.2-6.5-7.2-3.2-13.1c6.3-12.1,18.8-19.7,32.4-19.8
			c8.5-0.5,17.1,0,25.5,0L773.6,637.8z"/>
		<path class="st0" d="M943.8,952.1c2.4,2.7,4.2,3.8,4.3,5c2.5,21.4,17.1,33.2,33.5,44.1c4.4,2.9,7.2,8.1,10.8,12.3
			c-8.3,5-11.3-3.5-15.3-7.1c-9.7-8.4-19.4-14-32.9-13.2c-15.2,0.9-21.8-11.7-13.8-25.6C933.8,962.1,939.1,957.6,943.8,952.1z"/>
		<path class="st0" d="M1014.9,1044.7c11.7,11.8,24,6.9,36.2,2.5c5.1-1.8,10.1-3.8,15.2-5.3c9.7-3,13.9,0,14.3,10.3
			c0.4,10.8-6.5,19.4-17.2,19c-8.4-0.3-16.7-2.2-24.4-5.7c-9.4-4.3-17.8-10.9-26.6-16.5L1014.9,1044.7z"/>
		<path class="st0" d="M617.7,499.8c17.3-14.4,39-12.3,53.4,5.1c1.2,1.4,2.3,4.8,1.7,5.4c-3.7,3.6-9.3,10.4-11.8,9.4
			C646.4,514.2,626.3,520.6,617.7,499.8z"/>
		<path class="st0" d="M725,530.9c-9.7,19-32.3,32.8-49,29.9c-5.9-1-12-2-12.4-10c-0.3-8.5,5.4-10.5,12.3-11.7
			C692.5,536.5,708.9,533.6,725,530.9z"/>
		<path class="st0" d="M597.2,543.1c2.8-0.9,5.6-1.7,8.5-2.3c10.7-1.7,20.3-4.5,26.7-14.7c1.9-3.2,9.9-5.1,13.7-3.8
			c5.5,2,10.1,7.1,13.9,11.8c0.9,1.1-2.1,7.1-4.7,9c-11.6,8.1-23.4,14.1-38.2,5.8c-5.4-3-12.9-2.2-19.4-3L597.2,543.1z"/>
		<path class="st0" d="M726,603.7c1,5.6-1.5,10.2-8.4,12s-9.5-3-11.6-8.1c-4.5-10.7-9.2-21.3-12.9-32.3c-0.7-2.3,1.9-7.1,4.3-8.6
			s8.4-2.1,9.7-0.5C715.4,577.1,725.7,587.2,726,603.7z"/>
		<path class="st0" d="M396.9,643.8c-2.7,19.2-4.6,35.1-7.5,50.8c-0.4,2.3-5.1,4.6-8.1,5.1c-1.3,0.2-4.2-3.7-5.1-6.1
			c-5.7-15.9,5-30.4,4.6-45.9c0.2-2.1,0.5-4.2,1-6.3c0.7-5.2,4.1-8.1,8.8-6.5c2.7,0.9,4.5,4.8,6.2,7.6
			C397.5,643.8,396.9,645.6,396.9,643.8z"/>
		<path class="st0" d="M1689.1,1032.1c1.1,20.6,11.1,36.3,25.6,49.9c3.8,3.6,12.5,8.2,7.5,13.2c-5.9,5.9-8.9-3.8-12.9-7.2
			c-3.8-3.5-8.2-6.4-12.9-8.4c-19.1-6.5-23.4-14.7-16.2-33c1.9-4.9,3.7-9.7,5.5-14.6L1689.1,1032.1z"/>
		<path class="st0" d="M922,757.9c0,0.5,0.2,1.3,0,1.5c-7.7,7.2-12.2,15.1-6.2,25.5c-7.1,5.2-13.5,11.6-21.3,15.3
			c-5.1,2.4-9.3-2.2-7.9-8.3c1.9-8.3,4.2-16.5,7-24.6c1.1-3.4,23.7-13.1,26.5-11.8C920.9,756,921.4,757.1,922,757.9z"/>
		<path class="st0" d="M502.3,1098.8c0-7.2,0-14.4-0.5-21.5c-0.2-7.9-1-15.9-2.3-23.7c-2.1-9.7,2.8-19.2,12.6-20.9
			c2.1-0.4,6.8,2.6,6.8,4c0,9,1.7,19.1-2,26.5c-5.1,9.3-7.8,19.8-7.7,30.4c-0.3,1.9-1,3.8-2,5.5L502.3,1098.8z"/>
		<path class="st0" d="M983,617.7c-16.5,16.5-45,6.5-54.4-11.2c-2.8-5.4-0.2-9.2,6.2-9S976.1,612.4,983,617.7z"/>
		<path class="st0" d="M1039.8,633.5l-16.2,20.1c-13.1-3.8-24.1-12.8-30.6-24.8c-0.9-2.3-1.5-4.7-1.7-7.1c2.4-0.5,4.9-0.7,7.4-0.5
			c8.8,2.2,17.1,10.3,26.5,1.5L1039.8,633.5z"/>
		<path class="st0" d="M1943.7,1104c-5.5,4.1-9.7,8.8-14.8,10.5c-6.3,2-17.5,4.2-19.4,1.5c-3.8-5.8-4.1-14.8-3.6-22.3
			c0.3-4.8,4.7-9.2,7.4-14.1L1943.7,1104z"/>
		<path class="st0" d="M1118.8,881.7c-5.8-0.5-11.6-1.5-17.3-2.9c-3-1-5.1-4.5-7.6-6.9c2.7-1.9,5.5-3.6,8.4-5.1
			c2.1-0.6,4.3-0.7,6.5-0.4c8.8,1,17.2-3.7,20.9-11.7c1.3-2.9,3.2-5.6,5.5-7.8c2.8-1.9,5.8-3.4,9-4.5c-1,3-2,6-3,9.1
			c-1.8,4.4-3.2,8.9-4.2,13.5C1134.8,881.5,1135,881.6,1118.8,881.7z"/>
		<path class="st0" d="M684,532.3c-0.5,0-1.1,0-1.6,0l-14.7-3.5c3.7-4.2,6.8-11.1,11.2-12c11.8-2.1,23.7-3.1,35.7-3
			c2.3,0,4.6,3.2,7,5.2c-1.8,1.8-3.2,4.5-5.5,5.2c-10.4,3.7-20.9,6.9-31.4,10.3C684.6,533.9,684.3,533.1,684,532.3z"/>
		<path class="st0" d="M630.8,580.9c10.7-5.5,19.4-11.3,29.1-14.5c6.5-2.1,14.3-0.4,21.5-0.4c0,1.7,0.3,3.2,0.5,5.1
			c-6.9,1.1-13.7,2.1-20.6,3.2c-9.3,1.6-11.2,5.6-5.1,12.7c6.9,8,14.6,15.5,22.6,23.8c-17.3-1.8-24.5-6.5-31-19.8
			C644.2,583.9,644.2,583.9,630.8,580.9z"/>
		<path class="st0" d="M579.1,371.6c7.8,12.6,11.1,20.6,4,30.4c-2.5,3.2-1.7,9-2.9,13.5c-0.6,2.3-2.1,6.2-3.2,6.2
			c-3,0.1-5.9-1-8.1-3c-7.4-9.6-7.3-23.1,0.3-32.6C572.2,381.9,574.9,377.5,579.1,371.6z"/>
		<path class="st0" d="M738,339.3c15.9,0.2,22.6,8.6,19.4,20.1c-0.5,1.8-2.8,4.6-3.8,4.4c-9.8-1.5-19.4-4-28.7-7.4
			c-5-2.1-4.6-8.7,0.5-11.8C729.4,342.4,733.6,340.7,738,339.3z"/>
		<path class="st0" d="M329.9,1063.3c7.2,0,16.7,8.1,14.2,13.6c-2.8,6.3-9,11.1-13.7,16.5c-6.5-6-13.7-11.4-18.9-18.3
			C309.1,1071.9,322.3,1063.3,329.9,1063.3z"/>
		<path class="st0" d="M738.9,369.4c12.2,1.8,23.1,3.2,27.6,15.4c3,8.1-1.1,14.4-8.6,11.5c-8.7-3.8-16.9-8.8-24.5-14.6
			c-1.7-1.2-2.1-6.5-0.9-8.7C733.7,370.8,737.5,370.2,738.9,369.4z"/>
		<path class="st0" d="M1487.2,1087.8c-1.9,1.6-5.2,5.9-9.4,7.1c-3.8,0.2-7.5-1.6-9.7-4.8c-1.7-4.3-2.3-8.9-1.7-13.5
			c0.5-5.5,1.3-11.1,2.4-16.5c0.3-2,0.7-5.5,1.4-5.6c2.4-0.5,4.9,0,6.9,1.3c3.4,3.2,6.1,7.1,7.8,11.4
			C1486.5,1072.7,1486.3,1078.7,1487.2,1087.8z"/>
		<path class="st0" d="M550.7,551.7c2.5-2.7,5.2-5.3,7.7-8.1c5.4-6,11-5.7,16.8-0.7c2.5,2,4.8,4.2,7,6.5s5.1,5.4,4.7,6
			c-2.3,3.2-6.8,8.9-8.3,8.2C569.4,559.9,556,567.5,550.7,551.7z"/>
		<path class="st0" d="M981.7,628.6c1.9,0.9,3.6,2,5.2,3.5c4.2,4.7,8.1,9.8,11.5,15.1c1.5,2.5,1.7,5.6,0.5,8.3
			c-2.3,1.9-5.5,2.5-8.4,1.5c-7.7-4.4-14.8-9.8-21.2-16C964.7,636.2,971.4,628.8,981.7,628.6z"/>
		<path class="st0" d="M663.5,579.5c5.8,0,11.9-1.2,17.3,0.3c4.5,1.3,10.7,5.1,11.5,8.9c1,4.6-2.8,10.3-4.5,15.5
			c-3.5-1.4-7.7-2.1-10.4-4.4c-5.8-5.1-10.9-11.1-16.2-16.7L663.5,579.5z"/>
		<path class="st0" d="M539,482.6l-20.5-7.6c4-3.4,7.2-8.2,9.5-7.8c8.5,1.7,9-2.4,8.6-8.8s5-8.7,9.4-8.1c2.3,0.4,5,6,5.4,9.5
			c-0.3,3.5-1.6,6.9-3.7,9.7C545.4,473.7,542.5,477.5,539,482.6z"/>
		<path class="st0" d="M489.3,1050.9c2,2.7,5.4,5.4,5.6,8.3c0.9,13.2,1,26.5,1,39.7c0,1.6-2.4,3.2-3.6,4.8c-1.4-1.2-3.9-2.2-4-3.5
			c-1-16.1-1.7-32.3-2.5-48.3L489.3,1050.9z"/>
		<path class="st0" d="M1929.1,837.8c-16.7-15-16.2-28.7,1.1-38.8C1931.2,811.9,1932.8,824.4,1929.1,837.8z"/>
		<path class="st0" d="M1942.4,1011.8c1.9,5.7,5.2,10.8,3.9,12.6c-7.4,10.4-15,20.8-25.9,28l-3.2-2.6L1942.4,1011.8z"/>
		<path class="st0" d="M788.3,556.3c-3.8-7-8.1-14.1-11.6-21.7c-1-2.2,0.5-5.5,0.8-8.3c2.5,0.1,4.9,0.7,7.2,1.6
			C797.8,536.6,798.4,544,788.3,556.3z"/>
		<path class="st0" d="M880.9,788.6c-8.5-12.4-8.3-22.6-3.2-32.7c1-2,3.8-3.1,5.8-4.6c1.5,2.4,4.5,5.1,4.1,7.2
			C886.2,767.9,883.6,777.1,880.9,788.6z"/>
		<path class="st0" d="M514.2,484.1c14.7-0.5,23.5,6.9,31.9,14.8c1.1,1,1,3.8,0.5,5.6c-0.2,0.7-3.2,1.7-4.1,1.1
			C532.8,500,522,495.6,514.2,484.1z"/>
		<path class="st0" d="M1811.7,886.6c3.5,5.2,6.5,7.7,6.9,10.6c0.7,6.7-7.6,14.6-13.3,12.5c-3.2-1.1-7.7-7.4-7-8.5
			C1801.3,896.4,1806,892.5,1811.7,886.6z"/>
		<path class="st0" d="M705.6,654c-7.5-11.1-8.9-20.6-2.3-31.2C712.9,636.1,713.4,641.6,705.6,654z"/>
		<path class="st0" d="M590.3,656L580,667.4c-2.6-4.1-4.8-8.4-6.5-12.9c-1.2-3.8,1-7.9,4.8-9c1-0.3,2.1-0.4,3.1-0.2
			C584.3,645.5,586.5,651.1,590.3,656z"/>
		<path class="st0" d="M623.4,688.1c20.3-8,22.3-6.8,20.7,10.6L623.4,688.1z"/>
		<path class="st0" d="M407.4,414.2l10.8,13.4c-2.9,1.9-6.3,5.9-8.5,5.3c-4.1-1.3-7.5-4.1-9.7-7.7
			C399.2,423.9,403.6,419.6,407.4,414.2z"/>
		<path class="st0" d="M640.2,570.8l-9.1-6.2c1.9-1.9,3.7-4,5.7-5.9c0.9-0.6,1.9-1,3-1.1c4.5-0.8,9.1-1.5,13.7-2
			c0.2,0,1.4,3.5,0.9,3.9C649.9,563.5,645.1,567.1,640.2,570.8z"/>
		<path class="st0" d="M1037,808.2c-3.8-6.1-7.6-9.5-7.9-13.2c-0.1-2.6,4.4-5.5,6.9-8.3c2.4,3.6,4.4,7.5,6,11.6
			C1042.4,800.1,1039.8,802.9,1037,808.2z"/>
		<path class="st0" d="M715.7,381.9c-6.8,4.5-11.5,8-16.7,10.8c-0.9,0.5-3.6-2.7-5.5-4.1c3.9-4.4,8.1-8.6,12.6-12.5
			C706.9,375.4,710.7,378.8,715.7,381.9z"/>
		<path class="st0" d="M294.2,88.8c8.5-0.4,15.6,4.2,15.4,9.4c0,1.6-2.9,4.4-3,4.4c-5.4-3.4-10.7-7-16-10.6L294.2,88.8z"/>
		<path class="st0" d="M3.8,126.5l-7.3,9.7c-3.4-2.7-6.5-5.8-9.1-9.3c-0.5-1,4.2-7.2,6.2-7C-3.3,120-0.3,123.6,3.8,126.5z"/>
		<path class="st0" d="M301.5,1033.9c-3.9,4.8-5.9,12.5-13.2,8.4c-2-2.3-2.8-5.5-1.9-8.4C290.8,1026.5,296.2,1032.1,301.5,1033.9z"
			/>
		<path class="st0" d="M734.3,628.1c-6,3.2-9.2,6-12.9,6.8c-1.5,0.3-3.9-3.5-6-5.4c2.7-2.6,4.9-6.5,8.1-7.5
			C725.7,621.4,729,624.9,734.3,628.1z"/>
		<path class="st0" d="M1549.5,791.9c2.2,0.5,4.4,1.3,6.5,2.3c0.8,0.5,0.6,2.8,0.9,4.3l-18-0.5c0.6-1.7,0.8-4.4,1.9-4.8
			C1543.6,792.3,1546.6,791.9,1549.5,791.9z"/>
		<path class="st0" d="M1096,849.2l-7.3,8.7c-1.6-2.4-5.1-5.4-4.5-7.1c1.8-3.9,4.1-7.6,6.9-11L1096,849.2z"/>
		<path class="st0" d="M1003.5,1018.8c0.7,2.5,1,5.1,0.9,7.6c-1,3.3-2.6,6.4-4.8,9.1c-0.4,0.5-5.3-1-5.3-1.7
			c-0.2-3.5,0.1-7.1,1-10.5c0.9-2.5,2.1-4.9,3.6-7.2L1003.5,1018.8z"/>
		<path class="st0" d="M869.8,718.8c-4.6,3.7-9.5,7.1-14.6,10.3c-1.3,0.7-4.3-1.5-6.5-2.3c1.4-1.7,2.4-4.3,4.2-5.1
			c4.7-2.2,9.7-3.7,14.6-5.4L869.8,718.8z"/>
		<path class="st0" d="M788.4,638.1c-2.5-2.9-5.5-5.3-5.1-6c1.4-3,3.6-5.6,6.5-7.3c1.2-0.6,4.4,3,6.7,4.7L788.4,638.1z"/>
		<path class="st0" d="M757.6,719.4l19.4,3.2C769.9,726.5,762.9,727.5,757.6,719.4z"/>
		<path class="st0" d="M695.5,605.8c2.1,3,4.3,5.2,3.9,5.8c-1.8,2.7-3.8,5.1-6.1,7.4c-1.1-0.9-3.2-2.3-3-2.7
			C691.6,613.2,693.3,610.2,695.5,605.8z"/>
		<path class="st0" d="M890,730.2c-0.7,4.2-1.4,8.4-2.1,12.5l-4.6-0.6c0.3-4.3,0.6-8.7,0.9-12.9L890,730.2z"/>
		<path class="st0" d="M605.4,416.2c-1.9,0.9-3.9,1.4-6,1.6c-2.2-0.7-4.3-1.8-6.2-3.2c1.1-1.6,2.1-4.4,3.2-4.5
			c2.3,0.3,4.5,1,6.5,2.2L605.4,416.2z"/>
		<path class="st0" d="M1323.9,662.9c-2,1.9-4.3,3.6-6.7,5c-0.8,0.3-2.6-1.8-4-2.8c1.7-1.7,3.6-3.2,5.6-4.5
			C1319.5,660.3,1321.2,661.7,1323.9,662.9z"/>
		<path class="st0" d="M582.7,618.1c0.6,3,0.9,6,1,9c0,1-1.8,1.8-2.9,2.8c-1.1-1.9-3-3.7-3.2-5.7
			C577.6,622.8,579.9,621.3,582.7,618.1z"/>
		<path class="st0" d="M1134.1,1016.4c-1.4,1.7-2.1,3.5-3.2,3.8c-2.8,0.7-5.6,1.1-8.4,1.3c-0.2-0.4-0.4-0.8-0.6-1.3
			c2.2-1.8,4.6-3.3,7.1-4.6C1130.1,1015.1,1132,1016,1134.1,1016.4z"/>
		<path class="st0" d="M300.7,1022.8h-18.4v-0.8h18.4V1022.8z"/>
		<path class="st0" d="M299,1013.2h-17.6v-0.8l18.7-1.1L299,1013.2z"/>
	</g>
</g>
<g id="trio-3">
	<circle class="st1" cx="851.5" cy="297.2" r="17.5"/>
</g>
<g id="trio-2_1_">
	<circle class="st1" cx="831.5" cy="297.4" r="17.5"/>
</g>
<g id="trio-1">
	<circle class="st1" cx="811.5" cy="297.2" r="17.5"/>
</g>
<g id="tag_1_">
	<circle class="st2" cx="851.5" cy="391" r="17.5"/>
</g>
<g id="tag_2_">
	<circle class="st2" cx="1102.6" cy="499.8" r="17.5"/>
</g>
<g id="tag_3_">
	<circle class="st2" cx="1123.5" cy="854.8" r="17.5"/>
</g>
<g id="tag_4_">
	<circle class="st2" cx="535" cy="457.5" r="17.5"/>
</g>
<g id="tag_5_">
	<circle class="st2" cx="783.2" cy="426.6" r="17.5"/>
</g>
<g id="tag_6_">
	<circle class="st2" cx="807.3" cy="683.3" r="17.5"/>
</g>
<g id="tag_7_">
	<circle class="st2" cx="1260.3" cy="457.5" r="17.5"/>
</g>
<g id="tag_8_">
	<circle class="st2" cx="1240.3" cy="457.5" r="17.5"/>
</g>
</svg>
