<svg id="Слой_1" data-name="Слой 1" xmlns="http://www.w3.org/2000/svg" viewBox="0 0 1920 1080"><defs><style>.cls-1{fill:#f2f2f2;}.cls-2{fill:#da49e2;}.cls-3{fill:#fff;}.cls-4{fill:#a20069;}.cls-5{fill:#f4b4d4;}.cls-6,.cls-7,.cls-9{fill:none;}.cls-6{stroke:#ebf190;stroke-width:3px;}.cls-6,.cls-9{stroke-linecap:round;}.cls-7{stroke:#b9b9b9;}.cls-8{fill:#b9b9b9;}.cls-9{stroke:#fff;stroke-width:2px;}</style></defs><g id="map"><g id="sFFT8b.tif"><path class="cls-1" d="M992.32,338.86c13.64-5.28,26.46-2.8,39.18,3.47,7.06,3.49,14.78,5.6,21.89,8.94,8.45,4,11.12,12.57,5.6,18.08a12.89,12.89,0,0,1-9.35,3.37c-10.65-1.23-21.16-3.45-31.76-5.11-3.63-.58-8.5-3.32-10.39,1.61-2.29,5.93,3.55,7.18,7.37,8.28,7.13,2.15,7.56,7.87,8.62,13.47,1.85,10.11,8.62,15.62,18.51,15.08,7.67-.49,9-2.88,5.67-10.34-.41-.93-.73-1.9-1.4-3.71l18.83-1.05c2-5-4.76-8.95,0-13.62,3.54-3.45,6.64-5.86,12.11-5,8.13,1.34,10.18-1.64,7.16-9.55a72.06,72.06,0,0,0-4.51-8.62,30.24,30.24,0,0,1-2.47-4.76c-1-3.21-3.49-8-2.16-9.5,3.88-4.7,9.16-1.66,13.88-.13s5.9,5,5,9.33c-.77,3.73-1.94,7.39-2.95,11.18,13.25,1.51,13.4,1.21,15.88-9.7a12.77,12.77,0,0,1,5.11-7.34c8.21-5.09,16.79-9.62,25.36-14.12,1.71-.9,5.13-1.7,5.78-.9,5.09,6.22,10.43,2.67,15.56.68,8.38-3.27,18.47-4,22-15.08.41-1.23,5.17-2,7.61-1.44,13.19,2.8,27.22,3.1,38.79,11.7.39.3,1.32-.13,2.46-.28.82-8.75-.63-15.58-10.35-19.53-7.78-3.17-10.28-19.85-4.31-26,3.08-3.23,4-5.54,2.52-10.17-2.58-8.32.41-11,9.38-10.15,11,1.05,13.32,2.82,14.37,13.3,1.32,13.06,4.46,24.95,13.6,35.25,7.09,8,3.77,23.71-5,30.17-1.44,1.08-3.51,1.86-4.18,3.28a10.75,10.75,0,0,0-1,6.85,6.1,6.1,0,0,0,4.83,3.11,91.07,91.07,0,0,0,15.94-2.16,6.31,6.31,0,0,0,4-4.31c.71-8.43,4.7-16.51,1.64-25.34-2.37-6.79,0-8.62,7.45-7.65a31.84,31.84,0,0,0,6.68-.56c-.28-2.76.3-6.12-1.07-8.11a9.72,9.72,0,0,0-7.14-3.19c-4,0-9.54,3.34-11.7,1.68-3.17-2.41-4.18-7.9-5.67-12.24q-5.18-15.27-9.87-30.71a94.56,94.56,0,0,1-1.94-9.87l2.59-1.33c2.93,3.29,6,6.46,8.73,9.93,3.19,4,6.46,5.84,10.56,1.38,3.72-4.09,7.88-4.14,12.63-1.94a72,72,0,0,0,8.08,2.91c10.58,3.64,12,3.17,20.15-7.28-4.66-2.16-9.14-4.16-13.6-6.23-7.8-3.6-10.78-10.17-5.8-17.24,8.3-12,15.8-24.61,27.78-33.94a369.45,369.45,0,0,1,59.31-38.1c4.63-2.35,9.89-4,5.58-11.9-1.32-2.41,3.27-8.62,6.16-12.28.54-.72,6.81,1.42,8.62,3.7,5.82,7.07,12.26,7.65,20,4.08,2.59-1.19,5.65-1.45,8.13-2.78,10-5.37,19.52-2,29,1.2a8.45,8.45,0,0,1,4.56,4c3.13,7,0,19-6.09,24.35q-12.51,11.06-25.18,21.92c-3.18,2.73-5.36,5.75-4.31,10.21.69,3.21,1.21,6.79,5.54,6.66,3.84-.11,7.83.19,9.51-5q6.92-21.27,29.37-24.24a239,239,0,0,0,26.44-4.55c5.91-1.46,10.15-.69,14.53,3.64,5.67,5.56,13.73,5.28,18.34-.86,1.7-2.28,1.33-6.62,1-9.91-1-8.62-.67-9.4,8.1-9.2,9.2.21,18.38,1.09,28.84,1.78-1.71,4.31-2.59,6.9-3.73,9.38-3.82,8.49-3.84,8.79,4.87,10.58,9.11,1.87,18.36,3.15,27.5,5,5.64,1.14,7.62-1.36,6.46-6.32-1.51-5.88.76-7.48,6.27-7.95,10.35-.9,20.65-2.41,30.93-3.9,7.22-1,9.72-6.94,5.84-13.12-4.81-7.68-2.5-14.53,6.18-16.51a293.35,293.35,0,0,1,35.88-6.75c7.27-.73,14.92,1.1,22.24,2.46,9.16,1.68,18.26,3.79,27.24,6.21,5.13,1.37,9.36.81,12.33-3.62,9.94-14.9,24.94-9.14,38.3-9.08,2.15,0,4.82,4.61,6.46,7.52,4.7,8,4.57,8.13,13.41,4.81,9.39-3.56,18.87-6.92,28-11.1,6.73-3.1,12.74-3.6,19.4,0a70,70,0,0,0,10.77,4c4.12-12.93,4.12-12.93-9.09-22.26,3.75-2.16,6.66-4.75,10-5.39,16.14-3.15,32.32-6,48.68-8.36A30.12,30.12,0,0,1,1926.93,94c8.62,2.58,17,5.73,25.47,8.62,12.12,4.13,25.24,6.46,32.57,21a80.9,80.9,0,0,0,6-9c2.27-4.71,5.41-6.46,10.39-4.31,1.31.56,2.76.8,4.07,1.36,5.24,2.16,10.46,4.46,15.67,6.68-2.46,4.55-4.59,9.31-7.48,13.58a6.28,6.28,0,0,0,.45,8.88h0a8,8,0,0,0,.64.51c1.06,1,2,2,3,3.08,2.41,2.58,5.26,4.72,3.55,9.22-2,5.26-6.2,4-9.93,4-11.75,0-22.63-3.73-33.06-8.62-3-1.43-5.26-4.68-7.69-7.22-1.94-2-3.49-5.28-6.88-2.76-2.8,2.15-6,4.31-4.31,8.81a65,65,0,0,0,3.75,8.9c2.78,5,2.5,9-1.46,13.58-5.28,6.08-5,6.46,1.29,11.79,7.35,6.12,14,13.42,24.33,15.08a8.13,8.13,0,0,1,5,5.39c.89,4-2.52,4-5.58,4.31a21.22,21.22,0,0,0-17.8,12.09,223.41,223.41,0,0,0-11,22,213.2,213.2,0,0,0-6.23,22.89,89,89,0,0,0-13.66.21,7.54,7.54,0,0,0-5.3,4.31c-1.21,7.38-6.75,8.43-12.37,9.92-12.31,3.27-12.35,3.34-11.25,16.12.34,3.92,1.25,7.8,1.46,11.72.37,6.19.6,10.37,8.82,13.1,6.18,2.16,10,11.38,14.71,17.59a3.14,3.14,0,0,1-.58,3c-6.27,6.08-2.32,11.77.46,17.54,1.91,4,3.4,7.53-.65,11.66a16.13,16.13,0,0,0-3.41,9.66c-.77,10.77-.84,21.55-1.48,32.32a25,25,0,0,1-2.5,6.58c-2-1.19-4.68-1.88-5.89-3.6-12.15-17.24-24.07-34.83-36-52.28a6,6,0,0,1-1.42-2.85c.52-13.1-3.47-26.44,1.4-39.33,4.57-12.05,9.46-24,14.48-35.88a38.23,38.23,0,0,0,3.23-20.9,83.07,83.07,0,0,1,0-16.08c.18-3,3-6.25-2.15-7.76-5.6-1.66-11.49,0-12.65,4.31-.76,2.87-1.12,6.77.24,9.12,4,7,1.42,12.34-2.7,17.71-4.31,5.69-10.19,5-13.14-1.66-1.3-2.93-1.62-6.33-3.15-9.09-.63-1.12-4.31-2-4.87-1.4-4.07,4.31-8.86,8.62-11.19,13.88-3.29,7.45-4.52,15.79-6.91,23.7-1.43,4.72-.3,7.56,4.67,8.73,2.16.47,4.83.82,5.84,2.15a9.12,9.12,0,0,1,0,5.84c-7.52.59-10.43,7.14-15.23,11.19a23.36,23.36,0,0,1-5.28,2.48c-.39-1.62-1.49-3.47-1-4.83,1.58-4.91-1.25-6-4.91-5.67-4.89.48-10.78.22-14.4,2.76-11.53,8-24.56,11.62-37.64,15.3-6.73,1.9-10.28,4.91-10.78,12.39-.75,10.35-2.82,20.56-4.31,30.84a91.85,91.85,0,0,1-8.62,28.64c-3.38,6.66-2.87,7.14,4.16,10.13,3.64,1.55,7.35,2.89,11,4.31s5.86,2.52,8.62-2.35c3.19-5.73,7-5,12-.15,16.12,15.75,24.48,36,32.54,56.33a24,24,0,0,1,.9,8.47c0,8.26-.41,16.51-.13,24.77.61,17.8-6.87,33.51-12.47,49.71-2.29,6.58-8.32,7.14-13.39,5.45s-8.62-1-11.53,2.61l-7.43-17.69c-2.42-5.75-1-9.57,5.19-11.06,4.55-1.07,6-3.47,5.82-7.45q-.7-18.25-1.66-36.53c-.17-3.1-1.85-5-4.89-3.15-3.58,2.16-8.32,4.31-9.78,7.83-3,7.06-8.47,7.37-13.06,4.8-15.09-8.62-32.46-14.07-43.11-29.24-2.15-2.93-5.25-5.17-6.81-8.28-8.72-17.24-24.22-16.66-39.84-15.23-10.67,1-14.59,8.12-10.09,17.93,3.17,6.91,6,13.57,4,21.55-1.79,7.43-3.7,10.15-11.29,10a174.11,174.11,0,0,1-21.38-2,14.87,14.87,0,0,0-14.44,4.88c-4.41,4.93-8.25,11.09-16.63,9.95-6.21-.84-11.94-1.1-18.19-4.16-5.76-2.8-14.38.11-21.7.8-1.64.15-3.08,1.85-4.74,2.41-6,2-10.24.67-13.45-5-6.66-11.72-19.4-10.62-29.74-14.37a98.25,98.25,0,0,0-9.66,12.24c-.66,1.16,2.16,4.48,3.54,6.66a17,17,0,0,0,3,2.8c-5.06,9.94-12.2,11.08-21.81,7.46-5-1.9-9.89-4.31-14.85-6.3-8.29-3.4-8.34-3.4-14.07,4.14-2.8,3.73-5.37,7.63-8.28,11.27-1.53,1.9-3.49,4.74-5.38,4.85-10.3.61-21.23,1.64-29.57-5.79-5.41-4.83-10.41-6.81-17.41-5.07-3.75,1-7.85.52-11.77,1a14.51,14.51,0,0,1-12.5-4.76c-8.73-8.62-17.82-16.68-26.48-25.28-4.31-4.31-8.34-6-12.5-.65-5.11,6.6-10.63,5.54-17,2.29s-13.25-5.56-19.39-9a18.13,18.13,0,0,0-19.16,0c-11.34,6.14-23.17,11.38-34.7,17.24-9.22,4.61-12.93,19.61-7.37,28.42,5.3,8.24,5.07,7.87-3.17,13.11-10.49,6.66-21.35,4.31-32.32,2.45a5.62,5.62,0,0,1-3.49-2.15c-3.52-6-9.57-5.15-15.09-6.32-14.5-3-24.87,5-34.93,12.93-7.11,5.65-6.06,23.13.9,28.86,1.12.93,2.31,1.73,3.45,2.59,10.45,7.91,10.45,7.91,3.06,18.47-5.19,7.37-3.45,9.41.41,18.75,3.49,8.4,4.91,17.49,12.33,23.7-.95,1.1-2,3.23-2.83,3.13a31.22,31.22,0,0,1-7.13-2.16c-12.76-4.78-25.45-9.74-38.29-14.24-3.17-1.13-7.53-2.16-10.2-.82-10.21,5-18.27-1-26.07-5.09-7.22-3.81-7.12-12.93-1.51-20.54s12-14.11,15.75-22.24c2.78-6,2-13.83,2.16-20.86,0-1.1-3.67-2.86-5.82-3.25a98.92,98.92,0,0,0-17.07-2,15.13,15.13,0,0,1-13.32-7.22c-8.77-12.48-9-12.33-23.57-16a33.29,33.29,0,0,0-25.15-32.65c-5.74-1.38-7.7-3.62-9.64-9.18-2.45-7-6.59-13.21-5.9-21.23.36-4.31.88-7.61,5.08-9.7,3.56-1.79,6.21-4.16,1.88-8-3.34-3-2.67-6.32-.58-9.7a21.28,21.28,0,0,1,2.26-3.64c12-12.2,10.77-25,2.59-38.79a92.87,92.87,0,0,1-8.41-19.77,75.55,75.55,0,0,1-2.91-17.6c-.3-4.31.22-8.19-4.31-11.19s-3.55-8.06-2.46-12.69Z"/><path class="cls-1" d="M335.54,597.81c-15.45,1.45-15.41,1.42-16.53-11.16-.43-4.7,1.25-10.78-6-11.92-4.85-.73-16,5.45-16.34,9.94-.58,7.86-5.36,8.62-11.05,7.82-17.65-2.76-32,3.64-45.26,14.57-12.56,10.32-28.9,12-43.66,17.37a6.68,6.68,0,0,1-5.41-2c-.71-.69-.19-3.45.63-4.77,4.2-6.68,8.46-13.34,13.1-19.69,3.32-4.55,3.25-7.87-.86-12.07a111,111,0,0,1-10.89-14.46c-6.76-9.72-14.63-17.24-27.54-18a21.53,21.53,0,0,1-12.54-5c-15.5-14-34.48-17.73-54.16-20.64-37.17-5.5-74.22-12-111.33-18.15-15.54-2.56-31.1-5.15-46.65-7.52-8.32-1.25-16.23-2-17.7-13.17-.47-3.55-4.55-7.48-7.95-9.67C-96,472-96.91,461.22-94.35,450c1.94-8.49.88-15.08-4.85-21.83-4.89-5.75-3.4-12.17,2.87-16.57C-81,400.77-84.11,404.93-87,386.06c-2-13.09-5.13-26-7.31-39.05-.9-5.41-2.84-8.39-8.81-8.45-3.38,0-7.69-.56-9.87-2.65a50.45,50.45,0,0,1-10.78-14.61c-1-2.16,1.3-6.66,3-9.57,14.22-24.51,28.66-48.88,43.1-73.27C-69,223.93-60.62,209.36-51.81,195a24.88,24.88,0,0,1,5.11-4.77c1.49,1.94,3.66,3.69,4.31,5.86,1.62,5.65,2.82,11,10,12.4,5.28,1,9.8,1.68,13.4-3.37,2.82-4,6.06-4.13,11.1-2.91,12,2.94,24.35,6.47,36.64,0,4.87-2.62,7.24-.77,7.67,4.57a37.75,37.75,0,0,0,1.79,10.54,8.8,8.8,0,0,0,5.41,5.17,8.36,8.36,0,0,0,6.29-3.85c4.31-7.07,6.77-7.65,12.45-1.53,4.31,4.74,8.11,10.1,12.68,14.63a167.93,167.93,0,0,0,19.11,16.94c4.61,3.34,5,5.64,2.26,10.38-5,8.63-4,10.46,6,12.94,5.19,1.29,10.47,2.39,15.79,3.16,6.34.93,11.14,2.93,10.32,10.67-.1,1,0,2.59.72,3a12.76,12.76,0,0,0,6.07,3.12,5.89,5.89,0,0,0,4.31-3.68,68,68,0,0,0,1.23-10.65c.54-5.08,3.9-7.28,8.45-8.38s6.92,1.53,8.62,4.81c6.27,12.19,18.64,15.08,29.85,19.39,9.61,3.64,15.38-.77,17.43-11.27A27.28,27.28,0,0,1,209,271.39c1.6-2.15,6.47-4.31,8.1-3.27a7.41,7.41,0,0,1,2.51,10.17h0l-.09.14-6.77,12.24c-2.26,4.16-3.83,8.39-.6,12.93,6.46-6.18,13.94-11.44,18.85-18.42,4.12-5.84,3.17-13.71-.15-20.52-6-12.41-2.15-20,11.64-22.93,5.07-1,8.49,2.16,8.94,9.14.76,11.44,1.17,22.91,1.79,34.48.18,3,.56,6.08,1,10.6a88.4,88.4,0,0,1,9-6.23,18.61,18.61,0,0,1,5.88-.9,23.16,23.16,0,0,1,.26,5.82c-.34,1.68-1.87,3.08-2.46,4.74-.92,2.69-4.85,5.19-1,8.38s11,2.78,13.56-.77c4.2-5.8,7.78-12.05,11.87-17.93s4.57-5.48,9.83-.8c6.36,5.6,10.49,11.66,6.59,20.62a57.14,57.14,0,0,0-2.15,9.42c-3,12.63-13.21,18.17-24.59,12.63s-21.55.8-32.2,2.71c-1,.18-1.85,3.47-2,5.37-.71,11.9-2.91,15.75-14.27,17.61-16.78,2.76-28.23,13.81-39.46,24.59-8.16,7.84-14.37,17.86-20.81,27.32-5.5,8.06-4.31,11.36,4.61,15.09a17.81,17.81,0,0,1,9.39,9.59A68.94,68.94,0,0,0,219,465.82c3.23,1.56,6.57,2.89,9.85,4.31,14.24,6.25,14.11,6.23,10.77,21.88A166.48,166.48,0,0,0,236,514.2c-.2,2.56,2,5.75,4,7.88,2.5,2.78,5.5,2.63,8.19-.6,5.31-6.47,10.24-12.93,10-21.94-.1-3.58.46-7.15.41-10.77,0-4.77,1.9-8,6.81-7.61,11.1.9,14.89-6.79,18.17-14.94a26.66,26.66,0,0,0,2.54-11.42c-1.07-13.62,4.08-25.15,10.56-36.5,3.56-6.21,6.68-12.68,9.81-19.14,2.05-4.31,4.63-5.84,9.37-3.82A149.39,149.39,0,0,0,332,401.05c7.78,2.31,9.85,10,14.76,15,6,6,3.9,12.18,1.79,18.88-1.27,4-4.44,8.62,1.36,12.41,6.46,4.31,8.29,4.64,15.38,0,4.53-2.93,8.88-6.12,13.43-9,6.19-3.86,6.94-3.52,8,3.4,1.53,9.55,3.14,19.07,4.31,28.66,1.08,8.75,3.55,16.6,10,23.09,4.55,4.52,8.34,9.84,12.44,14.82a37.48,37.48,0,0,1,3.9,5.13c5,8.94,1.79,16.7-8.11,19.2-10.47,2.65-21,4.87-27.58,14.85-2.16,3.3-5.32,3.69-9.44,2.78-9.74-2.15-19.68-3.55-29.55-5.19a17.57,17.57,0,0,0-14.87,4.59c-5.36,4.59-11,8.88-16.46,13.29l.93,2c8.23-1.58,16.44-3.21,24.69-4.68,7.48-1.34,9,.45,7.39,7.76-1.2,5.56-2.15,11.18-2.86,16.81A11.43,11.43,0,0,0,349,597.78c5.18,2.15,9.7.82,13.65-3.06a38.6,38.6,0,0,1,4.31-3c-2.44,9.5-6,15.24-15.39,15.09a14.58,14.58,0,0,0-14.27,7.67,7.32,7.32,0,0,1-4.91,3.58,10.49,10.49,0,0,1-7.16-2.65c-1-1.1-.32-4.79.82-6.47A120.3,120.3,0,0,1,335.54,597.81Z"/><path class="cls-1" d="M1753.09,715.54c8.62,1.14,10.11,6.47,9.77,13.28-.91,17.45-4.12,34-16.12,47.73a51.39,51.39,0,0,0-4.81,5.8,52.76,52.76,0,0,1-32.32,23A23,23,0,0,0,1695,815.47c-2.15,3.51-5.15,3.84-7.24-.45-2.87-5.91-7.61-6.12-12.69-3.88-4.66,2.16-7.91,1.25-11.27-2.61-5.07-5.82-9.44-12.69-19.12-11.76A46.4,46.4,0,0,0,1618,809.29c-7,6.18-13.55,5.19-16-3.8a12.13,12.13,0,0,0-7.48-8.31c-9.44-4.51-11.12-9.34-7.5-18.84,1.36-3.56,3.88-8.19,2.68-10.93-2.53-5.73-6.92-10.77-11-15.62-2.65-3.12-6.35-5.34-9.2-8.32a11.18,11.18,0,0,0-14.48-2.15,97.4,97.4,0,0,0-11.79,7.54c-22.84,17-46.35,13.15-70.06,2.31a71,71,0,0,1-8.32-4.92c-5.28-3.42-10.54-5.56-17.24-3.49-5.73,1.79-11.12,0-16.23-3.47-4.31-2.87-6.94-6.18-6.2-11.44,1.35-9.72-2.76-17.24-8.9-24.29-5.87-6.77-11.12-14.07-16.58-21.18-3.51-4.57-6.85-9.08-13.16-10.37a9.34,9.34,0,0,1-5.22-4.68c-2.15-4.31-4.31-7.93-10.08-8.29-4.55-.28-4.94-3.95-3.28-7.16,2.52-4.83,5.41-9.52,12.46-7.17,4.76,1.59,8.1-.76,10.77-4.72,5.71-8.26,11.55-16.43,17.69-24.38,3.45-4.46,3.82-8.51-.36-12.22-7.57-6.72-7.24-13.94-2.29-21.89a49.76,49.76,0,0,0,3.67-7.78c2.52-6.27,5.26-11.62,13.81-10.78,2.16.24,5.65-2.71,7-5.08,2.65-4.64,4-10,6.27-14.83,2.58-5.45,6.63-6,9.28-.78,3,6,6.47,10.09,13.34,12.33,3.24,1.06,5,6.66,7.37,10.24a24.47,24.47,0,0,1,2.76,4.61c4.83,12.54,14.08,17.24,27.11,15.62a65.28,65.28,0,0,1,8.62.15,11.38,11.38,0,0,1,11.44,7.8c4.18,9.65,20.45,15.08,30,10.77a75.66,75.66,0,0,0,7.65-3.94,9.33,9.33,0,0,1,11.92.64c10.38,8.86,21.78,4.87,32.62,2a111.75,111.75,0,0,0,21.68-9.4,28.83,28.83,0,0,0,8.88-7.48c6.12-7.5,11.75-15.38,17.65-23.06,3.26-4.31,6.34-8.25,12.07-10.15,3-1,5.11-5.43,6.92-8.62,2.73-5,4.31-10.28,11.68-10.77,4.7-.37,5.23-6.79.71-9.68-6-3.81-12-8.12-19.85-3.68-3.4,1.92-7.63,3.79-9.5-2.16s.34-12.35,5.06-14.09,11-1.75,12-7.61a99.42,99.42,0,0,0,1-22.07c-.15-3.36-2.82-6.46-4-9.91-2-5.69,0-9.31,5.9-9.81a173.45,173.45,0,0,1,22.57.13,10.41,10.41,0,0,1,5.34,3.13A30.48,30.48,0,0,1,1702,463c12.78,19.72,31.7,31.71,52.28,41.55a37.75,37.75,0,0,0,10.13,3c5.47.86,9.78-.49,11.55-6.74.54-1.92,3.06-3.28,4.68-4.9a24.25,24.25,0,0,1,2.5,6.47c.43,6.46.23,12.93.43,19.39.17,5.33.15,10.18-7.09,10.89a5.68,5.68,0,0,0-3.37,4.44,96.41,96.41,0,0,0,2.16,14.54c.32,1.68,1.77,3.11,2.31,4.77,2.15,6.83-4.08,10.12-6.47,15.08s-1,11.08-9.59,12.24c-7.74,1.06-12.93,8.45-14,15.84-1.25,9-8.62,11.68-13.47,17-.41.45-4.31-.93-4.64-2a59.15,59.15,0,0,1-.56-9.59c-.39-6.6-5.58-9.72-10.77-6-9.64,6.76-14.18,17-16.1,28.16-1,5.8,11.85,16.75,17.91,15.76a10.38,10.38,0,0,0,5.26-4.31,14.57,14.57,0,0,1,16.65-5.33c3.63,1.43,4.06,3.93,1.38,6.58-1.5,1.48-3.68,2.26-5.3,3.62-11.25,9.48-11.79,21.85-1.44,32.32,4.78,4.85,9.65,9.64,14.39,14.51C1759.58,699.27,1760,702.83,1753.09,715.54Z"/><path class="cls-1" d="M131.65,736.73c-3.23,0-6.46.15-9.7,0-5.06-.28-9,.36-10.28,6.59-.32,1.6-4.56,3.84-6.46,3.41a131.64,131.64,0,0,1-22.35-7c-5.62-2.43-10-2.39-14.72,1.58a177.73,177.73,0,0,1-16.48,12A38,38,0,0,0,38.32,768.4c-1.47,2.84-5.76,7.32-6.32,7a30,30,0,0,1-10-8.79c-2-3.13-1.89-7.57-2.71-11.4-1-4.55-1.6-9.2-3-13.64-2.45-7.83-8.21-9.31-14.65-4.14C-5.17,743-8.45,742-10.86,733.75c-.61-2-1.06-4.16-1.55-6.25-3.09-13.23-3.17-13.23-16.92-14.26-8.92-.67-17.87-1.4-26.75-2.46A22.37,22.37,0,0,1-64,708a40,40,0,0,1-7.78-5.73c-7.46-6.88-15.8-10.89-26.27-9.72-6.34.69-10.15-1.73-10.37-8.9a14.79,14.79,0,0,0-7.74-13.13,16.3,16.3,0,0,1-6.18-10.36c-2.72-16.6-4.66-33.32-6.92-50a36.07,36.07,0,0,1,3.47-20.79c9.22-19.81,17.91-39.87,26.81-59.85,1.29-2.93,2.56-5.91,3.77-8.88,1.31-3.3,1.66-8,4-9.5,1.9-1.21,6.19,1.79,9.51,2.15,1.65.24,4.84-.75,5.08-1.74,1.81-7.78,7.41-6.47,12.74-5.67q39.24,6.28,78.44,12.82c32.84,5.45,65.62,11.34,98.53,16.36,11,1.68,20.71,4.89,29.44,11.72a64.14,64.14,0,0,0,27.89,12.74c6.46,1.31,12.34,7.84,17.52,12.93,4.46,4.44,7.28,10.49,11.4,15.36,2.65,3.15,2.39,5.5.3,8.62-4.31,6.21-8.28,12.57-12.44,18.84-2.15,3.38-4.31,6.46-1,10.64s6.46,5.35,11.12,3.73c20.28-7,41.55-11.63,58.53-26a25.52,25.52,0,0,1,19-5.77c6.08.37,12.2,0,18.28,0,5.11,0,8-1.75,8.42-7.33a12,12,0,0,1,3.26-7.41c4.2-3.88,7.95-2.16,8.79,3.49,1.92,13.25.3,16.55-11.46,23.32-2.8,1.61-5.63,3.19-8.41,4.8-9.14,5.35-9.42,5.41-7.11,15.74,1.16,5.21-.73,7.43-5.39,8.31a143.86,143.86,0,0,1-15.84,2.81,18.18,18.18,0,0,0-12.73,7c-6.47,7.22-12.83,14.52-19.81,21.2-5.32,5.11-6.36,10.61-5,17.5,2,9.87,1.83,10.61-7.58,12.72-18.08,4-29.83,17.24-41.17,29.65-9.2,10-10.08,24.7-3.29,37.35,5,9.35,0,15-5,20.86-4.18,4.94-10.19,3.56-12.52-2.46a25.59,25.59,0,0,1-1-17.56c1.83-6.16,1.22-13.45.12-20-1.2-7-6.68-10.58-13.94-11-3.94-.21-7.89,0-11.83,0Z"/><path class="cls-1" d="M699.25,184.62A118,118,0,0,1,711.4,173a32.49,32.49,0,0,1,12.27-5.28,113.75,113.75,0,0,1,19.22-1.94A19.26,19.26,0,0,1,753,167.6c6,3.55,6.21,7.24.88,11.66-12,10-22.3,22.26-37.47,28.49-3.37,1.38-5.24,7-7.18,11-1.75,3.6-.28,5.71,4,6.77,10,2.5,13.3,11.61,7.44,19.95s-12,16.14-17.82,24.29c-4.57,6.36-4.31,6.33,1.81,11.66a17.81,17.81,0,0,1,2.8,4.78c-2.31,1.14-5.06,3.73-6.83,3.17a93.78,93.78,0,0,1-13.47-6.59c-6.79-3.43-16.7-1.3-21,4.65a5,5,0,0,0-1,3.86c2.46,6.89,3.24,14.59,12.35,17.39a36,36,0,0,1,13.13,8.81c6.46,6.19,5.32,15.26-2.91,18.21a75.46,75.46,0,0,0-28.92,19.7c-7.27,7.48-17.24,5.6-25.33,2.78-8.62-3-13.4-1-17.67,6a59.7,59.7,0,0,1-37,27.26c-9.35,2.5-16,8.49-22.2,15.95-9.8,11.75-18.18,23.71-20.62,39.31-.58,3.71-1.38,7.95-6.9,8.08s-7.45-3.56-8.79-7.8c-.75-2.37-.54-5.11-1.57-7.31-.69-1.48-3.11-3.53-4.31-3.25-13.69,3.47-17.74-7.57-22-15.82-4-7.91-8.11-16.72-3.92-26.72,1.25-3-.74-7.61-1.73-11.36-3.47-13.14-2.15-25.34,6.34-36.42,6.46-8.49,12.73-17.24,19.39-26.14-6.46-3.6-12-6.75-17.54-9.89l.78-2.16c1.63-.19,3.29-.43,4.95-.56,3.9-.28,8.36.24,8.62-5.6a9.6,9.6,0,0,0-7.6-10.37,72,72,0,0,0-12.18-.92A19.54,19.54,0,0,1,491,285c6.68-9.37,4.31-18.36.56-28.27C487,244.44,481.45,233.32,471.9,224c-5.1-5-9.84-7.84-17-6.16-3.44.79-7.09.86-10.53,1.7-10.26,2.52-16.83-2.74-16.81-13.32A32.45,32.45,0,0,0,426,199.3c-.5-2.16-.93-4.31-1.38-6.47,2.28.24,5-.23,6.79.84,7.26,4.49,13.14.63,19-2.78,1.47-.86,3.19-3.94,2.7-4.93a8.15,8.15,0,0,0-5.3-4,22.63,22.63,0,0,0-8.45,1.1c-6,1.47-9.87-1.68-12.48-6.14a8.91,8.91,0,0,1,.5-7.48c.62-1.14,4.69-1.78,6.09-.9,8,5.06,15.3.67,22.72-1,4.61-1,3.86-5.33,3.86-8.9,0-8.62,4.31-12.7,12.93-12,2.84.22,5.64,1,8.49,1.25,3.42.3,6.31-.13,7.19-4.48,1.62-7.87,8.63-9.74,14.7-10.11a78.39,78.39,0,0,1,21.23,2.56c2.15.48,4.63,3.47,5.6,5.89,2.57,6.31,6.88,8.34,13.45,8.12,6-.21,9.22-2.45,10.26-8.62.19-1.14,4.31-2.93,5.64-2.35,5.11,2.16,10.63,4.31,14.62,8,8.62,7.87,8.21,8.3,17.41,1.32,2.15-1.66,4.09-3.71,6.9-6.27-4.19-1.92-7.42-3.28-10.52-4.9-3.64-1.87-3.13-4.54-.58-6.85,3.29-3,8.79-1.29,12.65,1.1a102,102,0,0,0,18.27,7.84c.82.28,3.49-1.63,3.56-2.65.47-7.15,5.67-8,10.77-7.71,10.33.47,20.63,1.42,30.88,2.65,6,.71,11.9,2.93,17.93,3.36,9.62.67,14.47,6.36,18.71,16.1l-22,.34c-3.58,0-7.2.41-10.78.13-9.42-.79-14.74,3.73-17.45,13.52a127.38,127.38,0,0,0,17.69-.18c6-.84,11.23-.84,15.75,3.88,3,3,5.65,2.16,7.7-1.36.88-1.55,1.76-3.85,3.08-4.31a40.55,40.55,0,0,1,8.86-.75,22.4,22.4,0,0,1,0,6.74c-1.58,4.72-3.78,9.21-5.74,13.8Z"/><path class="cls-1" d="M308.15,993.59c-1.27,10.51,4.76,16.83,10.17,23.53,3.11,3.84,6.23,5.13,11.14,3.17,8.3-3.34,16.9-5.91,25.33-9,5.19-1.89,10.21-3.25,15.47-.19s8.17.28,10.58-3.82S385,999,387.54,995c.95-1.53,3-2.35,4.61-3.49.93,1.77,2.55,3.49,2.63,5.3.41,9.16,2.68,18.34-2.65,27.24-3.25,5.41-1.83,7.87,5.05,8,19.39.25,37,7.9,55.32,12.69,23.14,6.08,43.74,17.8,65.17,27.69,5,2.31,7.09,5.67,6.46,11a9.73,9.73,0,0,0,0,1.08c.28,25,.28,25-17.89,41.7a89.51,89.51,0,0,1-7.17,6.46c-8.06,5.91-14.25,12.24-7.09,22.83-.46,23.38,3.7,47.54-12.35,68.2-2.87,3.69-5.41,6.64-10.39,5.89-9.24-1.43-16.16,3.49-23.94,7.41-16.12,8.17-26.53,18.62-22.85,38.32a16.64,16.64,0,0,1-2.15,9.26c-3.86,8.08-8.25,15.91-12.26,23.92-2.16,4.31-4.59,6-9.29,3.17-8.32-4.93-16.81-9.61-25.37-14.13-4.13-2.16-4.84-4.68-2.15-8.63,4.65-6.8,9-13.79,13.71-20.58,2.93-4.31,4.18-7.65-.33-12.15-2.37-2.35-3.27-6.94-3.42-10.56-.5-11.79-9.29-18.1-16.38-25.34-1.58-1.6-6.17-.74-9.27-.26-4.63.69-7-.52-6.46-5.54a2.8,2.8,0,0,0,0-1.08,46.12,46.12,0,0,1-2-28.7c1-4-2.91-9.31-4.78-14-2.16-5.39-7.24-5.34-11.81-5.64-5.34-.35-6.47-4.51-7.13-8.13-1.68-8.62-6.71-12.93-15-14.5-2.43-.46-4.7-1.94-7.15-2.16-12.5-1.7-19.55-8.21-21.55-21.12-1.21-7.63-5.72-9.61-13.54-7.43a134.52,134.52,0,0,0-13.94,5.64c-8.38,3.39-8.62,3.56-13.71-4.31-3-4.59-6-6.61-11.44-4.31-3.15,1.32-6.64,3-9.7-.82-3.68-4.65-9.27-7.88-8.62-15.3,1.32-12.71,8.9-22.41,22.41-24.84,6.68-1.21,9-4.44,10.39-10.11a87,87,0,0,1,3.64-11.23c2-5.34,2.87-10.41-1.87-14.85a3.2,3.2,0,0,1-.58-.88c-2.48-4.72-2.33-12.07.25-14.14,3-2.41,10.54-1.16,14.77,2.5,1.61,1.42,3,3.11,4.67,4.44a14.86,14.86,0,0,0,18.67-.37c2.67-2.37,5-5.1,7.5-7.71,7.32-7.78,7.24-7.69-1.08-14.46-1.4-1.14-1.88-3.38-2.76-5.13,1.59,0,3.62-.73,4.7,0C296.15,1000.53,302,999.86,308.15,993.59Z"/><path class="cls-1" d="M1434,538.55c-2.39,5.79-3.88,11-6.66,15.41a10.37,10.37,0,0,1-7.78,3.79c-5.68,0-8.44,2.52-10.43,7.35a134.68,134.68,0,0,1-7.71,16.57c-4.81,8.32-5.54,15.52,2.15,22.87,4.31,4.13,3.5,8.62-1.2,11.55a11.53,11.53,0,0,1-6.81,1.12c-10-1.12-19.89-2.59-29.85-3.84-2.15-.26-5.71-.88-6.1,0-4,8.17-10.77,6.12-17.52,5.6-1.08-.1-2.54,1.12-3.4,2.16-3.17,3.64-5.93,7.65-9.27,11.14-7.78,8.13-19.2,7.78-25-2-7-11.79-15.09-18.13-29.42-14-6.46,1.88-12.17-.69-17.24-5.93-8.32-8.62-23-9.87-33.81-4.89-5.86,2.67-7.11,6.47-5.56,12s3.73,10.88,4.91,16.46c.52,2.4-.75,5.18-1.2,7.78-2.16-.77-4.31-1.44-6.47-2.35s-4.31-3-6.46-3.06c-2.89,0-7.16,3-8.47,1.94a110.84,110.84,0,0,1-16.92-17.11c-4.31-5.56-2.63-10.56,3.75-13.85,2.58-1.32,5.71-1.51,5.52-5.33a137.05,137.05,0,0,0-1.3-14.87c-.17-1-2.86-2.15-4.44-2.15a53,53,0,0,0-9.57.9c-4.13.65-9.13,3.43-12.19,2a54.86,54.86,0,0,1-16-12.34c-4.54-4.88-1.59-18,3.8-22,8.85-6.7,18.23-11,29.84-9.18,4.44.71,8.41,1,11.08,5.19a7.57,7.57,0,0,0,4,3.28c17.24,3.55,33.45,2,47.67-9.61,2.65-2.16,2.33-4.1.54-6.47s-3.25-3.84-4.76-5.84c-6.19-8.21-4-18.73,5-23.36,11.18-5.73,22.6-11,33.72-16.77a15.58,15.58,0,0,1,15.31.13c7.71,3.82,15.81,6.83,23.42,10.78,5.95,3.17,10.37,2.5,15.39-2,6.14-5.58,6.46-5.24,12.93.91,8,7.69,16.2,15.25,23.92,23.25a16.15,16.15,0,0,0,15.47,5.17,107.67,107.67,0,0,1,13.86-1.68c2.72,0,6.46,0,8,1.77C1415.14,536.13,1423.85,537.47,1434,538.55Z"/><path class="cls-1" d="M1359.17,809.87a59.67,59.67,0,0,1,5.84-1.66c3.75-.58,8.32.5,9.55-4.85s1.51-10-2.89-13.92a85,85,0,0,1-7.74-7.44c-3.25-3.75-2.15-7.45,2.7-7.11,10.17.74,13.68-5.56,17-13.12,3.63-8.19,7.76-16.14,11.66-24.2,5.18-10.78,5.89-10.24-3.25-17.76-5.15-4.31-5-4.46-5.63-13.41,6.3-.79,12.59-1.85,19-2.37,4.91-.38,13.27,7.85,14.48,13.9a16.15,16.15,0,0,1,.26,5.37c-1.45,10.13,2.45,16.9,11.66,21.55,2.84,1.47,5.06,5.91,5.71,9.35,1.16,6,4.72,8.62,9.65,11.66,16.27,9.81,34.48,7.95,52.18,10.28,7.65,1,5.71-5.39,6.46-8.47,6.12,1.68,11.6,3.47,17.24,4.55,2.7.52,6.47.67,8.3-.78s1.36-5,1.92-7.67c1-5,23.06-20.58,28-19.16a9,9,0,0,1,5.67,5.43c.67,3.88,1.06,10.41-1,11.68-10.54,6.47-9.68,16.6-10.78,26.56-.71,7-1.05,14.41-6.59,19.39l-11.17-9.78a39.86,39.86,0,0,0,2.16-4.64c1.62-4.87-.28-7.52-5.37-8.06-6-.64-12-1-16.7-6-1.83-1.94-6.74-4-7.76-3.17-3.42,2.91-6.46,7-3.79,12.2,1.9,3.86,4.14,7.58,5.67,11.57a56.38,56.38,0,0,1,2.82,11.29c.26,1.6-.21,4.53-1.14,4.92-7.61,3.12-8.19,9.85-9.72,16.51-.65,2.84-3.56,5.28-5.71,7.62-10.17,11.12-20,22.55-30.82,33a23.26,23.26,0,0,0-7.15,21.38c2,14.59-.65,28.49-5.33,42.19-.56,1.71-.62,4-1.78,5a32.63,32.63,0,0,1-10.39,6.62c-1.14.36-4.48-3.82-5.78-6.47-13.68-28-27.11-56-40.71-84.15a21.42,21.42,0,0,1-1-18.58,22.44,22.44,0,0,0,1.81-10.45,9.09,9.09,0,0,0-4.54-6.47c-3.75-1.57-5.24,1.92-6.88,4.87-5.06,9.12-11.44,10.78-17.84,5-3.62-3.25-4-7.45-1.12-10.77,5.71-6.62,5.45-7.31-3.34-9.46A22.27,22.27,0,0,1,1359.17,809.87Z"/><path class="cls-1" d="M1673.83,526.46c-2.82,3-6.18,5.64-8.19,9-3.7,6.33-5.67,13.45-14.26,16-3.41,1-5.59,6.25-8.28,9.61a62.3,62.3,0,0,0-6.46,8.62c-8.5,15.52-22.68,23.28-38.58,28.66-10.5,3.56-21,5.41-30.52-2.54-5.62-4.74-10.53-2.48-15.66.65-6,3.6-11.79,6-19.2,3.08-5.91-2.33-11.23-4.16-12.93-11.18-1.17-4.83-4.9-6.47-9.77-6.62-7.15-.28-14.26-1.53-21.4-1.68a12.35,12.35,0,0,1-11.81-7.54c-2.8-5.39-6.16-10.5-9.22-15.76-2.57-4.31-5.15-8-10.78-9.52-6.29-1.73-7.73-8-4.31-13.64,10.65-17.25,10.78-17.25,29.77-9.4,14.76,6.16,18.9,5.13,29.91-6.47,3.53-3.7,4-6.46-.43-9.44s-5-6.7-1-10.47a5.83,5.83,0,0,1,4.57-1.68c7.87,2.85,16.83,3.32,22.16,11.62,5.92,9.24,13.16,10.77,22.69,5.43,7.48-4.31,14-5.15,21.55.36,8.12,5.89,26.7,3.37,33.36-4.5,6.1-7.24,13.17-9.1,21.9-7.59,4.46.78,7.26,2.83,6.93,7.8-.15,2.16,0,4.31,0,6.47.18,9.53,4.57,12.93,13.65,9.48C1663.57,523,1669,521,1673.83,526.46Z"/><path class="cls-1" d="M845.17,862.88c-4.81-2-9.87-3.19-13.64-6-27-20.24-53.68-40.82-80.45-61.31a20.08,20.08,0,0,1-4.7-4.31c-4-5.86-1.23-12.69,5.76-14.7a38,38,0,0,1,6.22-1.64c9.61-1,16.86-5.3,20.78-14.46,2.61-6.12,7.41-7.69,13.79-7.86,10.37-.3,11-1.55,9.05-11.73-.82-4.31-1.74-8.4-2.54-12.62-2.16-11.56.15-15.69,11.94-18.65,9.7-2.43,19.63-4,29.46-5.94,3.17-.63,6.33-1.19,9.5-1.75,16.47-3,23.49,8.62,18.92,22.59-2.15,6.46-2.15,12.47,2.42,16.78,9.18,8.47,8.62,19.74,10,30.3,1.07,8.13.13,16.49.28,24.72.17,9.57,2.43,17.35,13.66,19.94,6.92,1.57,7.26,5.62,1.4,10.28-13.49,10.77-27,21.35-40.8,31.7C853.29,860.34,849.31,861.16,845.17,862.88Z"/><path class="cls-1" d="M917.32,1073.56c7.41-5.36,14.14-10.36,21-15.08A13.82,13.82,0,0,0,945,1044.9a13.94,13.94,0,0,1,6.71-13.79c6.46-4.12,8.32-10.15,8.62-17.39.3-6.77,1.29-13.54,2.15-20.26,1.1-8,4.53-9.59,11.75-5.5a29.5,29.5,0,0,1,4.48,2.93c4.89,4.08,9.42,4.74,13.81-.75a12.68,12.68,0,0,1,11.4-4.66c15.76.87,31.53,1.21,47.24,2.35,10,.74,16.06,12.74,11.14,21.55a122.26,122.26,0,0,1-10.4,16.3c-8.35,10.77-8.22,22.41-4.79,34.61,2.16,7.93,4.72,15.77,7,23.7s2.16,8.11-6,10.26c-9.18,2.39-9,11.06-11.23,17.8-1.87,5.69,1.12,9.53,6.7,11.51,1.66.58,4,1.4,4.49,2.71a57.87,57.87,0,0,1,2.15,9.64,31.68,31.68,0,0,1-7.54-1.36c-15.88-7.2-31.14-15.75-47.84-21.14a8.17,8.17,0,0,1-4.31-5,86.51,86.51,0,0,1-1.73-11.66c-1.57-11.33-1.53-11.61-12.37-13.25a10.58,10.58,0,0,0-8.3,2.59,12.11,12.11,0,0,1-10.34,4.31c-4.31,0-7-1-8.51-6-2.82-9.31-4.83-10.08-15.09-10.08h-15.1A9.54,9.54,0,0,1,917.32,1073.56Z"/><path class="cls-1" d="M-76,705.07a40.15,40.15,0,0,0,30.17,11.57c6.74-.17,13.51,1.38,20.28,2,4.05.35,6.72,1.86,7.41,6.21A103.52,103.52,0,0,0-15.7,736.4c2.58,9.31,11,12.09,18.66,6.25,6.23-4.78,8-4.31,9.87,3.45,1.41,5.9,2.32,11.9,3.33,17.9S19,775.06,25,777.74c5.56,2.5,6.94,6.57,4.83,12.3-1,2.63-.52,5.82-1.51,8.43-5.49,14.2-1.23,27.45,3.8,40.54,4,10.36,14.18,11.61,23,13,12,1.94,16.25-1.48,20.36-13.44,1.83-5.33,4.59-8.62,10.26-9.4,5.28-.84,10.45-2.63,15.75-3.13,8.17-.77,10.54,3,6.88,10.31-1.44,2.86-3.51,5.45-4.68,8.42C99.69,855,91.17,857,81.6,857.7a48.07,48.07,0,0,0-10.43,2c-7.67,2.37-7.63,2.5-5.66,10.45A11.75,11.75,0,0,1,58.94,884a6.18,6.18,0,0,1-4.87-.43,39,39,0,0,1-7.59-6C41,872,35.34,870.16,28.75,875.72c-3.6,3-7.18,1.34-11.06.24-24.8-7-39.5-26.1-54.09-45.26a15.23,15.23,0,0,1-2.26-10.06c1.33-13.11-2.67-24.48-8.9-35.76-8.49-15.34-15.84-31.29-24.23-46.7a32.53,32.53,0,0,1-3.49-19.63,93.33,93.33,0,0,0-.62-13.68Z"/><path class="cls-1" d="M1116.94,744.36a157.22,157.22,0,0,1,15.67,7.75,93.35,93.35,0,0,1,12.48,10.22c5.73,5.26,12,7.41,20.06,8.27a37.93,37.93,0,0,1,25.5,13.6c7.19,8.9,14.16,18,21.16,27a8,8,0,0,1,2.15,3.68c1.08,10.63,8.17,11.83,16.86,11.53,4.31-.17,8.62,1.27,12.8,1.47,6.18.28,7.5,4.13,5.86,8.62-1.34,3.75-3.64,8.32-6.85,10a222.61,222.61,0,0,1-31.21,13.9c-8.62,3-16.51,6.14-22.91,13s-6.46,6.2-14.63,1.7a24.87,24.87,0,0,1-2.78-1.62c-4.94-3.55-9.63-4.48-14.18.71-3.79,4.31-6.47,2.76-8.9-1.68-2.16-3.79-4.57-7.3-6.66-11a23.77,23.77,0,0,0-12.09-11.64,10.75,10.75,0,0,1-7.43-11.81c.58-6.68-2.5-11.57-6.62-16.38-9.53-11.18-18.79-22.58-28.15-33.92a47.29,47.29,0,0,1-4.61-6c-2.15-3.81-2.15-7.15,3.26-7.63,7.58-.66,11.7-6.46,16.74-10.88a10.29,10.29,0,0,0,3-6.46C1106.15,745.93,1106.21,745.71,1116.94,744.36Z"/><path class="cls-1" d="M1288.46,743.75c-8.12,11.92-8.06,11.85,1.92,20.22a77.3,77.3,0,0,1,10,9.65c5.71,6.94,5.54,7-1.83,12.52a11.07,11.07,0,0,0-3,2.87c-5,8.45-5,8.45-14.23,6.89a75.58,75.58,0,0,0-8.62-1,10.78,10.78,0,0,1-9.57-5.6c-4.31-7.24-7.17-8.37-13.59-4.31-7.87,5.08-14.74,3.92-22-.65-4.31-2.67-8.62-5.15-12.93-7.59-3.91-2.15-7-4.52-7.31-9.65-.39-6.36-5.17-9.7-10.78-10.39s-8.81-4-11.85-8.1c-5.19-7.09-9.33-14.72-19.24-17.5-6.47-1.81-8-9.55-4.57-15.75a9,9,0,0,0-1.42-11.64c-4.55-5.07-9.23-10-13.3-15.47-1.51-2-2.72-5.74-1.81-7.59s4.63-2.15,7.2-2.78,6.2-.34,7.78-2c4.44-4.66,7.17-3.41,11.35.58a140.09,140.09,0,0,0,18.65,14.44c9.26,6.23,25.86,4.57,33.59-3.36,5.69-5.78,12.44-6.47,19.79-5.61a18,18,0,0,1,3.06.93c25.27,8,25.25,8,27.69,35.09a102,102,0,0,1,1.51,10.6C1275,737.2,1277.6,743.23,1288.46,743.75Z"/><path class="cls-1" d="M311.53,224.3A149.15,149.15,0,0,0,302,239.23a77.86,77.86,0,0,0-5,15.09c-.86,3.47.28,6.46,4.53,7s8.49-.56,8.32-5.77c-.5-13.26,9.44-17.11,19.63-23,1.9,8,3.82,15.08,5.19,22.28.85,4.48,3.09,6,7.44,5.49a94.8,94.8,0,0,0,11.77-1.07c5.43-1.36,7.95.94,9.8,5.58,1.7,4.31,3.9,8.45,5.82,12.69s4.59,5.8,8.28,2.46c5.43-4.92,9.5-3.21,13.34,1.89a37.93,37.93,0,0,0,2.93,3.15c10.77,11.53,10.77,11.51,3.7,25.52-.95,1.87-2.45,4.31-1.94,5.94,3.13,9.51,6.6,18.93,10.39,28.17.5,1.19,3.54,1.94,5.35,1.83,2.8-.19,5.53-1.76,8.31-1.85a6.79,6.79,0,0,1,5.13,2.54,6.1,6.1,0,0,1,0,5.78,232.55,232.55,0,0,1-17.76,15.58c-.84.69-4.18-.19-5-1.35a141.79,141.79,0,0,1-8-12.7c-2.15-3.6-4.31-4.2-7.56-1-6.14,6-6.47,7.91-2,15.67.56.92,1.21,1.81,1.68,2.76,2.89,5.66,9.1,12.26,7.85,16.83-2,7.37-8.9,13.44-13.75,20-2.16,3-4.81,2.43-7.5.67-6.59-4.31-13.34-8.43-19.74-13a18.86,18.86,0,0,1-5.09-6.62c-1.63-3.14-2.56-6.68-4-9.93-2-4.55-3.16-10.56-6.72-12.93-2.35-1.64-8.19,2.45-12.56,2.91-3.6.36-8.3.23-10.78-1.79-1.79-1.49-1.57-6.64-.71-9.74,1-3.56,3.49-5.24,8.3-3.45,12.93,4.8,22.93.88,30.17-10.58,5.43-8.52,10.34-17.14,11.48-27.46.54-4.91.52-9-6-8.25s-10.34-2.26-13.45-7c-8.4-12.62-21-19.62-34.44-24.72-6.12-2.33-13.21-2.41-19.91-2.93-10.78-.8-11.08-.8-12.37-11.66-.32-2.84-.69-5.69-1.21-8.62-4-21.55,13.26-30.17,28-30.41A60.84,60.84,0,0,1,311.53,224.3Z"/><path class="cls-1" d="M1005.83,800.93c0,14-.2,28,0,41.87.21,11.1-3.1,13.58-13.49,8.47-14.46-7.11-28.66-14.74-43-22.16a31.28,31.28,0,0,0-18-3.79c-9.35.71-20-.69-27.48-9.14a15.85,15.85,0,0,0-7-4.31,12.27,12.27,0,0,1-9.72-12.52c-.18-10-2-20.6.51-29.93,2.83-10.24,9.79-19.4,15.09-28.9a3.21,3.21,0,0,1,2.69-1.4c7.85,2,17.24,1.46,22.26,8.88,6.28,9.16,16.3,11.33,25.37,14.91,3.06,1.19,8.38-1.23,11.7-3.45,4.07-2.76.3-6.1-.73-9.35a8.61,8.61,0,0,1,1.66-7.18c4.52-4.74,16.51-4.5,21.89-.45,3,2.26,6.27,5.15,9.77,5.71,5.6.93,7,3.6,7,8.62-.15,14.68,0,29.37,0,44.05Z"/><path class="cls-1" d="M1086.06,936.87c-1.72-4.87-3.25-9.83-5.19-14.61a45.79,45.79,0,0,0-4-6.47,42.86,42.86,0,0,0-6.1,4.89c-2.15,2.42-3.51,5.39-5.37,8-.79,1.16-2.15,3.1-2.9,2.93-10.78-2.67-18.52,9.12-29.29,5.62-2.33-.75-5.28-.64-7-2-4.72-3.82-9.09-4.64-14.61-1.51-4.65,2.61-8.62-.73-11.25-3.88-5.77-7.11-9.39-15.41-7.41-24.85a15.54,15.54,0,0,1,5.13-7.69,15,15,0,0,0,5.45-13.26c-.26-4.63-.13-9.31,0-14s-1.21-9.94,5.3-12.65c1.55-.65,1.79-5.67,1.77-8.62,0-8.62-.24-8.75,8.62-8.62,17.91.19,35.82.32,53.72.71,6.66.15,12.83-.24,17.4-6.1,3.23-4.18,5.66-2.56,8,1.38,4.74,8,9.59,16,14.83,23.71,3,4.46,2.43,8.12-1.25,11.31-7.26,6.27-8.15,14.35-8.32,23.3A56.37,56.37,0,0,1,1099.4,913c-3.12,8.21-7.35,16-11.1,23.94Z"/><path class="cls-1" d="M143.05,1063c2.72,2.31,4.92,5.13,7.78,6.47,12,5.54,15.19,4.65,23.71-5.45,3-3.56,6.25-6.94,8.94-10.78,3.79-5.32,7.2-11,11.4-17.41,3.34.8,4.46,5.39,6.47,8.77,2.93,5.11,6.46,8.43,12.75,7.76a16.84,16.84,0,0,1,6.47.64,7,7,0,0,1,2.61,12.44,11.85,11.85,0,0,1-3.56,2.37c-12.61,4.74-14.37,15.82-15.49,27a13.21,13.21,0,0,0,2.56,7.76c2.16,3.25,5.22,5.88,7.61,9,3.45,4.52,6.92,6.81,12.35,2.6,3.7-2.88,6.46-.71,8.72,2.74,9.59,14,15.69,28.88,13.43,46.27-1,7.67,1.16,15.71-3.75,22.91-4.31,6.46-4.31,6.87-10.6,2.91-12.93-8.21-26-16.45-38.79-25.11a28.11,28.11,0,0,1-8.34-9.44c-14.16-25.32-28-50.79-42-76.2C142.79,1073.5,140.55,1068.73,143.05,1063Z"/><path class="cls-1" d="M225.89,916.37c-3.92,5.48-7.63,11.12-11.83,16.36-3.77,4.68-3.92,9-2.15,14.83,3,10.3,8.62,15.9,19.24,18.81,19.4,5.32,19.18,6,20.09,25.49,0,1.43.17,2.85.23,4.31.11,3.88,1.42,8.41-.11,11.47-1.07,2.15-6.14,2.15-9.35,3.3-5.13,1.78-8.83,14-4.48,19.71,8.49,11,.41,20.24-1.79,30.18-.21.92-2,1.48-3.06,2.15a12.39,12.39,0,0,1-2.15-3.34c-2.4-10.24-2.35-10.56-12.33-10.78-5.28,0-9-1.83-11.29-6.46-4.68-9.46-11.71-14.91-22.72-14.46-7.24.3-11.85-4.7-16.14-9.4a10.32,10.32,0,0,1-1.44-7.73,42.63,42.63,0,0,1,3.81-10c4.81-10.48,8.88-21,6.19-33-2.16-9.56,4.87-16.93,9.95-22.36,11.06-11.81,24.59-21.3,37.13-31.75Z"/><path class="cls-1" d="M992.53,927.54c-14.74,2.8-22.17,14.18-30.49,24.13-2.26,2.72-3.71,4.89-7.35,4.66a7,7,0,0,0-3.21,0c-10.24,4.31-15.52-1-20-9.36-1.51-2.8-3-4.31-.33-7.13,5.56-6.08,3.11-13.51,2.46-20.45-.13-1.45-2.72-2.87-4.31-3.9-2.72-1.64-5.73-2.78-8.38-4.55a3.9,3.9,0,0,1-1.28-3.49c3.73-6.68,7-13.81,11.86-19.57,4.31-5.13,8.14-9.76,7.73-16.87a39.84,39.84,0,0,1,1-6.34c1.25-9.61,2.37-19.16-3.56-28-1.1-1.64-.43-4.46-.58-6.75,2.29.13,4.91-.45,6.79.5,16.92,8.62,33.66,17.47,50.54,26.14a9.5,9.5,0,0,1,5.43,9.57c-.15,6.46.15,12.93-.5,19.39a13.09,13.09,0,0,1-3.79,8.32c-9.59,7.54-7.78,16.72-4.77,26.27C990.38,922.38,991.43,924.63,992.53,927.54Z"/><path class="cls-1" d="M816.85,897.92a160.94,160.94,0,0,1,17.89-2.6c6.57-.2,8.62-3.75,9-9.49.15-2.84.22-5.73.58-8.62.69-5.47,2.42-9.26,8.62-11.89,7-3,12.93-8.92,19.1-13.71,9.07-7,18-14.2,27.13-21.12,10.43-7.93,26.94-4.13,32.75,7.33a45.38,45.38,0,0,1-7,49.39c-1.66,1.84-3.92,3.75-4.31,5.95-3.34,16.32-17.24,18.38-29.53,20.22-10.58,1.55-22,1.91-32.19-4.83-5.56-3.71-12.22-1.49-17.24,3.79-7.33,7.63-9.23,7.57-15.48-1C823.14,907.43,820.47,903.27,816.85,897.92Z"/><path class="cls-1" d="M478.46,127.32c-3.77.26-7.54.6-11.31.71a110.87,110.87,0,0,0-14,.26c-3.19.49-6.15,2.63-9.21,4l7,8.38c-10.89,4.1-21.83,9.16-33.34,12.13-5.48,1.43-12-1.16-18-1.91-3.66-.48-8.06-3.24-10.23,2.15-2,5,2.54,6.79,5.25,9.42a25.32,25.32,0,0,1,2.16,3A173.14,173.14,0,0,0,380.06,171,161.78,161.78,0,0,0,365,179.67a2.84,2.84,0,0,0,.19,1.5c.87,2.35,5.31,4.44,1.51,7.09-2.63,1.81-7.95,3.88-9.35,2.68-8.9-7.7-20.11-6.81-30.32-9.57a69.89,69.89,0,0,1-12-4.72,6,6,0,0,1-3-4c0-.86,2.16-2.15,3.49-3,2.35-1.44,5.89-2.16,7-4.1,3.64-6.29,6.94-4.63,10.93-.68a41.88,41.88,0,0,0,8.81,7.73c3.45,1.88,7.74,2.5,9.89-2.63,2-4.7.78-7.91-4.85-9.26a10.56,10.56,0,0,1-8.19-7.53,5.14,5.14,0,0,1,.93-4.54,5.46,5.46,0,0,1,4.76-.28c2.16,1,3.9,3.4,6.17,4.18a6.71,6.71,0,0,0,5.75-.89,5.93,5.93,0,0,0,.28-5.45c-2-4-4.72-7.71-7.28-11.74,6.63-3.52,11.53-1.51,15.49,2.48,5.6,5.56,11.19,5.23,17.44,1.48a83.6,83.6,0,0,1,9.63-4.76c4.57-2,5.39-5.54,4-9.76-1.53-4.7-5.24-2.61-8.13-2-5.26,1.06-10.39,2.78-15.67,3.71-8.62,1.51-13.7-1.83-15.08-10.45a7.18,7.18,0,0,0-6.75-6.86,80.81,80.81,0,0,1-11.46-2.8,6,6,0,0,1-2.89-3.9c-.17-.75,1.36-2.3,2.46-3,5.38-3.26,10.06-2.16,14.41,2.33,3.8,3.92,6.81,4.91,8.62-2.16,1.32-5.08,5.07-5.86,10-2.63a92.32,92.32,0,0,1,11.76,9.38c3.88,3.55,7.65,3.92,11.25.17,7.46-7.76,15.39-6.29,24.38-2.82,17.71,6.83,35.75,12.93,53.66,19.2,1.94.69,3.77,1.68,5.66,2.52A20.73,20.73,0,0,1,478.46,127.32Z"/><path class="cls-1" d="M988.91,1170c-4.91,3.64-9.37,4.7-13.86,2.5-12.43-6.16-25.68-5.37-38.92-5.35-7.86,0-15.75-.13-23.7-.19-4.44,0-6.47-2.15-6.47-6.68,0-9.72,0-19.27,9-26.06,8.12-6.14,7.5-14.86,5.56-23.53-1.75-7.65-4.07-15.19-5.88-22.84s-1.38-7.72,6.29-8.26c3.58-.25,7.15-.25,10.77-.25,10.31,0,10.16,0,13.75,10.21.74,2.16,3,5.09,4.64,5.11,7.3,0,15.58,4.31,21.22-4.85,2.57-4.16,10.78-1.47,12.16,4A73.53,73.53,0,0,1,985,1107.6c.39,6.3,1.57,11.53,9.63,11.25,3.41-.13,5.86,1.77,4.89,5.24-.49,1.83-2.86,3.45-4.78,4.46a14.67,14.67,0,0,1-5.26.69c-4.09.47-6.85,2.37-6.46,6.85C983.91,1147.61,979.26,1159.87,988.91,1170Z"/><path class="cls-1" d="M751.92,932.9c-6.77,1.38-11.12-1.16-12.8-8-1.21-5-4.31-7.35-9.46-6.27-4.81,1-8.45.45-9.68-5.24-.28-1.29-1.57-2.35-2.37-3.53-6-8.84-4.31-12.35,6.73-12.76,11.46-.43,22.92-.15,34.48-.35,10.43-.17,11.09-.69,9.76-11.25-2.16-17.39-5-34.69-7.48-52-.34-2.48-.84-4.94-1-7.44-.36-8.62,4.31-11.59,12.14-7.84a44.58,44.58,0,0,1,7,4.89q22.69,17.24,45.26,34.48,3.42,2.61,6.92,5.11c3,2.15,8.4,4,8.62,6.46a58.4,58.4,0,0,1-2.35,19c-.43,1.68-4.46,3.06-7,3.45a112.24,112.24,0,0,1-20.28,2c-8.62-.24-15.08,3.1-21.4,8.3-4.69,3.87-10,7-14.48,11.12-3.53,3.27-7.41,7.13-8.88,11.5C763.23,931.69,758.77,933.76,751.92,932.9Z"/><path class="cls-1" d="M1196.68,955.55c-11.59,11.64-18.51,25.86-35.11,29.78-7.3,1.68-14.35,4.42-21.55,6.6s-13.85,1.49-19.84-4c-9.08-8.36-20.82-14-26.49-25.86a10.49,10.49,0,0,0-4.89-3.8c-7-3.44-6.92-3.21-1.7-9.63a47.76,47.76,0,0,0,5.86-10.28c4.09-8.75,7.91-17.63,11.87-26.42,5.15-11.31,17.78-14.61,27.82-6.72,7.09,5.56,15.93,10.34,14.23,22-.15,1.16,2.56,4,3.85,3.92,6.58-.24,9.06,4.31,13.3,8.15,7,6.16,16.44,9.56,24.94,14A47,47,0,0,0,1196.68,955.55Z"/><path class="cls-1" d="M674.36,886.8v-39c6.08-.26,13.08-.48,20.06-.91,9.08-.54,9.05-.6,11.21-9.52.49-2,.84-5.39,2-5.76,8.62-2.69,6.81-9.69,7.14-15.9.38-7.78.82-8.23,8.85-8.62,4.66-.22,9.34,0,14-.3,2-.13,5.45-.61,5.8-1.68,3.21-10.26,7.43-3.3,11.22-.82,2.37,1.55,4.46,3.53,6.79,5.38-2.52,2-5.82,3.37-6.61,5.61-1,2.8-.15,6.36.3,9.52,2.8,19.4,5.79,38.79,8.62,58.3,1.16,8.27,1,8.4-7.2,8.62-8.94.21-17.93-.26-26.83.39A57.36,57.36,0,0,0,713.39,896c-3.8,1.49-6,1-8.11-2.15a51.22,51.22,0,0,0-3.16-4.31c-6.47-7.91-12.5-9.51-21.55-5.6C678.86,884.56,677.35,885.36,674.36,886.8Z"/><path class="cls-1" d="M1083.28,706.6c-3-6.47-5.45-8.62-11.25-4.59a18.53,18.53,0,0,1-22-.11c-4.75-3.21-8.62-5.26-12.7,2.31-3,5.64-17.39,5.51-21.55.82a9.63,9.63,0,0,1-1.12-5.93c.13-4.72-2-7.85-6.46-8.13-3.37-.21-4.55-.81-4-4.31a14.79,14.79,0,0,0-.62-6.16c-2.16-7,0-10.36,7.34-11.25,3.54-.43,7.59.54,10.59-.86,3.44-1.6,5.6-5.95,9-7.61s8.29-1.44,12.28-2.78a28.89,28.89,0,0,0,7.15-4.67,20.19,20.19,0,0,1,24.14-1c9.16,6,18.84,6.08,28.84,5.86a10,10,0,0,0,6.07-1.42c4.31-4.11,8.47-4.14,13.47-1.25,3.84,2.16,9.55,2,9.25,8.62a3.47,3.47,0,0,0,1.61,2.61c7.85,4,6.47,11.06,7.18,18.21.58,6.64-2.65,7.37-7,7.89-10,1.2-19.94,2.15-29.91,3.08C1095.67,696.71,1087.35,696.41,1083.28,706.6Z"/><path class="cls-1" d="M1009.15,792.48c0-11.1-.17-22.22,0-33.32.15-7.84,2.15-9.42,10-8.06a59.41,59.41,0,0,1,8.29,2.16c5.52,1.83,10.67,1.68,15-2.68,3.86-3.9,7.82-4.41,12.41-1.35a6.48,6.48,0,0,0,4,1.31c9.74-1.49,12.09,5.22,14.12,12.39,1.18,4.12,2.65,8.19,3.49,12.39a15,15,0,0,1-1.06,5.46c-1.51-1.32-3.6-2.33-4.31-4-1.51-3.21-1.9-6.94-3.49-10.11-1-1.92-3.32-3.14-5-4.7-1.08,2.29-3.56,5-3,6.79a62.38,62.38,0,0,0,7.5,16.34c5.73,8.19,12.63,15.58,18.68,23.55,5.28,6.94,5.82,15.5,1.92,20.91a12.93,12.93,0,0,1-11.72,6.09c-19.4-.64-38.68-1-58-1.35-5.91,0-8.28-2.7-8.15-8.62.21-11.1,0-22.22,0-33.32Z"/><path class="cls-1" d="M1091.66,1167.26c-.15-8.75-1.25-16.29-7.6-22.15-1.36-1.23-1.4-5-.71-7.11a37.63,37.63,0,0,0-.44-22.16c-1.35-4.91-.51-8.4,6.47-8.62l-1.1-2.15c-2.87-.65-5.71-1.38-8.62-2-10.41-2.16-19.07-6-20.6-18.3a47,47,0,0,0-2.93-10.28c-1.92-5.11-1.58-8.73,2.67-13.27,3.56-3.84,4.18-10.35,6.29-15.61,1.38-3.44,2.16-8.38,4.83-9.76,5.17-2.76,11.51-5.11,17.41-1.55,13.49,8.15,26.77,16.59,40.11,25,2.69,1.68,3.36,3.7,2.67,7.19-2.69,13.58-2.39,26.79,5.26,39.27,4.31,6.89,3.25,8.34-4.76,9.44-8.49,1.18-17,1.92-25.58,2.82-13.5,1.44-16.88,8.62-8.62,19.72a21.54,21.54,0,0,1,5,11.31C1102.31,1157.11,1099.08,1162.54,1091.66,1167.26Z"/><path class="cls-1" d="M959.24,374.63c1.31,5.59-1,10.28-6.73,13.52-4.31,2.45-6.1,6.09-6.7,11.33a22.62,22.62,0,0,1-11.87,16.85,22.6,22.6,0,0,0-11.15,24.49c.84,3.36,4,6.46,6.73,9,7.05,6.29,8.32,9.16,1.49,15.71a27.37,27.37,0,0,0-8.63,25c.57,4.44-1.22,7.15-5.38,9.31a35.24,35.24,0,0,0-9.51,7.89c-2.93,3.21-5.47,2.84-6-.93-1.6-10.35-7.61-18.34-12.46-27.09a10.91,10.91,0,0,1,.17-9.68c7.5-10,7.59-21.35,7.89-32.82.17-5.73.15-11.48.43-17.24.13-2.43,0-5.9,1.45-7.13,7.34-6.17,6.74-14.66,7.15-22.69a26,26,0,0,1,5.15-14.87c4.72-6.34,8.92-13,13.69-19.4,5-6.62,8.62-7.26,16.42-3.81q1.47.68,3,1.2C957,357.26,958.91,360,959.24,374.63Z"/><path class="cls-1" d="M1405.55,699.27c-7.29,1-13.58,2.16-19.89,2.74-4.31.45-5.39,2.54-4.55,6.46,1.23,5.71,2.78,11.17,8.12,14.51,5,3.12,4.94,7,2.42,11.85-4.31,8.25-8.49,16.57-12,25.15-2.6,6.29-6.31,10-13.34,10.37-4,.21-8.62,1-8.62,6.07,0,3,2.33,6.17,4,9a18.06,18.06,0,0,0,3.79,3.77c3.28,3,6.83,6.64,4.31,10.95-1.25,2.16-5.92,2.39-9,3.43-1,.34-2.59.15-3,.8-4.89,7.24-9.24,2.93-12.56-1.08-9-10.93-20.91-9-32.63-8-1.72.15-3.47,1.73-5,1.51a53.47,53.47,0,0,1-8.49-2.45,28.51,28.51,0,0,1,4.74-6.08c6.23-4.61,6.74-6,3.21-13.13-.78-1.57-1.7-3.08-3.34-6,6.59-2.5,12.67-5.06,18.9-7.09,5.77-1.89,10.41-4.13,10.9-11.33.41-5.63,5.24-8.43,9.72-10.63C1351,736.3,1354.49,730,1356.6,722c1.86-7.13,5.37-13.82,8-20.75.6-1.58,1.27-3.91.56-5-4.31-6.7,1-8.87,5.19-11.48,19.4-12.18,18.75-10.5,30.17,5.92C1402,693.26,1403.54,696,1405.55,699.27Z"/><path class="cls-1" d="M1072.12,610.74c-4,3.13-7.09,4.92-9.23,7.5-2.54,3-5.47,6.14-8.62,3-2.73-2.61-5.43-7.67-4.69-10.78,1.07-4.61,1.38-7.28-3-9.63-4.94-2.58-8.88-1.81-12.26,2.57a26.33,26.33,0,0,1-5.11,5.58,16.62,16.62,0,0,1-5.63,1.42,22.33,22.33,0,0,1-.64-5.52c.45-3.36,3-7.32,1.85-9.85a32.44,32.44,0,0,0-9.2-11.61c-2-1.62-6.94-2.16-8.82-.86-8.21,5.86-16.63,2.39-25,1.68-5.18-.45-6.66-3.82-5-8.43,1.2-3.36,3-6.46,4.31-9.85a45.24,45.24,0,0,0,2.39-7.07c.64-2.88,0-7.65,1.57-8.44a25.17,25.17,0,0,1,12.22-2.16c8.15.35,16.27,1.62,24.42,2.39A9.49,9.49,0,0,0,1032,545c4.31-8.06,13.34-9,20.75-2.91a12.17,12.17,0,0,1,3.41,4.1c5.6,12.24,16,15.08,28.19,15.26,3.88,0,10.17-2.16,11.05,3.45.93,6,2.16,13.55-3.7,18.12-8.62,6.92-15.59,17.46-29.08,16.08a5.53,5.53,0,0,0-4.31,3.47c-.19,1.33,1.69,3.64,3.22,4.43A81.16,81.16,0,0,0,1072.12,610.74Z"/><path class="cls-1" d="M183.52,221.67c0,4.31.18,8.62,0,12.93a11.33,11.33,0,0,0,4.85,11.08c2.16,1.55,3.08,5.08,4.1,7.88.28.82-1.47,3.26-1.66,3.19-7.83-2.73-7.26,3.67-9.08,7.89A8,8,0,0,1,171.31,269a8.26,8.26,0,0,1-2.81-1.93C165.1,264,162.43,260,159,257c-1.47-1.28-4.87-2.33-6.15-1.53-11.7,7.37-23.59,5.92-35.81,1.87-3.49-1.14-6-2.82-5.63-6.66a12.75,12.75,0,0,0-7.28-13.19c-3.36-1.83-4.55-4.54-2.16-8s5-1,7.35.3c1.88,1,3.64,2.31,5.52,3.36,6.81,3.88,8,3.32,11.14-3.51,2.16-4.68,1.21-7.48-3.68-8.94-4.12-1.25-8.3-2.31-12.33-3.75-9-3.21-10.43-11.21-4.12-18.19,8.39-9.25,19.85-10.78,30.93-13.36,2.15-.5,5.19,1.85,7.32,3.53,5.61,4.46,11,9.16,16.32,14,4.05,3.68,7.11,3.6,10.6-.91,1.68-2.15,5.15-4.93,7.16-4.48,4,.9,6,4.61,5.81,9.16-.19,5,0,10,0,15.08Z"/><path class="cls-1" d="M288.37,1008.5c-3.28,3.6-6,6.94-9,9.89-4.87,4.77-10,4.85-15.2.35a20.23,20.23,0,0,1-7.8-15.84c0-7.55-.56-15.09-.41-22.59s-2.52-12.22-10.21-14c-4.85-1.12-9.4-3.9-14.27-4.64-10.67-1.61-13.4-9.57-15.49-18.06-.43-1.74.82-3.9,1.29-5.86,1.51.5,3.06.89,4.5,1.51,8.17,3.49,8.34,3.28,11.12-6a30.13,30.13,0,0,1,4.31-8.45c3.19-4.44,6.32-4.31,10.46-.28,9.91,9.63,22.32,12.48,35.53,10,7.93-1.51,13.82-.69,18.58,6.46a43,43,0,0,0,9.81,9.79c3.79,2.86,3.85,5.62,1.33,9.05-4.31,5.95-6.79,11.64-4.65,19.78s-8.08,15.5-15.76,12.65c-3.66-1.36-7.45-6-11.27-.52-3,4.31-1,9.85,4.74,14.27A29.62,29.62,0,0,1,288.37,1008.5Z"/><path class="cls-1" d="M1285,704.31c7.87,3.62,13.54-1.81,18.93-8.06,1.85-2.15,4.11-4,5.86-6.27,4.78-6.14,10.28-9,18.6-7.37,6.74,1.3,13.62,0,16.33-8.36.35-1.1,2.76-1.92,4.31-2.15.6,0,1.94,2,2.16,3.23.38,4.68,1.38,8.62,7.15,8.92.37,0,.84,1.51.93,2.37.28,3,.49,5.93.6,8.88a14.3,14.3,0,0,1-.28,5.09c-2.5,7.39-5.84,14.54-7.69,22.09a19.13,19.13,0,0,1-9.9,13.12c-6.21,3.47-11.79,6.92-13.19,15.52-1.25,7.75-27,15.08-33.66,10.56s-6.66-5.33-3.45-13.09c1.76-4.31,1.07-8.4-3.71-9.39-6.94-1.42-8-6.27-8.62-11.77s-1.51-11.36-2.15-17C1276.48,705.82,1278,702.89,1285,704.31Z"/><path class="cls-1" d="M992,339.05a70.36,70.36,0,0,1-7.65-8.62c-2.52-4-5.15-4.31-8.85-2-4.53,2.84-9.53,5-10.15,11.48-.48,4.59-3.39,4.49-7.09,3A84.54,84.54,0,0,0,947,339.7c-1.72-.43-4-1.23-5.19-.47a174.26,174.26,0,0,0-20.62,14.52c-3.93,3.45-6,8.86-9.4,13-7.22,9-11.88,18.53-11,30.6.2,2.89-.94,7.11-3,8.62-5.54,4.31-5.28,9.72-5.28,15.45,0,8.26-.31,16.51,0,24.74a25.1,25.1,0,0,1-6.73,19c-2.15-3.13-3.83-7.44-8-1.36a68.74,68.74,0,0,1-13.32,13.88c-5.39,4.31-11.25,3.66-13.56-2.05-5.58-13.68-9.16-27.89-4.52-42.71.71-2.26,2.33-5.63,4-5.93,7.71-1.38,10.77-6.79,14.22-12.93,2.76-4.74,6.72-10.39,14.65-6.46,1.92,1,6.1-.91,8.17-2.72.88-.75-1.06-4.63-1.53-7.15-.3-1.73-1-3.93-.28-5.24,4.94-9.07,10-18.06,15.43-26.85,2.93-4.74,6.66-9,10-13.45.63-.84,2-1.68,1.88-2.41-.84-9.25,6.94-12.53,12.56-15.67,6.17-3.45,14.89-2.37,17.91-11.25a15.82,15.82,0,0,1,7.41,1.87c4.16,3.11,6.36,2.87,9.31-1.72,3.6-5.6,25.09-7.18,29.92-2.84.25.23.73.43.75.68.56,6,1.08,11.94,1.62,17.91Z"/><path class="cls-1" d="M942.49,346.49c6.9-3.19,12.44-.76,17.69,2.15,4.31,2.44,7.44,2.83,8.62-3s3-13.13,9.29-12.65,6.77,8.79,9.64,13.94c5.08,9.07,5.41,19.1,8.1,28.62,2.8,9.94,7.69,19.25,11.68,28.84a71,71,0,0,0,3,6.87,14.8,14.8,0,0,1-1.45,17.93c-2.45,3.06-3.55,7.74-6.46,9.7-11,7.22-24,10.77-36.49,12.76-9.59,1.55-18.9-16.53-15.6-27.44A34.41,34.41,0,0,1,957,413.3c4.31-5.31,9-10.18,13.64-15.2,3.88-4.31,3.75-9.05-.5-12.22-5.15-3.81-5.49-8.62-5.77-14.11a27.18,27.18,0,0,0-1.75-9.44c-3.06-6.79-5.82-14.25-15.71-13.43C945.36,349,943.89,347.35,942.49,346.49Z"/><path class="cls-1" d="M832.8,961.76c1.25-3.67,1.72-7.93,3.94-10.78,4.7-6.2,5.5-12.93,5.18-20.28a42.93,42.93,0,0,1,.15-7.52c1.27-10.26,8.4-14,17.6-9,14,7.61,28.15,6,42.48,1.58a20.49,20.49,0,0,0,4.91-2.16c4.68-2.91,8.62-2,12.63,1.57A9.7,9.7,0,0,1,921.85,927c-5.87,11.87-12.29,23.49-19,34.87-1.08,1.85-4.81,2.56-7.46,3-8.34,1.34-14.52,4.91-17.84,13.25s-14.68,10.46-21.3,4.64c-2.69-2.37-4.61-5.61-7.41-7.78a26,26,0,0,0-9.91-5.41C834.24,968.48,833.06,966.33,832.8,961.76Z"/><path class="cls-1" d="M670,842.17c11.16-18.31,20.49-34.84,31.16-50.43,3.58-5.23,10.28-8.74,16.16-11.89a25.86,25.86,0,0,0,13.77-16.75c1-3.44,2.59-6.68,3.6-10.1,2.44-8.19,6.25-14.7,15.09-18.11,3.4-1.31,6.31-5.68,8-9.35,2.5-5.39,5.91-7.48,11.7-7.09a154.92,154.92,0,0,0,17.24,0c4.31-.13,6.75,1.57,7.46,5.86.45,2.83,1.29,5.58,1.66,8.41.54,4.18,2.16,9,.67,12.37-1,2.15-7.11,1.4-10.45,3s-7.37,3.79-8.62,6.79c-4.87,10.78-13.17,15.39-24.29,16.49-2.16.19-4.12,1.27-6.23,1.59-4.83.71-6.47,3.75-6.68,8.23-.13,5-.39,10-.35,15.09s-1.91,7.3-7,7.13c-4.65-.17-9.33-.13-14,0-7.74.3-8.41.89-8.77,8.82-.31,6,.56,12-6.86,15.3-1.74.75-1.94,5.75-2.15,8.85-.39,4-2.29,5.78-6.19,5.76Z"/><path class="cls-1" d="M776.83,585.85c5.43-.56,8.62-.77,11.55-1.23,2.16-.3,5.26-.3,6-1.57,3.24-5.56,7.18-7,13.28-4.89,1.51.51,4.31-1.9,6.18-3.45,2.7-2.35,5-5.17,7.48-7.72,3.54-3.57,7.18-3.79,11.6-1.14,8,4.79,16.18,9.1,24.26,13.64,6,3.37,7.11,8.62,2.85,14.36-2.55,3.44-5.76,6.46-8.34,9.82-2.33,3.08-2.7,6.25,2.15,7.07s5.07,3.36,5.11,7.63a31.94,31.94,0,0,0,3.51,11.83c2.5,5.69,1.19,9.12-5,9.7A39.9,39.9,0,0,1,847,638.59c-5.07-.91-9.64-1-14.14,2.58-8.84,7.07-24.68,1.4-31.92-4.31a5.6,5.6,0,0,1-.79-4.7,33.38,33.38,0,0,1,2.8-5.69c4.93-10.56,3.25-18.16-5.84-25.36C791.08,596.32,784.81,591.82,776.83,585.85Z"/><path class="cls-1" d="M1610.6,921.18c-5-4.31-8.23-7.8-5.13-12.78,4-6.47.71-11.38-3.51-15.09a12.42,12.42,0,0,1-4.48-10.13c-.22-8.62-3.56-15.73-9.94-22.73-2.48,3.42-4.31,6.46-6.57,9-3.4,3.94-7.11,3.3-8.84-1.6-1.18-3.36-1.5-7-2.54-10.43-2.63-8.62-9.52-14.11-15.8-19.93-3.66-3.41-6-5.86-4.31-12.41,2-7.66,4.75-14.75,7.35-22.09s3.17-16,4-24.18a14,14,0,0,1,5.58-10.91,18.09,18.09,0,0,0,5.37-7.41c2.45-6,3.49-6.47,7.35-1.9,5.17,6,8.12,11.83,3.21,20.22s-1.17,16.74,7.58,21.18c3.73,1.88,6.9,3.66,7.44,8.21.75,6.23,3.9,9.66,10.58,9.59,1.46,0,3,1.57,4.44,2.41-1,1.75-1.62,4.31-3.13,5.09-4,2.26-8.49,3.73-12.71,5.65a13.63,13.63,0,0,0-7.35,17.83h0a14.61,14.61,0,0,0,1.4,2.54,67.4,67.4,0,0,0,5.84,7.72c5.56,6.29,8.38,12.67,5.15,21.55-1.08,3,1.49,8.34,3.92,11.4C1612.24,900.36,1612.71,909.43,1610.6,921.18Z"/><path class="cls-1" d="M772.44,707.2a68.4,68.4,0,0,1-10.31-2.05c-7.49-2.8-8.62-5-7.28-12.93S757.67,676,759.16,668c1.88-10.48.91-12.39-9.5-14.85-5.43-1.29-7.35-4.31-6.06-9.2,1-3.77,2.67-7.24,8.06-6.77,11,1,22,1.23,33,2.16a40.43,40.43,0,0,1,13.46,2.52c8.19,3.77,16.21,7.17,25.5,7.37,5.36.13,6.46,3.64,2.67,7.89A121.81,121.81,0,0,1,814.46,668a16.15,16.15,0,0,0-6.14,12.93,23.72,23.72,0,0,1-17.82,22.33C784.27,704.77,778,706,772.44,707.2Z"/><path class="cls-1" d="M1287.77,701.25c-5.79-1.35-10.43-1.81-12.73-7.88a12.72,12.72,0,0,0-6.6-6.06,242.94,242.94,0,0,0-23.06-8.77,23.69,23.69,0,0,0-25.45,6,33.77,33.77,0,0,1-5.77,3.75c-.24-2.27-1.36-4.89-.56-6.7,2.93-6.75,1.72-11.36-4.94-15.09a11.09,11.09,0,0,1-4.59-7.59c-.43-4.31,3.77-4.16,6.92-4.76,1.62-.32,4-1.12,4.48-2.33,2.16-4.78,6.1-4.65,10-4.44a13.67,13.67,0,0,0,13.92-7.6c4.74-8,12.8-7.07,17.72,1a22.1,22.1,0,0,0,6.7,6.64c9.78,6.59,19.63,13.12,29.76,19.2a62.89,62.89,0,0,0,12.93,4.89c7.46,2.46,8.62,5.78,3.82,11.49a124.55,124.55,0,0,1-12.59,13.19C1294.84,698.56,1291,699.64,1287.77,701.25Z"/><path class="cls-1" d="M1074.79,924.65c2.67,5.13,4.53,9,6.64,12.69s3,6.47-.84,10.24c-4.7,4.65-2.16,11.46,3.83,14.26a24.22,24.22,0,0,1,8.24,6c3,3.68,7.52,8.29-1.23,11.07-.58.18-1,1-1.45,1.53-2,2.61-3.88,7.33-6.1,7.48a105.83,105.83,0,0,1-22.28-1.07c-5.15-.72-10-3.52-15.08-4.1a19.36,19.36,0,0,1-13.13-6.14c-7.54-8.17-15.3-16.12-23.19-24-3.23-3.21-4.54-6.31-1.81-10.34s9.31-6.23,13.08-4.07c10.48,6,20.71,7,31-.35.82-.58,2.33-1.23,3-.86,9.18,5.26,11.83-2.39,15.71-7.71A53,53,0,0,1,1074.79,924.65Z"/><path class="cls-1" d="M1352.94,642.38c-4.31,4-7.35,4.31-11.4,1.36-6.46-4.68-8-4.12-13.29,1.94-1.88,2.15-3.49,4.54-5.39,6.7-3.45,3.92-5.37,7.52.26,11.46a7.24,7.24,0,0,1,2.15,5.67,41.69,41.69,0,0,1-2.56,8.62c-2.16-1.53-4.31-3-6.25-4.61s-4.1-4.66-6.47-5c-11.55-1.79-20.25-8.86-29.2-15.24-8.21-5.82-18.51-9.09-22.5-20.32-1.89-5.32-17-4.1-21,1-1.87,2.42-3.46,5.07-6.46,9.63-3.13-10.9-5.62-19.63-8.17-28.36-1-3.51.73-5.12,3.73-6.57,7.82-3.75,21.77-2.46,28,4.46,7.19,8,15.08,9.81,25,7.07,7.8-2.15,14,.19,17.74,7.89a26.78,26.78,0,0,0,2.45,3.53,24.1,24.1,0,0,0,26.94,9.31c.35-.13.78,0,1-.32,2.6-2.33,5.84-7.11,7.58-6.62C1341,635.57,1346.44,639.1,1352.94,642.38Z"/><path class="cls-1" d="M1029.17,982.36c-7.82-.45-15.67-.69-23.47-1.4-5.63-.52-10.78-.26-14.57,4.61-3.43,4.31-7.07,4-11,.73a30.28,30.28,0,0,0-2.63-1.85c-9.65-6.46-10.52-5.73-18.73,2.16-3.88,3.75-10.64,7.56-15.21,6.7s-8.62-7.16-11.38-11.92,4.44-16.38,10.24-17.67a128.52,128.52,0,0,1,15.71-2.67c4-.39,5.77-2.35,8.08-5.61a88.12,88.12,0,0,1,17.63-19.63c3.27-2.48,10.06-.9,15.08-.11,1.27.2,3.36,5.39,2.55,6.62-3.5,5.26,0,7.86,3,10.93,6.72,7,13.49,13.85,20.19,20.81,1.92,2,3.73,4.14,5.56,6.21Z"/><path class="cls-1" d="M911.72,556.74c-3.67,2.15-8.21,4.8-12.74,7.52-4.07,2.45-4.18,5.38-.84,8.62a69.56,69.56,0,0,1,6.14,6c4.18,4.65,4,6.87-1.87,9.63-6.64,3.1-13.64,6.85-20.63,7.18-4.44.21-10.53-4.31-13.4-8.62-4.83-7-7.41-15.41-11.44-23-2.16-4.16-2-8.51,1.07-10.77,5.87-4.31,5.67-9.38,4.31-15.09-.84-3.51-.58-5.62,3.58-7.37,3.82-1.59,6.47-6.83,10.13-7.67s7.84,2.5,11.94,3.14c2.15.37,4.76-1.22,7.22-1.57,8.42-1.14,13.57,3.19,14.35,11.7C910.12,543.05,910.94,549.62,911.72,556.74Z"/><path class="cls-1" d="M1780.23,1014.06c-9.66,4-12.74,12.93-12.74,22.22,0,10.54-5.71,17.41-11.79,24.35-1.25,1.45-6.46,2-7,1.1-6.25-9.55-16.57-10.58-26.12-12.63s-10-1.49-12.59-11.31c-2.15-8.47-4.07-17-6.1-25.47l2.4-1.43a91.55,91.55,0,0,1,7,7.07,9.09,9.09,0,0,0,11.4,3.06c7.74-2.78,15.54-5.45,23.41-7.89a12.23,12.23,0,0,0,9.33-10.47,57.94,57.94,0,0,1,4-13.32,7.09,7.09,0,0,1,5.49-3.51,7.44,7.44,0,0,1,5.3,4C1775.25,997.81,1777.64,1006,1780.23,1014.06Z"/><path class="cls-1" d="M913.23,533.16a26.52,26.52,0,0,1,3.27-5.8c4.89-5.67,11.57-8.21,18.66-9.85,1-.21,2.7-.47,3,0,5.62,8.73,14.35,4.1,21.55,4.83,9.89,1,13.94,4.61,14.67,14.4a56.74,56.74,0,0,0,2.81,15.66c2.5,6.62.56,11.88-2.85,17.14-.75,1.16-2,2.86-3,2.84-9.29-.19-18.8,5-28-1.46a202.1,202.1,0,0,0-20-12.57C913.81,553.12,914.71,543.68,913.23,533.16Z"/><path class="cls-1" d="M1141.23,996.2c-.19,10.77-.47,20.23-.47,29.76a19.14,19.14,0,0,0,1.63,6.12c1,2.8,3.86,6.33,3,8.14a102.23,102.23,0,0,1-10.52,16c-.38.54-2.78.2-3.81-.45-12.54-7.56-25.11-15.08-37.35-23.12-1.66-1.08-2.15-4.64-2.28-7.11a9.15,9.15,0,0,1,1.89-4.94c5.82-9.09,7.42-18,.74-27.69-1.55-2.26-1.51-8.43,0-9.44a14.27,14.27,0,0,1,10.77-1.14,24.58,24.58,0,0,1,9.64,6.46C1122.2,996.5,1130.61,1000.66,1141.23,996.2Z"/><path class="cls-1" d="M1960.15,1123.24c-7-4.59-12.6-10-11.38-19.62,1-8-2.32-13.59-8.81-18.12-5.56-3.9-10.52-8.62-15.86-12.93-4.31-3.43-7.76-7.11-8.77-12.93a8.82,8.82,0,0,0-4.7-6.1c-4-1.25-5.3,2.16-6.23,5.58a45.51,45.51,0,0,1-3.06,6.47c-3.86-6.47-6.46-11.38.17-16.64,3.39-2.74,2.93-5.6-1.85-6.66a8.57,8.57,0,0,1-3.1-.77c-2.35-1.79-4.51-3.84-6.73-5.78a53.31,53.31,0,0,1,7.52-5.21,24.32,24.32,0,0,1,7.35-1.47,5.23,5.23,0,0,1,6.32,3.8,5,5,0,0,1,.15,1.54c.26,3.22.13,6.47.54,9.66,1.23,9.59,9.61,13.75,17.75,8.9,2.78-1.64,5.31-3.71,8.11-5.3,4.07-2.31,7.52-7.5,13.25-3.13s12.93,6.9,12.67,16.79c-.71,20.34-.21,40.73-.21,61.1Z"/><path class="cls-1" d="M1617.76,908.27c-2.42-5-5.54-12-9.25-18.71-2-3.55-3.47-6.18-1.61-10.77,2.58-6.27.69-12.65-3.56-18.1-2.65-3.39-5.54-6.62-7.87-10.22-4.63-7.2-2.93-12.65,4.74-16.29,11-5.24,18.58-1.06,19.83,11.05.24,2.16.15,4.31.24,6.47.19,4.42,2.67,5.47,6.46,4.48a3.94,3.94,0,0,0,1-.34c4.61-1.38,9.41-6.77,13.85-2.78A82.87,82.87,0,0,1,1658,872.6c3.6,6.19-.54,9.81-7.87,8.82a10.77,10.77,0,0,0-8.25,2.26c-3.6,3.92-6.62,8.75-3.86,14.61,1.4,2.93,6.72,5.75,2.41,8.62-1.64,1.12-7.17-2.8-10.47-5.08-1.44-1-1.44-3.93-2.63-5.59s-3-3.62-4.31-3.49a6.18,6.18,0,0,0-4.31,3.75A91,91,0,0,0,1617.76,908.27Z"/><path class="cls-1" d="M1182.74,752.78c-3.71,2.52-7.14,4-9.44,6.47-6.19,6.79-13.82,8.19-21.32,2.76a183,183,0,0,1-15.86-12.74c-5.79-5.3-12.06-8.62-20.17-8.36-2.15,0-4.31-1.62-6.46-2.52a69.79,69.79,0,0,1,3.38-7.16,10.86,10.86,0,0,1,3.23-2.76,28.39,28.39,0,0,0,13.67-21.81c.38-3.94.15-9,6.22-9.74,5.67-.73,10.78-1.89,15.56,3.62,4.31,5.11,8.41,8.62,3.49,16.08-3.36,5.09,1.66,16.9,9.14,19.18C1174,738.9,1177.69,746.73,1182.74,752.78Z"/><path class="cls-1" d="M1591.75,969c2.52,1.85,5.15,3.53,7.52,5.56,19.39,16.61,38.64,33.14,57.67,50.06a26.55,26.55,0,0,1,7.17,11.34c1.64,5.06,3.69,9.2,8.62,11.55s5.86,5.77,3.56,10.51c-.78,1.6-1.17,3.39-1.83,5-1.66,4.09-1.66,9.41-8.17,9.72s-11.38-1.34-15.09-7.72c-9.31-16.53-19.26-32.71-29.13-48.94-3.26-5.37-5.28-12-12.78-13.51-.84-.18-1.64-1.38-2.16-2.27q-8.84-14.62-17.56-29.3Z"/><path class="cls-1" d="M1238.49,882.39c-2.48,2.5-4,5.15-6.14,6.07-20.13,8.45-40.3,16.77-60.63,24.7-6,2.33-12.15-2.76-13.33-10a92,92,0,0,0-2.63-14.65c-1.6-4.7,0-7.33,3.31-10.13a7.78,7.78,0,0,1,9.79-.86c4.61,2.39,9.83,6.16,14.31,5.62,4.09-.49,7.71-5.84,11.27-9.31,8.21-8,19.39-8.73,29.42-12a4.16,4.16,0,0,1,3.77,1.18C1231.25,869.09,1234.57,875.32,1238.49,882.39Z"/><path class="cls-1" d="M1145.54,1014.92c0-16,3.58-21.2,18.71-25.56a38.3,38.3,0,0,0,18.7-11.81,321.47,321.47,0,0,1,23.13-24c6.81-6.19,9.65-12.93,7.73-21.94-1-5,2.42-8.47,7.72-8.45s5.43,4.31,4.72,7.67c-3.06,14.68-5.8,29.89-16,41.47-16.61,18.81-34.13,36.81-51.29,55.12a36.47,36.47,0,0,1-3,3.09c-4.1,3.44-8.41,2.41-9.55-2.78A80.72,80.72,0,0,1,1145.54,1014.92Z"/><path class="cls-1" d="M765.86,570l18.39-11.9-10.18-5.3c3.39-6,3.5-13.17,11.15-17.11,5.75-3,2.5-16.92-4.14-18s-8.62-4-8.19-10c0-1.38.19-3.58-.6-4.1-8.15-5.45-1.47-11.48-.5-17s5.45-9,11-10.51a6.65,6.65,0,0,1,1.53.71,13.39,13.39,0,0,1-.62,3.6c-2.31,4.84-1.19,7.86,4.46,7.75,6.91-.1,7.24,2.61,5.71,8.62-1,4.1.34,9.27,1.92,13.47a151.4,151.4,0,0,0,9.69,20.33,21.6,21.6,0,0,0,6.79,6.46c7.22,5,7.8,7.11,3.23,14.33a13.31,13.31,0,0,0-1.94,3.67c-1.78,7.6-4,10.43-10.49,8.79-9-2.27-16,1.33-23.58,4.63C775.6,570.16,771.66,573.93,765.86,570Z"/><path class="cls-1" d="M929.35,923.22c-.31,5.37,1.46,11.45-3.82,16.51-3.1,3-2.15,6.47,1.06,9.27,7.84,6.62,9,14,3,22.61-4.31,6.29-3.23,12,2.16,17.24A57.54,57.54,0,0,1,938.2,996c1.12,1.53,2.46,4.31,1.83,5.37a7.31,7.31,0,0,1-5.4,2.32c-13.24.56-26.49.8-39.72,1.25-4.18.15-6-1.79-5.56-5.82a13.57,13.57,0,0,0-4.51-11.42c-4.89-5.13-4.31-10.38,1.49-14.22,3.45-2.16,7.95-2.78,11.85-4.31,3.13-1.29,7.44-2.16,8.86-4.68C915,950.79,922.06,936.84,929.35,923.22Z"/><path class="cls-1" d="M1846.84,642.7l3.51.95c7.22,1.79,7.22,1.79,6.23-5.19-1.16-8.3.63-10,7.84-14.77a20.89,20.89,0,0,0,8.63-12.39c1-6-.63-12.69-2.16-18.81-1-3.82-1.38-6.77,1.06-10,4.52-6,6.72-6.16,11,0a106.25,106.25,0,0,1,6.47,9.93c.77,1.4,1.48,4,.79,4.85-5.32,6.14-1.5,12.33-.45,18.45.67,3.86,2,7.61,3,11.42,3.27,12.72-2.16,20.82-15.3,23.71a13.23,13.23,0,0,0-6.88,5.41c-4.11,5.88-4.5,6.16-9.52,1.91-7.63-6.46-10.35-6.57-18.69-1a75,75,0,0,1-10,6.1,5.16,5.16,0,0,1-4.76-1.23,5,5,0,0,1,.65-4.57,70.41,70.41,0,0,1,10.15-11.05C1841,644.27,1844.71,643.58,1846.84,642.7Z"/><path class="cls-1" d="M1252.73,806.25c10,5.64,18,10.11,25.86,14.72,6.77,3.92,8.11,7.43,3.93,13.94-8.11,12.67-16.55,25.17-25.37,37.37a11.56,11.56,0,0,1-19.55-.91c-1.14-1.81-2-3.85-3.16-5.62-3.47-5-2.33-8.51,3.08-11a57.42,57.42,0,0,0,5.62-3.17c10.63-6.31,12.93-15.09,9.36-26.94C1251,819.29,1252.58,812.93,1252.73,806.25Z"/><path class="cls-1" d="M942.06,666.39c-3.1,8.16-5.69,15.08-8.3,21.83h-1.94a27.26,27.26,0,0,1-1.63-6.28A18.38,18.38,0,0,0,915.62,663c-9.48-2.45-15.54-8.27-21.19-15.34-2.93-3.64-6.16-7-9.11-10.6a14.57,14.57,0,0,0-10.91-5.89,12.52,12.52,0,0,1-8.14-3.94,10.13,10.13,0,0,1-2-8.62c.79-1.85,5.64-3.66,7.8-2.91,6.46,2.31,9.09-1.87,12.39-5.69,5.34-6.18,11.64-7.56,16.81-3.9,4.14,2.93,4.57,6,.15,8.86-4,2.54-4.31,5.34-3,9a31.72,31.72,0,0,0,3.83,8.62c9.35,12.28,19.22,24.09,34,30.38A50.53,50.53,0,0,1,942.06,666.39Z"/><path class="cls-1" d="M979.84,546.24c-.3-6.46-.54-12.11-.8-18a23.5,23.5,0,0,0,18-18.69,7,7,0,0,1,7.46-6.14c8.9-.21,17,1.77,22.52,9.63.6.89,1.25,1.73,1.87,2.61,6.69,9.38,6.21,19.55-1.59,27.69a9,9,0,0,1-5.58,2.5c-5,.22-10.26.82-14.89-.53A38.05,38.05,0,0,0,979.84,546.24Z"/><path class="cls-1" d="M989.77,589.43c11.81.21,17.05,4.16,19,15.56,1,5.62,2.85,8.51,8.62,8.49a2.52,2.52,0,0,1,1,.3c2.93,1.49,7.76.84,7.33,6.16-.37,4.31-5.73,7.76-10.77,7.85a37.1,37.1,0,0,0-11.25,1.87c-14.27,5-24.53,1.23-31-8.85-10.93-17-10.5-13.3,2.39-24.51C979.82,592.21,983.63,587.57,989.77,589.43Z"/><path class="cls-1" d="M689.7,422.93c-5.51-1.66-12.63-3.77-19.72-5.93a1.38,1.38,0,0,1-.79-.69A28,28,0,0,0,661.34,405c-2.15-2.05.86-9.48-5.51-11.68a6.25,6.25,0,0,1,.86-3.58,27.28,27.28,0,0,1,5.73-4.76c5.65-3.45,7.89-2.15,8.62,4.57a31,31,0,0,0,2.16,6.57,24.8,24.8,0,0,0,6.18-3.08c5.3-4.83,10.39-9.14,17.76-3.4a5,5,0,0,0,4.85-.31c3.7-3.72,6.74-4,10.77-.32s6.14,7.78,4.85,13.17C715.39,412,701.6,422.78,689.7,422.93Z"/><path class="cls-1" d="M132.86,171.37c-11.23,3.4-21.94,6.1-32.22,10-4.31,1.64-7.89,5.58-11.51,8.79-1.83,1.62-2.82,4.16-4.57,5.93-3.92,4-12.82,5.77-15.79,3.51-4.31-3.34-5.43-15.09-1.51-19.61s8.62-8.62,12.45-13.34a32.28,32.28,0,0,0,6.06-10.78c2.16-7.5,8.9-10.45,15.09-5.47a37,37,0,0,1,6.46,8.36c2.16,3.32,4.87,5,9,4.12C126.2,160.66,126.2,160.72,132.86,171.37Z"/><path class="cls-1" d="M786.77,980.2c-14-2-26.47-.75-38.56,8.8-.84-10.24-1.85-18.58-8.62-25-1.27-1.21-.92-5.93.41-7.63a14.87,14.87,0,0,0,3.19-12c-.6-4.72,2-6.47,6.47-6.47,5.64.11,11.44-1.23,16.38,3.21a11.55,11.55,0,0,0,5.94,1.94c8.62,1.17,9.16,1.15,8.26,9.33C779.18,962.47,779.38,971.82,786.77,980.2Z"/><path class="cls-1" d="M271.36,156l5.69,4.08a34.44,34.44,0,0,0,7,4.85c7.39,2.76,9.89,7.67,10.08,15.51.33,14.14,5.43,18.71,19.94,19.4,5.64.28,11.63.8,16.91-.71,6.06-1.73,10.52-.74,14.53,3.49,2.28,2.41,5.6,5.11,5.8,7.84.23,3.47-10,8.82-13.8,7.61q-26.56-8.4-53-17.37c-4.89-1.66-7.41-8.06-6-13.23,2.69-10.15,2.58-10-5.15-16.38a15.54,15.54,0,0,1-5.58-7.33C267.31,161.69,269.86,159,271.36,156Z"/><path class="cls-1" d="M927.34,1028v7.26c-.34,9.78-2,11-10.56,6.27-3.58-1.94-6.46-2.5-9.83,0-3.06,2.15-5.79,4-3.21,8.62.87,1.55-.32,4.31-.58,6.46a21.11,21.11,0,0,1-6.23-2.67,134.25,134.25,0,0,1-9.56-10.11c-8.37-9.15-8.63-13.4-1-23a8.63,8.63,0,0,1,5-3.43c6.46-.45,12.93-.15,16.44-7.19.28-.59,4.31-.33,4.63.36,2,5,6.3,4.83,10.5,5.63a6.44,6.44,0,0,1,3.81,4.31A34.22,34.22,0,0,1,927.34,1028Z"/><path class="cls-1" d="M811.25,931c-6.68-.88-11.62-1.78-16.6-2.15s-9.93,0-12.19,6.16c-2,5.46-7.11,4.49-11.06,3.36-4.67-1.33-3.55-5.58-2.58-9,.75-2.73,1.18-6.33,3.1-7.86,10-8,20.28-15.71,30.9-22.89,3.92-2.63,8.21-1.18,11,3.28,2.16,3.32,4.87,6.25,6.75,9.67s4.8,8.19,3.62,10.07C821,926.54,816.16,930.64,811.25,931Z"/><path class="cls-1" d="M152.06,1055.42a61.74,61.74,0,0,0-3.38-9c-4.79-8.62.13-22.37,9.59-25.19a10.45,10.45,0,0,1,7.43,2c5.54,3.67,9.57,9.31,17.24,10,4.81.47,5,5.79,3,8.49a195.9,195.9,0,0,1-20.54,24.46c-1.92,1.85-8.36.62-11.73-1.1-2.26-1.17-2.78-5.71-4.09-8.73Z"/><path class="cls-1" d="M298.6,131.5c3-.39,5.43-.15,7.18-1.08a32.65,32.65,0,0,0,5.82-5c-1.94-1.9-3.58-4.61-5.91-5.49a30.17,30.17,0,0,0-9.56-.84c-5-.13-6-3.24-5.44-7.27.48-3.66,2.29-6.46,6.47-5,5,1.68,6.46,0,7.91-4.92,1.72-5.69,6.72-5.82,10.17-.77,7.31,10.62,14.29,21.55,21.44,32.32,2.16,3.36,2.16,6.17-2,7.65-5.62,2.16-11.57,5.78-17,5.24C307.55,145.25,306.08,146.26,298.6,131.5Z"/><path class="cls-1" d="M1819.71,1030.72c-3.34,3.81-8.82,7.3-9.46,11.55-.71,4.66,3.06,10,4.78,15.09s2.69,10.49-.3,15.58a16.53,16.53,0,0,1-2.85,3c-1.09-1.14-2.82-2.16-3.19-3.47-1.65-6.23-2.86-12.56-4.31-18.81a33,33,0,0,0-2.52-5.43c-5.1,3.66-4.31,8.51-4.91,12.77a126.51,126.51,0,0,1-2.52,13.65c-.26,1-2.8,1.33-4.31,2-.39-1.21-1.42-2.68-1.06-3.6,2.16-5.82,1.86-11.06-2.48-15.82a3.78,3.78,0,0,1-.51-3c3.62-12.28,6.63-24.85,11.35-36.63,2.89-7.29,7.33-8.93,13.84-5.63,9.37,4.74,17,3.58,24.63-3,.56-.48,1.9,0,3,0-4,10.32-8.36,12.93-17.24,10.64-6.47-1.77-12.93-4.44-19.55.22-4,2.8-6.46,5.34-3.47,10.45,3.43,5.62,5.95,6.85,11.23,4.31,1.6-.78,3-2,4.59-2.8s3-1.34,4.57-1.9Z"/><path class="cls-1" d="M1812.47,402.63c12.8,18.21,24.54,34.87,36.29,51.55a9.3,9.3,0,0,1,0,11.81c-4.31,6.46-3.13,12.8,2.28,18.42,4.31,4.31,8.28,8.95,12.39,13.45a5.73,5.73,0,0,1,.61,8.08,5.63,5.63,0,0,1-1.45,1.21c-3.77,2.93-6.83,1.16-8.75-2.54-4.41-8.63-10.47-16.86-12.54-26a145.61,145.61,0,0,0-25.86-54.89C1811.09,417.86,1809.75,411.64,1812.47,402.63Z"/><path class="cls-1" d="M1623.08,852.73c2.93-10.15.52-16.59-4.74-22.67-3.34-3.88-.32-16.38,4.18-19.24.93-.58,4.53.75,4.63,1.55,1.21,7.84,6.83,9.87,13.39,11.53,4.48,1.12,6.7,4.31,3.57,8.81s-.58,7.95,2.72,11.08c8.3,7.87,16.7,15.62,24.8,23.71,6.47,6.46,5.87,11.74-1.79,16.27-4.31,2.6-7.65,1.48-7.15-3.28,1.68-16-11.81-22.52-19.76-32.33-1.12-1.4-5.22-1.2-7.65-.6C1631.92,848.27,1628.83,850.17,1623.08,852.73Z"/><path class="cls-1" d="M909.54,1059.36c.22-4.16.43-8.88.73-15a50.4,50.4,0,0,0,9.49,4.46c8.62,1.94,13.81,1.53,12.93-9-.43-5-.18-10-.22-15.09-.13-11.44-.13-11.44-12.35-15.08a101.13,101.13,0,0,1,11-.78c7,.37,12.7-1.4,16.25-8a11.38,11.38,0,0,1,2.72-3.3c3.19-2.56,7-1.27,6.64,2.72-.87,9.89,1.48,20.94-9.42,27.8-5.91,3.7-7.24,10.17-7.54,16.89-.28,5.76-10.58,17.55-16,18.24-1.74.21-3.68-1.53-5.62-2.16C915.25,1060.52,912.36,1060,909.54,1059.36Z"/><path class="cls-1" d="M1125.22,698.56c1.77,13.56-3.84,22.35-14.18,28.73-5.48,3.36-10.78,7.15-16.29,10.28-4.31,2.39-6.68.9-7.27-4-.28-2.48,0-5-.13-7.52a13.28,13.28,0,0,0-.51-5.28,101.93,101.93,0,0,0-5.89-9.07c7.59-1.73,10-12.22,19.4-11.19,2.76.3,5.62-1,8.47-1.18C1114.12,699,1119.46,698.82,1125.22,698.56Z"/><path class="cls-1" d="M1143.54,263c-4-1-6.12-1.59-8.21-2.15-4-1-5.69-3.34-3.58-7,6.46-11.14,12.65-22.43,19.85-33.08,1.76-2.63,6.74-3.57,10.45-4.31,10.45-2.15,19.87-5.62,26.38-14.8,1.18-1.68,4.07-3.62,5.6-3.24a7.13,7.13,0,0,1,4.14,5.2c.19,2.41-.71,6.2-2.46,7.33-10.15,6.59-20.49,12.93-31.2,18.57-5.87,3.08-9.66,6.94-11.23,13.32a99.14,99.14,0,0,1-4.79,15.34C1147.5,260.5,1144.68,262,1143.54,263Z"/><path class="cls-1" d="M316,996.22c-1.19-7.22-2.29-14.46-3.56-21.68-1.12-6.47,3.26-10.67,6.73-15.09.58-.71,3.55-.54,4.59.26,4.46,3.58,8.62,7.52,12.93,11.4,2.95,2.72.9,4.89-.76,7.39-5.69,8.62-5.79,9.27.93,16.53,3.73,4,7.05,9.18,3.77,13.23s-9.27,6.06-14.48,7.68c-3.43,1.07-11.12-9.47-11.79-15.09a38.73,38.73,0,0,1,0-4.31Z"/><path class="cls-1" d="M196.8,138a55.28,55.28,0,0,0-.93,10.43c.48,3.9,0,9.09,7.09,8.08,1.14-.18,4.57,4.52,4,5.54a29.8,29.8,0,0,1-7.3,8.62c-.39.32-3.71-2.16-5.3-3.82-5.15-5.19-11.38-2.84-17.24-2.5-2.37.13-4.62,1.92-7,2.42a58,58,0,0,1-8,.68c.15-2.56-.36-5.43.61-7.65,1.5-3.44-.33-4.69-2.72-5.71-5.24-2.15-10.77-4-15.88-6.46s-5.22-5.26-.45-8.23c13.38-8.32,25-4.31,29.48,10.77,1.4,4.66,3.68,6.9,8.31,6.12a7.1,7.1,0,0,0,6.79-7.4v0a4.69,4.69,0,0,0,0-.53C188.22,142.12,188.7,142.12,196.8,138Z"/><path class="cls-1" d="M810.54,957.71c0,3.92-.28,7.84,0,11.74.45,5.52-2.44,8.49-6.94,10.78-6.29,3.23-8.08,2.6-12.63-2.72-11-12.93-6.47-26.92-2.65-40.43,1.72-6,8.62-3.06,13.3-3s8.42,2.15,8.51,7.58,0,10.67,0,16Z"/><path class="cls-1" d="M1398.5,622.21c-4.31,6-7.2,11-11.08,14.93-1.87,1.92-5.71,1.88-8.62,2.82s-8,1.19-9.37,3.41c-7,11.25-17.24,11.29-29.91,9.44,9.29-3.21,17.84-4.57,25.71-11.49-6.1-2.28-11-4.07-15.8-5.92-2-.76-4.87-1.13-5.73-2.61-1.21-2.16-.93-5-1.29-7.63a16.25,16.25,0,0,1,5.77-.35,18.85,18.85,0,0,1,4.89,3.41c1.17-.43,2.16-.47,2.4-.93,6.46-11,6.46-10.95,19.39-8.77C1382.1,619.75,1389.41,620.78,1398.5,622.21Z"/><path class="cls-1" d="M705.33,924.13c7.45-.32,14.91-.56,22.35-1,4.13-.24,7.06,1.14,8,5.36,1.3,5.89,3.19,11.79,3.32,17.7a11.92,11.92,0,0,1-5.28,8.62c-1.29.84-5.3-2.16-7.89-3.9a13.46,13.46,0,0,1-2.71-3.3C714.51,937,709.94,936.31,699,944c-5.45,3.84-10,2.16-11.53-4.31a5.8,5.8,0,0,1-.22-2.15C687.7,934,701.38,923.1,705.33,924.13Z"/><path class="cls-1" d="M1620.9,113.4c-8-6.88-15.21-11.73-20.47-18.19-3.56-4.31,0-9.48,6.29-10.19,5.74-.67,11.38-.67,13.77-7.63.44-1.25,3.67-1.71,5.69-2.16,4.77-1.23,9.61-2.15,14.4-3.45s11.59,2.61,11.77,7.57a8.11,8.11,0,0,1-2.16,5.47c-.8.78-3.3.3-4.78-.28-2-.75-3.58-2.74-5.54-3.1a8.21,8.21,0,0,0-5.86,1.31c-.69.52-.22,3.75.71,5.07,2.56,3.68,1.89,6.46-2.29,7.09-6.46,1-8.08,4.57-7.84,10.49C1624.61,107.47,1622.65,109.69,1620.9,113.4Z"/><path class="cls-1" d="M1785.18,572.19c-8.21,8.77,1.23,19.91-8.12,27.65-2.69,2.15-2.39,9.54-1.55,14.18,1.07,5.92-2.16,8.83-5.78,11.55-4.85,3.75-9.67,1.51-10.62-4.59-.82-5.24-1.36-10.09-5.26-14.63-4.57-5.31.45-17.12,8.62-18.24s9.85-5.38,11.81-11.33a12.44,12.44,0,0,1,3.83-6.06C1779.13,570,1781.76,571.41,1785.18,572.19Z"/><path class="cls-1" d="M1077.12,993c14.35.18,19.82,8.88,14.78,20.22-.86,2-2.15,3.81-2.74,5.82-2.28,6.59-5.71,11.27-13.77,10.9-3-.13-6.16,2.37-9.24,2.35a10.07,10.07,0,0,1-7-3.43c-1-1.29-.32-4.67.65-6.59,1.94-3.79,4.89-7.07,6.9-10.78a31.84,31.84,0,0,0,3-8.94c.48-2.54-.9-6.62.39-7.61C1072.27,993.14,1076,993.24,1077.12,993Z"/><path class="cls-1" d="M885.21,759c-.6-.71-1.92-1.53-1.85-2.16.56-7.82-3-13.47-8.39-18.77-1.87-1.83-3.27-7-2.15-8.62,4.52-5.84,2.39-11.46,1.29-17.37-1.49-8,3.67-13.38,11.88-12.93,3.79.26,5,2.59,4.31,5.91-1.71,8.32,4.91,16.66,0,25.1-.35.61,2,3.8,3.64,4.42,6.08,2.33,3.94,5.56,1.55,9.1C892.21,748.54,889.09,753.36,885.21,759Z"/><path class="cls-1" d="M1681,869.35c9.27,8.25,12.22,19.39,12.37,31.53.13,10-1.36,18.88-12.78,23.14-3.84,1.42-6.62,6.21-9.42,9.83s-6,5.26-10,2.26a8.49,8.49,0,0,1-.41-12h0l.13-.13c4.11-3.43,9-6,12.78-9.72a17.51,17.51,0,0,0,5.51-9.55C1680.4,892.75,1680.56,880.73,1681,869.35Z"/><path class="cls-1" d="M427.71,578.29c0,8.29-3.34,10.62-11.44,7.8s-16.18-5.63-24.07-9c-7.11-3-7.74-6.46-2.33-11.89,6.81-6.83,13.84-13.45,20.95-19.94,1-.9,3-.64,4.54-.9a13,13,0,0,1,.16,4.85c-.59,1.57-2.46,2.63-3.26,4.18-1.38,2.6-4,6.59-3.12,7.91a16.66,16.66,0,0,0,9,6.18C426.4,569.49,427.73,570.44,427.71,578.29Z"/><path class="cls-1" d="M1674.59,887c3.29,17.37-3.19,29.09-18.45,34.76-4,1.46-12.24-5.84-10.63-10.07,2.4-6.12,2.16-10.62-2.86-15.38-1.17-1.12.28-5.89,1.68-8.3.77-1.34,3.94-1.66,6-1.7a19.28,19.28,0,0,1,5.07,1.64C1661.87,889.65,1668.31,892.3,1674.59,887Z"/><path class="cls-1" d="M1622.63,961.63c5.49,5.36,10.45,10.77,19.22,9.52,1.16-.17,3.25,1.73,3.86,3.11,4.31,10.17,8.83,20.28,12.37,30.73,2,5.73-.56,7.73-5.91,5.21-13.75-6.46-25.32-14.69-26-32.09C1626,972.58,1624,967.12,1622.63,961.63Z"/><path class="cls-1" d="M898.87,237.92c-4.69-4.31-3.12-8.93-2-13.39a27.69,27.69,0,0,0,1.94-6.09c0-2.5,0-5.95-1.66-7.31-3.19-2.8-4.76.84-6.46,3-5.41,6.83-11.25,6.46-15.46-.78a7.42,7.42,0,0,1,2.23-10.24,7.54,7.54,0,0,1,3-1.12c7.31-1.25,14.81-3.9,21.92-3.14,5.77.62,11.16,5.26,16.49,8.62.43.26-.59,3.92-1.69,5.47C911.44,221.09,905.42,229.08,898.87,237.92Z"/><path class="cls-1" d="M1861.45,521.07a128.38,128.38,0,0,0,11.4,9c4.59,2.91,9.59,5.24,14.55.13,2.15-2.15,4.31-2.41,6.1.65,1.46,2.69,3.92,5.17-.18,8.19-5,3.71-11.44,6.25-13.06,13.47,0,.52-3,.52-4.52.56-7.65.21-9.68,3.94-6.14,10.67a20.13,20.13,0,0,1,1,6.35c-2.44-.75-5.6-.79-7.2-2.39-8.08-8-8-10.51-1.21-19.5,3.88-5.13,3.13-10.52.67-16.08a101.9,101.9,0,0,1-3.38-10.08Z"/><path class="cls-1" d="M953.55,516.7c.23-3.3.64-6.47.64-9.55s1.06-5.5,4.64-5.91a5,5,0,0,0,3-1c9.33-10.52,17.89-4.44,26.31,1.27,5.89,4,6.25,6.62,2.53,12.35-6.1,9.35-9.23,9.74-20.13,5.39C965.46,517.21,959.49,517.51,953.55,516.7Z"/><path class="cls-1" d="M1664.28,856.66c-3.16-3.84-6.18-7.81-9.54-11.49-3.71-4-8.62-6.66-4.79-14.16,2.44-4.65-2.6-9.89-9.48-11.83-3.43-1-7.5-.86-8.12-5.54-.46-3.32-2.46-6.81,1.72-9.7,5.07-3.49,12.93-5.13,17.13-1.72a61.52,61.52,0,0,1,11.53,12.63c1.12,1.61.46,5.9-1,7.65-7.43,8.85-5.24,16.89,1,25.06a56.55,56.55,0,0,1,4,7.07Z"/><path class="cls-1" d="M1359.13,677.55c-3.36-3.86-6.08-9.79-10-10.78-4.94-1.27-7.78,4.72-10.41,9.08a6.22,6.22,0,0,1-5.5,2c-1.33-.39-2.61-3.17-2.76-5-.38-4.63-.17-9.2-4.18-12.76a4.76,4.76,0,0,1-.36-4.59c2.47-3.68,5.47-7,9.13-11.59,0,5.11-1.22,9.37.33,11,2,2.16,6.2,2.85,9.57,3.28a65.54,65.54,0,0,0,11.72,0c8.14-.43,18.83,6.77,22,15.08-3.68-.3-7.54-1.46-10.92-.66S1361.54,675.93,1359.13,677.55Z"/><path class="cls-1" d="M1488.91,771.25c-14-.5-27.57-2.5-40.13-9.44-4.31-2.37-7-5-6-10,1.21-5.62,6.08-5.45,10.26-5.25a16.87,16.87,0,0,1,7.93,2.63,93.91,93.91,0,0,0,32.33,13.64,8.84,8.84,0,0,1,4,1.27,27.11,27.11,0,0,1,3.44,4.8,15.16,15.16,0,0,1-4.31,2.16A51,51,0,0,1,1488.91,771.25Z"/><path class="cls-1" d="M1756.82,985.27a20.46,20.46,0,0,1-.45,3.66c-2,6-2.15,14.79-6.46,17.48-8.15,5.26-18.43,7.26-28,10.17-1.44.43-3.62-1.53-5.45-2.39,1.16-1.29,2.41-2.52,3.51-3.9a8,8,0,0,0,2.15-3.45c1.45-14,14.62-16.31,23.32-22.78C1747.66,982.4,1752.86,984.75,1756.82,985.27Z"/><path class="cls-1" d="M1800.4,651.19a49.92,49.92,0,0,1-6,9.46c-4.54,4.87-8.4,4.05-11.63-2.15-4.74-9-9.49-18.19-7.52-28.88a11.32,11.32,0,0,1,4.13-6.79c1.25-.84,4.59.32,6.47,1.51C1796.54,631.56,1800.46,638.3,1800.4,651.19Z"/><path class="cls-1" d="M1545.65,822.3c-5.58-6.83-5.58-6.83-12.93-3.25-8.79,4.31-14.4,1.72-14.31-7.67,0-8.43-3.94-14.94-7.13-22-.87-1.94-.33-4.5-.41-6.79,2.15.72,4.31,1.3,6.33,2.16,5.35,2.15,10.65,4.55,16.94,7.24-.17.5-.67,2.33-1.31,4.12-1.47,4-.74,6.79,3.6,8.47C1544.77,807.71,1545.13,815.13,1545.65,822.3Z"/><path class="cls-1" d="M1782.9,851.12v-5.37c0-4.72,3-8,7-8.08a14,14,0,0,1,10,4.46c3.93,5,4,11,.63,17.09-5.13,9.31-2.78,13.27,7.74,16.74a29.9,29.9,0,0,1,9.41,6.47c.69.58-.19,3-.36,4.5-1.32-.23-3.39,0-3.84-.79-3.64-6.12-8.34-8.43-15.34-5.76a5.07,5.07,0,0,1-4.53-1.85C1788.76,869.91,1782.08,861.94,1782.9,851.12Z"/><path class="cls-1" d="M115,925.49c-12.93-1.73-16.47-7.76-10.41-18.6,4-7.18,8.79-13.88,18.29-14.25,4.72-.19,8,1.75,7.12,6.75a99.88,99.88,0,0,1-5.61,21.29C123.4,923.22,118.29,923.94,115,925.49Z"/><path class="cls-1" d="M716.15,917.26a17.53,17.53,0,0,1-4.57,2.15c-5.15.63-12.93-4-13.75-9.37-1-6.12-4-6.47-8.92-5.65a57.77,57.77,0,0,1-12.81.34c-6.05-.49-8-4.07-4.05-8.31a32.83,32.83,0,0,1,12.72-9.25,13.3,13.3,0,0,1,11.4,3,261.52,261.52,0,0,1,17.93,22.58A24.77,24.77,0,0,1,716.15,917.26Z"/><path class="cls-1" d="M137.77,820.23c13.73-9.28,26.79-9.2,40.06,0,9.62,6.62,20.09,12,30.89,18.3-4.9,6.47-10.78,8.82-17.85,7.69-2-.32-5.19-2.84-5.15-4.31.41-12.93-9.27-16.09-18.47-19.67-6.46-2.54-13-4.83-20.34-1.77C144.34,821.53,140.85,820.36,137.77,820.23Z"/><path class="cls-1" d="M956.07,191.32a14.17,14.17,0,0,1-2.78,3.34c-4.31,3.11-8.77,6.15-13.36,8.86-5.56,3.26-9.31-1.46-13.58-3.6a105.36,105.36,0,0,1-10.93-5.75c-2.15-1.4-5.58-4.31-5.19-5.5a15.07,15.07,0,0,1,6-6.78c.67-.44,3.75,1.89,5.09,3.49,3.64,4.31,6.81,6.46,10.36,0,.56-1,3.63-2,4.31-1.49,3.6,3,6.47.82,9.79-.39C949.75,181.89,956,186.65,956.07,191.32Z"/><path class="cls-1" d="M741.45,552.1a29.69,29.69,0,0,1-6.81-1.16c-2.53-1.21-4.51-3.9-1.3-5.63,6.75-3.66,9-8.31,6.6-15.68-.33-1.08,3.53-4.94,4.31-4.64,3.58,1.47,6-6.81,9.85-.86a15,15,0,0,0,6,4.31c2.57,1.27,7.18,0,6.08,5.3-.91,4.31.15,9.59-5.86,11.55C753.54,547.51,746.86,550.12,741.45,552.1Z"/><path class="cls-1" d="M217.47,237.72c-3.11-7-5.89-13.38-8.82-19.72-2.41-5.28-1.49-7.5,4.31-7,4,.35,6.19-.43,7.46-3.94,2.15-5.86,6.85-5.75,11.51-4.87,4,.78,6.46,2.78,3.6,7.54a16.33,16.33,0,0,0-2.85,8.92C233.71,230.74,225.78,234.55,217.47,237.72Z"/><path class="cls-1" d="M978.5,635c9.33,1.62,18,3.3,26.64-.38,2.54-1.1,5.8-.52,8.62-.71-.3,4.31,1.08,10.77-1.23,12.65-5.28,4.31-10.95,8.9-19,8.51-10.77-.54-13.06-1.92-14.65-12.59C978.61,640.05,978.65,637.62,978.5,635Z"/><path class="cls-1" d="M1151.86,298.65c0,4.31-5.26,7.37-8.47,4.31-5.11-4.92-11.17-5.5-17.24-7a13.91,13.91,0,0,1-7.7-6.46c-2.15-3.93,2.16-4.87,4.48-6.92,1.84-1.58,2-4.94,3.45-7.18,1.14-1.83,2.89-4.16,4.66-4.46s5.92.86,6.33,2.16a55.09,55.09,0,0,0,14.12,23.44A9.43,9.43,0,0,1,1151.86,298.65Z"/><path class="cls-1" d="M1005.81,660.65c-3.69.37-7.83-.21-10.93,1.32-4.85,2.37-8.62,5.54-15.08,4.46-3.19-.56-4.31,4.48-2.29,7.58,2.26,3.6,5.41,6.64,7.89,10.11,1.38,1.94,3.38,4.57,3,6.47a38.81,38.81,0,0,1-5.21,12.52c-.35.54-6.06-1.75-8.62-3.6-.8-.56.13-4.31,1-6.14.37-.84,2.69-.65,3.9-1.36,3.6-2.16,3.21-4.44-.13-6.32s-7.05-3.47-10.56-5.21c-4.11-2.16-4.31-4.83-2.15-8.75a24.63,24.63,0,0,1,21.61-13.23c5.67-.33,11.38,0,17,0Z"/><path class="cls-1" d="M61.55,888.55a64.12,64.12,0,0,1,4.82-5.47c3.95-3.62,6.71-7.31,3.91-13-2.5-5.07,1.48-6.23,5-7,3.9-.9,7-.26,7.67,4.76.34,2.7.78,6.88,2.46,7.7,8.34,4,4.31,8,.64,12.22l-.69.82C74.63,902,74.48,902,61.55,888.55Z"/><path class="cls-1" d="M163.37,114.71c-2.75,3.34-4.63,5.89-6.78,8.17-3.24,3.45-6.86,4.16-9.9,0s-5.43-3.23-7.24.34c-3.64,7.25-8.88,7.09-15.08,4.21-2.27-1-4.79-1.55-7-2.76a28.84,28.84,0,0,1-4.59-3.88c2-1.75,3.68-4.31,6-5.06,2.93-1,6.33-.65,9.54-1,2.85-.28,6.68.41,8.37-1.17C145.59,105.14,153.46,112,163.37,114.71Z"/><path class="cls-1" d="M1119.27,870.15c1.57,1.78,2.78,2.52,2.87,3.36,1.66,14.24,11.4,22.15,22.32,29.41,2.91,1.94,4.83,5.39,7.2,8.17-5.56,3.32-7.5-2.35-10.17-4.7-6.47-5.62-12.93-9.31-21.9-8.79-10.15.58-14.5-7.78-9.2-17.05C1112.57,876.76,1116.1,873.77,1119.27,870.15Z"/><path class="cls-1" d="M255.31,368c-4.14-11,1.53-17.46,7.58-23.71a4.8,4.8,0,0,1,4.59-.51q11.06,10.13,21.52,20.81a4.87,4.87,0,0,1,0,4.46c-1.92.95-5.44,2.16-6.3,1.21C274.49,361.85,265.39,363.75,255.31,368Z"/><path class="cls-1" d="M1166.64,931.85c7.82,7.88,16,4.63,24.11,1.68,3.37-1.23,6.73-2.5,10.15-3.54,6.47-2,9.29,0,9.55,6.88.28,7.17-4.31,12.93-11.49,12.69a43.88,43.88,0,0,1-16.29-3.79c-6.27-2.87-11.85-7.27-17.71-11Z"/><path class="cls-1" d="M342.67,975.31c7,8,11.08,3.06,15.59,1.77s5.81.41,5.06,4.65c-.91,5.2-2,10.41-2.41,15.67a8.74,8.74,0,0,1-5.52,8.21c-5.95,2.7-6.47,2.16-8.94-4.48-1.47-3.73-5.15-6.46-7.07-10.17a11.9,11.9,0,0,1-.93-7.59C339,980.74,341,978.39,342.67,975.31Z"/><path class="cls-1" d="M1810.35,948.81c4.31-6.47,7.53-9.9,13.54-11.06,6.46-1.27,11.12-6,14.59-14.09a46.18,46.18,0,0,1,3.86,7.78c1,3.77,1.07,7.8,2.15,11.55s1.38,6-4,5.62c-3.72-.24-4.76,2.16-2.78,5.84a14.52,14.52,0,0,1,.56,5.52c-2-.43-4.31-.28-5.84-1.4a15.53,15.53,0,0,1-5.15-6.47c-2.15-6.2-5.3-7.93-11-4.31C1815.14,948.37,1813.61,948.25,1810.35,948.81Z"/><path class="cls-1" d="M254.73,859.09c-.78.5-1.75,1.57-2.87,1.75-6.16,1-12.76,3.49-18.45,2.15a38.19,38.19,0,0,0-18.7-.24c-.61.15-2-.92-2.16-1.66a3,3,0,0,1,1.34-2.37A8.17,8.17,0,0,1,217,858c5.09-1,6.77-3.84,4.31-8.43-1.47-2.73-1.79-4.7,1.59-5.75,6.34-2,28.86,7.67,31.6,13.47A12.14,12.14,0,0,1,254.73,859.09Z"/><path class="cls-1" d="M901.87,568.68c11.53-9.59,26-8.17,35.56,3.42.77.93,1.53,3.17,1.1,3.6-2.48,2.41-6.23,6.9-7.87,6.27C921,578.26,907.64,582.49,901.87,568.68Z"/><path class="cls-1" d="M285.37,216c-4.89,4.18-7.69,6.89-10.77,9.16-1.64,1.2-4.44,2.84-5.69,2.15a13.15,13.15,0,0,0-14.87.95c-3.6,2.37-8-5-6.14-10.56,1.65-4.89,10.34-10.39,15.4-9C270.05,210.48,276.64,213,285.37,216Z"/><path class="cls-1" d="M973.44,589.36C967,602,951.89,611.19,940.75,609.28c-3.93-.67-8-1.34-8.26-6.64-.23-5.69,3.58-7,8.23-7.78C951.72,593.11,962.68,591.17,973.44,589.36Z"/><path class="cls-1" d="M888.25,597.51a48.5,48.5,0,0,1,5.67-1.55c7.13-1.12,13.51-3,17.82-9.83,1.29-2.15,6.61-3.43,9.14-2.5,3.64,1.32,6.72,4.74,9.28,7.89.59.71-1.4,4.74-3.12,6-7.72,5.41-15.6,9.37-25.45,3.85-3.6-2-8.62-1.44-12.93-2Z"/><path class="cls-1" d="M974.11,637.87c.66,3.73-1,6.77-5.63,8s-6.33-2-7.76-5.41c-3-7.11-6.14-14.18-8.62-21.55-.49-1.53,1.27-4.72,2.89-5.75s5.6-1.38,6.47-.35C967,620.14,973.85,626.93,974.11,637.87Z"/><path class="cls-1" d="M754.72,664.62c-1.81,12.8-3.08,23.38-5,33.83-.28,1.51-3.38,3.06-5.41,3.43-.88.15-2.8-2.44-3.38-4.07-3.77-10.63,3.34-20.26,3.06-30.61a25.87,25.87,0,0,1,.67-4.2c.47-3.49,2.71-5.39,5.86-4.31,1.77.63,3,3.19,4.1,5.07C755.11,664.62,754.72,665.8,754.72,664.62Z"/><path class="cls-1" d="M124.32,886.59c-13.94,2.15-21,11.92-26.7,23A161,161,0,0,1,90.47,893a7.91,7.91,0,0,1,5.82-9.55l.51-.1c8.62-1,17.48,0,26.25.36C123.35,883.7,123.59,884.86,124.32,886.59Z"/><path class="cls-1" d="M1616,923.42c.73,13.73,7.41,24.22,17.09,33.27,2.52,2.4,8.36,5.46,5,8.82-3.9,3.92-5.91-2.5-8.62-4.79a28.71,28.71,0,0,0-8.62-5.58c-12.72-4.31-15.58-9.8-10.78-22,1.25-3.25,2.46-6.47,3.69-9.76Z"/><path class="cls-1" d="M1104.75,740.69c0,.35.13.86,0,1-5.11,4.79-8.11,10.07-4.1,17-4.7,3.49-9,7.73-14.22,10.21-3.39,1.62-6.19-1.48-5.28-5.51q1.92-8.31,4.65-16.39c.76-2.26,15.78-8.72,17.67-7.86C1104,739.38,1104.31,740.15,1104.75,740.69Z"/><path class="cls-1" d="M825,967.88c0-4.79,0-9.57-.3-14.35a106,106,0,0,0-1.55-15.8c-1.38-6.47,1.87-12.8,8.42-13.92,1.38-.24,4.53,1.72,4.53,2.69,0,6,1.1,12.74-1.36,17.65a41.44,41.44,0,0,0-5.15,20.28,10.76,10.76,0,0,1-1.36,3.64Z"/><path class="cls-1" d="M176.78,954.24a80.51,80.51,0,0,0-7.37-6.17c-7.26-4.65-14-3-17.39,5-1.47,3.5-2.78,6.08-6.64,4.9A75.76,75.76,0,0,1,132,952.28c-.52-.28.15-4.31,1.29-5.76a5.66,5.66,0,0,1,5.15-1.68c7.37,3.73,12.93,0,19-3.4,2.32-1.3,5.56-2.91,7.69-2.16a49.25,49.25,0,0,1,13.1,6.92C179,946.69,177.53,950.44,176.78,954.24Z"/><path class="cls-1" d="M1145.37,647.21c-11,11-30,4.31-36.23-7.44-1.89-3.6-.13-6.1,4.14-6S1140.8,643.69,1145.37,647.21Z"/><path class="cls-1" d="M1183.25,657.77l-10.77,13.4a33.76,33.76,0,0,1-20.37-16.53,17.36,17.36,0,0,1-1.16-4.76,16.87,16.87,0,0,1,4.91-.33c5.84,1.47,11.38,6.86,17.63,1Z"/><path class="cls-1" d="M1360.1,109.35c.32,7.91-8.79,14.13-14.79,11.35-4.84-2.15-8.62-4.57-12.75.76-.35.43-2.16.3-2.78-.2a3.17,3.17,0,0,1-.69-2.82c2-5.86,6.63-9,12-11.12,2.16-.9,4.75-1.25,7-2.15s6-3.88,6.47-3.34A39.22,39.22,0,0,1,1360.1,109.35Z"/><path class="cls-1" d="M1785.7,971.37c-3.68,2.71-6.46,5.86-9.89,7-4.18,1.36-11.66,2.78-12.93,1-2.54-3.88-2.72-9.85-2.39-14.85.21-3.17,3.1-6.16,4.91-9.41Z"/><path class="cls-1" d="M742.16,979.71c.13,5.54-1.6,7-6,4.31a185.83,185.83,0,0,1-17.57-12c-1.35-1-2.39-4.94-1.59-5.86,2.52-3,5.82-7.07,9.07-7.33C731,958.48,742.05,974.24,742.16,979.71Z"/><path class="cls-1" d="M1235.9,823.19a78.59,78.59,0,0,1-11.51-1.94c-2-.65-3.4-3-5.08-4.59a43.72,43.72,0,0,1,5.58-3.43,10.11,10.11,0,0,1,4.31-.24,13.59,13.59,0,0,0,13.94-7.82,16.42,16.42,0,0,1,3.67-5.21,27.37,27.37,0,0,1,6-3c-.67,2-1.34,4-2,6.08a52.42,52.42,0,0,0-2.8,9C1246.53,823.08,1246.66,823.1,1235.9,823.19Z"/><path class="cls-1" d="M946.11,590.31a6.14,6.14,0,0,1-1.05,0L935.27,588c2.46-2.78,4.55-7.37,7.46-8a132.88,132.88,0,0,1,23.81-2c1.51,0,3.08,2.15,4.64,3.45-1.21,1.18-2.16,3-3.65,3.47-6.91,2.48-13.94,4.61-20.92,6.85C946.46,591.35,946.28,590.83,946.11,590.31Z"/><path class="cls-1" d="M366.16,993.54a6.47,6.47,0,0,1,0-2.15c1.51-3.75,3.13-7.46,4.7-11.19a99.71,99.71,0,0,1,11.77,7c1,.75.73,3.94.19,5.77a24.17,24.17,0,0,1-3.77,7.67c-1.77,2.27-4.42,5.58-6.46,5.48-4.16-.2-6.88-3.45-6.47-8.26.13-1.42,0-2.86,0-4.31Z"/><path class="cls-1" d="M910.64,622.7c7.15-3.68,12.93-7.56,19.4-9.67,4.31-1.4,9.5-.26,14.3-.26,0,1.12.2,2.15.31,3.38-4.59.71-9.16,1.38-13.73,2.16-6.21,1.05-7.44,3.75-3.41,8.49,4.62,5.36,9.7,10.32,15.09,15.88-11.55-1.21-16.36-4.31-20.69-13.23C919.58,624.71,919.58,624.71,910.64,622.7Z"/><path class="cls-1" d="M112,928.14c7.58,0,13.77,2.15,15.94,10a23,23,0,0,1-.49,10c-.15.76-3.41,2-4,1.47-5.78-4.72-11.4-9.61-16.75-14.79a4.91,4.91,0,0,1-.32-4.78A14.21,14.21,0,0,1,112,928.14Z"/><path class="cls-1" d="M876.16,483.23c5.19,8.38,7.41,13.72,2.65,20.23-1.64,2.16-1.14,6-1.92,9-.39,1.53-1.4,4.1-2.15,4.1a7.66,7.66,0,0,1-5.39-2,17.57,17.57,0,0,1,.17-21.72C871.55,490.06,873.4,487.13,876.16,483.23Z"/><path class="cls-1" d="M259.81,135.64c-7.76-4.68-13.06-12.11-22.52-10.78-.51,0-2.15-2.73-2-4,.69-5.39,6.35-8.73,12.17-7.52C255.16,114.84,261.71,125.85,259.81,135.64Z"/><path class="cls-1" d="M982.06,461.7c10.58.11,15.08,5.71,12.93,13.38-.32,1.19-1.88,3.08-2.5,2.95a103.68,103.68,0,0,1-19.14-4.93c-3.34-1.4-3.08-5.8.35-7.89A45.78,45.78,0,0,1,982.06,461.7Z"/><path class="cls-1" d="M1373.63,125.85c-1.29-3.08-3.51-6.22-3.77-9.52s-5.75-8.34,1.12-10.78c6.14-2.15,16.6,1,18.43,5.43,1.59,3.82-.56,5.82-3.82,7.53C1382,120.29,1378.59,122.71,1373.63,125.85Z"/><path class="cls-1" d="M710.07,944.22c4.8,0,11.1,5.38,9.44,9.09-1.86,4.18-6,7.37-9.14,11-4.31-4-9.12-7.59-12.59-12.2C696.21,950,705,944.22,710.07,944.22Z"/><path class="cls-1" d="M982.7,481.76c8.15,1.23,15.37,2.16,18.37,10.24,2,5.43-.72,9.61-5.71,7.69a76.06,76.06,0,0,1-16.3-9.76c-1.12-.8-1.38-4.31-.62-5.8S981.76,482.26,982.7,481.76Z"/><path class="cls-1" d="M1481.45,960.55c-1.29,1.06-3.49,3.9-6.27,4.7a7.52,7.52,0,0,1-6.47-3.17,17.85,17.85,0,0,1-1.14-9,97.21,97.21,0,0,1,1.62-11c.21-1.31.45-3.64.92-3.7a6.12,6.12,0,0,1,4.62.86,21,21,0,0,1,5.19,7.58C1481,950.49,1480.82,954.52,1481.45,960.55Z"/><path class="cls-1" d="M857.26,603.22c1.68-1.77,3.45-3.53,5.13-5.39,3.6-4,7.35-3.83,11.23-.47q2.45,2,4.67,4.31c1.47,1.55,3.43,3.6,3.15,4-1.53,2.15-4.51,5.9-5.56,5.49C869.69,608.69,860.77,613.76,857.26,603.22Z"/><path class="cls-1" d="M231.8,167.45c3.9-5.67,9.22-5.69,13.92-5.95a7.73,7.73,0,0,1,6.87,11.23,64.54,64.54,0,0,1-6.31,9.87c-.91,1.16-2.85,1.53-4.31,2.15-.73-1.79-1.51-3.55-2.16-5.36,0-.26.28-.65.35-1C241.49,170,241.49,170,231.8,167.45Z"/><path class="cls-1" d="M1144.53,654.51a13,13,0,0,1,3.45,2.31,79.94,79.94,0,0,1,7.67,10.08,6.15,6.15,0,0,1,.36,5.54,5.8,5.8,0,0,1-5.58,1,73.3,73.3,0,0,1-14.13-10.64C1133.19,659.58,1137.67,654.6,1144.53,654.51Z"/><path class="cls-1" d="M932.41,621.78c3.85,0,7.93-.78,11.5.23,3,.86,7.14,3.43,7.68,5.93.66,3.08-1.86,6.85-3,10.34-2.35-.94-5.13-1.38-6.92-2.95-3.88-3.38-7.26-7.37-10.77-11.12Z"/><path class="cls-1" d="M1668.38,82.08l-4.57-5.73a30,30,0,0,1,5.47-3.66,106.65,106.65,0,0,1,13.17-4.31c1.79-.45,4.72-.35,5.58.73a6.43,6.43,0,0,1,.35,5.88,10.09,10.09,0,0,1-5.32,4.79A108.77,108.77,0,0,1,1668.38,82.08Z"/><path class="cls-1" d="M849.44,557.17l-13.65-5.07c2.66-2.26,4.83-5.49,6.3-5.19,5.69,1.16,6-1.57,5.71-5.84s3.3-5.8,6.27-5.37c1.55.24,3.36,4,3.62,6.32a12.55,12.55,0,0,1-2.46,6.46C853.7,551.28,851.79,553.76,849.44,557.17Z"/><path class="cls-1" d="M1084.66,158.72a96.9,96.9,0,0,1-2.35,11.94,8.15,8.15,0,0,1-9.89,5.91h-.11a10,10,0,0,1-6-6.12,7.8,7.8,0,0,1,3.43-6.68A100.35,100.35,0,0,1,1084.66,158.72Z"/><path class="cls-1" d="M816.33,935.94c1.3,1.83,3.58,3.58,3.71,5.5.6,8.79.67,17.65.69,26.46,0,1.06-1.57,2.15-2.41,3.17-.93-.78-2.61-1.49-2.68-2.31C815,958,814.5,947.21,814,936.54Z"/><path class="cls-1" d="M1827.38,674.36a112.1,112.1,0,0,1,8.79,9.57c3,4,1.55,8.27-1.12,11.89a6.46,6.46,0,0,1-4.31,2.16c-.71,0-1.77-1.94-2.33-3.17-2.15-4.72-4.16-9.52-6.2-14.29C1820.76,677.23,1822.36,674.08,1827.38,674.36Z"/><path class="cls-1" d="M1921.84,59.72a21,21,0,0,1-3.88,4.11,32.78,32.78,0,0,1-9.64,4.31,7.89,7.89,0,0,1-6.85-2.37,8.2,8.2,0,0,1,1.31-7.2,12.58,12.58,0,0,1,15.37-2.84A23.27,23.27,0,0,1,1921.84,59.72Z"/><path class="cls-1" d="M1776,793.92c-11.12-10-10.78-19.14.73-25.86C1777.36,776.68,1778.42,785,1776,793.92Z"/><path class="cls-1" d="M1307.86,106A177.14,177.14,0,0,1,1324,95c1.73-1,5,1,7.59,1.57a19.66,19.66,0,0,1-3,4.92c-5.52,4.69-10.48,11.42-19.29,6.68C1308.74,107.82,1308.53,107,1307.86,106Z"/><path class="cls-1" d="M287.12,133.78c-.41,5.44-8.95,11.17-11.7,9.7a4.3,4.3,0,0,1-2-3.38,19.77,19.77,0,0,1,1.71-7.13c1.22-2.57-2.63-8.39,2.56-7.4C281.62,126.35,284.68,131.5,287.12,133.78Z"/><path class="cls-1" d="M1805.7,908.38l3.38-5.39c1.62,1.16,4.31,2,4.64,3.51,1.83,6.47,3.06,13.06,4.31,19.66.13.73-.74,1.83-1.4,2.47a2,2,0,0,1-1.92-.23C1811.71,921.82,1808.76,915.19,1805.7,908.38Z"/><path class="cls-1" d="M1784.82,909.91c1.27,3.81,3.49,7.19,2.63,8.4-4.92,6.94-10,13.88-17.24,18.64l-2.16-1.74Z"/><path class="cls-1" d="M1015.59,606.3c-2.54-4.65-5.41-9.42-7.71-14.46-.67-1.46.32-3.68.56-5.56a14.66,14.66,0,0,1,4.8,1.06C1021.93,593.2,1022.31,598.13,1015.59,606.3Z"/><path class="cls-1" d="M1077.33,761.14c-5.69-8.29-5.51-15.08-2.15-21.78.67-1.34,2.54-2.05,3.86-3.06,1,1.61,3,3.4,2.75,4.82C1080.89,747.33,1079.12,753.45,1077.33,761.14Z"/><path class="cls-1" d="M832.93,558.18c9.83-.34,15.64,4.63,21.23,9.87.71.67.64,2.56.36,3.75-.11.47-2.15,1.1-2.71.73C845.32,568.78,838.12,565.85,832.93,558.18Z"/><path class="cls-1" d="M1697.71,826.48c2.35,3.45,4.31,5.16,4.61,7.07.48,4.46-5.06,9.72-8.88,8.34-2.15-.75-5.1-4.93-4.65-5.69C1690.77,833,1693.92,830.41,1697.71,826.48Z"/><path class="cls-1" d="M943.78,221.93c-3.77,3.32-5.71,6-8.31,7s-5.87.52-8.84.61c-.22,0-.69-.54-.65-.78.26-1.57,0-3.81,1.08-4.55a45.58,45.58,0,0,1,10.39-6.31C938.66,217.51,940.81,220,943.78,221.93Z"/><path class="cls-1" d="M1648.23,123.42c-2.46-1.85-4.5-2.59-4.78-3.77-.91-3.64,4.89-8.9,9.31-7.93,2.75.58,5.08,3,7.62,4.65Z"/><path class="cls-1" d="M960.46,671.41c-5-7.37-5.9-13.71-1.5-20.78C965.36,659.51,965.7,663.15,960.46,671.41Z"/><path class="cls-1" d="M883.62,672.76l-6.88,7.63a43.13,43.13,0,0,1-4.31-8.62,4.82,4.82,0,0,1,5.3-6.16C879.63,665.74,881.09,669.47,883.62,672.76Z"/><path class="cls-1" d="M357.93,247.57a62.85,62.85,0,0,1-12.26-2c-2.16-.73-4.85-4-4.61-5.73.54-4,4.74-4.59,7.5-3a72.13,72.13,0,0,1,10.32,8.62Z"/><path class="cls-1" d="M1855,1008.65a86.81,86.81,0,0,1,7.73,5.32c2.61,2.16,1.36,8.47-1.89,9.83a3.74,3.74,0,0,1-2.87-.34C1853.33,1020.74,1852.12,1015.12,1855,1008.65Z"/><path class="cls-1" d="M905.68,694.16c13.54-5.34,14.85-4.54,13.77,7.05Z"/><path class="cls-1" d="M761.7,511.61l7.2,8.94c-1.92,1.27-4.18,3.9-5.64,3.52a12,12,0,0,1-6.47-5.16C756.23,518.07,759.16,515.16,761.7,511.61Z"/><path class="cls-1" d="M203.93,117.47c-4.31,2.31-6.72,4.85-8.79,4.53-3.25-.48-6.25-2.83-9.29-4.51-.26-.15,0-1.89.11-1.92a49.13,49.13,0,0,1,8.9-.66A52.93,52.93,0,0,1,203.93,117.47Z"/><path class="cls-1" d="M916.91,616l-6.08-4.16c1.25-1.29,2.46-2.67,3.8-3.9a4,4,0,0,1,2-.73c3-.54,6.07-1,9.14-1.34.12,0,.94,2.35.6,2.63C923.33,611.09,920.17,613.48,916.91,616Z"/><path class="cls-1" d="M1181.4,774.22c-2.56-4.07-5.06-6.35-5.24-8.81-.1-1.7,2.94-3.64,4.57-5.5a39.91,39.91,0,0,1,4,7.7C1185,768.84,1183.25,770.67,1181.4,774.22Z"/><path class="cls-1" d="M1117.53,153.46c-5.24,6.85-10,8-13.54,3.66a4.58,4.58,0,0,1-.82-3.72,4,4,0,0,1,3.17-1.9C1109.83,151.82,1113.22,152.64,1117.53,153.46Z"/><path class="cls-1" d="M967.21,490.06c-4.5,3-7.67,5.36-11.1,7.17-.58.31-2.39-1.78-3.64-2.75a95.81,95.81,0,0,1,8.4-8.34C961.35,485.75,963.91,488,967.21,490.06Z"/><path class="cls-1" d="M1062.33,1039.92c-3.08,2.16-4.67,3.86-6.46,4.31-3.41.69-5.71-1.4-5.07-4.8.44-2.33,2.46-4.31,3.8-6.47Z"/><path class="cls-1" d="M1880.09,1051.73c-5.9.91-11,1.77-16,2.41a13.14,13.14,0,0,1-3.73-.58c.37-1.2.49-3.27,1.16-3.47a34.27,34.27,0,0,1,11.06-2.15C1875.14,1048,1877.61,1050.37,1880.09,1051.73Z"/><path class="cls-1" d="M1843.78,678c-1.88-7.84,1.06-11.14,5.47-13.4.59-.3,2.85,1,3,1.85C1853.58,673.24,1848.26,674.47,1843.78,678Z"/><path class="cls-1" d="M686.3,294.7c5.69-.28,10.43,2.78,10.28,6.25,0,1.06-1.9,2.95-2,2.93-3.6-2.26-7.11-4.67-10.65-7.09Z"/><path class="cls-1" d="M492.69,319.81l-4.87,6.46a31.33,31.33,0,0,1-6.06-6.22c-.36-.67,2.8-4.79,4.12-4.68C488,315.5,490,317.89,492.69,319.81Z"/><path class="cls-1" d="M691.15,924.63c-2.59,3.21-3.95,8.31-8.82,5.6a5.92,5.92,0,0,1-1.27-5.6C684,919.69,687.61,923.42,691.15,924.63Z"/><path class="cls-1" d="M979.6,654.19c-4,2.15-6.12,4-8.62,4.5-1,.22-2.63-2.33-4-3.62,1.78-1.74,3.29-4.31,5.43-5C973.87,649.68,976.11,652.05,979.6,654.19Z"/><path class="cls-1" d="M1523,763.32a19.35,19.35,0,0,1,4.31,1.51c.56.32.41,1.85.58,2.84l-12-.34c.41-1.12.51-2.91,1.25-3.19A24.15,24.15,0,0,1,1523,763.32Z"/><path class="cls-1" d="M1220.73,801.55l-4.85,5.8c-1.08-1.6-3.38-3.58-3-4.7a32.58,32.58,0,0,1,4.62-7.31Z"/><path class="cls-1" d="M91.72,907.75a30.66,30.66,0,0,1-6.47-2.58A10.8,10.8,0,0,1,82,900.75c-.22-.54,1.72-2.72,2.59-2.67a7.86,7.86,0,0,1,5.3,2C91,901.42,90.83,903.83,91.72,907.75Z"/><path class="cls-1" d="M1159.07,914.6a14.6,14.6,0,0,1,.59,5.09,18.13,18.13,0,0,1-3.17,6.06c-.28.36-3.51-.65-3.54-1.15a22.63,22.63,0,0,1,.65-7,25,25,0,0,1,2.39-4.77Z"/><path class="cls-1" d="M1069.92,714.59a99.59,99.59,0,0,1-9.7,6.84c-.88.49-2.89-1-4.31-1.56.91-1.16,1.6-2.84,2.78-3.4,3.13-1.47,6.47-2.44,9.72-3.6Z"/><path class="cls-1" d="M1152.57,153.48c-.65-2.35-2-4.78-1.68-7,.21-1.53,2.62-2.78,4-4.16,1.31,1.51,3.85,3.16,3.68,4.48a24.35,24.35,0,0,1-3.47,7.18Z"/><path class="cls-1" d="M1053.78,1047.57c2.15,3.34,4.31,5.13,4,6.25-.54,1.94-2.59,3.45-4,5.15-1-1.25-2.87-2.52-2.85-3.75C1051,1053.28,1052.27,1051.36,1053.78,1047.57Z"/><path class="cls-1" d="M1824.08,920.34c-1.1-1.23-1.53-1.51-1.53-1.75.26-3.23.58-6.46.89-9.7.9.26,2.41.28,2.62.82C1827.57,913.33,1828.2,917,1824.08,920.34Z"/><path class="cls-1" d="M1145.54,154.49c-3.27,1.9-4.85,3.52-5.77,3.19a32.88,32.88,0,0,1-6.36-3.7c1.14-1.12,2.45-3.28,3.42-3.13A44.06,44.06,0,0,1,1145.54,154.49Z"/><path class="cls-1" d="M1015.66,660.85c-1.69-1.9-3.67-3.52-3.43-4a11.06,11.06,0,0,1,4.31-4.87c.82-.37,2.93,2,4.46,3.15Z"/><path class="cls-1" d="M1833.91,906.67l-6.47-10.53C1835.44,896.76,1835.44,896.76,1833.91,906.67Z"/><path class="cls-1" d="M188.85,107.39c4-6,8.83-4.6,13.62-3.71l.26,2.28Z"/><path class="cls-1" d="M995.16,715l12.93,2.16C1003.31,719.74,998.7,720.43,995.16,715Z"/><path class="cls-1" d="M260,187c3,1.53,5.8,2.88,8.52,4.31a5.31,5.31,0,0,1-.67,1.72,78.77,78.77,0,0,1-9-1.81c-.58-.17-1.25-1.85-1-2.61S259.3,187.53,260,187Z"/><path class="cls-1" d="M1906.58,514l-6.77,9-2.3-1.53,6.2-9.44Z"/><path class="cls-1" d="M191.13,858.85c-3.36,1.6-4.76,2.78-6.14,2.78a14,14,0,0,1-4.63-1.74c1-1.12,2-3,3.21-3.17C185.33,856.57,187.23,857.65,191.13,858.85Z"/><path class="cls-1" d="M274.14,864.35l-4.91-3.49c1.36-.8,2.87-2.44,4-2.16,1.59.35,2.91,2,4.31,3.15Z"/><path class="cls-1" d="M953.74,639.3c1.38,2,2.89,3.44,2.63,3.88a33.75,33.75,0,0,1-4.07,4.93c-.71-.62-2.16-1.53-2-1.83C951.15,644.21,952.28,642.25,953.74,639.3Z"/><path class="cls-1" d="M311,938.61c-1.42-2.05-3-3.62-2.73-4.11a23.84,23.84,0,0,1,3.9-4.31c.79.86,2.43,2,2.26,2.54A35.67,35.67,0,0,1,311,938.61Z"/><path class="cls-1" d="M94.48,860.9l-4.92,8.86-2-1c1.4-3.23,2.82-6.47,4.31-9.66Z"/><path class="cls-1" d="M1083.37,722.2c-.45,2.8-.93,5.58-1.4,8.36l-3.06-.39c.21-2.88.41-5.77.62-8.62Z"/><path class="cls-1" d="M893.7,512.92a11.09,11.09,0,0,1-4,1.06,14.83,14.83,0,0,1-4.11-2.16c.73-1.05,1.4-2.93,2.15-3a11.23,11.23,0,0,1,4.31,1.48Z"/><path class="cls-1" d="M57,1036.69c0-.32-.39-.76-.26-1,1.29-2.37,2.63-4.72,4-7.09.73.71,2.15,1.7,2.15,2.15-1,2.55-2.26,5-3.47,7.4Z"/><path class="cls-1" d="M1919.21,494.84l-4.7,8-2.16-1.15,3.84-8.25Z"/><path class="cls-1" d="M891.61,1009.86h6.85a5.79,5.79,0,0,0,.15,1.55l-6.87.58Z"/><path class="cls-1" d="M915,1066.79a40.92,40.92,0,0,1-4.18,4.55c-.17.15-1.81-1.46-2.76-2.26a46.78,46.78,0,0,1,4.07-4.14C912.28,1064.77,913.53,1065.85,915,1066.79Z"/><path class="cls-1" d="M1372.58,677.38a23.39,23.39,0,0,1-4.46,3.34c-.54.21-1.75-1.19-2.66-1.86a21.85,21.85,0,0,1,3.71-3C1369.67,675.63,1370.83,676.58,1372.58,677.38Z"/><path class="cls-1" d="M878.55,647.49a34.64,34.64,0,0,1,.65,6c0,.67-1.23,1.23-1.9,1.86-.75-1.25-2-2.48-2.15-3.77C875.15,650.65,876.68,649.66,878.55,647.49Z"/><path class="cls-1" d="M1246.1,913c-.93,1.14-1.38,2.32-2.16,2.54a33.45,33.45,0,0,1-5.62.84,5.43,5.43,0,0,1-.41-.84,30.79,30.79,0,0,1,4.74-3.08C1243.4,912.1,1244.67,912.69,1246.1,913Z"/><path class="cls-1" d="M690.59,917.26H678.35v-.5h12.24Z"/><path class="cls-1" d="M689.47,910.85H677.74v-.56l12.46-.71Z"/><path class="cls-1" d="M197.7,777l3.93,6.12-2.16,1.4-4.12-6.08Z"/><path class="cls-1" d="M207.47,800.93c-5.31.79-5.78-2.16-6.17-5,0-.24.35-.56.54-.84Z"/></g></g><g id="tag"><circle class="cls-2" cx="984.81" cy="416.38" r="17.5"/></g><g id="cardFin"><g id="finGroup"><rect id="cardRect" class="cls-3" x="828.81" y="185" width="312" height="191" rx="20"/><circle id="obv" class="cls-3" cx="984.81" cy="185.5" r="51.5" transform="translate(643.96 1127.88) rotate(-80.78)"/><circle id="photo" class="cls-4" cx="984.81" cy="185.5" r="41.5" transform="translate(643.96 1127.88) rotate(-80.78)"/><path id="button" class="cls-5" d="M889.81,331a10,10,0,0,0-2.94-5.1,22.14,22.14,0,0,0-4-2.57,22.75,22.75,0,0,0-4.2-2.14,10,10,0,0,0-5.89,0,22.75,22.75,0,0,0-4.2,2.14,22.14,22.14,0,0,0-4,2.57,9.91,9.91,0,0,0-2.94,5.1,42.3,42.3,0,0,0,0,9.41,10,10,0,0,0,2.94,5.1,44,44,0,0,0,8.15,4.7,10,10,0,0,0,5.89,0,44,44,0,0,0,8.15-4.7,10,10,0,0,0,2.94-5.1,44.85,44.85,0,0,0,0-9.41Zm-10.95,7-3.57,1.88a2.72,2.72,0,0,1-4-2.3v-3.75a2.72,2.72,0,0,1,2.82-2.62,2.85,2.85,0,0,1,1.18.32l3.57,1.87a2.57,2.57,0,0,1,0,4.6Z"/><path id="progress" class="cls-6" d="M1060.56,332.19v8m8-5v1m-16-10v19m-8-15v11m-8-7v3m-8-7v11m-8-13v15m-8-11v7m96.42-9v11m-8-7v3m-8-7v11m-8-13v15m-8-11v7m-72.42-17v27m-8-23v19m-8-25v31m-79-19v8m-8-5v1m16-10v19m8-15v11m8-7v3m8-7v11m8-13v15m8-11v7m8-17v27m8-23v19m8-25v31"/><g id="geoGroup"><path class="cls-7" d="M876.78,286.75a4.42,4.42,0,0,1,6.24-.11l.11.11a4.77,4.77,0,0,1,0,6.59l-2.83,2.91a.49.49,0,0,1-.68,0l0,0-2.82-2.91A4.75,4.75,0,0,1,876.78,286.75Z"/><circle class="cls-8" cx="879.95" cy="289.9" r="1"/></g><g id="close"><circle id="bgClose" cx="1139.25" cy="187.95" r="15"/><path id="fgClose" class="cls-9" d="M1135.79,184.49l6.92,6.92m0-6.92-6.92,6.92"/></g></g></g></svg>