<?xml version="1.0" encoding="utf-8"?>
<!-- Generator: Adobe Illustrator 25.2.3, SVG Export Plug-In . SVG Version: 6.00 Build 0)  -->
<svg version="1.1" id="Слой_1" xmlns="http://www.w3.org/2000/svg" xmlns:xlink="http://www.w3.org/1999/xlink" x="0px" y="0px"
	 viewBox="0 0 1920 1080" style="enable-background:new 0 0 1920 1080;" xml:space="preserve">
<style type="text/css">
	.st0{fill:#F2F2F2;}
	.st1{fill:#DA49E2;}
	.st2{fill:#2EFF98;}
</style>
<g id="map">
	<g id="sFFT8b.tif">
		<path class="st0" d="M705.7,284.8c15.6-6,30.1-3.2,44.6,3.9c8,3.9,16.8,6.4,24.9,10.2c9.6,4.6,12.7,14.3,6.4,20.6
			c-2.9,2.7-6.8,4-10.6,3.9c-12.1-1.4-24.1-3.9-36.1-5.8c-4.1-0.7-9.7-3.8-11.8,1.8c-2.6,6.8,4,8.2,8.4,9.4c8.1,2.4,8.6,9,9.8,15.3
			c2.1,11.5,9.8,17.8,21.1,17.2c8.7-0.5,10.2-3.3,6.5-11.8c-0.5-1.1-0.8-2.2-1.6-4.2l21.5-1.2c2.3-5.7-5.4-10.2,0-15.5
			c4-3.9,7.6-6.7,13.8-5.7c9.3,1.5,11.6-1.9,8.1-10.9c-1.5-3.4-3.2-6.7-5.2-9.8c-1.1-1.7-2-3.6-2.8-5.4c-1.1-3.6-3.9-9.1-2.4-10.9
			c4.4-5.4,10.4-1.9,15.8-0.2c5.4,1.7,6.8,5.7,5.7,10.6c-0.9,4.2-2.2,8.4-3.3,12.7c15.1,1.7,15.3,1.4,18.1-11.1
			c0.8-3.4,3-6.4,5.8-8.3c9.3-5.8,19.1-10.9,28.8-16.1c2-1.1,5.8-2,6.6-1.1c5.8,7.1,11.8,3,17.7,0.8c9.6-3.7,21-4.6,25-17.2
			c0.5-1.4,5.9-2.3,8.7-1.7c15,3.2,31,3.6,44.2,13.4c0.5,0.4,1.5-0.2,2.8-0.3c0.9-9.9-0.7-17.8-11.8-22.2
			c-8.9-3.6-11.7-22.6-4.9-29.6c3.5-3.6,4.6-6.3,2.9-11.6c-3-9.5,0.5-12.5,10.7-11.5c12.5,1.2,15.2,3.2,16.4,15.2
			c1.5,14.9,5.1,28.4,15.5,40.1c8,9.1,4.3,27-5.7,34.4c-1.7,1.2-4,2.1-4.8,3.7c-1.2,2.4-1.6,5.2-1.1,7.8c1.1,2,3.2,3.3,5.5,3.6
			c6.1-0.3,12.2-1.1,18.1-2.4c2.2-0.8,3.9-2.7,4.6-4.9c0.8-9.6,5.4-18.8,1.9-28.8c-2.7-7.7,0-9.8,8.5-8.7c2.6,0.1,5.1-0.2,7.6-0.6
			c-0.3-3.1,0.4-7-1.2-9.3c-2-2.3-5-3.6-8.1-3.6c-4.6,0-10.9,3.8-13.4,1.9c-3.6-2.7-4.8-9-6.5-14c-3.9-11.6-7.7-23.2-11.2-35
			c-0.9-3.7-1.7-7.4-2.2-11.2l3-1.5c3.3,3.7,6.8,7.4,9.9,11.3c3.6,4.6,7.4,6.7,12,1.6c4.2-4.6,9-4.7,14.3-2.2c3,1.3,6.1,2.4,9.2,3.3
			c12.1,4.2,13.7,3.6,22.9-8.3c-5.3-2.4-10.4-4.7-15.5-7.1c-8.9-4.1-12.3-11.6-6.6-19.7c9.5-13.7,18-28,31.6-38.6
			c21.1-16.5,43.7-31.1,67.5-43.4c5.2-2.7,11.2-4.6,6.4-13.6c-1.5-2.7,3.7-9.8,7-14c0.6-0.8,7.7,1.6,9.8,4.2c6.6,8,14,8.7,22.8,4.6
			c3-1.4,6.5-1.7,9.3-3.2c11.4-6.1,22.2-2.3,33,1.4c2.2,0.8,4.1,2.4,5.2,4.6c3.6,8,0,21.6-6.9,27.7c-9.5,8.4-19,16.7-28.7,25
			c-3.6,3.1-6.1,6.5-4.9,11.6c0.8,3.6,1.4,7.7,6.3,7.6c4.4-0.2,8.9,0.2,10.9-5.7c5.2-16.2,16.4-25.3,33.5-27.6
			c10.1-1.1,20.2-2.9,30.1-5.2c6.8-1.7,11.5-0.8,16.5,4.2c6.5,6.3,15.6,6,20.9-1c2-2.6,1.5-7.5,1.1-11.3c-1.1-9.8-0.8-10.7,9.3-10.5
			c10.5,0.2,20.9,1.2,32.9,2c-2,4.9-3,7.9-4.2,10.7c-4.3,9.6-4.4,10,5.5,12.1c10.4,2.1,20.9,3.6,31.3,5.7c6.5,1.3,8.7-1.5,7.4-7.2
			c-1.7-6.7,0.8-8.5,7.1-9c11.8-1.1,23.5-2.7,35.2-4.5c8.2-1.1,11.1-7.9,6.7-15c-5.5-8.7-2.9-16.5,7.1-18.8
			c13.4-3.4,27.1-6,40.8-7.7c8.3-0.8,17,1.3,25.3,2.8c10.4,1.9,20.8,4.3,31,7.1c5.8,1.6,10.6,0.9,14-4.1
			c11.3-17,28.4-10.4,43.6-10.3c2.4,0,5.5,5.2,7.4,8.6c5.4,9.1,5.2,9.3,15.3,5.5c10.7-4,21.5-7.9,31.9-12.7c7.7-3.6,14.5-4.1,22.1,0
			c3.9,1.8,8,3.3,12.3,4.6c4.7-14.7,4.7-14.7-10.3-25.3c4.2-2.4,7.6-5.4,11.4-6.1c18.4-3.6,36.8-6.8,55.4-9.5
			c4.9-0.3,9.7,0.5,14.3,2.3c9.8,3,19.4,6.5,29,9.8c13.8,4.7,28.8,7.4,37.1,23.9c2.5-3.3,4.8-6.7,6.8-10.2c2.6-5.4,6.1-7.4,11.8-4.9
			c1.5,0.6,3.1,0.9,4.6,1.5c6,2.4,11.9,5.1,17.8,7.6c-2.8,5.2-5.2,10.6-8.5,15.5c-2.7,3-2.4,7.4,0.5,10.1l0,0l0,0
			c0.2,0.2,0.5,0.4,0.8,0.6c1.2,1.1,2.3,2.3,3.4,3.5c2.7,3,6,5.4,4,10.5c-2.3,6-7.1,4.6-11.3,4.6c-13.4,0-25.8-4.2-37.6-9.8
			c-3.4-1.6-6-5.3-8.7-8.2c-2.2-2.3-3.9-6-7.8-3.1c-3.2,2.4-6.8,4.9-4.9,10c1.1,3.5,2.6,6.8,4.2,10.2c3.2,5.7,2.9,10.2-1.7,15.5
			c-6,6.9-5.7,7.4,1.4,13.4c8.3,7,15.9,15.3,27.7,17.2c2.7,1,4.9,3.3,5.7,6.1c1,4.6-2.9,4.6-6.4,4.9c-8.7,0.5-16.5,5.8-20.3,13.7
			c-4.6,8.1-8.8,16.5-12.5,25c-2.9,8.6-5.2,17.2-7.1,26c-5.2-0.3-10.4-0.2-15.6,0.2c-2.7,0.6-4.9,2.4-6.1,4.9
			c-1.4,8.4-7.7,9.6-14.1,11.3c-14,3.7-14,3.8-12.8,18.4c0.4,4.5,1.4,8.9,1.7,13.4c0.5,7.1,0.7,11.8,10,15c7.1,2.4,11.4,13,16.8,20
			c0.4,1.1,0.2,2.5-0.7,3.4c-7.1,6.9-2.7,13.4,0.5,20c2.2,4.6,3.9,8.6-0.8,13.3c-2.4,3.1-3.8,7-3.9,11c-0.9,12.3-1,24.5-1.7,36.8
			c-0.6,2.7-1.5,5.2-2.9,7.5c-2.3-1.4-5.3-2.1-6.7-4.1c-13.8-19.7-27.4-39.7-41-59.5c-0.8-0.9-1.4-2-1.6-3.3
			c0.6-15-3.9-30.1,1.6-44.8c5.2-13.7,10.8-27.3,16.5-40.8c3.4-7.4,4.7-15.7,3.6-23.8c-0.6-6.1-0.6-12.2,0-18.3
			c0.2-3.4,3.4-7.1-2.4-8.8c-6.4-1.9-13.1,0-14.4,4.9c-0.8,3.3-1.3,7.7,0.3,10.4c4.6,8,1.6,14-3.1,20.2c-4.9,6.5-11.6,5.7-15-1.9
			c-1.5-3.3-1.8-7.2-3.6-10.3c-0.7-1.3-4.9-2.3-5.5-1.6c-4.6,4.9-10.1,9.8-12.7,15.8c-3.7,8.5-5.2,18-7.9,27
			c-1.6,5.4-0.4,8.6,5.3,9.9c2.4,0.5,5.5,0.9,6.7,2.4c0.8,2.1,0.8,4.5,0,6.7c-8.6,0.7-11.8,8.1-17.3,12.7c-1.9,1.2-3.9,2.1-6,2.8
			c-0.5-1.8-1.7-3.9-1.1-5.5c1.8-5.6-1.4-6.8-5.6-6.5c-5.5,0.5-12.3,0.2-16.4,3.1c-13.1,9.1-27.9,13.2-42.9,17.5
			c-7.7,2.2-11.7,5.6-12.3,14.1c-0.8,11.8-3.2,23.4-4.9,35.1c-1.4,11.3-4.8,22.3-9.8,32.6c-3.9,7.6-3.3,8.1,4.7,11.5
			c4.2,1.7,8.3,3.3,12.5,4.9c4.2,1.6,6.7,2.9,9.8-2.7c3.6-6.5,8-5.7,13.7-0.2c18.4,17.9,27.9,41,37,64.1c0.9,3.1,1.3,6.4,1.1,9.6
			c0,9.4-0.5,18.8-0.2,28.2c0.7,20.3-7.8,38.2-14.2,56.6c-2.6,7.5-9.5,8.1-15.3,6.2c-5.8-1.9-9.8-1.1-13.1,3l-8.4-20.1
			c-2.7-6.5-1.1-10.9,5.9-12.6c5.2-1.2,6.8-3.9,6.6-8.5c-0.5-13.9-1.1-27.7-1.9-41.6c-0.2-3.6-2.1-5.7-5.5-3.6
			c-4.1,2.4-9.5,4.9-11.2,8.9c-3.4,8-9.6,8.4-14.9,5.5c-17.2-9.8-37-16-49.1-33.3c-2.4-3.3-6-5.9-7.7-9.4
			c-9.9-19.7-27.5-19-45.4-17.3c-12.1,1.1-16.6,9.3-11.5,20.4c3.6,7.9,6.8,15.5,4.6,24.5c-2,8.4-4.2,11.5-12.8,11.4
			c-8.1-0.2-16.3-1-24.4-2.3c-6.1-1.3-12.4,0.8-16.5,5.5c-5,5.6-9.4,12.6-19,11.3c-7.1-1-13.6-1.3-20.7-4.7
			c-6.5-3.2-16.4,0.2-24.7,0.9c-1.9,0.2-3.5,2.1-5.4,2.7c-6.8,2.3-11.7,0.8-15.3-5.7c-7.6-13.4-22.1-12.1-33.8-16.4
			c-4,4.3-7.7,9-11,14c-0.8,1.3,2.4,5.1,4,7.6c1,1.2,2.1,2.3,3.4,3.2c-5.8,11.3-13.9,12.6-24.8,8.5c-5.7-2.2-11.2-4.9-16.9-7.2
			c-9.4-3.9-9.5-3.9-16,4.7c-3.2,4.2-6.1,8.7-9.4,12.8c-1.7,2.2-3.9,5.4-6.1,5.5c-11.8,0.7-24.2,1.9-33.7-6.6
			c-6.1-5.5-11.8-7.7-19.8-5.8c-4.2,1.1-9,0.6-13.4,1.1c-5.3,0.6-10.6-1.4-14.3-5.4c-9.9-9.8-20.3-19-30.1-28.8
			c-4.9-4.9-9.5-6.8-14.3-0.8c-5.8,7.5-12.1,6.3-19.4,2.6c-7.3-3.7-15.1-6.3-22.1-10.2c-6.7-4.2-15.1-4.2-21.8,0
			c-12.9,7-26.4,13-39.5,19.7c-10.5,5.2-14.7,22.3-8.4,32.3c6.1,9.4,5.8,9-3.6,15c-11.9,7.6-24.3,4.9-36.8,2.8
			c-1.6-0.3-3-1.1-3.9-2.4c-4-6.8-10.9-5.8-17.2-7.2c-16.5-3.4-28.3,5.7-39.8,14.7c-8.1,6.5-6.9,26.3,1.1,32.9c1.3,1.1,2.7,2,3.9,3
			c11.9,9,11.9,9,3.5,21c-5.9,8.4-3.9,10.7,0.5,21.3c3.9,9.6,5.6,19.9,14,27c-1.1,1.3-2.3,3.6-3.2,3.6c-2.8-0.5-5.5-1.3-8.1-2.4
			c-14.5-5.5-29-11.1-43.6-16.2c-3.6-1.3-8.6-2.4-11.6-0.9c-11.6,5.7-20.8-1.1-29.7-5.8c-8.2-4.3-8.1-14.7-1.7-23.4
			s13.7-16.1,17.9-25.3c3.2-6.8,2.3-15.7,2.4-23.8c0-1.3-4.2-3.3-6.6-3.7c-6.4-1.3-12.9-2-19.4-2.3c-6.1,0.2-11.9-3-15.2-8.2
			c-10-14.2-10.2-14-26.9-18.2c0.2-17.5-11.6-32.9-28.6-37.2c-6.5-1.6-8.8-4.1-11-10.5c-2.8-8-7.5-15-6.8-24.2
			c0.4-4.9,1-8.7,5.8-11.1c4-2,7.1-4.7,2.1-9.1c-3.8-3.4-3-7.2-0.7-11.1c0.7-1.4,1.6-2.9,2.6-4.2c13.7-13.9,12.3-28.5,3-44.2
			c-4-7.1-7.3-14.6-9.6-22.5c-1.9-6.5-3-13.3-3.3-20c-0.4-4.9,0.2-9.3-4.9-12.7s-4-9.2-2.8-14.4L705.7,284.8z"/>
		<path class="st0" d="M1571.9,713.7c9.8,1.3,11.5,7.4,11.2,15.1c-1.1,19.9-4.7,38.7-18.4,54.3c-2,2-3.8,4.2-5.5,6.6
			c-8.4,13.2-21.6,22.6-36.8,26.2c-6.8,1.4-12.8,5.6-16.6,11.5c-2.4,4-5.8,4.4-8.3-0.5c-3.3-6.8-8.7-7-14.4-4.4
			c-5.3,2.4-9,1.4-12.8-3c-5.8-6.6-10.8-14.4-21.8-13.4c-11.4,1.3-22.1,6.3-30.4,14.3c-8,7.1-15.4,5.9-18.2-4.3
			c-1.1-4.3-4.3-7.9-8.5-9.5c-10.8-5.2-12.7-10.6-8.6-21.5c1.5-4,4.4-9.3,3-12.4c-2.9-6.5-7.9-12.3-12.5-17.8
			c-3-3.6-7.2-6.1-10.5-9.5c-4.1-4.8-11.2-5.8-16.5-2.4c-4.7,2.5-9.2,5.4-13.4,8.6c-26,19.4-52.7,15-79.8,2.7
			c-3.3-1.7-6.5-3.5-9.5-5.6c-6-3.9-12-6.3-19.7-3.9c-6.5,2-12.7,0-18.4-3.9c-4.9-3.3-7.9-7.1-7.1-13.1c1.5-11.1-3.1-19.7-10.2-27.6
			c-6.7-7.7-12.7-16-18.9-24.1c-4-5.2-7.8-10.3-15-11.8c-2.6-0.9-4.7-2.9-5.9-5.3c-2.4-4.9-4.9-9-11.5-9.4c-5.2-0.3-5.6-4.5-3.7-8.1
			c2.9-5.5,6.1-10.9,14.2-8.2c5.4,1.8,9.3-0.8,12.3-5.4c6.5-9.4,13.1-18.7,20.1-27.8c3.9-5.1,4.3-9.7-0.4-13.9
			c-8.7-7.7-8.3-15.9-2.6-24.9c1.7-2.8,3-5.8,4.2-8.9c2.9-7.1,6-13.2,15.7-12.3c2.4,0.3,6.5-3.1,8-5.8c3-5.3,4.6-11.4,7.1-16.8
			c3-6.2,7.5-6.8,10.5-0.9c3.4,6.8,7.4,11.5,15.2,14c3.7,1.2,5.7,7.6,8.4,11.7c1.2,1.6,2.3,3.4,3.1,5.2c5.5,14.3,16,19.7,30.9,17.8
			c3.3-0.2,6.5-0.1,9.8,0.2c5.8-0.3,11.2,3.3,13.1,8.9c4.8,11,23.3,17.2,34.2,12.3c3-1.4,5.9-2.8,8.7-4.5c4.1-3,9.8-2.7,13.6,0.8
			c11.8,10.1,24.8,5.5,37.1,2.3c8.6-2.7,16.8-6.3,24.7-10.7c3.9-2.1,7.4-5,10.1-8.5c7-8.6,13.4-17.5,20.1-26.3
			c3.7-4.9,7.2-9.4,13.7-11.5c3.4-1.1,5.8-6.1,7.9-9.8c3.1-5.7,4.9-11.7,13.3-12.3c5.4-0.5,5.9-7.7,0.8-11
			c-6.8-4.3-13.7-9.3-22.6-4.2c-3.9,2.2-8.7,4.3-10.9-2.4s0.4-14,5.8-16c5.4-2,12.5-2,13.7-8.7c1.3-8.3,1.7-16.8,1.1-25.1
			c-0.2-3.8-3.2-7.4-4.6-11.3c-2.3-6.5,0-10.6,6.8-11.2c8.6-0.5,17.2-0.5,25.7,0.2c2.4,0.5,4.5,1.8,6.1,3.6c2,2,3.9,4.2,5.5,6.5
			c14.6,22.5,36.1,36.1,59.5,47.3c3.6,1.7,7.5,2.8,11.5,3.4c6.2,1,11.2-0.5,13.1-7.7c0.6-2.2,3.5-3.7,5.3-5.6
			c1.3,2.3,2.3,4.8,2.9,7.4c0.5,7.4,0.2,14.7,0.5,22.1c0.2,6.1,0.2,11.6-8,12.4c-2,0.9-3.6,2.8-3.9,5.1c0.4,5.5,1.2,11.1,2.4,16.5
			c0.4,1.9,2,3.6,2.7,5.5c2.4,7.7-4.6,11.5-7.4,17.2c-2.7,5.6-1.1,12.6-10.9,14c-8.8,1.2-14.7,9.6-15.9,18.1
			c-1.4,10.2-9.8,13.3-15.3,19.4c-0.5,0.5-4.9-1.1-5.3-2.3c-0.5-3.6-0.8-7.3-0.6-10.9c-0.5-7.5-6.4-11.1-12.3-6.8
			c-11,7.7-16.2,19.4-18.4,32c-1.1,6.6,13.5,19,20.4,17.9c2.5-0.9,4.6-2.7,6-4.9c4.2-6,12-8.5,19-6.1c4.1,1.6,4.6,4.5,1.6,7.5
			c-1.7,1.7-4.2,2.6-6.1,4.1c-12.8,10.8-13.4,24.9-1.7,36.8c5.5,5.5,11,11,16.4,16.5C1579.2,695.2,1579.7,699.2,1571.9,713.7z"/>
		<path class="st0" d="M372,109.2c4.3-4.7,8.9-9.2,13.8-13.2c4.2-3,9-5,14-6c7.2-1.4,14.6-2.1,21.9-2.2c3.9-0.4,8,0.4,11.5,2
			c6.8,4,7.1,8.3,1,13.3c-13.7,11.4-25.4,25.3-42.6,32.4c-3.9,1.6-6,8-8.2,12.5c-2,4.1-0.3,6.5,4.6,7.7c11.4,2.9,15.2,13.2,8.5,22.7
			s-13.7,18.4-20.3,27.6c-5.2,7.2-4.9,7.2,2,13.3c1.4,1.7,2.4,3.5,3.2,5.5c-2.7,1.3-5.8,4.2-7.7,3.6c-5.3-2.1-10.4-4.6-15.3-7.5
			c-7.7-3.9-19-1.5-23.9,5.3c-1,1.2-1.4,2.8-1.1,4.4c2.8,7.8,3.7,16.6,14,19.8c5.7,2.2,10.8,5.6,15,10c7.4,7.1,6.1,17.4-3.3,20.7
			c-12.6,4.8-23.8,12.4-32.9,22.5c-8.3,8.5-19.7,6.4-28.8,3.2c-9.8-3.4-15.3-1.1-20.1,6.8c-9.3,15.6-24.5,26.7-42.1,31
			c-10.6,2.9-18.2,9.6-25.3,18.1c-11.2,13.4-20.7,27-23.4,44.8c-0.7,4.2-1.6,9-7.9,9.2c-6.3,0.2-8.5-4-10-8.9
			c-0.8-2.7-0.6-5.8-1.8-8.3c-0.8-1.7-3.6-4-4.9-3.7c-15.6,3.9-20.2-8.7-25-18c-4.6-9-9.3-19-4.5-30.4c1.4-3.4-0.8-8.7-2-12.9
			c-3.9-15-2.4-28.8,7.2-41.4c7.4-9.6,14.5-19.7,22.1-29.7c-7.4-4.1-13.7-7.7-20-11.2l0.9-2.4c1.8-0.2,3.7-0.5,5.6-0.6
			c4.5-0.3,9.5,0.3,9.8-6.4c0.5-5.5-3.2-10.7-8.7-11.8c-4.6-0.8-9.3-1.1-13.9-1.1c0.2-2.1,0.8-4.2,1.7-6.2
			c7.6-10.7,4.9-20.9,0.6-32.2c-5.1-14.1-11.4-26.8-22.2-37.4c-5.8-5.7-11.2-9-19.4-7c-3.9,0.9-8,1-12,2
			c-11.7,2.9-19.2-3.1-19.1-15.2c-0.3-2.7-0.9-5.3-1.7-7.9c-0.6-2.4-1.1-4.9-1.6-7.4c2.6,0.3,5.7-0.2,7.7,1c8.3,5.1,15,0.7,21.6-3.2
			c1.7-1,3.6-4.5,3.1-5.6c-1.3-2.3-3.5-3.9-6.1-4.6c-3.3-0.2-6.5,0.2-9.6,1.3c-6.8,1.7-11.2-1.9-14.2-7c-1.1-2.8-0.8-5.9,0.6-8.5
			c0.7-1.3,5.3-2,6.9-1.1c9.1,5.8,17.5,0.8,25.9-1.1c5.2-1.1,4.4-6.1,4.4-10.2c0-9.8,4.9-14.5,14.7-13.7c3.3,0.2,6.5,1.1,9.6,1.4
			c3.9,0.4,7.2-0.2,8.2-5.1c1.8-9,9.8-11.1,16.8-11.5c8.1-0.2,16.3,0.8,24.2,2.9c2.4,0.5,5.2,3.9,6.4,6.7c3,7.2,7.8,9.5,15.3,9.3
			c6.8-0.2,10.5-2.8,11.7-9.8c0.2-1.3,4.9-3.3,6.5-2.7c5.8,2.4,12.1,4.9,16.6,9.1c9.8,9,9.3,9.5,19.8,1.5c2.4-1.9,4.6-4.2,7.9-7.1
			c-4.8-2.2-8.4-3.7-12-5.6c-4.2-2.1-3.6-5.2-0.7-7.8c3.7-3.4,10-1.4,14.4,1.3c6.6,3.6,13.6,6.6,20.8,9c0.9,0.3,3.9-1.8,4-3
			c0.5-8.1,6.5-9.1,12.3-8.8c11.8,0.5,23.5,1.6,35.1,3c6.8,0.8,13.6,3.3,20.4,3.8c10.9,0.8,16.5,7.2,21.3,18.4l-25,0.4
			c-4.1,0-8.2,0.5-12.3,0.2c-10.7-0.9-16.8,4.2-19.9,15.4c6.7,0.4,13.4,0.3,20.1-0.2c6.8-1,12.7-1,17.9,4.4c3.4,3.4,6.5,2.4,8.8-1.5
			c1-1.7,2-4.4,3.5-4.9c3.3-0.7,6.7-0.9,10.1-0.8c0.4,2.6,0.4,5.2,0,7.7c-1.8,5.4-4.3,10.5-6.5,15.7L372,109.2z"/>
		<path class="st0" d="M1208.5,512.1c-2.7,6.6-4.4,12.5-7.6,17.5c-2.2,2.7-5.4,4.2-8.9,4.3c-6.5,0-9.6,2.9-11.8,8.3
			c-2.5,6.5-5.5,12.7-8.8,18.9c-5.5,9.5-6.3,17.7,2.4,26c4.9,4.7,4,9.8-1.4,13.1c-2.4,1.2-5.1,1.7-7.7,1.3c-11.4-1.3-22.6-3-34-4.4
			c-2.4-0.3-6.5-1-7,0c-4.6,9.3-12.3,7-20,6.4c-1.2-0.1-2.9,1.3-3.9,2.4c-3.6,4.2-6.8,8.7-10.5,12.7c-8.9,9.3-21.9,8.9-28.5-2.3
			c-8-13.4-17.2-20.6-33.5-15.9c-7.4,2.1-13.9-0.8-19.7-6.8c-9.5-9.8-26.2-11.2-38.5-5.5c-6.7,3-8.1,7.4-6.3,13.7
			c1.7,6.3,4.2,12.4,5.6,18.7c0.6,2.7-0.8,5.9-1.4,8.9c-2.4-0.9-4.9-1.7-7.4-2.7c-2.4-1.1-4.9-3.4-7.4-3.5c-3.3,0-8.1,3.4-9.6,2.2
			c-7.1-5.8-13.6-12.3-19.3-19.5c-4.9-6.3-3-12,4.2-15.8c3-1.5,6.5-1.7,6.3-6.1c-0.2-5.7-0.7-11.3-1.5-16.9
			c-0.2-1.1-3.3-2.4-5.1-2.4c-3.6,0-7.3,0.4-10.9,1.1c-4.7,0.8-10.4,3.9-13.9,2.3c-6.9-3.5-13.1-8.3-18.2-14
			c-5.2-5.5-1.8-20.5,4.3-25c10.1-7.7,20.8-12.5,34-10.5c5.1,0.8,9.6,1.1,12.6,5.9c1.1,1.7,2.7,3,4.6,3.7c19.7,4,38.1,2.3,54.3-10.9
			c3-2.4,2.7-4.7,0.6-7.4c-2-2.7-3.7-4.4-5.4-6.7c-7.1-9.3-4.6-21.3,5.7-26.6c12.7-6.5,25.7-12.5,38.4-19.1c5.5-3,12.1-3,17.5,0.2
			c8.8,4.3,18,7.7,26.6,12.3c6.8,3.6,11.8,2.9,17.5-2.3c7-6.4,7.4-6,14.7,1.1c9.1,8.7,18.4,17.4,27.2,26.5c4.4,5,11.1,7.3,17.6,5.9
			c5.2-1,10.5-1.6,15.8-1.9c3.1,0,7.4,0,9.1,2C1187.1,509.4,1197,510.9,1208.5,512.1z"/>
		<path class="st0" d="M1123.4,821.1c2.2-0.8,4.4-1.4,6.7-1.9c4.2-0.7,9.5,0.6,10.9-5.5c1.4-6.1,1.7-11.4-3.3-15.9
			c-3.1-2.7-6.1-5.5-8.8-8.5c-3.7-4.2-2.4-8.5,3.1-8.1c11.6,0.8,15.6-6.3,19.4-15c4.1-9.3,8.8-18.4,13.3-27.5
			c5.9-12.3,6.7-11.7-3.7-20.2c-5.8-4.9-5.7-5.1-6.4-15.3c7.2-0.9,14.3-2.1,21.6-2.7c5.6-0.5,15.1,9,16.5,15.9
			c0.5,2,0.5,4.1,0.3,6.1c-1.7,11.5,2.8,19.3,13.3,24.5c3.3,1.7,5.8,6.8,6.5,10.6c1.3,6.8,5.4,9.8,11,13.3
			c18.5,11.2,39.2,9,59.4,11.7c8.7,1.1,6.5-6.1,7.4-9.6c7,1.9,13.2,3.9,19.7,5.2c3.1,0.6,7.4,0.8,9.5-0.9c2-1.7,1.5-5.7,2.2-8.7
			c1.1-5.7,26.3-23.4,31.9-21.8c3,1,5.4,3.3,6.5,6.1c0.8,4.4,1.2,11.8-1.1,13.3c-12,7.4-11,18.9-12.3,30.2c-0.8,8-1.2,16.4-7.5,22.1
			l-12.7-11.2c0.9-1.7,1.7-3.5,2.4-5.3c1.8-5.5-0.3-8.6-6.1-9.2c-6.8-0.8-13.7-1.1-19-6.8c-2-2.2-7.7-4.6-8.8-3.6
			c-3.9,3.3-7.4,8-4.3,13.9c2.2,4.4,4.7,8.7,6.5,13.2c1.5,4.2,2.6,8.5,3.2,12.8c0.3,1.8-0.2,5.2-1.3,5.6
			c-8.7,3.6-9.3,11.2-11.1,18.8c-0.8,3.3-4,6-6.5,8.7c-11.6,12.7-22.8,25.7-35.1,37.6c-6.8,6.1-9.8,15.4-8.1,24.4
			c2.3,16.6-0.8,32.4-6.1,48c-0.6,2-0.7,4.6-2,5.7c-3.4,3.3-7.4,5.8-11.8,7.5c-1.3,0.4-5.1-4.3-6.6-7.4
			c-15.6-31.9-30.9-63.7-46.4-95.8c-3.6-6.5-4-14.3-1.1-21.2c1.6-3.7,2.4-7.8,2-11.9c-0.5-3.1-2.4-5.8-5.2-7.4
			c-4.2-1.8-6,2.2-7.8,5.5c-5.8,10.4-13.1,12.3-20.3,5.7c-4.1-3.7-4.6-8.5-1.3-12.3c6.5-7.5,6.2-8.3-3.8-10.8
			C1126.2,822.7,1124.7,822,1123.4,821.1z"/>
		<path class="st0" d="M1481.6,498.4c-3.2,3.4-7.1,6.5-9.3,10.2c-4.2,7.2-6.5,15.3-16.2,18.2c-3.9,1.1-6.4,7.1-9.4,10.9
			c-2.7,3-5.2,6.4-7.4,9.8c-9.7,17.7-25.8,26.5-43.9,32.6c-12,4-23.9,6.1-34.8-2.9c-6.4-5.4-12-2.8-17.8,0.8
			c-6.8,4.1-13.4,6.8-21.9,3.5c-6.8-2.7-12.7-4.7-14.7-12.7c-1.4-5.5-5.6-7.4-11.2-7.5c-8.1-0.3-16.2-1.7-24.4-1.9
			c-5.8,0.2-11.2-3.2-13.4-8.6c-3.2-6.1-7-12-10.5-17.9c-3-4.9-5.8-9.1-12.3-10.9c-7.1-2-8.8-9.1-4.9-15.6
			c12.1-19.7,12.3-19.7,33.9-10.7c16.8,7,21.6,5.8,34.1-7.4c4-4.2,4.6-7.4-0.5-10.8c-5-3.4-5.7-7.7-1.1-11.9c1.4-1.4,3.3-2,5.2-1.9
			c9,3.3,19.2,3.8,25.2,13.2c6.8,10.5,15,12.3,25.8,6.1c8.5-4.9,15.9-5.8,24.5,0.4c9.3,6.7,30.4,3.9,38-5.2c7-8.3,15-10.4,25-8.7
			c5.1,0.9,8.3,3.2,7.9,8.9c-0.2,2.4,0,4.9,0,7.4c0.2,10.9,5.2,14.7,15.6,10.8C1469.9,494.4,1476.1,492.2,1481.6,498.4z"/>
		<path class="st0" d="M538.1,881.4c-5.5-2.3-11.2-3.6-15.6-6.8c-30.7-23.1-61.1-46.4-91.6-69.8c-2-1.4-3.9-3-5.4-4.9
			c-4.6-6.7-1.4-14.4,6.5-16.8c2.3-0.8,4.7-1.4,7.1-1.9c10.9-1.1,19.2-6.1,23.7-16.5c3-7,8.4-8.7,15.7-9
			c11.8-0.4,12.5-1.7,10.3-13.4c-0.9-4.9-2-9.6-2.9-14.3c-2.4-13.1,0.2-17.8,13.6-21.2c11.1-2.7,22.4-4.6,33.5-6.8
			c3.6-0.7,7.2-1.4,10.9-2c18.7-3.4,26.7,9.8,21.6,25.7c-2.4,7.4-2.4,14.2,2.7,19.1c10.5,9.6,9.8,22.5,11.4,34.5
			c1.2,9.3,0.2,18.7,0.3,28.2c0.2,10.9,2.7,19.7,15.6,22.7c7.9,1.8,8.3,6.4,1.6,11.7c-15.3,12.3-30.7,24.3-46.4,36.1
			C547.4,878.5,542.8,879.5,538.1,881.4z"/>
		<path class="st0" d="M847.5,746.5c6.1,2.6,12.1,5.5,17.8,8.8c5.1,3.5,9.8,7.4,14.2,11.6c6.5,6,13.7,8.4,22.8,9.4
			c11.3,1.1,21.8,6.7,29.1,15.5c8.2,10.2,16.1,20.5,24.1,30.7c1.2,1.1,2,2.6,2.4,4.2c1.2,12.1,9.3,13.4,19.2,13.1
			c4.9-0.2,9.8,1.4,14.6,1.7c7.1,0.3,8.6,4.7,6.7,9.8c-1.5,4.2-4.2,9.5-7.8,11.4c-11.5,6.1-23.3,11.5-35.5,15.9
			c-9.8,3.4-18.8,7-26.1,14.8c-7.3,7.8-7.4,7.1-16.6,2c-1.1-0.5-2.1-1.1-3.2-1.8c-5.6-4-10.9-5.1-16.2,0.8
			c-4.3,4.9-7.4,3.1-10.2-1.9c-2.4-4.3-5.2-8.3-7.6-12.5c-2.8-5.9-7.7-10.6-13.7-13.3c-5.8-1.8-9.3-7.5-8.4-13.4
			c0.7-7.6-2.9-13.2-7.5-18.7c-10.9-12.7-21.4-25.7-32-38.6c-1.9-2.1-3.7-4.4-5.2-6.8c-2.4-4.3-2.4-8.1,3.7-8.7
			c8.7-0.8,13.4-7.4,19-12.4c2-2,3.2-4.6,3.4-7.4C835.2,748.3,835.3,748,847.5,746.5z"/>
		<path class="st0" d="M1042.9,745.8c-9.3,13.6-9.2,13.5,2.2,23c4.1,3.3,7.9,7,11.4,11c6.5,7.9,6.3,8-2,14.3c-1.4,0.8-2.5,2-3.4,3.3
			c-5.7,9.6-5.7,9.6-16.2,7.8c-3.3-0.5-6.5-0.9-9.8-1.1c-4.6,0.1-8.7-2.4-10.9-6.4c-4.9-8.3-8.2-9.6-15.5-4.9
			c-9,5.8-16.8,4.5-25-0.8c-4.9-3-9.8-5.8-14.7-8.7c-4.5-2.4-8-5.2-8.3-11c-0.5-7.2-5.9-11.1-12.3-11.8c-6.4-0.8-10-4.6-13.5-9.3
			c-5.9-8-10.6-16.8-21.9-20c-7.4-2-9.1-10.9-5.2-17.9c2.8-4.2,2.1-9.9-1.6-13.3c-5.2-5.8-10.5-11.4-15.2-17.6
			c-1.7-2.3-3.1-6.5-2-8.7c1.1-2.1,5.2-2.4,8.2-3.2c3-0.7,7.1-0.4,8.9-2.3c5.1-5.3,8.2-3.9,12.9,0.7c6.6,6.1,13.7,11.5,21.2,16.5
			c10.5,7.1,29.4,5.2,38.2-3.8c6.5-6.6,14.2-7.4,22.5-6.4c1.2,0.2,2.4,0.6,3.5,1.1c28.8,9.1,28.8,9.1,31.5,39.9
			c0.8,4,1.4,8,1.7,12.1C1027.5,738.4,1030.5,745.2,1042.9,745.8z"/>
		<path class="st0" d="M721,810.9c0,15.9-0.2,31.9,0,47.7c0.2,12.7-3.6,15.5-15.3,9.6c-16.5-8.1-32.6-16.8-48.9-25.2
			c-6.2-3.5-13.4-4.9-20.5-4.3c-10.6,0.8-22.8-0.8-31.3-10.4c-2.2-2.3-4.9-4-8-4.9c-6.7-1.4-11.4-7.4-11.1-14.3
			c-0.2-11.4-2.3-23.4,0.6-34.1c3.2-11.7,11.2-22.1,17.2-32.9c0.7-1,1.8-1.6,3-1.6c9,2.3,19.7,1.7,25.3,10.1
			c7.1,10.4,18.6,12.9,28.9,17c3.5,1.4,9.6-1.4,13.4-3.9c4.6-3.1,0.4-7-0.8-10.6c-0.6-2.9,0.1-5.8,1.9-8.2
			c5.2-5.4,18.8-5.2,24.9-0.5c3.4,2.6,7.1,5.8,11.2,6.5c6.4,1.1,8,4.1,8,9.8c-0.2,16.7,0,33.5,0,50.2L721,810.9z"/>
		<path class="st0" d="M812.4,965.6c-2-5.5-3.7-11.2-5.9-16.6c-1.3-2.6-2.8-5-4.6-7.4c-2.5,1.7-4.8,3.5-7,5.5
			c-2.4,2.7-4,6.1-6.1,9.1c-0.9,1.3-2.4,3.6-3.3,3.3c-12.3-3-21.1,10.4-33.3,6.4c-2.7-0.8-6-0.8-8-2.3c-5.4-4.3-10.3-5.3-16.6-1.7
			c-5.3,3-9.8-0.8-12.8-4.4c-6.6-8.1-10.7-17.5-8.4-28.3c1-3.4,3-6.5,5.8-8.7c4.5-3.6,6.8-9.3,6.2-15.1c-0.3-5.2-0.2-10.6,0-15.9
			c0.2-5.3-1.4-11.3,6.1-14.4c1.7-0.8,2-6.5,2-9.8c0-9.8-0.3-9.9,9.8-9.8c20.4,0.2,40.8,0.4,61.2,0.8c7.6,0.2,14.6-0.3,19.8-7
			c3.6-4.8,6.5-2.9,9.1,1.6c5.4,9.1,10.9,18.2,16.8,27c3.4,5.1,2.7,9.3-1.4,12.9c-8.3,7.1-9.3,16.3-9.5,26.6
			c-0.4,7.3-2,14.4-4.8,21.1c-3.6,9.3-8.3,18.2-12.7,27.2L812.4,965.6z"/>
		<path class="st0" d="M705.9,955c-16.8,3.2-25.3,16.2-34.7,27.5c-2.6,3.1-4.2,5.5-8.3,5.3c-1.2-0.3-2.4-0.3-3.6,0
			c-11.7,4.9-17.7-1.1-22.8-10.6c-1.7-3.2-3.4-4.9-0.4-8.1c6.3-6.9,3.6-15.4,2.8-23.3c-0.2-1.7-3.1-3.3-4.9-4.5
			c-3.1-1.9-6.5-3.2-9.6-5.2c-1.1-1-1.7-2.5-1.4-3.9c4.2-7.6,8-15.7,13.5-22.3c4.9-5.8,9.3-11.1,8.8-19.2c0.2-2.4,0.5-4.9,1.1-7.2
			c1.4-10.9,2.7-21.8-4-31.9c-1.3-1.9-0.5-5.1-0.7-7.7c2.6,0.2,5.6-0.5,7.7,0.6c19.3,9.8,38.3,19.9,57.5,29.7
			c4.2,2,6.7,6.3,6.1,10.9c-0.2,7.4,0.2,14.7-0.6,22.1c-0.2,3.6-1.8,6.9-4.3,9.5c-10.9,8.6-8.9,19-5.5,29.9
			C703.5,949.2,704.6,951.8,705.9,955z"/>
		<path class="st0" d="M505.9,921.3c6.8-1.4,13.5-2.4,20.3-3c7.5-0.2,9.8-4.2,10.2-10.8c0.2-3.3,0.2-6.5,0.7-9.8
			c0.8-6.2,2.7-10.5,9.8-13.5c8-3.4,14.7-10.2,21.8-15.6c10.3-8,20.5-16.2,30.9-24.1c11.8-9,30.7-4.7,37.3,8.3
			c8.8,18.7,5.7,40.8-8,56.2c-1.9,2.1-4.5,4.2-4.9,6.8c-3.8,18.6-19.7,20.9-33.6,23c-12.1,1.7-25,2.2-36.7-5.5
			c-6.3-4.2-13.9-1.7-19.7,4.3c-8.3,8.7-10.5,8.7-17.6-1.1C513,932.2,510,927.4,505.9,921.3z"/>
		<path class="st0" d="M432,961.2c-7.7,1.6-12.7-1.3-14.6-9.1c-1.4-5.7-4.9-8.3-10.8-7.1c-5.5,1.1-9.6,0.5-11-6
			c-0.3-1.4-1.8-2.7-2.7-4c-6.8-10.1-4.9-14,7.7-14.5c13.1-0.5,26.1-0.2,39.2-0.4c11.8-0.2,12.6-0.8,11.1-12.8
			c-2.4-19.8-5.7-39.5-8.5-59.2c-0.4-2.8-1-5.6-1.1-8.5c-0.4-9.8,4.9-13.2,13.8-9c2.8,1.6,5.5,3.5,8,5.5
			c17.2,13.1,34.4,26.2,51.5,39.2c2.6,2,5.2,3.9,7.9,5.8c3.4,2.4,9.6,4.6,9.8,7.4c0.3,7.3-0.6,14.6-2.7,21.6c-0.5,1.9-5.1,3.5-8,3.9
			c-7.6,1.4-15.3,2.2-23.1,2.3c-9.8-0.3-17.2,3.6-24.4,9.5c-5.3,4.4-11.4,8-16.5,12.7c-4,3.7-8.4,8.1-10.1,13.1
			C444.9,959.8,439.8,962.1,432,961.2z"/>
		<path class="st0" d="M938.4,987c-13.2,13.3-21.1,29.4-40,33.9c-8.3,1.9-16.3,5-24.5,7.5s-15.8,1.7-22.6-4.6
			c-10.3-9.5-23.7-15.9-30.1-29.4c-1.4-2-3.3-3.5-5.5-4.3c-8-3.9-7.9-3.6-2-10.9c2.7-3.6,4.9-7.5,6.7-11.7c4.6-9.9,9-20.1,13.5-30.1
			c5.8-12.9,20.3-16.6,31.6-7.7c8,6.3,18.1,11.8,16.2,25c-0.2,1.3,2.9,4.6,4.4,4.5c7.5-0.3,10.3,4.9,15.2,9.3
			c8,7,18.7,10.9,28.4,15.9C932.4,985.4,935.3,986.4,938.4,987z"/>
		<path class="st0" d="M343.6,908.6v-44.4c6.9-0.3,14.9-0.5,22.8-1.1c10.3-0.6,10.3-0.7,12.7-10.9c0.5-2.3,1-6.1,2.3-6.5
			c9.8-3,7.7-11,8.1-18.1c0.5-8.9,0.9-9.3,10.1-9.8c5.3-0.2,10.6,0,15.9-0.4c2.3-0.2,6.2-0.7,6.6-1.9c3.6-11.7,8.4-3.8,12.7-0.9
			c2.7,1.7,5.1,4,7.7,6.1c-2.9,2.3-6.6,3.9-7.5,6.4c-1.1,3.2-0.2,7.2,0.4,10.9c3.2,22.1,6.6,44.2,9.8,66.4c1.3,9.4,1.1,9.6-8.2,9.8
			c-10.2,0.2-20.4-0.3-30.6,0.5c-6.4,0.5-12.7,2-18.6,4.4c-4.3,1.7-6.8,1.1-9.3-2.4c-1.1-1.7-2.3-3.3-3.6-4.9
			c-7.4-9-14.3-10.9-24.5-6.4C348.8,906.1,347,907.1,343.6,908.6z"/>
		<path class="st0" d="M809.2,703.5c-3.4-7.4-6.2-9.8-12.8-5.2c-7.4,5.5-17.6,5.4-25-0.2c-5.4-3.6-9.8-6-14.5,2.7
			c-3.4,6.5-19.8,6.3-24.5,0.9c-1.1-2-1.6-4.4-1.3-6.8c0.2-5.4-2.3-9-7.4-9.3c-3.9-0.2-5.2-0.9-4.6-4.9c0.2-2.4,0-4.8-0.7-7
			c-2.4-8,0-11.8,8.3-12.8c4-0.5,8.7,0.6,12.1-1c3.9-1.8,6.4-6.8,10.2-8.7c3.9-1.9,9.4-1.7,14-3.2c3-1.4,5.7-3.2,8.1-5.3
			c7.9-6.5,19-6.9,27.5-1.1c10.4,6.8,21.5,6.9,32.9,6.7c2.4,0.2,4.9-0.4,6.9-1.6c4.9-4.7,9.6-4.7,15.3-1.4
			c4.4,2.4,10.9,2.3,10.5,9.8c0.2,1.2,0.8,2.4,1.8,3c9,4.6,7.4,12.6,8.2,20.7c0.7,7.6-3,8.4-8,9c-11.4,1.4-22.7,2.4-34.1,3.5
			C823.3,692.2,813.8,691.9,809.2,703.5z"/>
		<path class="st0" d="M724.8,801.3c0-12.7-0.2-25.3,0-37.9c0.2-9,2.4-10.7,11.4-9.2c3.2,0.6,6.4,1.4,9.4,2.4c6.3,2,12.1,1.9,17.1-3
			c4.4-4.5,8.9-5,14.1-1.5c1.3,1,2.9,1.5,4.6,1.5c11.1-1.7,13.7,5.9,16.1,14.1c1.4,4.7,3,9.3,3.9,14.1c0,2.1-0.5,4.2-1.2,6.2
			c-1.7-1.5-4.1-2.7-4.9-4.6c-1.7-3.6-2.2-7.9-3.9-11.5c-1.1-2.2-3.8-3.6-5.7-5.4c-1.2,2.6-4,5.7-3.4,7.7c1.9,6.6,4.8,12.8,8.6,18.6
			c6.5,9.3,14.3,17.8,21.2,26.8c6,7.9,6.6,17.7,2.2,23.8c-2.8,4.6-8,7.2-13.4,6.9c-22.1-0.8-44-1.1-66-1.5c-6.8,0-9.4-3.1-9.3-9.8
			c0.2-12.7,0-25.3,0-37.9L724.8,801.3z"/>
		<path class="st0" d="M668,325.5c1.5,6.4-1.1,11.7-7.7,15.4c-4.9,2.8-7,6.9-7.7,12.9c-1.1,8.2-6.2,15.3-13.5,19.2
			c-9.9,5.5-15,16.8-12.7,27.9c1,3.8,4.6,7.4,7.7,10.2c8,7.1,9.5,10.4,1.7,17.9c-8,7.1-11.7,17.9-9.8,28.5c0.7,5.1-1.4,8.1-6.1,10.6
			c-4.1,2.4-7.7,5.4-10.9,9c-3.3,3.6-6.2,3.3-6.8-1.1c-1.8-11.8-8.7-20.9-14.2-30.8c-1.7-3.5-1.6-7.6,0.2-11
			c8.6-11.4,8.7-24.3,9-37.3c0.2-6.5,0.2-13.1,0.5-19.7c0.2-2.7,0-6.8,1.7-8.1c8.3-7.1,7.7-16.7,8.1-25.8c0.2-6.1,2.2-12,5.8-16.9
			c5.4-7.2,10.2-14.8,15.6-22.1c5.7-7.5,9.8-8.3,18.7-4.3c1.1,0.5,2.3,1,3.4,1.4C665.5,305.8,667.6,308.9,668,325.5z"/>
		<path class="st0" d="M1176.1,695.2c-8.3,1.1-15.5,2.4-22.6,3.1c-4.9,0.5-6.1,2.9-5.2,7.4c1.4,6.5,3.2,12.7,9.3,16.5
			c5.7,3.6,5.6,8,2.7,13.5c-4.9,9.4-9.6,18.9-13.7,28.6c-3,7.1-7.2,11.4-15.2,11.8c-4.6,0.2-9.8,1.1-9.8,6.9c0,3.4,2.7,7.1,4.6,10.2
			c1.2,1.7,2.7,3.1,4.3,4.3c3.7,3.4,7.7,7.6,4.9,12.4c-1.4,2.4-6.8,2.7-10.2,3.9c-1.1,0.4-3,0.2-3.4,0.9c-5.5,8.3-10.5,3.3-14.3-1.2
			c-10.2-12.4-23.8-10.2-37.2-9.1c-2,0.2-3.9,2-5.7,1.7c-3.3-0.7-6.5-1.6-9.6-2.8c1.4-2.5,3.3-4.9,5.4-6.9c7.1-5.2,7.7-6.8,3.6-15
			c-0.9-1.8-2-3.5-3.8-6.8c7.5-2.9,14.4-5.8,21.6-8c6.6-2.1,11.8-4.7,12.4-12.9c0.5-6.4,6-9.6,11.1-12.1
			c8.8-4.3,12.8-11.5,15.2-20.6c2.1-8.1,6.1-15.7,9.1-23.6c0.7-1.8,1.4-4.5,0.6-5.7c-4.9-7.7,1.1-10.1,5.9-13.1
			c22.1-13.9,21.3-12,34.4,6.8C1172.1,688.3,1173.8,691.5,1176.1,695.2z"/>
		<path class="st0" d="M796.5,594.4c-4.6,3.6-8,5.6-10.5,8.6c-2.9,3.4-6.2,7-9.8,3.4c-3.1-3-6.1-8.7-5.3-12.3
			c1.2-5.2,1.6-8.3-3.4-10.9c-5.6-3-10.1-2-14,3c-1.6,2.4-3.6,4.6-5.8,6.4c-2,0.9-4.2,1.4-6.4,1.6c-0.5-2-0.8-4.2-0.8-6.3
			c0.5-3.8,3.4-8.3,2.1-11.2c-2.4-5.2-6-9.7-10.5-13.2c-2.3-1.8-7.9-2.4-10-1c-9.3,6.7-19,2.7-28.5,1.9c-5.9-0.5-7.6-4.3-5.7-9.6
			c1.4-3.8,3.4-7.4,4.9-11.2c1.1-2.6,2-5.3,2.7-8c0.8-3.3,0-8.7,1.8-9.6c4.3-2,9.1-2.8,13.9-2.4c9.3,0.4,18.5,1.8,27.8,2.7
			c4.9,0.8,9.8-1.8,11.8-6.5c4.9-9.2,15.2-10.2,23.6-3.3c1.6,1.2,3,2.8,3.9,4.7c6.4,14,18.2,17.2,32.1,17.4c4.4,0,11.6-2.4,12.6,3.9
			c1.1,6.8,2.4,15.4-4.2,20.6c-9.8,7.9-17.8,19.9-33.1,18.3c-2.2,0.4-4.1,1.8-4.9,3.9c-0.2,1.5,1.9,4.2,3.6,5
			C788.4,591.8,792.4,593.3,796.5,594.4z"/>
		<path class="st0" d="M1038.9,700.9c9,4.1,15.4-2,21.6-9.2c2.1-2.4,4.7-4.6,6.7-7.1c5.5-7,11.7-10.2,21.2-8.4
			c7.7,1.5,15.5,0,18.6-9.5c0.4-1.3,3.1-2.2,4.9-2.4c0.7,0,2.2,2.3,2.4,3.6c0.5,5.3,1.6,9.8,8.1,10.2c0.5,0,1,1.7,1.1,2.7
			c0.3,3.4,0.5,6.8,0.7,10.1c0.2,2,0.2,3.9-0.3,5.8c-2.9,8.4-6.7,16.5-8.7,25.1c-1.3,6.5-5.5,11.9-11.3,15
			c-7.1,3.9-13.4,7.9-15,17.7c-1.4,8.8-30.7,17.2-38.3,12c-7.6-5.2-7.6-6.1-3.9-14.9c2-4.9,1.2-9.6-4.2-10.7
			c-7.9-1.6-9.1-7.1-9.8-13.4s-1.7-12.9-2.4-19.4C1029.2,702.6,1031,699.3,1038.9,700.9z"/>
		<path class="st0" d="M705.3,285c-3.2-3-6.1-6.3-8.7-9.8c-2.9-4.6-5.8-4.9-10.1-2.3c-5.2,3.3-10.9,5.7-11.5,13.1
			c-0.5,5.2-3.9,5.1-8,3.4c-4.2-1.5-8.5-2.7-12.8-3.6c-2-0.5-4.6-1.4-5.9-0.5c-8.2,4.9-16.1,10.5-23.4,16.5
			c-4.5,3.9-6.8,10.1-10.7,14.8c-8.2,10.2-13.5,21.1-12.5,34.8c0.2,3.3-1.1,8.1-3.4,9.8c-6.3,4.9-6,11.1-6,17.6
			c0,9.4-0.4,18.8,0,28.2c0.6,8-2.2,15.8-7.7,21.6c-2.4-3.6-4.3-8.5-9.1-1.5c-4.3,5.9-9.4,11.3-15.2,15.8
			c-6.1,4.9-12.8,4.2-15.4-2.4c-6.4-15.6-10.4-31.7-5.2-48.6c0.8-2.6,2.7-6.4,4.6-6.8c8.8-1.6,12.3-7.7,16.2-14.7
			c3.1-5.4,7.7-11.8,16.7-7.4c2.2,1.1,7-1.1,9.3-3.1c1-0.8-1.2-5.2-1.7-8.1c-0.4-2-1.1-4.5-0.3-6c5.6-10.3,11.4-20.6,17.5-30.6
			c3.3-5.4,7.6-10.2,11.4-15.3c0.7-1,2.3-1.9,2.1-2.7c-1-10.5,7.9-14.3,14.3-17.8c7.1-3.9,16.9-2.7,20.4-12.8c3,0,5.8,0.8,8.4,2.1
			c4.7,3.6,7.2,3.3,10.6-2c4.1-6.4,28.5-8.2,34.1-3.3c0.3,0.2,0.8,0.5,0.8,0.8c0.6,6.8,1.2,13.6,1.8,20.4L705.3,285z"/>
		<path class="st0" d="M648.9,293.5c7.9-3.6,14.2-0.8,20.1,2.4c4.9,2.8,8.5,3.2,9.8-3.4c1.4-6.6,3.4-15,10.5-14.4s7.7,10,11,15.9
			c5.8,10.3,6.1,21.8,9.3,32.6c3.2,11.3,8.7,21.9,13.3,32.9c1,2.7,2.1,5.3,3.4,7.8c4.1,6.4,3.4,14.8-1.7,20.4
			c-2.8,3.5-4,8.8-7.4,11.1c-12.5,8.2-27.3,12.3-41.5,14.5c-10.9,1.7-21.6-18.8-17.8-31.3c1.7-4.6,4.2-8.8,7.4-12.4
			c4.9-6.1,10.2-11.6,15.6-17.3c4.4-4.9,4.2-10.3-0.6-13.9c-5.8-4.3-6.2-9.8-6.6-16.1c0-3.6-0.7-7.3-2-10.8
			c-3.5-7.7-6.6-16.2-17.9-15.3C652.2,296.4,650.5,294.5,648.9,293.5z"/>
		<path class="st0" d="M524,994c1.4-4.2,2-9,4.5-12.3c5.4-7.1,6.3-14.7,5.9-23.1c-0.2-2.9-0.2-5.7,0.2-8.6
			c1.4-11.7,9.6-15.9,20-10.2c15.9,8.7,32,6.8,48.3,1.8c2-0.6,3.9-1.4,5.6-2.4c5.3-3.3,9.8-2.3,14.3,1.8c3.9,3.4,4.9,9,2.4,13.4
			c-6.7,13.5-14,26.7-21.6,39.7c-1.2,2.1-5.5,2.9-8.5,3.4c-9.5,1.5-16.5,5.6-20.3,15.1s-16.7,11.9-24.3,5.3c-3-2.7-5.2-6.4-8.4-8.9
			c-3.3-2.9-7.1-4.9-11.3-6.1C525.7,1001.7,524.3,999.2,524,994z"/>
		<path class="st0" d="M338.7,857.9c12.7-20.9,23.3-39.7,35.4-57.4c4.1-5.9,11.7-9.9,18.4-13.5c7.7-3.7,13.5-10.7,15.7-19
			c1.1-3.9,3-7.6,4.1-11.5c2.8-9.3,7.1-16.8,17.2-20.6c3.9-1.5,7.2-6.5,9.1-10.6c2.9-6.1,6.8-8.5,13.4-8c6.5,0.4,13.1,0.4,19.7,0
			c4.9-0.2,7.7,1.8,8.5,6.7c0.5,3.2,1.4,6.4,1.9,9.6c0.6,4.8,2.4,10.2,0.8,14.1c-1.1,2.4-8.1,1.6-11.9,3.4s-8.4,4.3-9.8,7.7
			c-5.5,12.3-15,17.5-27.6,18.7c-2.4,0.2-4.7,1.4-7.1,1.8c-5.5,0.8-7.4,4.2-7.6,9.3c-0.2,5.7-0.5,11.4-0.4,17.2
			c0.1,5.8-2.2,8.3-8,8.1c-5.3-0.2-10.6-0.2-15.9,0c-8.8,0.4-9.6,1-10,10c-0.4,6.8,0.6,13.7-7.8,17.5c-2,0.8-2.2,6.5-2.4,10.1
			c-0.5,4.6-2.6,6.6-7.1,6.5L338.7,857.9z"/>
		<path class="st0" d="M460.3,566c6.1-0.6,9.8-0.9,13.1-1.4c2.4-0.4,6-0.4,6.8-1.8c3.7-6.3,8.2-8,15.1-5.5c1.7,0.6,4.9-2.2,7.1-3.9
			c3.1-2.7,5.7-5.9,8.5-8.8c4-4.1,8.2-4.3,13.2-1.3c9.1,5.5,18.4,10.4,27.6,15.6c6.8,3.9,8.1,9.8,3.3,16.3
			c-2.9,3.9-6.5,7.4-9.5,11.2c-2.7,3.5-3.1,7.1,2.4,8c5.5,0.9,5.8,3.8,5.8,8.7c0.5,4.7,1.8,9.3,4,13.4c2.9,6.5,1.4,10.4-5.7,11.1
			c-4,0-8-0.5-11.9-1.5c-5.8-1.1-11-1.1-16.1,3c-10.1,8-28.1,1.6-36.4-4.9c-1.1-1.6-1.4-3.5-0.9-5.4c0.8-2.3,1.9-4.4,3.2-6.5
			c5.6-12,3.7-20.6-6.7-28.8C476.5,577.9,469.4,572.8,460.3,566z"/>
		<path class="st0" d="M1409.6,947.8c-5.7-4.9-9.3-8.9-5.8-14.6c4.6-7.4,0.8-13-4-17.2c-3.4-2.8-5.3-7.1-5.1-11.5
			c-0.2-9.8-4-17.9-11.3-25.9c-2.8,3.9-4.9,7.4-7.5,10.2c-3.9,4.5-8.1,3.8-10.1-1.8c-1.4-3.8-1.7-8-2.9-11.8
			c-3-9.8-10.9-16.1-18-22.7c-4.2-3.9-6.8-6.7-4.9-14.1c2.3-8.7,5.4-16.8,8.3-25.1s3.6-18.2,4.6-27.5c0.1-4.9,2.4-9.5,6.4-12.4
			c2.7-2.3,4.9-5.2,6.1-8.4c2.8-6.8,3.9-7.4,8.3-2.2c5.9,6.8,9.3,13.4,3.6,23c-5.6,9.6-1.4,19,8.7,24.1c4.2,2.1,7.9,4.2,8.5,9.3
			c0.8,7.1,4.5,11,12.1,10.9c1.7,0,3.4,1.8,5.1,2.7c-1.1,2-1.8,4.9-3.6,5.8c-4.6,2.6-9.6,4.2-14.5,6.5c-7.9,3.3-11.7,12.4-8.3,20.3
			l0,0l0,0c0.5,1,1,2,1.6,2.9c2,3.1,4.2,6,6.7,8.8c6.3,7.1,9.6,14.4,5.8,24.5c-1.2,3.4,1.7,9.5,4.5,13
			C1411.5,924.1,1412,934.4,1409.6,947.8z"/>
		<path class="st0" d="M455.3,704.2c-3.9-0.5-7.9-1.3-11.8-2.4c-8.5-3.2-9.8-5.7-8.3-14.7s3.2-18.4,4.9-27.5
			c2.1-11.9,1.1-14.1-10.9-16.9c-6.1-1.4-8.3-4.9-6.9-10.5c1.1-4.3,3-8.3,9.2-7.7c12.5,1.1,25,1.4,37.6,2.4
			c5.2,0.1,10.4,1.1,15.3,2.9c9.3,4.3,18.4,8.2,29.1,8.4c6.1,0.2,7.4,4.2,3,9c-4.2,4.4-8.7,8.6-13.4,12.4c-4.5,3.6-7.1,9-7,14.7
			c-0.3,12.1-8.6,22.5-20.3,25.4C468.8,701.4,461.6,702.8,455.3,704.2z"/>
		<path class="st0" d="M1042,697.4c-6.6-1.5-11.8-2-14.5-9c-1.6-3.1-4.2-5.6-7.5-6.9c-8.6-3.8-17.3-7.1-26.3-10
			c-10.2-3.7-21.6-1.1-29,6.8c-2,1.7-4.2,3.1-6.6,4.2c-0.3-2.6-1.5-5.5-0.6-7.7c3.3-7.7,2-12.9-5.6-17.2c-2.9-2-4.8-5.2-5.2-8.7
			c-0.5-4.9,4.3-4.7,7.9-5.4c1.8-0.4,4.6-1.3,5.1-2.7c2.4-5.5,7-5.3,11.4-5.1c6.6,0.8,13-2.7,15.9-8.7c5.4-9.1,14.6-8,20.2,1.1
			c2,3,4.6,5.6,7.7,7.6c11.2,7.5,22.4,15,33.8,21.9c4.7,2.4,9.6,4.2,14.7,5.5c8.5,2.8,9.8,6.6,4.3,13.1c-4.4,5.3-9.2,10.4-14.3,15
			C1050.1,694.3,1045.7,695.6,1042,697.4z"/>
		<path class="st0" d="M799.6,951.8c3,5.8,5.2,10.2,7.6,14.4s3.4,7.4-1,11.7c-5.4,5.3-2.4,13.1,4.3,16.2c3.6,1.6,6.8,3.9,9.4,6.8
			c3.4,4.2,8.6,9.4-1.4,12.6c-0.7,0.2-1.1,1.1-1.7,1.7c-2.3,3-4.4,8.3-7,8.5c-8.5,0.5-17,0.1-25.3-1.2c-5.8-0.8-11.4-4-17.2-4.7
			c-5.7-0.3-11.1-2.8-15-7c-8.6-9.3-17.5-18.4-26.4-27.3c-3.6-3.6-5.2-7.2-2-11.8c3.1-4.6,10.6-7.1,14.9-4.6
			c11.9,6.8,23.6,8,35.3-0.4c0.9-0.7,2.7-1.4,3.4-1c10.5,6,13.4-2.7,17.9-8.8C796.8,955.2,798.1,953.4,799.6,951.8z"/>
		<path class="st0" d="M1116.2,630.4c-4.9,4.6-8.3,4.9-13,1.5c-7.4-5.3-9.1-4.7-15.1,2.2c-2.1,2.4-3.9,5.2-6.1,7.7
			c-3.9,4.5-6.1,8.6,0.3,13.1c1.7,1.7,2.6,4,2.4,6.5c-0.6,3.3-1.6,6.7-2.9,9.8c-2.4-1.7-4.9-3.4-7.1-5.2s-4.7-5.3-7.4-5.7
			c-13.1-2-23.1-10.1-33.2-17.4c-9.3-6.6-21.1-10.3-25.7-23.1c-2.1-6.1-19.4-4.7-23.9,1.1c-2.1,2.7-3.9,5.8-7.4,10.9
			c-3.6-12.4-6.4-22.4-9.3-32.3c-1.1-4,0.8-5.8,4.2-7.5c8.9-4.2,24.8-2.8,31.9,5.1c8.2,9.1,17.2,11.2,28.5,8
			c8.9-2.4,15.9,0.2,20.2,9c0.8,1.4,1.7,2.7,2.8,4c6.8,9.9,19.2,14.1,30.7,10.6c0.4-0.2,0.9,0,1.1-0.4c3-2.7,6.7-8.1,8.7-7.5
			C1102.7,622.6,1108.9,626.6,1116.2,630.4z"/>
		<path class="st0" d="M747.7,1017.5c-8.9-0.5-17.8-0.8-26.7-1.6c-6.4-0.6-12.3-0.3-16.6,5.2c-3.9,4.9-8,4.6-12.5,0.8
			c-1-0.8-2-1.4-3-2.1c-11-7.4-12-6.5-21.3,2.4c-4.4,4.2-12.1,8.6-17.3,7.7c-5.2-1-9.8-8.1-13-13.6c-3.1-5.4,5.1-18.7,11.7-20.1
			c5.9-1.4,11.8-2.4,17.9-3c4.6-0.5,6.6-2.7,9.2-6.4c5.5-8.4,12.3-15.9,20.1-22.4c3.7-2.8,11.5-1.1,17.2-0.2
			c1.4,0.2,3.8,6.1,2.9,7.5c-4,6,0,9,3.4,12.4c7.7,8,15.3,15.8,23,23.7c2.2,2.3,4.2,4.7,6.3,7.1L747.7,1017.5z"/>
		<path class="st0" d="M613.9,532.8c-4.2,2.4-9.3,5.5-14.5,8.6c-4.6,2.8-4.8,6.1-1,9.8c2.5,2.1,4.8,4.4,7,6.8
			c4.8,5.3,4.6,7.8-2.1,10.9c-7.6,3.6-15.6,7.8-23.5,8.2c-5.1,0.2-12-4.9-15.3-9.8c-5.5-8-8.4-17.5-13.1-26.2
			c-2.4-4.7-2.3-9.7,1.2-12.3c6.7-4.9,6.5-10.7,4.9-17.2c-1-4-0.7-6.4,4.1-8.4c4.3-1.8,7.4-7.7,11.5-8.7s9,2.9,13.6,3.6
			c2.4,0.5,5.4-1.4,8.2-1.8c9.6-1.3,15.5,3.6,16.3,13.4C612,517.3,613,524.8,613.9,532.8z"/>
		<path class="st0" d="M615.6,506.1c1-2.4,2.2-4.6,3.7-6.6c5.5-6.5,13.2-9.3,21.2-11.2c1.1-0.2,3.1-0.5,3.4,0
			c6.4,9.9,16.3,4.7,24.5,5.5c11.2,1.1,15.9,5.2,16.7,16.4c0.2,6.1,1.3,12.1,3.2,17.8c2.9,7.5,0.6,13.5-3.3,19.5
			c-0.8,1.3-2.3,3.3-3.4,3.3c-10.5-0.2-21.4,5.7-31.9-1.7c-7.3-5.2-14.9-10-22.8-14.3C616.3,528.7,617.3,518,615.6,506.1z"/>
		<path class="st0" d="M1417.8,933.1c-2.7-5.7-6.3-13.7-10.5-21.3c-2.3-4-3.9-7.1-1.8-12.3c3-7.1,0.8-14.4-4-20.6
			c-3-3.9-6.3-7.5-9-11.6c-5.2-8.2-3.3-14.4,5.4-18.5c12.5-6,21.2-1.2,22.6,12.6c0.3,2.4,0.2,4.9,0.3,7.4c0.2,5,3,6.2,7.4,5.1
			c0.4-0.1,0.8-0.2,1.1-0.4c5.2-1.6,10.7-7.7,15.8-3.2c7.4,6.4,13.7,13.9,18.7,22.2c4.1,7.1-0.6,11.2-9,10c-3.3-0.5-6.8,0.5-9.4,2.6
			c-4.1,4.5-7.5,9.9-4.4,16.6c1.6,3.3,7.7,6.5,2.7,9.8c-1.9,1.3-8.2-3.2-11.9-5.8c-1.7-1.1-1.7-4.5-3-6.4c-1.4-1.9-3.4-4.1-4.9-3.9
			c-2.2,0.5-4.1,2.1-4.9,4.2C1418.2,924.1,1417.8,928.6,1417.8,933.1z"/>
		<path class="st0" d="M922.5,756.1c-4.2,2.9-8.1,4.6-10.8,7.4c-7.1,7.7-15.7,9.3-24.3,3.1c-6.3-4.5-12.3-9.3-18.1-14.5
			c-6.6-6.1-13.7-9.8-23-9.5c-2.4,0-4.9-1.8-7.4-2.9c1.1-2.8,2.4-5.5,3.9-8.1c1-1.3,2.3-2.4,3.6-3.1c8.9-5.3,14.6-14.6,15.6-24.8
			c0.5-4.5,0.2-10.2,7.1-11.1c6.5-0.8,12.3-2.1,17.7,4.1c4.9,5.8,9.6,9.8,3.9,18.3c-3.8,5.8,1.9,19.3,10.4,21.9
			C912.5,740.2,916.7,749.2,922.5,756.1z"/>
		<path class="st0" d="M985.9,903.6c-2.8,2.9-4.6,5.8-7,6.9c-22.9,9.6-45.9,19.1-69.1,28.2c-6.8,2.7-13.8-3.1-15.2-11.4
			c-0.5-5.6-1.5-11.2-3-16.7c-1.8-5.4,0-8.3,3.8-11.5c3-3,7.7-3.3,11.2-1c5.2,2.7,11.2,7,16.3,6.4c4.6-0.5,8.8-6.7,12.8-10.6
			c9.3-9.1,22.1-9.9,33.5-13.7c1.6-0.3,3.2,0.2,4.3,1.4C977.7,888.5,981.5,895.6,985.9,903.6z"/>
		<path class="st0" d="M880.1,1054.5c0-18.2,4.1-24.1,21.3-29.1c8.3-2.3,15.6-7,21.3-13.4c8.3-9.6,17.1-18.7,26.3-27.3
			c7.7-7.1,11-14.7,8.8-25c-1.1-5.7,2.7-9.6,8.8-9.6c6.1,0,6.1,4.9,5.4,8.7c-3.5,16.7-6.6,34-18.2,47.2
			c-18.9,21.4-38.9,41.9-58.4,62.8c-1.1,1.2-2.2,2.4-3.4,3.5c-4.7,3.9-9.6,2.7-10.9-3.2C880.4,1064.3,880.1,1059.4,880.1,1054.5z"/>
		<path class="st0" d="M447.8,547.9l20.9-13.6l-11.6-6.1c3.9-6.8,4-15,12.7-19.5c6.5-3.4,2.9-19.3-4.7-20.5s-9.8-4.6-9.3-11.4
			c0-1.6,0.2-4.1-0.7-4.7c-9.3-6.2-1.7-13.1-0.6-19.4c1.1-6.3,6.2-10.2,12.5-12c0.6,0.2,1.2,0.5,1.7,0.8c-0.1,1.4-0.3,2.8-0.7,4.1
			c-2.7,5.5-1.4,9,5.1,8.8c7.9-0.2,8.3,3,6.5,9.8c-1.1,4.7,0.4,10.5,2.2,15.3c3.1,8,6.8,15.7,11,23.1c2,3,4.6,5.5,7.7,7.4
			c8.2,5.7,8.9,8.1,3.6,16.3c-1,1.3-1.7,2.7-2.2,4.2c-2,8.7-4.6,11.8-11.9,10c-10.2-2.6-18.2,1.5-26.9,5.2
			C458.9,548.2,454.4,552.4,447.8,547.9z"/>
		<path class="st0" d="M634,950.2c-0.4,6.1,1.7,13.1-4.3,18.8c-3.6,3.4-2.4,7.4,1.2,10.5c9,7.5,10.2,15.9,3.4,25.7
			c-4.9,7.1-3.6,13.7,2.4,19.7c2.7,2.5,5.2,5.2,7.4,8.1c1.3,1.7,2.8,4.9,2,6.1c-1.6,1.7-3.8,2.7-6.1,2.7
			c-15.1,0.6-30.1,0.9-45.2,1.4c-4.8,0.2-6.8-2-6.3-6.6c0.5-4.9-1.4-9.7-5.2-13c-5.5-5.8-4.9-11.8,1.7-16.2c3.9-2.4,9-3.2,13.5-4.9
			c3.6-1.4,8.5-2.4,10.1-5.3C617.7,981.5,625.7,965.6,634,950.2z"/>
		<path class="st0" d="M1002.2,817c11.4,6.5,20.5,11.5,29.4,16.8c7.7,4.5,9.3,8.4,4.5,15.9c-9.3,14.4-18.8,28.7-28.9,42.6
			c-4.2,6-12.4,7.4-18.3,3.3c-1.6-1.1-3-2.6-3.9-4.3c-1.3-2-2.3-4.4-3.6-6.4c-3.9-5.7-2.7-9.7,3.5-12.5c2.2-1.1,4.3-2.3,6.4-3.6
			c12.1-7.2,14.7-17.2,10.6-30.7C1000.2,831.8,1002,824.6,1002.2,817z"/>
		<path class="st0" d="M648.5,657.7c-3.6,9.3-6.5,17.2-9.5,24.9h-2.2c-0.9-2.3-1.5-4.7-1.8-7.1c0.5-10.3-6.5-19.4-16.6-21.6
			c-10.8-2.8-17.7-9.4-24.1-17.5c-3.3-4.2-7-8-10.4-12.1c-3-3.9-7.5-6.5-12.4-6.7c-3.6-0.3-6.8-1.9-9.3-4.5c-2.2-2.7-3-6.4-2.3-9.8
			c0.9-2.1,6.5-4.2,8.9-3.3c7.4,2.7,10.3-2.1,14.1-6.5c6.1-7.1,13.3-8.6,19.1-4.5c4.7,3.3,5.2,6.8,0.2,10.1
			c-4.6,2.9-4.9,6.1-3.4,10.2c1,3.5,2.4,6.8,4.3,9.8c10.6,14,21.9,27.4,38.7,34.6C644.1,654.9,646.3,656.2,648.5,657.7z"/>
		<path class="st0" d="M691.4,520.9c-0.4-7.4-0.6-13.8-0.9-20.5c10.5-2.4,18.5-10.7,20.5-21.2c0.5-4.2,4.2-7.3,8.5-7
			c10.2-0.2,19.4,2,25.7,10.9c0.7,1,1.4,2,2.1,3c7.6,10.7,7.1,22.2-1.8,31.5c-1.7,1.7-3.9,2.7-6.4,2.9c-5.7,0.2-11.7,0.9-16.9-0.6
			C712.1,516.5,701.2,516.8,691.4,520.9z"/>
		<path class="st0" d="M702.7,570.1c13.4,0.2,19.4,4.7,21.6,17.7c1.1,6.4,3.3,9.7,9.8,9.6c0.4,0,0.8,0.2,1.1,0.4
			c3.3,1.7,8.8,1,8.3,7c-0.5,4.9-6.5,8.8-12.3,9c-4.3,0.1-8.7,0.8-12.8,2.1c-16.2,5.7-27.9,1.4-35.3-10.1
			c-12.4-19.4-12-15.2,2.7-27.9C691.4,573.3,695.7,568,702.7,570.1z"/>
		<path class="st0" d="M361.1,380.5c-6.3-1.9-14.3-4.3-22.5-6.8c-0.4-0.2-0.7-0.4-0.9-0.8c-1.9-4.9-4.9-9.4-9-12.9
			c-2.4-2.4,1-10.8-6.3-13.3c-0.1-1.4,0.2-2.9,1-4.1c1.9-2.1,4.1-3.9,6.5-5.4c6.5-3.9,9-2.4,9.8,5.2c0.5,2.6,1.4,5.1,2.4,7.5
			c2.5-0.8,4.9-2,7.1-3.5c6.1-5.5,11.8-10.4,20.2-3.9c1.7,0.8,3.9,0.7,5.5-0.4c4.2-4.2,7.7-4.6,12.3-0.4c4.6,4.2,7,8.9,5.5,15
			C390.4,368.1,374.7,380.4,361.1,380.5z"/>
		<path class="st0" d="M471.6,1015c-15.9-2.3-30.1-0.8-43.9,10c-1-11.7-2.1-21.2-9.8-28.5c-1.4-1.4-1.1-6.8,0.5-8.7
			c3.1-3.8,4.5-8.8,3.6-13.7c-0.7-5.4,2.3-7.4,7.4-7.4c6.5,0.2,13.1-1.4,18.7,3.6c2,1.4,4.3,2.1,6.8,2.2c9.8,1.4,10.4,1.3,9.4,10.6
			C463,994.9,463.2,1005.5,471.6,1015z"/>
		<path class="st0" d="M499.5,959c-7.6-1-13.2-2-18.9-2.4c-5.7-0.5-11.3,0-13.9,7c-2.3,6.2-8.1,5.1-12.6,3.8c-5.3-1.5-4-6.4-3-10.2
			c0.8-3.1,1.4-7.2,3.6-9c11.4-9.1,23.1-17.9,35.2-26c4.5-3,9.3-1.4,12.5,3.7c2.4,3.8,5.5,7.1,7.7,11c2.1,3.9,5.5,9.3,4.1,11.5
			C510.6,953.9,505.1,958.6,499.5,959z"/>
		<path class="st0" d="M1423.8,869.9c3.3-11.5,0.6-18.9-5.4-25.8c-3.8-4.4-0.4-18.7,4.8-21.9c1.1-0.7,5.2,0.8,5.2,1.7
			c1.4,9,7.7,11.2,15.3,13.1c5.1,1.3,7.7,4.9,4.1,10c-3.6,5.2-0.7,9,3.1,12.6c9.5,9,19,17.8,28.2,27c7.4,7.4,6.7,13.4-2,18.5
			c-4.9,3-8.7,1.7-8.1-3.7c1.9-18.2-13.4-25.7-22.5-36.8c-1.3-1.6-5.9-1.4-8.7-0.7C1433.9,864.8,1430.4,867,1423.8,869.9z"/>
		<path class="st0" d="M857,694.3c2,15.4-4.4,25.4-16.2,32.7c-6.2,3.8-12.3,8.1-18.5,11.7c-4.9,2.7-7.6,1.1-8.3-4.6
			c-0.3-2.8,0-5.7-0.2-8.6c0.2-2,0-4.1-0.6-6c-2-3.6-4.3-7-6.7-10.3c8.7-2,11.4-13.9,22.1-12.7c3.1,0.4,6.4-1.1,9.6-1.4
			C844.3,694.9,850.4,694.6,857,694.3z"/>
		<path class="st0" d="M877.8,198.4c-4.6-1.1-7-1.8-9.3-2.4c-4.6-1.1-6.5-3.8-4.1-8c7.4-12.7,14.4-25.6,22.6-37.6
			c2-3,7.7-4.1,11.9-4.9c11.9-2.4,22.6-6.4,30.1-16.8c1.4-1.9,4.6-4.1,6.4-3.7c2.4,1.1,4.2,3.3,4.7,5.9c0.2,2.7-0.8,7.1-2.8,8.3
			c-11.5,7.5-23.3,14.7-35.5,21.2c-6.7,3.5-11,7.9-12.7,15.2c-1.4,6-3.2,11.8-5.5,17.5C882.4,195.6,879.2,197.3,877.8,198.4z"/>
		<path class="st0" d="M498.7,989.4c0,4.5-0.3,9,0,13.4c0.5,6.3-2.8,9.6-7.9,12.3c-7.1,3.6-9.2,3-14.3-3.1
			c-12.5-14.7-7.4-30.7-3-46.1c2-6.8,9.8-3.5,15.2-3.4c5.3,0.1,9.6,2.4,9.7,8.7c0.1,6.1,0,12.1,0,18.2L498.7,989.4z"/>
		<path class="st0" d="M1168.2,607.4c-4.9,6.8-8.2,12.5-12.6,17c-2.1,2.2-6.5,2.1-9.8,3.2c-3.3,1.1-9.1,1.4-10.7,3.9
			c-8,12.8-19.7,12.8-34.1,10.8c10.5-3.6,20.3-5.2,29.3-13.1c-7-2.6-12.5-4.6-18-6.8c-2.3-0.8-5.5-1.3-6.5-3
			c-1.4-2.4-1.1-5.7-1.4-8.7c2.1-0.5,4.4-0.7,6.6-0.4c2,1,3.9,2.3,5.5,3.9c1.4-0.5,2.4-0.5,2.7-1.1c7.4-12.5,7.4-12.4,22.1-10
			C1149.5,604.6,1157.8,605.8,1168.2,607.4z"/>
		<path class="st0" d="M378.9,951.1c8.5-0.4,17-0.6,25.4-1.1c4.7-0.3,8,1.3,9.1,6.1c1.5,6.7,3.6,13.4,3.8,20.2c-0.5,4-2.7,7.6-6,9.8
			c-1.4,1-6.1-2.4-9-4.5c-1.2-1.1-2.3-2.4-3.1-3.8c-9.8-12.1-15-12.9-27.5-4.1c-6.2,4.4-11.4,2.4-13.1-4.9c-0.2-0.8-0.3-1.6-0.2-2.4
			C358.8,962.4,374.4,950,378.9,951.1z"/>
		<path class="st0" d="M1608.4,550.5c-9.3,10,1.4,22.7-9.3,31.5c-3,2.4-2.7,10.9-1.7,16.2c1.2,6.8-2.4,10-6.6,13.1
			c-5.5,4.2-11,1.7-12.1-5.2c-0.9-6-1.5-11.5-6-16.6c-5.2-6.1,0.5-19.5,9.8-20.8c9.3-1.3,11.2-6.1,13.4-12.9
			c0.8-2.7,2.3-5.1,4.3-6.9C1601.5,547.9,1604.5,549.5,1608.4,550.5z"/>
		<path class="st0" d="M583.7,763.2c-0.7-0.8-2.2-1.7-2.1-2.4c0.6-8.9-3.4-15.3-9.6-21.4c-2.1-2-3.7-8-2.4-9.8
			c5.2-6.7,2.7-13.1,1.4-19.8c-1.7-9.1,4.2-15.3,13.5-14.7c4.3,0.3,5.7,3,4.9,6.8c-2,9.5,5.6,19,0,28.6c-0.4,0.7,2.3,4.3,4.2,5
			c6.9,2.7,4.5,6.3,1.7,10.4C591.7,751.3,588.1,756.7,583.7,763.2z"/>
		<path class="st0" d="M1489.8,888.8c10.5,9.4,13.9,22.1,14.1,35.9c0.2,11.4-1.5,21.5-14.6,26.3c-4.4,1.6-7.5,7.1-10.7,11.2
			c-3.2,4.1-6.8,6-11.4,2.6c-3.9-3.6-4.1-9.8-0.5-13.7l0,0l0,0l0.2-0.2c4.7-3.9,10.2-6.8,14.6-11.1c3.2-2.9,5.4-6.7,6.3-10.9
			C1489.1,915.5,1489.2,901.7,1489.8,888.8z"/>
		<path class="st0" d="M1482.5,908.9c3.7,19.8-3.6,33.1-21,39.6c-4.6,1.7-14-6.7-12.1-11.5c2.7-7,2.4-12.1-3.3-17.5
			c-1.4-1.3,0.3-6.7,1.9-9.5c0.9-1.5,4.5-1.9,6.8-2c2,0.4,3.9,1,5.8,1.9C1468,911.9,1475.4,914.9,1482.5,908.9z"/>
		<path class="st0" d="M599.3,169.9c-5.3-4.9-3.6-10.2-2.3-15.3c1-2.2,1.7-4.6,2.2-6.9c0-2.9,0-6.8-1.9-8.3c-3.6-3.2-5.4,1-7.4,3.4
			c-6.1,7.7-12.8,7.4-17.6-0.9c-2.5-3.9-1.4-9.1,2.5-11.7c1.1-0.7,2.2-1.1,3.4-1.3c8.3-1.4,16.8-4.5,25-3.6c6.6,0.7,12.7,6,18.7,9.8
			c0.5,0.3-0.7,4.5-1.9,6.2C613.6,150.7,606.7,159.8,599.3,169.9z"/>
		<path class="st0" d="M661.5,487.3c0.2-3.8,0.8-7.4,0.8-10.9s1.2-6.3,5.3-6.8c1.2,0,2.4-0.4,3.4-1.1c10.6-12,20.3-5.1,30,1.4
			c6.7,4.6,7.1,7.5,2.9,14c-7,10.6-10.5,11.1-22.9,6.1C675.1,487.8,668.3,488.2,661.5,487.3z"/>
		<path class="st0" d="M1470.7,874.3c-3.6-4.4-7.1-8.9-10.9-13.1c-4.2-4.6-9.8-7.6-5.5-16.1c2.8-5.3-3-11.2-10.8-13.4
			c-3.9-1.1-8.6-1-9.3-6.3c-0.5-3.8-2.8-7.7,2-11.1c5.8-3.9,14.7-5.8,19.5-2c5,4.2,9.4,9,13.1,14.3c1.3,1.8,0.5,6.8-1.1,8.7
			c-8.4,10.1-6,19.2,1.1,28.5c1.7,2.6,3.3,5.2,4.6,8L1470.7,874.3z"/>
		<path class="st0" d="M1123.3,670.4c-3.8-4.4-6.9-11.2-11.4-12.3c-5.6-1.4-8.9,5.4-11.8,10.3c-1.6,1.7-3.9,2.6-6.3,2.3
			c-1.5-0.5-3-3.6-3.1-5.7c-0.5-5.2-0.2-10.5-4.8-14.5c-1.1-1.5-1.2-3.6-0.4-5.2c2.8-4.2,6.2-8,10.4-13.2c0,5.8-1.4,10.7,0.4,12.5
			c2.3,2.4,7.1,3.3,10.9,3.7c4.4,0.4,8.9,0.4,13.4,0c9.3-0.5,21.5,7.7,25,17.2c-4.2-0.4-8.6-1.7-12.4-0.8S1126,668.6,1123.3,670.4z"
			/>
		<path class="st0" d="M1271.1,777.1c-15.9-0.6-31.4-2.9-45.7-10.8c-4.9-2.7-8-5.7-6.8-11.4c1.4-6.4,6.9-6.2,11.7-6
			c3.2,0.2,6.3,1.3,9,3c11.2,7.4,23.7,12.7,36.8,15.6c1.6,0.1,3.2,0.6,4.6,1.4c1.5,1.7,2.8,3.5,3.9,5.5c-1.5,1.1-3.2,1.9-4.9,2.4
			C1276.8,777.2,1273.9,777.2,1271.1,777.1z"/>
		<path class="st0" d="M1335.6,835.3c-6.4-7.7-6.4-7.7-14.7-3.7c-10,4.9-16.4,2-16.3-8.7c0-9.6-4.5-17-8.1-25
			c-1-2.2-0.4-5.2-0.5-7.7c2.4,0.8,4.9,1.5,7.2,2.4c6.1,2.4,12.1,5.2,19.3,8.3c-0.2,0.6-0.8,2.7-1.5,4.7c-1.7,4.6-0.8,7.7,4.1,9.6
			C1334.7,818.6,1335,827.1,1335.6,835.3z"/>
		<path class="st0" d="M391.2,943.3c-1.6,1.1-3.3,1.9-5.2,2.4c-5.8,0.7-14.7-4.6-15.6-10.7c-1.1-7-4.6-7.4-10.2-6.5
			c-4.9,0.7-9.7,0.8-14.6,0.4c-6.9-0.5-9.1-4.6-4.6-9.5c3.9-4.6,8.9-8.3,14.5-10.5c4.6-0.9,9.4,0.3,13,3.4
			c7.3,8.2,14.1,16.8,20.4,25.7C389.8,939.8,390.6,941.6,391.2,943.3z"/>
		<path class="st0" d="M420,527.6c-2.7-0.2-5.2-0.6-7.7-1.3c-2.9-1.4-5.2-4.5-1.5-6.4c7.7-4.2,10.2-9.5,7.5-17.8
			c-0.4-1.2,4-5.6,4.9-5.3c4.1,1.7,6.8-7.7,11.2-1c1.8,2.2,4.2,3.9,6.8,4.9c3,1.4,8.2,0,6.9,6.1c-1.1,4.9,0.2,10.9-6.7,13.1
			C433.8,522.4,426.2,525.3,420,527.6z"/>
		<path class="st0" d="M689.9,621.9c10.6,1.8,20.5,3.8,30.4-0.5c2.9-1.3,6.6-0.6,9.8-0.8c-0.4,4.9,1.2,12.3-1.4,14.4
			c-6,4.9-12.4,10.2-21.6,9.7c-12.3-0.6-14.9-2.2-16.7-14.3C690.1,627.7,690.1,625,689.9,621.9z"/>
		<path class="st0" d="M887.3,239c0,4.9-6,8.4-9.6,4.9c-5.8-5.6-12.7-6.3-19.7-8c-3.7-1.3-6.8-3.9-8.8-7.4c-2.4-4.5,2.4-5.5,5.1-7.9
			c2.1-1.8,2.3-5.6,3.9-8.2c1.3-2,3.3-4.7,5.3-5.1c2-0.4,6.8,1,7.2,2.4c3,10.1,8.6,19.3,16.1,26.7
			C887.1,237.4,887.3,238.2,887.3,239z"/>
		<path class="st0" d="M721,651.2c-4.2,0.5-8.9-0.2-12.4,1.5c-5.5,2.7-9.8,6.3-17.2,5.1c-3.6-0.6-4.9,5.1-2.6,8.7
			c2.6,4.1,6.1,7.6,9,11.5c1.6,2.2,3.9,5.2,3.4,7.4c-1.1,5.1-3.1,9.9-5.9,14.3c-0.4,0.6-6.9-2-9.8-4.1c-0.9-0.6,0.2-4.9,1.1-7
			c0.5-1,3-0.8,4.5-1.5c4.1-2.4,3.6-5.1-0.2-7.2c-3.8-2.1-8-3.9-12-5.9c-4.7-2.4-4.9-5.5-2.4-9.9c4.8-9.2,14.3-15,24.6-15
			c6.5-0.4,13,0,19.4,0L721,651.2z"/>
		<path class="st0" d="M850.2,889.7c1.8,2,3.2,2.9,3.3,3.8c1.9,16.2,13,25.2,25.4,33.5c3.3,2.2,5.5,6.1,8.2,9.3
			c-6.3,3.8-8.6-2.7-11.6-5.4c-7.4-6.4-14.7-10.6-25-10c-11.5,0.7-16.5-8.9-10.5-19.4C842.6,897.3,846.6,893.8,850.2,889.7z"/>
		<path class="st0" d="M904.1,959.9c8.9,9,18.2,5.2,27.5,1.9c3.9-1.4,7.7-2.9,11.5-4c7.4-2.3,10.5,0,10.9,7.8
			c0.3,8.2-4.9,14.7-13.1,14.4c-6.4-0.2-12.7-1.7-18.5-4.3c-7.1-3.3-13.5-8.3-20.2-12.5L904.1,959.9z"/>
		<path class="st0" d="M602.7,546.4c13.1-10.9,29.6-9.3,40.5,3.9c0.9,1.1,1.7,3.6,1.3,4.1c-2.8,2.7-7.1,7.9-9,7.1
			C624.5,557.4,609.2,562.2,602.7,546.4z"/>
		<path class="st0" d="M684.1,570c-7.4,14.4-24.5,24.9-37.2,22.7c-4.5-0.8-9.1-1.5-9.4-7.6c-0.2-6.5,4.1-8,9.3-8.9
			C659.5,574.3,671.9,572.1,684.1,570z"/>
		<path class="st0" d="M587.2,579.3c2.1-0.7,4.2-1.3,6.5-1.7c8.1-1.3,15.4-3.4,20.3-11.2c1.4-2.4,7.5-3.9,10.4-2.9
			c4.2,1.5,7.7,5.4,10.5,9c0.7,0.8-1.6,5.4-3.6,6.8c-8.8,6.1-17.8,10.7-29,4.4c-4.1-2.3-9.8-1.7-14.7-2.3L587.2,579.3z"/>
		<path class="st0" d="M684.9,625.3c0.8,4.2-1.1,7.7-6.4,9.1c-5.2,1.4-7.2-2.3-8.8-6.1c-3.4-8.1-7-16.2-9.8-24.5
			c-0.5-1.7,1.4-5.4,3.3-6.5c1.8-1.1,6.4-1.6,7.4-0.4C676.9,605.1,684.7,612.8,684.9,625.3z"/>
		<path class="st0" d="M435.1,655.7c-2,14.6-3.5,26.6-5.7,38.6c-0.3,1.7-3.9,3.5-6.1,3.9c-1,0.2-3.2-2.8-3.9-4.6
			c-4.3-12.1,3.8-23.1,3.5-34.8c0.2-1.6,0.4-3.2,0.8-4.8c0.5-3.9,3.1-6.1,6.7-4.9c2,0.7,3.4,3.6,4.7,5.8
			C435.6,655.7,435.1,657.1,435.1,655.7z"/>
		<path class="st0" d="M1415.8,950.4c0.8,15.6,8.4,27.5,19.4,37.9c2.9,2.7,9.5,6.2,5.7,10c-4.5,4.5-6.8-2.9-9.8-5.5
			c-2.9-2.7-6.2-4.9-9.8-6.4c-14.5-4.9-17.8-11.2-12.3-25c1.4-3.7,2.8-7.4,4.2-11.1L1415.8,950.4z"/>
		<path class="st0" d="M833.6,742.3c0,0.4,0.2,1,0,1.1c-5.8,5.5-9.3,11.5-4.7,19.4c-5.4,3.9-10.2,8.8-16.2,11.6
			c-3.9,1.8-7.1-1.7-6-6.3c1.4-6.3,3.2-12.5,5.3-18.7c0.8-2.6,18-9.9,20.1-9C832.8,740.9,833.2,741.7,833.6,742.3z"/>
		<path class="st0" d="M515.1,1001c0-5.5,0-10.9-0.4-16.3c-0.2-6-0.8-12.1-1.7-18c-1.6-7.4,2.1-14.6,9.6-15.9c1.6-0.3,5.2,2,5.2,3
			c0,6.8,1.3,14.5-1.5,20.1c-3.9,7.1-5.9,15-5.8,23.1c-0.2,1.4-0.8,2.9-1.5,4.2L515.1,1001z"/>
		<path class="st0" d="M879.9,635.9c-12.5,12.5-34.2,4.9-41.3-8.5c-2.1-4.1-0.2-7,4.7-6.8S874.7,631.9,879.9,635.9z"/>
		<path class="st0" d="M923,647.9l-12.3,15.3c-9.9-2.9-18.3-9.7-23.2-18.8c-0.7-1.7-1.1-3.6-1.3-5.4c1.8-0.4,3.7-0.5,5.6-0.4
			c6.7,1.7,13,7.8,20.1,1.1L923,647.9z"/>
		<path class="st0" d="M1609,1005c-4.2,3.1-7.4,6.7-11.2,8c-4.8,1.5-13.3,3.2-14.7,1.1c-2.9-4.4-3.1-11.2-2.7-16.9
			c0.2-3.6,3.6-7,5.6-10.7L1609,1005z"/>
		<path class="st0" d="M983,836.2c-4.4-0.4-8.8-1.1-13.1-2.2c-2.3-0.8-3.9-3.4-5.8-5.2c2-1.4,4.2-2.7,6.4-3.9
			c1.6-0.5,3.3-0.5,4.9-0.3c6.7,0.8,13.1-2.8,15.9-8.9c1-2.2,2.4-4.2,4.2-5.9c2.1-1.4,4.4-2.6,6.8-3.4c-0.8,2.3-1.5,4.6-2.3,6.9
			c-1.4,3.3-2.4,6.8-3.2,10.2C995.1,836.1,995.3,836.2,983,836.2z"/>
		<path class="st0" d="M653,571.1c-0.4,0-0.8,0-1.2,0l-11.2-2.7c2.8-3.2,5.2-8.4,8.5-9.1c9-1.6,18-2.4,27.1-2.3
			c1.7,0,3.5,2.4,5.3,3.9c-1.4,1.4-2.4,3.4-4.2,3.9c-7.9,2.8-15.9,5.2-23.8,7.8C653.5,572.3,653.3,571.7,653,571.1z"/>
		<path class="st0" d="M612.7,608c8.1-4.2,14.7-8.6,22.1-11c4.9-1.6,10.9-0.3,16.3-0.3c0,1.3,0.2,2.4,0.4,3.9
			c-5.2,0.8-10.4,1.6-15.6,2.4c-7.1,1.2-8.5,4.2-3.9,9.6c5.2,6.1,11.1,11.8,17.2,18.1c-13.1-1.4-18.6-4.9-23.5-15
			C622.8,610.3,622.8,610.3,612.7,608z"/>
		<path class="st0" d="M573.4,449.1c5.9,9.6,8.4,15.6,3,23.1c-1.9,2.4-1.3,6.8-2.2,10.2c-0.5,1.7-1.6,4.7-2.4,4.7
			c-2.3,0.1-4.5-0.8-6.1-2.3c-5.6-7.3-5.5-17.5,0.2-24.7C568.2,457,570.2,453.6,573.4,449.1z"/>
		<path class="st0" d="M694,424.6c12.1,0.2,17.2,6.5,14.7,15.3c-0.4,1.4-2.1,3.5-2.9,3.3c-7.4-1.1-14.7-3-21.8-5.6
			c-3.8-1.6-3.5-6.6,0.4-9C687.5,427,690.7,425.7,694,424.6z"/>
		<path class="st0" d="M384.3,974.1c5.5,0,12.7,6.1,10.8,10.3c-2.1,4.8-6.8,8.4-10.4,12.5c-4.9-4.6-10.4-8.7-14.3-13.9
			C368.5,980.6,378.5,974.1,384.3,974.1z"/>
		<path class="st0" d="M694.7,447.5c9.3,1.4,17.5,2.4,20.9,11.7c2.3,6.1-0.8,10.9-6.5,8.7c-6.6-2.9-12.8-6.7-18.6-11.1
			c-1.3-0.9-1.6-4.9-0.7-6.6S693.6,448.1,694.7,447.5z"/>
		<path class="st0" d="M1262.6,992.7c-1.4,1.2-3.9,4.5-7.1,5.4c-2.9,0.2-5.7-1.2-7.4-3.6c-1.3-3.3-1.7-6.8-1.3-10.2
			c0.4-4.2,1-8.4,1.8-12.5c0.2-1.5,0.5-4.2,1.1-4.2c1.8-0.4,3.7,0,5.2,1c2.6,2.4,4.6,5.4,5.9,8.7
			C1262,981.2,1261.9,985.8,1262.6,992.7z"/>
		<path class="st0" d="M551.9,585.8c1.9-2,3.9-4,5.8-6.1c4.1-4.6,8.3-4.3,12.7-0.5c1.9,1.5,3.6,3.2,5.3,4.9s3.9,4.1,3.6,4.6
			c-1.7,2.4-5.2,6.8-6.3,6.2C566.1,592,555.9,597.8,551.9,585.8z"/>
		<path class="st0" d="M878.9,644.2c1.4,0.7,2.7,1.5,3.9,2.7c3.2,3.6,6.1,7.4,8.7,11.5c1.1,1.9,1.3,4.2,0.4,6.3
			c-1.7,1.4-4.2,1.9-6.4,1.1c-5.8-3.3-11.2-7.4-16.1-12.1C866,649.9,871.1,644.3,878.9,644.2z"/>
		<path class="st0" d="M637.5,606.9c4.4,0,9-0.9,13.1,0.2c3.4,1,8.1,3.9,8.7,6.8c0.8,3.5-2.1,7.8-3.4,11.8c-2.7-1.1-5.8-1.6-7.9-3.3
			c-4.4-3.9-8.3-8.4-12.3-12.7L637.5,606.9z"/>
		<path class="st0" d="M543,533.4l-15.6-5.8c3-2.6,5.5-6.2,7.2-5.9c6.5,1.3,6.8-1.8,6.5-6.7c-0.3-4.9,3.8-6.6,7.1-6.1
			c1.7,0.3,3.8,4.6,4.1,7.2c-0.2,2.7-1.2,5.2-2.8,7.4C547.8,526.6,545.6,529.5,543,533.4z"/>
		<path class="st0" d="M505.3,964.7c1.5,2,4.1,4.1,4.2,6.3c0.7,10,0.8,20.1,0.8,30.1c0,1.2-1.8,2.4-2.7,3.6c-1.1-0.9-3-1.7-3-2.7
			c-0.8-12.2-1.3-24.5-1.9-36.7L505.3,964.7z"/>
		<path class="st0" d="M1597.9,802.9c-12.7-11.4-12.3-21.8,0.8-29.4C1599.5,783.3,1600.7,792.8,1597.9,802.9z"/>
		<path class="st0" d="M1608,935c1.4,4.3,3.9,8.2,3,9.6c-5.6,7.9-11.4,15.8-19.7,21.2l-2.4-2L1608,935z"/>
		<path class="st0" d="M732.2,589.3c-2.9-5.3-6.1-10.7-8.8-16.5c-0.8-1.7,0.4-4.2,0.6-6.3c1.9,0.1,3.7,0.5,5.5,1.2
			C739.4,574.4,739.8,580,732.2,589.3z"/>
		<path class="st0" d="M802.4,765.6c-6.5-9.4-6.3-17.2-2.4-24.8c0.8-1.5,2.9-2.4,4.4-3.5c1.1,1.8,3.4,3.9,3.1,5.5
			C806.5,749.9,804.5,756.9,802.4,765.6z"/>
		<path class="st0" d="M524.2,534.5c11.2-0.4,17.8,5.2,24.2,11.2c0.8,0.8,0.8,2.9,0.4,4.2c-0.2,0.5-2.4,1.3-3.1,0.8
			C538.3,546.6,530.1,543.2,524.2,534.5z"/>
		<path class="st0" d="M1508.8,840c2.7,3.9,4.9,5.8,5.2,8c0.5,5.1-5.8,11.1-10.1,9.5c-2.4-0.8-5.8-5.6-5.3-6.5
			C1500.9,847.4,1504.5,844.4,1508.8,840z"/>
		<path class="st0" d="M669.4,663.4c-5.7-8.4-6.8-15.6-1.7-23.7C675,649.9,675.3,654,669.4,663.4z"/>
		<path class="st0" d="M581.9,665l-7.8,8.7c-2-3.1-3.6-6.4-4.9-9.8c-0.9-2.9,0.8-6,3.6-6.8c0.8-0.2,1.6-0.3,2.4-0.2
			C577.4,657,579,661.2,581.9,665z"/>
		<path class="st0" d="M607,689.3c15.4-6.1,16.9-5.2,15.7,8L607,689.3z"/>
		<path class="st0" d="M443.1,481.5l8.2,10.2c-2.2,1.4-4.8,4.5-6.5,4c-3.1-1-5.7-3.1-7.4-5.8C436.9,488.8,440.2,485.6,443.1,481.5z"
			/>
		<path class="st0" d="M619.8,600.3l-6.9-4.7c1.4-1.4,2.8-3,4.3-4.5c0.7-0.5,1.4-0.8,2.3-0.8c3.4-0.6,6.9-1.1,10.4-1.5
			c0.2,0,1.1,2.7,0.7,3C627.1,594.8,623.5,597.5,619.8,600.3z"/>
		<path class="st0" d="M920.9,780.5c-2.9-4.6-5.8-7.2-6-10c-0.1-2,3.3-4.2,5.2-6.3c1.8,2.7,3.3,5.7,4.6,8.8
			C925,774.3,923,776.4,920.9,780.5z"/>
		<path class="st0" d="M677.1,457c-5.2,3.4-8.7,6.1-12.7,8.2c-0.7,0.4-2.7-2-4.2-3.1c3-3.3,6.1-6.5,9.6-9.5
			C670.4,452,673.3,454.6,677.1,457z"/>
		<path class="st0" d="M357.2,234.5c6.5-0.3,11.8,3.2,11.7,7.1c0,1.2-2.2,3.3-2.3,3.3c-4.1-2.6-8.1-5.3-12.1-8L357.2,234.5z"/>
		<path class="st0" d="M136.8,263.1l-5.5,7.4c-2.6-2-4.9-4.4-6.9-7.1c-0.4-0.8,3.2-5.5,4.7-5.3C131.4,258.2,133.7,260.9,136.8,263.1
			z"/>
		<path class="st0" d="M362.7,951.8c-3,3.6-4.5,9.5-10,6.4c-1.5-1.7-2.1-4.2-1.4-6.4C354.6,946.1,358.7,950.4,362.7,951.8z"/>
		<path class="st0" d="M691.2,643.8c-4.6,2.4-7,4.6-9.8,5.2c-1.1,0.2-3-2.7-4.6-4.1c2-2,3.7-4.9,6.1-5.7
			C684.7,638.7,687.2,641.4,691.2,643.8z"/>
		<path class="st0" d="M1309.8,768.1c1.7,0.4,3.3,1,4.9,1.7c0.6,0.4,0.5,2.1,0.7,3.3l-13.7-0.4c0.5-1.3,0.6-3.3,1.4-3.6
			C1305.4,768.4,1307.6,768.1,1309.8,768.1z"/>
		<path class="st0" d="M965.7,811.6l-5.5,6.6c-1.2-1.8-3.9-4.1-3.4-5.4c1.4-3,3.1-5.8,5.2-8.3L965.7,811.6z"/>
		<path class="st0" d="M895.5,940.3c0.5,1.9,0.8,3.9,0.7,5.8c-0.8,2.5-2,4.9-3.6,6.9c-0.3,0.4-4-0.8-4-1.3c-0.2-2.7,0.1-5.4,0.8-8
			c0.7-1.9,1.6-3.7,2.7-5.5L895.5,940.3z"/>
		<path class="st0" d="M794,712.6c-3.5,2.8-7.2,5.4-11.1,7.8c-1,0.5-3.3-1.1-4.9-1.7c1.1-1.3,1.8-3.3,3.2-3.9
			c3.6-1.7,7.4-2.8,11.1-4.1L794,712.6z"/>
		<path class="st0" d="M732.3,651.4c-1.9-2.2-4.2-4-3.9-4.6c1.1-2.3,2.7-4.2,4.9-5.5c0.9-0.5,3.3,2.3,5.1,3.6L732.3,651.4z"/>
		<path class="st0" d="M708.9,713.1l14.7,2.4C718.2,718.5,712.9,719.2,708.9,713.1z"/>
		<path class="st0" d="M661.8,626.9c1.6,2.3,3.3,3.9,3,4.4c-1.4,2-2.9,3.9-4.6,5.6c-0.8-0.7-2.4-1.7-2.3-2
			C658.8,632.5,660.1,630.2,661.8,626.9z"/>
		<path class="st0" d="M809.4,721.3c-0.5,3.2-1.1,6.4-1.6,9.5l-3.5-0.5c0.2-3.3,0.5-6.6,0.7-9.8L809.4,721.3z"/>
		<path class="st0" d="M593.4,483c-1.4,0.7-3,1.1-4.6,1.2c-1.7-0.5-3.3-1.4-4.7-2.4c0.8-1.2,1.6-3.3,2.4-3.4
			c1.7,0.2,3.4,0.8,4.9,1.7L593.4,483z"/>
		<path class="st0" d="M1138.6,670.2c-1.5,1.4-3.3,2.7-5.1,3.8c-0.6,0.2-2-1.4-3-2.1c1.3-1.3,2.7-2.4,4.2-3.4
			C1135.3,668.2,1136.6,669.3,1138.6,670.2z"/>
		<path class="st0" d="M576.1,636.2c0.5,2.3,0.7,4.6,0.8,6.8c0,0.8-1.4,1.4-2.2,2.1c-0.8-1.4-2.3-2.8-2.4-4.3
			C572.3,639.8,574,638.6,576.1,636.2z"/>
		<path class="st0" d="M994.6,938.5c-1.1,1.3-1.6,2.7-2.4,2.9c-2.1,0.5-4.2,0.8-6.4,1c-0.2-0.3-0.3-0.6-0.5-1
			c1.7-1.4,3.5-2.5,5.4-3.5C991.6,937.5,993,938.2,994.6,938.5z"/>
		<path class="st0" d="M362.1,943.3h-14v-0.6h14V943.3z"/>
		<path class="st0" d="M360.9,936h-13.4v-0.6l14.2-0.8L360.9,936z"/>
	</g>
</g>
<g id="tag">
	<circle class="st1" cx="704.7" cy="375.2" r="13.3"/>
</g>
<g id="trio-3">
	<circle class="st2" cx="780.1" cy="392.7" r="13.3"/>
</g>
<g id="trio-2_1_">
	<circle class="st2" cx="765" cy="392.8" r="13.3"/>
</g>
<g id="trio-1">
	<circle class="st2" cx="749.8" cy="392.7" r="13.3"/>
</g>
<g id="tag_1_">
	<circle class="st1" cx="780.1" cy="463.9" r="13.3"/>
</g>
<g id="tag_2_">
	<circle class="st1" cx="970.7" cy="546.4" r="13.3"/>
</g>
<g id="tag_3_">
	<circle class="st1" cx="986.6" cy="815.8" r="13.3"/>
</g>
<g id="tag_4_">
	<circle class="st1" cx="539.9" cy="514.3" r="13.3"/>
</g>
<g id="tag_5_">
	<circle class="st1" cx="728.3" cy="490.9" r="13.3"/>
</g>
<g id="tag_6_">
	<circle class="st1" cx="746.6" cy="685.7" r="13.3"/>
</g>
<g id="tag_7_">
	<circle class="st1" cx="1090.4" cy="514.3" r="13.3"/>
</g>
<g id="tag_8_">
	<circle class="st1" cx="1075.2" cy="514.3" r="13.3"/>
</g>
</svg>
