<svg id="mainToggle" xmlns="http://www.w3.org/2000/svg" viewBox="0 0 1920 1080"><defs><style>.cls-1{fill:#fff;}.cls-2{fill:#ebf190;}</style></defs><path id="toggleBg" class="cls-1" d="M814.37,30.72h291.26a20.18,20.18,0,0,1,20.37,20v30a20.19,20.19,0,0,1-20.37,20H814.37a20.19,20.19,0,0,1-20.37-20v-30A20.18,20.18,0,0,1,814.37,30.72Z"/><rect id="mapSelected" class="cls-2" x="807.87" y="39.72" width="119" height="52" rx="13"/><path id="mapText" d="M847.44,72.72l-4.79-6.36h-1.29v6.36h-2.64V58.17h2.64v6H842l5.17-6h3.24l-5.74,6.63,6,7.92Zm8.06.22a4.66,4.66,0,0,1-1.87-.37,3,3,0,0,1-1.31-1.11,3.22,3.22,0,0,1-.47-1.8,3,3,0,0,1,.34-1.53,2.55,2.55,0,0,1,.93-1,4.53,4.53,0,0,1,1.33-.54,10.75,10.75,0,0,1,1.54-.28l1.55-.18a2.46,2.46,0,0,0,.87-.25.63.63,0,0,0,.28-.55v0a1.62,1.62,0,0,0-.48-1.25,2,2,0,0,0-1.37-.44,2.49,2.49,0,0,0-1.5.41,2.1,2.1,0,0,0-.74,1l-2.4-.34a3.82,3.82,0,0,1,.94-1.67,4.11,4.11,0,0,1,1.6-1,6,6,0,0,1,2.08-.34,6.94,6.94,0,0,1,1.57.18,4.45,4.45,0,0,1,1.43.61,3.1,3.1,0,0,1,1,1.14,3.83,3.83,0,0,1,.4,1.82v7.3h-2.48v-1.5h-.08a3.26,3.26,0,0,1-.66.85,3.14,3.14,0,0,1-1.06.63A4.18,4.18,0,0,1,855.5,72.94Zm.66-1.89a2.75,2.75,0,0,0,1.35-.31,2.22,2.22,0,0,0,.87-.82,2.08,2.08,0,0,0,.31-1.12V67.52a1.23,1.23,0,0,1-.41.18,4.66,4.66,0,0,1-.64.15l-.7.12-.61.08a4.44,4.44,0,0,0-1,.26,1.62,1.62,0,0,0-.71.49,1.2,1.2,0,0,0-.27.81,1.25,1.25,0,0,0,.52,1.08A2.28,2.28,0,0,0,856.16,71.05Zm7.68,5.76v-15h2.53v1.8h.15a4.53,4.53,0,0,1,.56-.84,3,3,0,0,1,1-.78,3.34,3.34,0,0,1,1.58-.32,4.17,4.17,0,0,1,2.28.64,4.42,4.42,0,0,1,1.62,1.9,7,7,0,0,1,.6,3.07,7.21,7.21,0,0,1-.59,3,4.5,4.5,0,0,1-1.6,1.92,4.16,4.16,0,0,1-2.31.66,3.53,3.53,0,0,1-1.55-.31,3.26,3.26,0,0,1-1-.76,5.68,5.68,0,0,1-.57-.84h-.11v5.81Zm2.52-9.55a5.26,5.26,0,0,0,.3,1.86,2.86,2.86,0,0,0,.87,1.24,2.27,2.27,0,0,0,1.4.44,2.18,2.18,0,0,0,1.42-.46,2.67,2.67,0,0,0,.87-1.25,5.73,5.73,0,0,0,0-3.63,2.78,2.78,0,0,0-.87-1.24,2.47,2.47,0,0,0-2.83,0,2.63,2.63,0,0,0-.88,1.21A5.38,5.38,0,0,0,866.36,67.26Zm8.78-3.34V61.81h9.55v2.11h-3.53v8.8h-2.49v-8.8Zm14.28,9a4.69,4.69,0,0,1-1.87-.37,3.05,3.05,0,0,1-1.3-1.11,3.22,3.22,0,0,1-.48-1.8,3.15,3.15,0,0,1,.34-1.53,2.7,2.7,0,0,1,.93-1,4.76,4.76,0,0,1,1.33-.54,11,11,0,0,1,1.54-.28l1.56-.18a2.4,2.4,0,0,0,.86-.25.61.61,0,0,0,.28-.55v0a1.65,1.65,0,0,0-.47-1.25,2,2,0,0,0-1.38-.44,2.48,2.48,0,0,0-1.49.41,2,2,0,0,0-.74,1l-2.4-.34a3.9,3.9,0,0,1,.93-1.67,4.18,4.18,0,0,1,1.6-1,6.07,6.07,0,0,1,2.09-.34,6.94,6.94,0,0,1,1.57.18,4.45,4.45,0,0,1,1.43.61,3.07,3.07,0,0,1,1,1.14,3.71,3.71,0,0,1,.4,1.82v7.3h-2.47v-1.5h-.08a3.1,3.1,0,0,1-1.72,1.48A4.19,4.19,0,0,1,889.42,72.94Zm.67-1.89a2.71,2.71,0,0,0,1.34-.31,2.32,2.32,0,0,0,.88-.82,2.17,2.17,0,0,0,.31-1.12V67.52a1.23,1.23,0,0,1-.41.18,5,5,0,0,1-.64.15l-.71.12-.6.08a4.31,4.31,0,0,0-1,.26,1.71,1.71,0,0,0-.72.49,1.25,1.25,0,0,0-.26.81,1.23,1.23,0,0,0,.52,1.08A2.26,2.26,0,0,0,890.09,71.05Z"/><path id="memSelected" class="cls-2" d="M961.46,40h132.08c10.19,0,18.46,5.82,18.46,13V79c0,7.18-8.27,13-18.46,13H961.46C951.27,92,943,86.18,943,79V53C943,45.82,951.27,40,961.46,40Z"/><path id="memoriesText" d="M955,72.44V57.9h5.57a6.13,6.13,0,0,1,2.62.49,3.6,3.6,0,0,1,1.57,1.34,3.64,3.64,0,0,1,.52,1.94,3.13,3.13,0,0,1-.34,1.52,2.85,2.85,0,0,1-.91,1,3.92,3.92,0,0,1-1.29.56v.15a3.07,3.07,0,0,1,1.49.47,3.48,3.48,0,0,1,1.17,1.21,3.72,3.72,0,0,1,.45,1.89,3.79,3.79,0,0,1-.55,2,3.63,3.63,0,0,1-1.64,1.41,6.46,6.46,0,0,1-2.77.52Zm2.63-2.2h2.84a3.1,3.1,0,0,0,2.06-.55,1.78,1.78,0,0,0,.64-1.42,2.09,2.09,0,0,0-.32-1.16,2.19,2.19,0,0,0-.9-.83,3.12,3.12,0,0,0-1.41-.3h-2.91Zm0-6.16h2.61a2.88,2.88,0,0,0,1.23-.25,2.15,2.15,0,0,0,.86-.71,2,2,0,0,0,.32-1.11,1.78,1.78,0,0,0-.6-1.39,2.47,2.47,0,0,0-1.75-.55h-2.67Zm15.16,8.57A5.26,5.26,0,0,1,970,72a4.75,4.75,0,0,1-1.82-2,7.14,7.14,0,0,1,0-5.91,4.78,4.78,0,0,1,1.82-2,5.83,5.83,0,0,1,5.54,0,4.76,4.76,0,0,1,1.81,2,7,7,0,0,1,0,5.91,4.73,4.73,0,0,1-1.81,2A5.28,5.28,0,0,1,972.77,72.65Zm0-2.06a2.2,2.2,0,0,0,1.45-.47,2.85,2.85,0,0,0,.87-1.29,5.79,5.79,0,0,0,0-3.62,2.88,2.88,0,0,0-.87-1.3,2.2,2.2,0,0,0-1.45-.48,2.24,2.24,0,0,0-1.47.48,3,3,0,0,0-.88,1.3,6,6,0,0,0,0,3.62,2.94,2.94,0,0,0,.88,1.29A2.24,2.24,0,0,0,972.78,70.59Zm12.16,2.06a5.36,5.36,0,0,1-2.81-.71,4.86,4.86,0,0,1-1.8-2,6.68,6.68,0,0,1-.62-2.93,6.35,6.35,0,0,1,.64-2.93,4.7,4.7,0,0,1,1.8-2,5.2,5.2,0,0,1,2.77-.72,5.31,5.31,0,0,1,2.35.49,3.94,3.94,0,0,1,1.64,1.37,4.06,4.06,0,0,1,.7,2.06h-2.46a2.29,2.29,0,0,0-.71-1.31,2,2,0,0,0-1.48-.54,2.36,2.36,0,0,0-1.39.43,2.83,2.83,0,0,0-.93,1.21,4.85,4.85,0,0,0-.32,1.89,5,5,0,0,0,.32,1.91,2.86,2.86,0,0,0,.92,1.23,2.51,2.51,0,0,0,2.41.22,2,2,0,0,0,.76-.64,2.21,2.21,0,0,0,.42-1h2.46a4.27,4.27,0,0,1-.68,2.05,4,4,0,0,1-1.61,1.4A5.35,5.35,0,0,1,984.94,72.65Zm6.78-.21V61.53h9.21V72.44h-2.48v-8.8h-4.27v8.8Zm16.62.21a5.26,5.26,0,0,1-2.77-.7,4.69,4.69,0,0,1-1.82-2,7.14,7.14,0,0,1,0-5.91,4.71,4.71,0,0,1,1.82-2,5.83,5.83,0,0,1,5.54,0,4.76,4.76,0,0,1,1.81,2,7.14,7.14,0,0,1,0,5.91,4.73,4.73,0,0,1-1.81,2A5.3,5.3,0,0,1,1008.34,72.65Zm0-2.06a2.2,2.2,0,0,0,1.45-.47,2.75,2.75,0,0,0,.86-1.29,5.61,5.61,0,0,0,0-3.62,2.78,2.78,0,0,0-.86-1.3,2.2,2.2,0,0,0-1.45-.48,2.29,2.29,0,0,0-1.48.48,2.88,2.88,0,0,0-.87,1.3,5.79,5.79,0,0,0,0,3.62,2.85,2.85,0,0,0,.87,1.29A2.28,2.28,0,0,0,1008.35,70.59ZM1022,69.45l3.24-7.92h2.08l-4.41,10.91h-1.8l-4.31-10.91h2Zm-3.8-7.92V72.44h-2.48V61.53Zm7.71,10.91V61.53h2.46V72.44Zm7.53-3.48,4.37-7.43h2.64V72.44H1038V65l-4.35,7.44H1031V61.53h2.48Zm17.14-3V68h-5.81V65.92Zm-5-4.39V72.44h-2.48V61.53Zm6.69,0V72.44h-2.47V61.53ZM1058,72.66a4.45,4.45,0,0,1-1.86-.37,3,3,0,0,1-1.31-1.11,3.61,3.61,0,0,1-.14-3.33,2.62,2.62,0,0,1,.94-1,4.59,4.59,0,0,1,1.32-.55,11,11,0,0,1,1.54-.28l1.56-.17a2.43,2.43,0,0,0,.87-.26.61.61,0,0,0,.27-.55v0a1.63,1.63,0,0,0-.47-1.24,1.93,1.93,0,0,0-1.37-.44,2.43,2.43,0,0,0-1.5.41,2,2,0,0,0-.74,1l-2.4-.34a3.78,3.78,0,0,1,.94-1.66,4,4,0,0,1,1.59-1,6.07,6.07,0,0,1,2.09-.34,6.94,6.94,0,0,1,1.57.18,4.47,4.47,0,0,1,1.43.62,3,3,0,0,1,1,1.14,3.79,3.79,0,0,1,.39,1.81v7.3h-2.47v-1.5h-.08a3.1,3.1,0,0,1-.66.85,3,3,0,0,1-1.06.64A4.44,4.44,0,0,1,1058,72.66Zm.67-1.89a2.79,2.79,0,0,0,1.34-.3,2.35,2.35,0,0,0,.88-.83,2.07,2.07,0,0,0,.31-1.11V67.24a1.21,1.21,0,0,1-.41.19l-.64.15-.7.11-.61.08a5,5,0,0,0-1,.26,1.63,1.63,0,0,0-.71.5,1.2,1.2,0,0,0-.27.81,1.24,1.24,0,0,0,.52,1.07A2.28,2.28,0,0,0,1058.69,70.77Zm15.17-4.85V68h-5.81V65.92Zm-5-4.39V72.44h-2.48V61.53Zm6.7,0V72.44h-2.48V61.53Zm5.08,7.43,4.36-7.43h2.65V72.44h-2.49V65l-4.35,7.44h-2.65V61.53h2.48Zm16.09,3.48V63.62h-2.32A2.06,2.06,0,0,0,1093,64a1.3,1.3,0,0,0-.47,1,1.28,1.28,0,0,0,.45,1,1.89,1.89,0,0,0,1.3.4h3.22v1.88h-3.22a5.59,5.59,0,0,1-2.26-.42,3.28,3.28,0,0,1-1.46-1.16,3.06,3.06,0,0,1-.51-1.76,3.2,3.2,0,0,1,.52-1.83,3.41,3.41,0,0,1,1.49-1.21,5.81,5.81,0,0,1,2.31-.43h4.73V72.44Zm-7,0,3-5.6h2.53l-3,5.6Z"/></svg>